<svg xmlns="http://www.w3.org/2000/svg" viewBox="17404.891 514 50.318 113">
  <defs>
    <style>
      .cls-1 {
        opacity: 0.25;
      }
    </style>
  </defs>
  <g id="noun_958487_cc" class="cls-1" transform="translate(17404.891 514)">
    <g id="Group_4942" data-name="Group 4942" transform="translate(0 0)">
      <path id="Path_3852" data-name="Path 3852" d="M50.721,94.98c-.1.044-.168-.046-.254-.075-.059-.02-.084,0-.127.034a.319.319,0,0,1-.206.013,1.028,1.028,0,0,0-.176-.015c-.083,0-.143.049-.223.055a.646.646,0,0,1-.177-.015.966.966,0,0,0-.181,0,.736.736,0,0,1-.182,0c-.069-.02-.112-.1-.181-.123a.976.976,0,0,0-.269-.036.715.715,0,0,1-.1-.021.5.5,0,0,1-.1-.019c-.036-.019-.036-.054-.039-.089a.179.179,0,0,0-.026-.08c-.043-.083-.1-.062-.173-.092s-.136-.116-.213-.154-.1-.006-.17,0-.109-.053-.137-.109a.716.716,0,0,1-.08-.2l-.019-.035c0-.036-.051-.053-.074-.073a.181.181,0,0,0-.075-.055,1.653,1.653,0,0,0-.193-.04.955.955,0,0,0-.167-.031.565.565,0,0,1-.178,0c-.04-.018-.036-.055-.058-.089a.416.416,0,0,0-.055-.069c-.044-.04-.123-.019-.182-.02-.079,0-.1-.06-.162-.092a.488.488,0,0,0-.2-.035c-.054,0-.087-.045-.113-.09a.26.26,0,0,0-.085-.112c-.034-.019-.077-.039-.112-.054a1.205,1.205,0,0,0-.182-.044.318.318,0,0,1-.2-.137c-.035-.06-.06-.043-.122-.053s-.112-.094-.057-.144c.016-.015.064-.014.073-.039s-.03-.043-.048-.051c-.062-.03-.157-.044-.206-.1h-.018c-.068-.009-.1-.064-.164-.074-.04-.006-.088.014-.127,0s-.065-.1-.1-.134c-.05-.054-.073-.034-.137-.044s-.07-.068-.109-.107-.1-.04-.164-.039c-.044,0-.09.011-.127-.016a.845.845,0,0,1-.069-.079.391.391,0,0,1-.067-.1.8.8,0,0,1-.065-.329c0-.118-.089-.186-.132-.291a.344.344,0,0,1-.033-.127c0-.051.035-.093.038-.144.006-.111-.161-.073-.237-.073h-.223a.251.251,0,0,1-.176-.035.574.574,0,0,1-.113-.183.159.159,0,0,1-.033-.09c0-.03,0-.062,0-.092s0-.053,0-.077c.005-.043.035-.068.055-.105a.209.209,0,0,1,.182-.128c.083.008.09.094.143.147a.19.19,0,0,0,.181.07c.034-.083-.094-.126-.128-.181a.4.4,0,0,1-.039-.158,1.138,1.138,0,0,0-.016-.114c-.014-.046-.053-.049-.08-.075a.649.649,0,0,1-.1-.159c-.077-.147-.241-.225-.328-.369-.03-.05-.068-.088-.1-.141-.019-.035-.041-.08-.083-.09s-.051,0-.04.034h-.09a.383.383,0,0,0,.031.144c.015.054.02.11.036.164.01.036.029.073.038.108a1.326,1.326,0,0,1,.024.175,1.077,1.077,0,0,0,.039.187.519.519,0,0,1,.013.117c.005.049.014.108.023.156a.945.945,0,0,1,.033.131.642.642,0,0,0,.009.121c.01.041.016.087.023.129.01.068-.005.137.008.2a.741.741,0,0,1,.014.118c0,.053.015.1.019.154s-.006.127,0,.191c.009.082.01.162.015.244s.02.147.019.223c0,.109.02.213.019.323,0,.136.011.267.018.4a1.372,1.372,0,0,0,.024.176c.011.067.005.137.018.2.049.246.068.5.119.747.04.19.05.393.1.58.021.084.029.173.049.259a1.332,1.332,0,0,1,.041.305.594.594,0,0,0,.018.149c.013.053.009.108.023.159a1.114,1.114,0,0,1,.031.225c0,.074.033.144.038.22s.013.173.018.261c0,.034.016.06.02.094s0,.06,0,.092c.011.05.043.094.051.144l.018.018a.885.885,0,0,0,.087.019c.024,0,.048,0,.072,0a.2.2,0,0,0,.17-.054.328.328,0,0,1,.124-.09,1.26,1.26,0,0,1,.151-.038c.039-.008.079,0,.121-.013.024-.005.049-.014.073-.019a.493.493,0,0,1,.182,0,.588.588,0,0,0,.148.033h.157a.432.432,0,0,1,.08,0c.028.005.043.025.068.038a.308.308,0,0,0,.182.055c.1-.013.17-.087.267-.092.059,0,.119,0,.178,0a1.111,1.111,0,0,0,.172-.018,1.106,1.106,0,0,1,.183-.019h.659a.622.622,0,0,1,.181,0,1.7,1.7,0,0,0,.163.065.608.608,0,0,0,.142.023.673.673,0,0,1,.309.021.35.35,0,0,1,.109.138c.033.058.054.06.118.077a.642.642,0,0,0,.154.019.33.33,0,0,0,.146-.041c.051-.02.1,0,.149-.011a.354.354,0,0,0,.133-.064.426.426,0,0,1,.32-.1h.018c.054,0,.109,0,.163,0s.121.02.186.02.082-.034.127-.072c.026-.021.035-.055.059-.075a.25.25,0,0,1,.1-.03.447.447,0,0,0,.132-.035c.049-.026.153-.058.079-.116-.034-.025-.113-.068-.092-.122s.143-.085.193-.1a.27.27,0,0,1,.078-.01c.026,0,.048-.016.073-.02a.6.6,0,0,1,.151,0c.064.01.038.058.049.11s.025.1.094.107a.186.186,0,0,0,.119-.016c.04-.024.06-.075.092-.11a.781.781,0,0,0,.063-.082c.038-.058.039-.08.109-.1a.72.72,0,0,0,.146-.043c.041-.021.1-.045.118-.09s.014-.1.031-.151a.611.611,0,0,1,.105-.158.362.362,0,0,0,.038-.08c.013-.026.058-.051.062-.079.011-.06-.127-.075-.171-.069S50.77,94.958,50.721,94.98Z" transform="translate(-26.681 16.554)"/>
      <path id="Path_3853" data-name="Path 3853" d="M51.676,93.682a.16.16,0,0,1-.063.056.156.156,0,0,1-.051.018c-.025,0-.033-.051-.049-.065a.13.13,0,0,0-.055-.021c-.028,0-.048-.019-.07,0s-.034.045-.06.063a.106.106,0,0,1-.074.02.245.245,0,0,0-.08,0c.028.024.078.016.109.039a.234.234,0,0,1,.064.068.4.4,0,0,1,.031.2l.02-.02a.2.2,0,0,1,.1-.113.545.545,0,0,1,.064,0,.106.106,0,0,0,.073-.041.5.5,0,0,0,.079-.146.3.3,0,0,0,.018-.064C51.733,93.628,51.69,93.661,51.676,93.682Z" transform="translate(-24.538 17.657)"/>
      <path id="Path_3854" data-name="Path 3854" d="M51.174,93.88c-.023-.028-.026-.092-.072-.06-.019.014-.028.033-.055.018s-.036-.035-.059-.048-.072-.06-.112-.053-.051.1-.105.043c-.034-.033-.074-.079-.124-.041a.159.159,0,0,0-.063.142.2.2,0,0,0,.021.054.55.55,0,0,0,.031.06c.038.054.046-.016.083-.029a.19.19,0,0,1,.065,0c.031.006.03.029.039.054.019.055.014.176.11.156.051-.011.058-.072.073-.113s.035-.043.075-.044l.051.01c.026-.029.059-.019.093-.02s.025,0,.034-.023a.109.109,0,0,0,.009-.049c-.005-.021-.021-.028-.043-.031S51.195,93.9,51.174,93.88Z" transform="translate(-24.689 17.675)"/>
      <path id="Path_3855" data-name="Path 3855" d="M50.6,94.006c0-.041.02-.183-.02-.193-.034.019-.024.07-.04.1a.28.28,0,0,1-.031.036c-.021.02-.02.019-.041,0a1.885,1.885,0,0,0-.143-.175c-.055-.046-.147.044-.1.1a.277.277,0,0,1,.048.112c0,.018.009.079-.024.07-.016,0-.028-.039-.039-.051a.111.111,0,0,0-.041-.03c-.053-.024-.088.006-.124.044a.2.2,0,0,0-.068.1c-.01.049,0,.067.05.085s.173-.023.195.049-.075.149-.07.229c.029.009.045-.014.063-.031a.323.323,0,0,0,.067-.093.384.384,0,0,1,.062-.075.127.127,0,0,1,.08-.038c.013,0,.026,0,.04,0a.221.221,0,0,0,.041-.009c.02,0,.041,0,.062-.005a.918.918,0,0,0,.134-.06v-.031c.015-.01.034-.036.011-.05s-.031,0-.043,0C50.621,94.087,50.6,94.04,50.6,94.006Z" transform="translate(-24.847 17.684)"/>
      <path id="Path_3856" data-name="Path 3856" d="M80.1,19.881a1.958,1.958,0,0,1-.085-.59V18.7a1.708,1.708,0,0,1,.053-.413,1.367,1.367,0,0,1,.05-.226.733.733,0,0,1,.1-.139c.152-.213-.053-.546-.206-.692a1.136,1.136,0,0,1-.382-.593c-.006-.063.006-.128,0-.192a.814.814,0,0,0-.038-.137c-.019-.089.015-.187-.006-.277a.871.871,0,0,0-.093-.3.424.424,0,0,0-.315-.147,2.167,2.167,0,0,1-.383,0c-.124-.029-.058-.242-.171-.265-.08-.016-.217.144-.294.163s-.1,0-.158.058-.1.11-.152.163-.089.142-.173.127c-.044-.008-.088-.062-.123-.088-.084-.06-.252-.193-.362-.1-.049.04-.014.132-.024.191a.989.989,0,0,1-.028.177c-.028.044-.085.03-.107.082a.414.414,0,0,0,0,.131,1.264,1.264,0,0,0,.114.34.564.564,0,0,1,.06.275v.035c.018.149.138.237.01.374-.053.056-.1.072-.074.153s.107.114.129.192a1.14,1.14,0,0,1-.029.39.648.648,0,0,1-.124.364c-.1.092-.232.1-.261.259a2.565,2.565,0,0,0,0,.38c0,.1-.01.116-.1.167-.053.031-.11.045-.141.109-.041.087-.034.222-.1.3-.1.117-.223.011-.331-.013a.775.775,0,0,0-.264-.009c-.112.02-.084.041-.117.132a1.077,1.077,0,0,1-.126.183.672.672,0,0,1-.083.138c-.053.055-.092.062-.123.137a1.608,1.608,0,0,1-.069.177c-.1.187-.418-.039-.591.036-.069.03-.087.127-.146.172s-.123.035-.176.072a.832.832,0,0,0-.138.17.264.264,0,0,0-.068.172v.035c-.045.034-.036.1-.065.148-.041.064-.142.064-.173.127a1.091,1.091,0,0,0,0,.373.9.9,0,0,1-.206.706.4.4,0,0,1-.377.1c-.119-.021-.187-.136-.241-.236a1.149,1.149,0,0,0-.249-.355c-.108-.09-.216-.068-.349-.069a.361.361,0,0,0-.279.1c-.049.063-.041.143-.074.212-.048.1-.084.079-.168.136-.1.068-.11.178-.169.271s-.163.25-.306.218-.195-.185-.285-.274a.35.35,0,0,0-.275-.109,1.186,1.186,0,0,0-.453.079.853.853,0,0,1-.31.025l-.035-.035c-.109-.059-.152-.157-.284-.132a.5.5,0,0,0-.277.175c-.127.119-.375.235-.541.133-.063-.039-.107-.1-.172-.133-.026-.015-.051-.026-.078-.043a.361.361,0,0,0-.279-.072c-.074.016-.175.107-.25.094-.055-.009-.07-.067-.119-.087a.366.366,0,0,0-.138-.005,2.54,2.54,0,0,1-.559-.122,5.343,5.343,0,0,1-.585-.11c-.11-.036-.168-.11-.286-.114a1.138,1.138,0,0,0-.291.039,2.176,2.176,0,0,1-.48.03,2.261,2.261,0,0,0-.618.044,1.607,1.607,0,0,1-.455.129c-.113,0-.2.029-.2-.1,0-.082,0-.163,0-.245a.616.616,0,0,1,.006-.2c.03-.084.114-.118.153-.188.059-.107-.029-.192.1-.271.094-.058.151-.026.114-.164-.019-.072-.059-.131.005-.2.046-.05.124-.067.177-.118.141-.139.062-.367.242-.478.059-.038.132-.048.176-.108a.253.253,0,0,0,.011-.245c-.031-.068-.067-.072-.019-.138.034-.049.112-.056.148-.1a.239.239,0,0,0,.03-.172.236.236,0,0,1,.069-.21.22.22,0,0,0,.07-.207c-.005-.121-.121-.129-.082-.25.023-.069.044-.139.069-.208a2.017,2.017,0,0,1,.105-.2.49.49,0,0,0,.044-.244l.1-.1c.154,0,.257-.152.382-.217a.7.7,0,0,0,.3-.32,1.146,1.146,0,0,0,.016-.372.735.735,0,0,1,.07-.419c.046-.058.159-.05.211-.1s.028-.1.03-.158a.288.288,0,0,1,.05-.176c.07-.075.127-.009.208-.04s.048-.142.06-.217a.245.245,0,0,1,.1-.193c.124-.069.244-.018.176-.206a1.432,1.432,0,0,0-.105-.216.954.954,0,0,1-.05-.175.908.908,0,0,0-.227-.336,1.88,1.88,0,0,0-.4-.284,2.814,2.814,0,0,0-.412-.22c-.242-.09-.5-.079-.691-.267a.6.6,0,0,0-.347-.173.564.564,0,0,0-.166.008c-.063.016-.1.07-.154.092-.119.045-.127-.07-.2-.127a.623.623,0,0,0-.183-.077c-.1-.029-.2-.072-.3-.1-.08-.019-.123,0-.191-.058a.685.685,0,0,0-.255-.113c-.062-.024-.129-.058-.188-.087s-.121-.112-.2-.1l-.035-.035c-.089.005-.152-.117-.208-.173a.355.355,0,0,0-.225-.141,1.353,1.353,0,0,1-.477-.04c-.123-.058-.2-.168-.331-.229a1.231,1.231,0,0,1-.222-.146,1.965,1.965,0,0,1-.27-.206c-.069-.075-.088-.137-.18-.183a.974.974,0,0,0-.451-.129c-.087,0-.149-.038-.236-.036a.576.576,0,0,1-.167.005c-.077-.028-.038-.055-.082-.11a.669.669,0,0,0-.222-.116c-.038-.016-.083-.01-.119-.026s-.069-.053-.109-.072a1.148,1.148,0,0,0-.477-.129V11.6c-.1.021-.187-.055-.27-.105a1.772,1.772,0,0,0-.2-.1.5.5,0,0,0-.2-.072c-.062,0-.124,0-.186,0a1.918,1.918,0,0,1-.4-.06,2.032,2.032,0,0,1-.456-.112c-.128-.056-.252-.122-.384-.171a1.718,1.718,0,0,0-.347-.041.37.37,0,0,1-.089-.029c-.065-.034-.031-.045-.074-.1a.277.277,0,0,0-.167-.078,1.335,1.335,0,0,0-.173,0c-.1,0-.094-.05-.109-.137-.112-.03-.406.06-.409-.142v-.035c-.1-.088-.054-.2-.094-.311a.391.391,0,0,0-.227-.236c-.054-.024-.109-.041-.163-.068-.038-.019-.105-.023-.133-.04-.07-.045-.1-.152-.18-.212a.382.382,0,0,0-.279-.068.313.313,0,0,1-.241-.1c-.05-.044-.107-.1-.158-.137s-.075-.028-.147-.043a.342.342,0,0,1-.132-.06c-.036-.035-.04-.1-.082-.128-.079-.059-.212-.03-.3-.046-.129-.024-.134-.116-.2-.211-.025-.038-.063-.064-.089-.1s-.049-.105-.077-.153a.9.9,0,0,0-.207-.23c-.082-.062-.19-.067-.271-.136-.1-.084-.094-.217-.18-.315-.065-.075-.146-.143-.216-.213s-.177-.223-.3-.2h-.035a.614.614,0,0,0-.195-.326c-.05-.051-.075-.053-.084-.124a1.029,1.029,0,0,1,0-.124c0-.116.028-.239-.089-.306-.048-.028-.1-.036-.152-.062a1.541,1.541,0,0,1-.157-.112,3.264,3.264,0,0,1-.28-.176,1.755,1.755,0,0,0-.375-.226c-.195-.093-.378-.19-.576-.275-.082-.035-.046-.075-.1-.136s-.1-.019-.178-.038A.249.249,0,0,1,50.56,5.3c-.013-.09.045-.239-.067-.284a1.2,1.2,0,0,0-.306,0c-.112,0-.21.035-.32.034s-.232,0-.349,0h-.761c-.054-.011-.088.026-.137.036a.718.718,0,0,1-.147,0c-.119,0-.237,0-.357,0a.315.315,0,0,0-.285.113.26.26,0,0,1-.27.094c-.1-.033-.133-.152-.259-.131a.721.721,0,0,0-.293.185c-.121.094-.069.166-.087.3s-.177.134-.21.262c-.014.055.016.1-.014.153a.542.542,0,0,1-.127.1c-.094.065-.088.139-.11.249-.019.094-.065.177-.089.27a.527.527,0,0,1-.04.148c-.033.058-.105.084-.136.136-.044.073.005.2.021.27a2.287,2.287,0,0,1,.008.455.871.871,0,0,1-.044.284.978.978,0,0,0-.06.311l-.1,0c-.035.024-.069.077-.112.082-.065-.041-.018-.289-.026-.358-.014-.094-.064-.109-.131-.163s-.069-.116-.088-.193c-.024-.1-.02-.262-.1-.331-.048-.044-.09-.039-.113-.109s-.005-.146-.064-.213-.216-.138-.262-.239c-.026-.056.029-.072.054-.123A.267.267,0,0,0,45.2,6.5c0-.134-.072-.193-.164-.281a.491.491,0,0,0-.137-.065.657.657,0,0,0-.161-.07c-.107-.023-.225.018-.331,0-.064-.013-.084-.057-.114-.112a.525.525,0,0,0-.109-.137.373.373,0,0,0-.316-.11c-.114,0-.221.048-.334.056s-.232,0-.347,0a2.012,2.012,0,0,0-.358.049,3.226,3.226,0,0,1-.561.062.773.773,0,0,0-.3.028c-.1.036-.182.092-.277.124a.838.838,0,0,1-.257.013c-.1,0-.178-.028-.275-.028h-.028a.692.692,0,0,1-.236-.057c-.105-.034-.151-.127-.2-.217s-.08-.178-.171-.227c-.046-.025-.075-.063-.119-.088a.382.382,0,0,0-.192-.015c-.082,0-.149.069-.234.058a.6.6,0,0,1-.1-.029c-.036-.011-.055-.038-.088-.051a.706.706,0,0,0-.225-.005c-.132,0-.2.033-.237.166a1.563,1.563,0,0,0-.034.466c0,.109-.039.139-.124.2a.846.846,0,0,1-.166.1c-.093.041-.187.053-.276.1a.436.436,0,0,0-.2.177.3.3,0,0,1-.2.107.375.375,0,0,0-.226.154A1.1,1.1,0,0,0,38,7.083c-.024.073-.059.131-.074.2a1.264,1.264,0,0,1-.075.2.56.56,0,0,1-.144.186h-.028a1.7,1.7,0,0,0-.259.262,1.515,1.515,0,0,0-.133.343c-.013.043-.033.085-.041.129s.013.122-.009.167-.093.059-.136.092a.3.3,0,0,0-.09.158.609.609,0,0,0,.113.591c.087.079.191.127.279.206.038.034.073.046.085.1a.255.255,0,0,1-.009.1c-.036.176-.075.353-.1.53-.015.093-.04.186-.062.28-.034.149-.043.3-.083.449-.024.088-.015.173-.044.26-.021.065-.031.128-.058.19-.089.207-.117.438-.192.647-.054.149-.093.3-.152.452-.021.053-.023.112-.04.167a1.512,1.512,0,0,0-.05.144,1.3,1.3,0,0,0-.005.252h.028c-.094,0-.192.136-.274.178a1.709,1.709,0,0,0-.293.166c-.078.06-.18.092-.26.154-.11.087-.216.187-.318.283-.082.077-.182.114-.262.186a1.084,1.084,0,0,1-.291.167c-.033.015-.063.033-.094.048-.051.024-.1.029-.151.053a.571.571,0,0,1-.283.084l-.028.028a2.5,2.5,0,0,1-.275.2,1.411,1.411,0,0,1-.218.151.865.865,0,0,0-.244.114c-.074.064-.1.19-.148.271s-.2.108-.237.226a.951.951,0,0,0,0,.254c0,.11.019.206-.055.3-.035.043-.063.053-.058.114s.043.089.085.132h.028c.08.082.183.117.269.191a.719.719,0,0,1,.151.277.674.674,0,0,1,.031.537.311.311,0,0,1-.21.149c-.058.018-.1.005-.133.056a.9.9,0,0,0-.053.1.583.583,0,0,0-.024.466c.024.068.069.121.054.2-.009.041-.038.057-.053.094a.26.26,0,0,0,0,.121,1.148,1.148,0,0,0,.073.259c.03.068.123.137.121.212,0,.041-.029.077-.031.121a.6.6,0,0,0,0,.134.45.45,0,0,0,.083.191,2.1,2.1,0,0,1,.164.28c.024.039.06.065.085.1a.6.6,0,0,1,.054.138,1.064,1.064,0,0,1,.055.308.752.752,0,0,0,.005.141c.009.038.033.072.044.108a1.61,1.61,0,0,1,.088.433l-.083-.659c.144.013.164.195.192.3a.488.488,0,0,1-.006.35c-.024.044-.064.075-.09.118s-.049.1-.074.141a1.657,1.657,0,0,0-.173.326,1.206,1.206,0,0,0-.1.491c.028.231.25.389.373.573.045.067.088.133.136.2s.124.128.178.2c.1.129.27.254.275.429a.481.481,0,0,1-.04.28c-.049.083-.1.188-.208.192a1.3,1.3,0,0,0-.221,0c-.079.018-.142.109-.19.168a1.379,1.379,0,0,1-.124.158.523.523,0,0,1-.1.058.274.274,0,0,1-.118.058.415.415,0,0,0-.1.02.3.3,0,0,0-.19.122c-.043.068-.146.128-.139.215H33.28c-.055.04-.051.07-.055.131a1.1,1.1,0,0,1-.025.128c-.018.1-.011.207-.036.313a.667.667,0,0,1-.152.3.43.43,0,0,0-.078.148.681.681,0,0,0-.068.139,1.454,1.454,0,0,0,0,.286.3.3,0,0,1-.11.23.614.614,0,0,0-.109.468c0,.157.053.412-.057.536a1.323,1.323,0,0,0-.265.477,1.693,1.693,0,0,0-.09.261,1.018,1.018,0,0,1-.062.212c-.016.046-.021.085-.063.114a1.021,1.021,0,0,1-.112.054.563.563,0,0,0-.4.349c-.019.03-.051.049-.07.079a.614.614,0,0,1-.06.113.594.594,0,0,0-.166.438h.055c-.163-.026-.083.1-.108.193-.014.05-.051.074-.059.129a.591.591,0,0,0,0,.094,1.306,1.306,0,0,0,.006.3c.024.092.067.185.1.276a1.438,1.438,0,0,1,.034.465,2.816,2.816,0,0,1,0,.309.721.721,0,0,1-.138.29,1.1,1.1,0,0,1-.247.252.4.4,0,0,0-.137.217c-.031.1-.006.182-.109.222-.072.028-.079.019-.084.1,0,.048,0,.1,0,.146a.641.641,0,0,0,.034.242,1.262,1.262,0,0,0,.18.25,1.1,1.1,0,0,1,.2.551l.028-.055c.06.054.069.162.089.237.036.139.073.28.1.423a1.6,1.6,0,0,1,.005.28.377.377,0,0,1-.065.242c-.044.074-.1.113-.046.192.065.1.144.185.217.276a1.019,1.019,0,0,1,.166.225.625.625,0,0,1,0,.2.536.536,0,0,1-.267.426c-.078.053-.128.109-.225.109a.749.749,0,0,0-.249,0c-.112.046-.146.231-.186.33a1.351,1.351,0,0,0-.117.488l.028.083a.454.454,0,0,1-.082.246c-.039.049-.049.041-.058.11a.8.8,0,0,0,0,.109,1.7,1.7,0,0,0,.173.544.589.589,0,0,1,.015.472c-.043.069-.1.127-.138.2a.8.8,0,0,1-.158.225.575.575,0,0,1-.226.118c-.094.034-.075.073-.075.166s.025.163.026.254.029.18.028.275a1.829,1.829,0,0,0,0,.288.886.886,0,0,0,.03.176c.016.036.043.05.051.093.013.059,0,.05.025.1a.931.931,0,0,1,.064.133c.015.045.028.09.046.133s.053.078.055.121v-.055c0-.014,0-.028.005-.041.043.008.072.069.1.1.055.048.1.053.114.129.02.1-.034.23,0,.331a.347.347,0,0,0,.222.218.725.725,0,0,1,.269.2.389.389,0,0,1,.026.246c-.009.05-.043.1-.051.146a.164.164,0,0,0,.03.129,4.816,4.816,0,0,0,.267.59c.133.195.188.432.384.576.107.079.112.142.11.269a1.36,1.36,0,0,0,.02.35,1.317,1.317,0,0,0,.364.632.361.361,0,0,1,.138.267c0,.093,0,.188,0,.281v.028c.009.079-.039.089-.051.158s.045.08.068.124,0,.09.013.141a1.421,1.421,0,0,0,.1.176c.03.063.043.064.109.087s.078.043.1.122c.038.121.11.127.226.126a.324.324,0,0,1,.159.015c.045.028.055.075.08.116a.75.75,0,0,1,.122.267,3.517,3.517,0,0,1,0,.527v.929c0,.092-.025.172-.028.261-.005.182,0,.367,0,.549,0,.058-.009.089.025.137s.068.08.1.121c.062.08.11.157.014.231a1.348,1.348,0,0,1-.247.136c-.127.062-.139.121-.138.256s.054.439-.083.521v.11c-.048.088-.137.134-.187.218a1.8,1.8,0,0,0-.108.221.754.754,0,0,0-.035.355c.011.1.08.178.085.279a.408.408,0,0,1-.034.216c-.041.078-.109.139-.144.221a.475.475,0,0,0-.015.193c0,.137,0,.275,0,.412a.244.244,0,0,1-.06.19,1,1,0,0,1-.187.227.527.527,0,0,0-.161.186c-.021.072.056.114.107.151s.108.075.11.157a1.1,1.1,0,0,0,.026.213c.054.067.128.088.172.163a.661.661,0,0,1,.105.242c.013.153,0,.318,0,.471,0,.114.045.159.111.249.049.067.108.119.11.2a.613.613,0,0,1-.005.2c-.038.093-.1.075-.058.192a1.05,1.05,0,0,1,.09.389.522.522,0,0,1-.015.221.506.506,0,0,1-.1.112c-.039.045-.055.107-.1.149s-.128.056-.18.108-.074.147-.137.208a1,1,0,0,1-.172.105.4.4,0,0,0-.131.195c-.068.063-.055.137-.055.22s.011.131-.083.172a.611.611,0,0,0-.338.24,1.053,1.053,0,0,1-.051.113c-.028.03-.069.021-.105.03a.339.339,0,0,1-.082.021c-.036,0-.065-.009-.1.014-.1.069-.019.289,0,.38a1.8,1.8,0,0,1-.014.4.428.428,0,0,1-.029.232c-.045.07-.082.082-.082.173,0,.191.242.2.25.375a.8.8,0,0,1-.166.4l.083.028c.195-.043.137.339.137.439,0,.073.005.147,0,.22a.7.7,0,0,1-.03.114.879.879,0,0,0,0,.141.306.306,0,0,0,.083.241.807.807,0,0,1,.154.232.633.633,0,0,1-.025.487.747.747,0,0,0-.048.2.57.57,0,0,0,.005.207c.015.034.058.055.079.087s.045.064.075.1c.05.063.034.142.033.221a.265.265,0,0,0,.082.229c.035.033.08.045.113.079a.541.541,0,0,1,.059.105c.039.062.07.123.11.186s.117.151.1.226v-.028c0,.1.105.177.133.267a1.534,1.534,0,0,1,.031.284,3.383,3.383,0,0,0,.152.423.423.423,0,0,0,.1.2c.036.044.06.1.109.134a.664.664,0,0,0,.113.039c.17.07.116.291.068.433a.737.737,0,0,1-.309.433,2.3,2.3,0,0,0-.232.143,1.8,1.8,0,0,1-.242.117.554.554,0,0,0-.195.131c-.06.075-.075.173-.136.249s-.134.134-.138.223,0,.18,0,.269l.028.083a.5.5,0,0,1,.084.275c.006.09,0,.185,0,.276,0,.031,0,.064,0,.1,0,.064-.02.073-.057.121a.508.508,0,0,0-.077.212c-.01.046.006.1,0,.141s-.038.063-.072.1c-.055.06-.04.134-.04.211a.509.509,0,0,1-.025.265c-.041.065-.144.082-.217.092a.311.311,0,0,0,.045.246c.035.064.038.073.006.134a.514.514,0,0,0-.083.193.933.933,0,0,0,0,.187.328.328,0,0,0,.1.158c.05.06.078.134.123.2a.3.3,0,0,1,.057.226,1.392,1.392,0,0,1-.054.186.624.624,0,0,1-.021.232c-.038.107-.137.186-.167.294a.289.289,0,0,0,.06.247c.073.085.19.124.21.247.018.107-.053.167-.112.247a.366.366,0,0,0-.084.138.65.65,0,0,0,0,.131,1.052,1.052,0,0,0,.026.227,1.331,1.331,0,0,1,.084.274.572.572,0,0,1-.026.281c-.049.088-.107.131-.113.241a2.321,2.321,0,0,0,0,.247c.005.092.058.119.1.19a.741.741,0,0,0,.088.139.432.432,0,0,1,.089.114.886.886,0,0,1,.054.242,2.426,2.426,0,0,1,.021.55v.028a4.765,4.765,0,0,0,0,.5.7.7,0,0,0,.11.24,1.452,1.452,0,0,0,.139.221.625.625,0,0,1,.109.458,1.358,1.358,0,0,0,.034.284c.019.1.083.139.164.191.148.092.33.045.457.181.065.069.025.153,0,.23a1.266,1.266,0,0,0-.049.192c-.028.146.036.388-.107.488-.045.031-.077.038-.109.088-.021.034-.046.065-.068.1a.633.633,0,0,0-.1.231h-.028c-.116.132-.316.175-.3.378.011.171.137.313.167.48a.747.747,0,0,1-.008.242c-.016.078-.088.121-.1.192a1.78,1.78,0,0,0,0,.357c0,.142.028.27.028.413a.6.6,0,0,0,.1.411c.056.068.152.079.2.142s.033.193.033.272c0,.064-.021.163.011.218.016.026.064.063.084.088a.4.4,0,0,0,.1.1l.133-.031a.639.639,0,0,1,.107.02.781.781,0,0,1,.118.031c.06.02.171.048.19.118a.532.532,0,0,1,0,.109,1.029,1.029,0,0,1,0,.108.808.808,0,0,1-.058.211.728.728,0,0,0-.028.33.478.478,0,0,0,.134.229.315.315,0,0,0,.148.1c.11.043.229.035.338.082.075.033.24.133.167.227a.682.682,0,0,0-.074.084c-.016.03-.026.063-.043.093a.344.344,0,0,0-.067.252c.019.085.079.118.131.182s.092.107.143.161a.34.34,0,0,1,.074.182.251.251,0,0,1-.043.182c-.019.029-.043.053-.062.08a.557.557,0,0,0-.041.1.325.325,0,0,0-.02.148h-.02a.454.454,0,0,0-.089.427c.026.08.105.131.109.217,0,.063,0,.127,0,.191,0,.084-.014.134.056.193s.144.038.237.024a1.982,1.982,0,0,1,.284-.041c.08,0,.148.02.227.021a.108.108,0,0,0,.083-.02c.044-.031.04-.041.1-.043a1.033,1.033,0,0,1,.216.021c.079.016.161.041.244.058a.989.989,0,0,1,.251.029c.063.028.176.059.122.142-.024.036-.068.049-.082.1a.308.308,0,0,0,0,.1c.005.043.035.082.019.126s-.055.054-.075.087a.373.373,0,0,0-.025.207l-.02.041c-.031.03-.054.07-.087.1a.762.762,0,0,0-.1.087c-.05.062-.1.1-.18.079-.028-.009-.055-.033-.083-.044a.444.444,0,0,1-.084-.035.492.492,0,0,0-.142-.089c-.1-.03-.242-.036-.3.068a1.137,1.137,0,0,1-.044.121.361.361,0,0,1-.073.065.431.431,0,0,1-.182.084c-.041.005-.085-.009-.127,0-.025,0-.048.016-.073.02a.531.531,0,0,0-.078.005c-.059.018-.119.1-.158.141s-.089.11-.127.164a.266.266,0,0,0-.04.166.21.21,0,0,0,.063.139c.036.05.058.082.123.089a1.831,1.831,0,0,0,.2,0c.05,0,.1.006.152,0s.1-.02.154-.021a.978.978,0,0,0,.172-.02c.053-.011.107-.014.159-.026a1.152,1.152,0,0,1,.272-.016.138.138,0,0,1,.126.063.483.483,0,0,1,.04.143.652.652,0,0,0,.143.311c.1.082.223.068.328.127.082.046.045.183.024.259a.4.4,0,0,1-.185.251.459.459,0,0,0-.141.254,1.461,1.461,0,0,0-.026.144.4.4,0,0,1-.025.159c-.05.1-.166.129-.2.244a1.049,1.049,0,0,0-.046.294h.02a1.594,1.594,0,0,0,0,.232c.009.059.07.1.023.154-.031.034-.05.029-.039.088a.314.314,0,0,0,.035.088.228.228,0,0,0,.084.074c.033.013.067,0,.1.023s.069.051.1.073a.547.547,0,0,1,.118.111c.046.054.065.075.03.143s-.084.141-.124.211a.691.691,0,0,1-.144.163.883.883,0,0,0-.083.123c-.029.038-.059.035-.064.085a.307.307,0,0,0,.049.164,1.288,1.288,0,0,0,.1.154c.035.054.049.117.082.171a3.023,3.023,0,0,0,.191.334.7.7,0,0,1,.1.187.369.369,0,0,1,.04.164h.02a.255.255,0,0,1,.083.187c0,.055.02.1.02.159,0,.079.025.222-.03.284a2.426,2.426,0,0,0-.217.315c-.028.043-.074.068-.1.107a.486.486,0,0,0-.055.146.953.953,0,0,0-.046.352c0,.1-.031.262.025.349.026.04.074.064.1.1a.22.22,0,0,1,.019.137c0,.1-.019.2-.02.3v.02c-.009.082-.029.167-.043.249a.724.724,0,0,1-.09.227,1.182,1.182,0,0,1-.164.277.557.557,0,0,1-.119.1.6.6,0,0,0-.1.06c-.171.143-.02.357-.04.539a.9.9,0,0,1-.229.468l-.02.1a1.332,1.332,0,0,0-.075.167c-.014.031-.019.063-.03.094a.639.639,0,0,0-.038.092.329.329,0,0,0,0,.144c.025.057.1.082.142.122a1.251,1.251,0,0,1,.077.105.609.609,0,0,0,.089.082c.05.045.11.078.159.122a.358.358,0,0,1,.129.311.556.556,0,0,0-.021.138.57.57,0,0,0,.015.191.478.478,0,0,0,.088.148c.034.043.088.088.084.144-.009.11-.08.212-.1.321a1.637,1.637,0,0,0-.005.294h-.02c-.082,0-.127.005-.124.093a1.618,1.618,0,0,0,.068.3c.019.087.054.171.073.257a.9.9,0,0,1-.016.26.515.515,0,0,1-.247.369c-.069.048-.138.058-.166.143a1.406,1.406,0,0,0-.045.191c-.008.04-.008.085-.016.124a.411.411,0,0,1-.04.082c-.034.07-.094.087-.146.143-.026.029-.04.069-.072.093a.475.475,0,0,1-.073.033c-.054.029-.078.1-.1.153a3.747,3.747,0,0,0-.084.392.425.425,0,0,1-.1.154.275.275,0,0,0-.062.156c-.009.059-.038.114-.041.176a1.035,1.035,0,0,1-.036.186c-.013.054-.03.108-.041.163a1.032,1.032,0,0,0-.005.187v.02a.509.509,0,0,1-.04.164c-.015.057-.043.109-.062.163a.542.542,0,0,0-.043.151c0,.06,0,.122,0,.182,0,.113.05.221.063.334.005.049,0,.1,0,.152a.191.191,0,0,1,0,.08c-.011.025-.034.038-.04.068a.545.545,0,0,0,.048.313.828.828,0,0,1,.121.3c0,.048-.029.087-.023.137a.39.39,0,0,0,.041.129.471.471,0,0,0,.109.134c.053.044.085.069.078.144l.02.144v-.025c0,.114.013.241.124.294a.317.317,0,0,1,.164.266c.008.07-.009.143,0,.213a1.354,1.354,0,0,0,.036.157,2.252,2.252,0,0,0,.124.328.456.456,0,0,0,.546.192,1.318,1.318,0,0,0,.3-.143c.054-.034.113-.051.166-.088a.986.986,0,0,0,.143-.082v-.02a.386.386,0,0,0,.062-.1.857.857,0,0,1,.062-.1c.054-.074.088-.119.187-.124a.556.556,0,0,1,.193.023c.048.015.126.074.178.058.084-.026.064-.133.1-.19s.122-.039.177-.005a.316.316,0,0,1,.139.222c.02.082.056.159.078.242a2.319,2.319,0,0,0,.062.249.479.479,0,0,0,.1.164.248.248,0,0,1,.083.158c0,.063,0,.127,0,.19-.005.131-.11.235-.1.368a.444.444,0,0,0,.1.2c.055.083.142.131.2.21a.567.567,0,0,1,.07.369c0,.117-.035.286.041.387v.174a.382.382,0,0,0,.031.136.192.192,0,0,0,.093.133.374.374,0,0,1,.136.123c.06.1.019.207.111.291s.173.133.261.2a.707.707,0,0,1,.195.251c.031.07,0,.142.023.21.036.094.154.065.234.067.094,0,.183-.021.279-.021.055,0,.114.005.171,0s.105-.023.162-.023h.136a.438.438,0,0,0,.116-.021c.045-.01.093-.015.139-.025s.084-.006.126-.014c.065-.013.129-.033.2-.043.051-.008.1-.016.154-.023s.126-.011.185-.023a1.4,1.4,0,0,1,.289-.036,7.445,7.445,0,0,0,.811-.124,5.466,5.466,0,0,1,.573-.062c.087,0,.161-.036.249-.043s.164,0,.246,0l.09-.03c.072-.01.148-.028.218-.04a1.182,1.182,0,0,1,.231-.014,1.13,1.13,0,0,1,.185,0c.085.015.172.036.256.055s.156.04.236.055c.06.011.122.02.181.036.077.02.144.06.22.083a.689.689,0,0,1,.122.039.559.559,0,0,0,.06.033.729.729,0,0,0,.4,0,.416.416,0,0,1,.281,0c.094.05.171.114.267.159a.813.813,0,0,0,.345.109c.069,0,.133-.016.2-.019.048,0,.1,0,.144,0a1.207,1.207,0,0,0,.294-.023.235.235,0,0,1,.163,0,1.23,1.23,0,0,1,.161.059c.033.019.063.065.109.054s.055-.072.054-.11a.361.361,0,0,0-.055-.163c-.024-.045-.033-.1-.059-.143-.015-.024-.034-.038-.05-.06s-.033-.073-.054-.108a.311.311,0,0,0-.147-.113c-.094-.043-.164-.131-.257-.177-.033-.016-.07-.016-.1-.03s-.036-.029-.058-.038-.025,0-.036-.006-.046-.035-.069-.048a.58.58,0,0,1-.09-.058c-.025-.021-.036-.048-.059-.07-.043-.041-.073-.049-.092-.112-.024-.083-.067-.158-.1-.24a.728.728,0,0,0-.03-.105.819.819,0,0,1-.051-.077c-.01-.023-.01-.046-.021-.069s-.04-.059-.056-.09c-.05-.1-.124-.19-.181-.29v-.018a.55.55,0,0,0-.142-.123c-.031-.016-.067-.028-.1-.044a.363.363,0,0,1-.117-.087c-.035-.059.05-.051.085-.059a.424.424,0,0,0,.122-.054c.033-.02.084-.055.069-.1s-.1-.07-.128-.119c-.013-.023-.015-.05-.029-.073s-.038-.033-.054-.054a.291.291,0,0,1-.035-.072c-.014-.031-.026-.035-.05-.06a.782.782,0,0,1-.074-.085c-.024-.036-.015-.07-.025-.109a.86.86,0,0,0-.036-.094.317.317,0,0,0-.056-.1c-.005-.006-.033-.024-.034-.039s.026-.067.023-.1-.04-.062-.062-.1a.252.252,0,0,1-.031-.1c-.005-.069,0-.141,0-.211a.2.2,0,0,0-.011-.1c-.028-.049-.063-.059-.08-.117a.354.354,0,0,1-.018-.108c0-.04.014-.08-.035-.092a.209.209,0,0,0-.2.073c-.131.128-.246.271-.38.392-.036.033-.074.064-.109.1s-.048.062-.087.058c-.118-.013.03-.143.064-.166a.416.416,0,0,0,.116-.109c.023-.035.013-.058.016-.1a.151.151,0,0,1,.04-.1c.031-.03.074-.043.1-.083s0-.072.01-.108.055-.044.092-.045a.4.4,0,0,0,.087,0c.049-.016.035-.05.043-.09.048-.006.124-.03.126-.085a.317.317,0,0,0-.074-.154l.036-.109c-.044-.039-.088-.046-.092-.108a.3.3,0,0,1,.04-.142c.035-.065.078-.094.089-.172a.209.209,0,0,0-.033-.137.2.2,0,0,1-.021-.131.647.647,0,0,1,.072-.188.184.184,0,0,0,.036-.122.284.284,0,0,0,0-.073c-.011-.038-.034-.044-.053-.073-.058-.085.04-.192.114-.234a.448.448,0,0,0,.119-.062.459.459,0,0,0,.049-.062c.013-.018.026-.063.044-.074.039-.024.092.009.133-.008.074-.029.046-.077.013-.121s-.043-.053-.019-.1a.176.176,0,0,1,.093-.083c.044-.023.068-.009.117-.018s.072-.045.113-.059.1-.02.151-.035.073-.043.1-.1.079-.045.134-.046a.509.509,0,0,0,.137-.028c.045-.014.088-.026.093-.082a.193.193,0,0,0-.079-.148c-.025-.015-.054-.016-.079-.033s-.023-.028-.034-.038a.38.38,0,0,1-.105-.109,1.135,1.135,0,0,0-.187-.217c-.031-.034-.035-.083-.072-.11a.11.11,0,0,0-.113-.005c-.046.018-.067.064-.107.078a.265.265,0,0,1-.089,0,.457.457,0,0,0-.272.1c-.036.026-.048.073-.087.093a.826.826,0,0,1-.113.029c-.059.021-.067.083-.124.107-.014.006-.029,0-.041.01s-.015.041-.028.058c-.031.041-.141.036-.187.024a.216.216,0,0,1,.092-.167c.035-.029.083-.029.1-.072a.341.341,0,0,1,.006-.051c.01-.011.019-.024.028-.035.02-.026.021-.038.055-.056s.062-.015.092-.034.034-.051.053-.088.033-.04.079-.04a.747.747,0,0,0,.183,0c.035-.013.036-.043.065-.067a.124.124,0,0,1,.078-.026.359.359,0,0,0,.142-.016.063.063,0,0,0,.041-.074c-.009-.038-.048-.049-.075-.073-.057-.048-.054-.118-.107-.164a.4.4,0,0,0-.075-.04.145.145,0,0,1-.035-.033.119.119,0,0,0-.049-.02.144.144,0,0,1-.009-.089c.018-.033.049-.014.074,0a.723.723,0,0,1,.144.077,1.33,1.33,0,0,1,.182.164.69.69,0,0,1,.073.075.581.581,0,0,0,.054.089,1.622,1.622,0,0,0,.178.126.615.615,0,0,1,.149.182H45.1c.121-.024.181.158.222.236.07.131.227.054.342.054a.534.534,0,0,0,.38-.217.752.752,0,0,0,.151-.183.662.662,0,0,0,.048-.073c.015-.041.02-.08.039-.122a1.1,1.1,0,0,1,.218-.35c.023-.023.049-.04.057-.073a.638.638,0,0,0,0-.069c0-.068.067-.122.088-.187a1,1,0,0,1,.077-.178.361.361,0,0,0,.072-.185.409.409,0,0,0-.018-.161.555.555,0,0,0-.128-.2c-.006-.054.063-.11.078-.162a.727.727,0,0,0,.031-.22.2.2,0,0,0-.064-.153.117.117,0,0,1-.031-.141.643.643,0,0,0,0-.156c0-.062.009-.151-.077-.121s-.072.082-.09.152-.083.087-.1.144c-.013.035.005.074-.005.109,0,.014-.036.069-.051.072-.059.01-.041-.06-.058-.087s-.075-.038-.1-.068c-.038-.055.028-.082.064-.112.054-.045.045-.068.053-.127.011-.083.07-.068.126-.1s.039-.062.039-.11,0-.043.021-.069.054-.023.072-.044c.069-.083-.055-.156-.039-.242.01-.053.063-.082.075-.131s-.015-.072.015-.11c.041-.054.116-.041.17-.07a.184.184,0,0,0,.087-.129c.015-.055.009-.109.019-.164a1.118,1.118,0,0,1,.039-.131.408.408,0,0,1,.176-.269.63.63,0,0,1,.166-.035c.064-.013.078-.035.094-.092.021-.074-.005-.171.049-.236.039-.046.105-.03.134-.085a.425.425,0,0,0,.031-.128.423.423,0,0,1,.03-.167,1,1,0,0,1,.059-.152c.03-.046.069-.046.119-.049a.313.313,0,0,1,.059,0c.035.007.031.021.059.039.092.058.154-.123.187-.183a.438.438,0,0,0,.046-.113.5.5,0,0,0,.021-.141l.036-.109c.046-.05.089-.028.146-.035a.253.253,0,0,0,.142-.092.116.116,0,0,1,.113-.054c.054,0,.109,0,.163,0s.128,0,.128-.073c0-.051-.009-.09.053-.092a.473.473,0,0,0,.152,0c.048-.02.031-.073.031-.116,0-.092-.02-.213.045-.29.029-.034.07-.036.09-.082s.011-.084.048-.119a.234.234,0,0,1,.136-.063c.048-.006.063-.005.089-.054a.261.261,0,0,0,.028-.1.541.541,0,0,1,.021-.119c.034-.073.146-.1.213-.092.089.005.162.069.256.015a.1.1,0,0,0,.056-.1c0-.057-.043-.077-.077-.117-.059-.069-.011-.06.028-.121a.083.083,0,0,0-.025-.117c-.034-.026-.077-.041-.1-.08s-.014-.09.028-.1c.024-.005.034.01.054.014s.035,0,.053,0a.581.581,0,0,0,.124.019c.034,0,.094.013.121-.01a.1.1,0,0,0,0-.105c-.019-.028-.074-.036-.1-.051-.056-.029-.041-.045-.054-.1s-.021-.2-.087-.231-.168.023-.237.05a.837.837,0,0,1-.119.033.249.249,0,0,0-.107.08.661.661,0,0,1-.133.1c-.028.016-.062.048-.1.04.038-.031.028-.068.039-.109a.381.381,0,0,1,.033-.064c.031-.058.059-.118.09-.177a.167.167,0,0,1,.139-.1,1.237,1.237,0,0,1,.167,0,.656.656,0,0,0,.186-.023c.029-.008.07-.006.09-.034s0-.08,0-.1a.126.126,0,0,1,.036-.112.158.158,0,0,0,.036-.128.567.567,0,0,1,0-.131c.013-.053.05-.079.053-.137a.537.537,0,0,0-.036-.224.345.345,0,0,1-.038-.141.267.267,0,0,1,.041-.117.563.563,0,0,0,.031-.25.158.158,0,0,0-.031-.109c-.015-.025-.021-.054-.039-.079s-.039-.03-.053-.049a.32.32,0,0,1-.059-.123c-.005-.038.029-.083.023-.114-.011-.053-.092-.039-.127-.069a.319.319,0,0,1-.063-.129c-.025-.078-.043-.162-.139-.164-.059,0-.119,0-.178,0a.459.459,0,0,0-.132.041c-.04.013-.082.038-.122.046a.415.415,0,0,0-.117.026.2.2,0,0,1-.142.029c-.048-.014-.078-.063-.127-.072a.587.587,0,0,0-.325.043.236.236,0,0,1-.152.034.369.369,0,0,1-.127-.055.263.263,0,0,0-.229-.043c-.048.019-.078.051-.132.038-.033-.009-.06-.011-.1-.018a.358.358,0,0,1-.119-.051.359.359,0,0,0-.113-.054l-.018-.018a.363.363,0,0,0-.074-.034l-.059-.006a.239.239,0,0,1-.085-.069c-.058-.06-.092-.152-.178-.18a.211.211,0,0,1-.1-.039.983.983,0,0,1-.072-.073.969.969,0,0,0-.2-.146.635.635,0,0,1-.168-.164.358.358,0,0,1-.054-.075.4.4,0,0,0-.053-.107.251.251,0,0,0-.182-.09c-.036,0-.074,0-.11,0s-.053,0-.073-.044a.461.461,0,0,0-.108-.172c-.046-.035-.113-.015-.163-.043-.033-.018-.06-.049-.092-.07s-.06-.035-.09-.053a.149.149,0,0,1-.075-.074c-.009-.025,0-.062-.011-.09s-.023-.074-.064-.088-.063,0-.1-.02a.409.409,0,0,1-.149-.151.7.7,0,0,1-.09-.342l.018-.054a.39.39,0,0,0-.019-.109.436.436,0,0,1,0-.09c0-.092-.03-.176-.036-.266a1.1,1.1,0,0,1,.005-.28,1.883,1.883,0,0,1,.085-.245,1.388,1.388,0,0,1,.112-.185c.026-.053.009-.112.046-.162A.863.863,0,0,1,45.6,87.9a.275.275,0,0,0,.059-.1c.029-.069.062-.128.1-.195a.93.93,0,0,0,.031-.4.672.672,0,0,1,.163-.348c.033-.049.062-.093.1-.141a.305.305,0,0,0,.063-.088.383.383,0,0,0,0-.1.465.465,0,0,1,.016-.093,1.154,1.154,0,0,1,.041-.193.585.585,0,0,1,.151-.173,1.4,1.4,0,0,0,.147-.138c.038-.05.094-.153.157-.178s.112.031.169.034a.326.326,0,0,0,.085,0c.035-.009.067-.035.1-.033L47,85.736a.457.457,0,0,1,.251-.123c.031-.006.074-.008.092-.04s-.014-.063-.026-.092-.026-.186.053-.157.082.211.177.212c.033-.033,0-.077.018-.108a.629.629,0,0,1,.072-.038c.062-.048.108-.117.02-.166-.034-.019-.134,0-.128-.053a.465.465,0,0,1,.128-.124.584.584,0,0,1,.2,0,.479.479,0,0,0,.181-.04.332.332,0,0,0,.153-.114c.013-.021.005-.039.013-.063a.319.319,0,0,1,.054-.089.347.347,0,0,1,.211-.077.226.226,0,0,1,.092.013c.026.013.041.04.072.044.064.009.082-.077.151-.021.043.034.048.1.094.131a.152.152,0,0,0,.175-.02c.029-.028.031-.1.065-.109.056-.02.079.068.118.088.073.039.1-.033.113-.087.062-.025.089.053.139.068s.073-.013.094-.053c.011-.021,0-.031.036-.025s.045.036.067.054c.06.049.08.018.08-.045s-.009-.109.035-.164a.555.555,0,0,1,.056-.064c.024-.021.064-.033.072-.065.014-.053-.056-.073-.092-.089a.879.879,0,0,0-.139-.051c-.055-.015-.077-.067-.112-.112-.051-.067-.074-.053-.147-.077s-.015-.068.005-.113a.291.291,0,0,0,.01-.119.926.926,0,0,1,0-.144c.009-.056.059-.1.09-.144s.063-.085.089-.129c.013-.021.015-.046.026-.069s.031-.034.033-.059l.018-.018a.159.159,0,0,1,.163-.072.109.109,0,0,0,.074-.016c.024-.019.026-.062.058-.074.075-.03.306.138.265-.057-.013-.058-.033-.112-.048-.168-.023-.084.063-.088.126-.087.176,0-.04-.178-.069-.236.023-.038.078-.031.1-.063s0-.041,0-.064c.013-.062.084-.089.134-.109.085-.035.072-.048.036-.122a.723.723,0,0,0-.1-.154,1.049,1.049,0,0,1-.181-.382c-.014-.049-.065-.128-.015-.175.019-.018.059-.02.082-.033a.567.567,0,0,0,.083-.041.234.234,0,0,0-.048-.112c.019-.036.074-.023.1-.053-.026-.062-.084-.053-.124-.09a.2.2,0,0,1-.035-.114c0-.067.015-.077.055-.127s.058-.072.005-.1-.1-.016-.114-.067c-.01-.035.018-.065.019-.1a.245.245,0,0,0-.055-.144c-.033-.035-.078-.041-.074-.1,0-.036.021-.064.02-.1,0-.069-.025-.065-.073-.107s-.02-.07,0-.107a.178.178,0,0,0,.019-.109c-.011-.1-.1-.131-.057-.237a.359.359,0,0,1,.08-.118c.03-.03.1-.093.1-.137l.068-.146c.048-.039.058-.112.087-.164a1.017,1.017,0,0,1,.079-.127.853.853,0,0,0,.141-.3.922.922,0,0,1,.158-.339,2.365,2.365,0,0,1,.156-.181.864.864,0,0,1,.147-.148.624.624,0,0,1,.291-.1.958.958,0,0,0,.271-.063,1.7,1.7,0,0,0,.309-.166c.093-.059.059-.176.17-.226.092-.041.208-.019.272-.116s-.039-.178-.122-.195c-.062-.013-.08.02-.127.049s-.062,0-.118.005c-.036,0-.079.033-.118.034-.06,0-.072-.033-.112-.07a.111.111,0,0,0-.149-.025c-.039.018-.059.053-.094.072-.065.034-.122-.1-.181-.132-.087-.05-.148-.02-.241-.034a.913.913,0,0,1-.225-.083c-.093-.048-.094-.19-.21-.2a.319.319,0,0,0-.129.006c-.039.018-.059.075-.112.034-.069-.054.056-.2.088-.242.053-.078,0-.169.028-.255.1-.024.21.026.3-.015a.479.479,0,0,0,.154-.147.877.877,0,0,0,.1-.121c.023-.051.013-.112.074-.146a.317.317,0,0,1,.142-.009.781.781,0,0,0,.275-.033c.069-.024.087,0,.141.046a.147.147,0,0,0,.124.038.585.585,0,0,0,.246-.041c.054-.025.068-.051.116,0s.024.093.041.149c.036.119.143.056.223.046.021.055-.058.156-.087.2a.254.254,0,0,0-.008.26,2.841,2.841,0,0,0,.154.331c.05.079.166.049.246.049a1.441,1.441,0,0,0,.221,0,.483.483,0,0,0,.116-.039.282.282,0,0,0,.109-.082c.048-.048.116-.031.185-.031a.322.322,0,0,0,.18-.041,3.806,3.806,0,0,0,.38-.2c.065-.049.132-.075.144-.167.008-.059-.009-.119,0-.177a.832.832,0,0,1,.03-.113c.016-.039.051-.048.074-.082a.229.229,0,0,0-.014-.215c-.035-.065-.1-.119-.121-.192a.858.858,0,0,1,0-.18v-.217a.688.688,0,0,0,0-.183c-.021-.073-.119-.124-.175-.173a.308.308,0,0,1-.128-.178l-.025-.025a.5.5,0,0,1-.129-.3c0-.038.02-.1,0-.132-.033-.049-.092-.031-.144-.023a1.428,1.428,0,0,0-.262.063c-.082.034-.144.085-.23.116-.176.063-.34.157-.512.231-.087.038-.168.084-.255.122s-.169.051-.249.09c.046-.031.134-.015.186-.015h.158a.685.685,0,0,1,.39.049c.2.147.123.465-.039.605a.414.414,0,0,1-.32.024.826.826,0,0,0-.313-.04c-.075.01-.1.079-.167.1a.157.157,0,0,1-.132-.021c-.077-.04-.087-.025-.154.02a.189.189,0,0,1-.153.028c0-.063.077-.1.1-.156a.609.609,0,0,0,0-.2.6.6,0,0,1,0-.142c.019-.056.1-.058.121-.117-.025-.053-.2-.024-.249-.024a1.287,1.287,0,0,1-.279-.02.872.872,0,0,0-.181-.006.566.566,0,0,1-.132-.02,2.41,2.41,0,0,1-.324-.05,1.191,1.191,0,0,1-.274-.171.461.461,0,0,1-.191-.207,1.166,1.166,0,0,1-.051-.472v-.025a1.2,1.2,0,0,1,.031-.306c.029-.113.127-.207.1-.333-.011-.051-.072-.108-.1-.156a.294.294,0,0,1-.057-.177.459.459,0,0,1,.116-.282c.031-.044.073-.07.06-.126a.452.452,0,0,0-.072-.129.57.57,0,0,0-.1-.088.556.556,0,0,1-.1-.116,2.306,2.306,0,0,1-.411-.836,2.475,2.475,0,0,1,0-.305c0-.06,0-.122,0-.182s.023-.122.028-.186c.009-.1-.014-.206,0-.308.005-.051.023-.1.029-.152a.388.388,0,0,1,.06-.156.558.558,0,0,1,.251-.148c.068-.019.207.019.225-.08s-.142-.149-.015-.217c.053-.028.079.008.136.014.041.005.088-.01.128,0,.056.01.049.024.055.078s.024.064.079.077.054.029.013.079-.048.067-.1.075c-.034.005-.09-.019-.119,0s-.029.085-.019.122a.84.84,0,0,0,.251,0,.859.859,0,0,1,.255.019.527.527,0,0,1,.129.038.225.225,0,0,0,.129.046c.088,0,.167.026.254.025a1.215,1.215,0,0,1,.166,0,.537.537,0,0,1,.141.068.552.552,0,0,0,.18.06c.063.009.083.057.127.1a.514.514,0,0,0,.18.129.279.279,0,0,0,.2.02c.049-.031.01-.28.153-.2.1.062-.05.22.105.266a2.536,2.536,0,0,0,.294.014.211.211,0,0,1,.152.11.32.32,0,0,0,.143.118,1,1,0,0,0,.148.03c.058.015.094.056.159.046l-.025-.025c.009-.044.105-.025.139-.025.063,0,.117-.025.178-.026s.09.025.142.028a.824.824,0,0,0,.167,0c.114-.02.183-.117.289-.147s.223.044.338.015.26.005.384-.025a.563.563,0,0,0,.3-.122c.109-.1.264-.094.385-.172a.324.324,0,0,0,.1-.136c.026-.049.01-.124.049-.166.07.005.094.127.182.119a.4.4,0,0,0,.151-.079c.062-.04.122-.072.181-.116s.114-.1.178-.142a.805.805,0,0,0,.1-.069.559.559,0,0,1,.1-.064c.023-.013.039-.031.063-.043s.062-.015.089-.026a.357.357,0,0,0,.23-.282l.1-.153c0,.006,0,.011,0,.018a.343.343,0,0,0,.026-.2.736.736,0,0,0,0-.175c-.044-.016-.1.023-.151.024a.133.133,0,0,1-.114-.038c-.063-.053-.2-.224-.025-.195.044.008.092.068.136.05s.031-.1.018-.137c-.036-.1-.153-.138-.22-.22s-.056-.2-.131-.259c-.041-.033-.1-.025-.139-.06a.382.382,0,0,1-.107-.122.339.339,0,0,1,.013-.3c.034-.084.131-.167.136-.261l.025-.025c.068-.068.166-.123.156-.23-.009-.092-.084-.139-.116-.218-.044-.108.069-.1.117-.172s-.038-.118-.053-.2a.161.161,0,0,1,.021-.122c.019-.031.073-.06.072-.1,0-.075-.127-.1-.094-.2s.124.008.2.016a.516.516,0,0,0,.211-.044.237.237,0,0,0,.1-.195c-.005-.088-.049-.159-.051-.251a1.979,1.979,0,0,1,.031-.517c.025-.1.246-.412.014-.428-.033,0-.065.01-.1,0s-.06-.057-.082-.073c-.043-.034-.07-.06-.122-.038-.033.014-.06.07-.1.063-.021-.07.051-.348-.078-.316-.02-.065.016-.119-.054-.17-.041-.03-.127,0-.146-.048.023-.093.178-.008.17-.1,0-.046-.154-.161-.19-.193a1.231,1.231,0,0,1-.119-.089.437.437,0,0,1-.049-.1.162.162,0,0,1,.013-.2c.065-.077.074-.173.141-.244s.114-.112.074-.2c-.031-.072-.131-.074-.153-.153a.565.565,0,0,1,.008-.2c.072.045.166-.009.245-.009.1,0,.192,0,.288,0a.362.362,0,0,1,.257.077c.048.038.045.046.107.051a.284.284,0,0,1,.128.031.46.46,0,0,0,.223.044A.094.094,0,0,1,57.8,63c.02.021.039.041.058.064a.3.3,0,0,0,.107,0,.493.493,0,0,0,.122-.005c.046-.013.085-.055.129-.067.107-.029.147.09.249.074a1.046,1.046,0,0,1,.108-.028c.041,0,.085,0,.128,0h.256l-.025-.025a1.327,1.327,0,0,1,.331.013c.063.018.123,0,.186.018a.827.827,0,0,0,.153.046.67.67,0,0,0,.378-.058,1.056,1.056,0,0,1,.311-.117,1.515,1.515,0,0,1,.21-.033.361.361,0,0,0,.09,0,.631.631,0,0,0,.1-.055,2.089,2.089,0,0,1,.344-.191,2.847,2.847,0,0,1,.761-.056h-.025c.04-.059.154-.08.22-.1.083-.029.17-.035.254-.063a1,1,0,0,0,.105-.049.721.721,0,0,1,.087-.02c.033-.01.062-.033.1-.04s.055,0,.082,0a.92.92,0,0,1,.1-.029c.053-.005.1.006.157,0a1.671,1.671,0,0,1,.261-.046,1.792,1.792,0,0,0,.4-.056,2.676,2.676,0,0,0,.408-.116,2.959,2.959,0,0,1,.462-.159c.123-.029.241-.07.364-.1.073-.016.144-.039.217-.051a1.3,1.3,0,0,1,.21-.006v-.025c.067,0,.126-.083.2-.079s.128.043.2.029a.554.554,0,0,0,.236-.129.4.4,0,0,1,.181-.083c.154-.054.281-.176.433-.231.121-.043.255-.054.378-.1a3.507,3.507,0,0,1,.421-.2.924.924,0,0,1,.186-.019c.112-.006.122-.078.186-.149.034-.038.014-.03.077-.03a.458.458,0,0,0,.083,0c.089-.018.132-.079.2-.123a.66.66,0,0,0,.105-.057c.029-.024.051-.056.079-.083a.541.541,0,0,1,.251-.148c.087-.059.138-.193.25-.206.07-.009.156.025.212-.035.039-.043.024-.079.08-.112.038-.021.088-.035.128-.057a.68.68,0,0,0,.2-.128,1.044,1.044,0,0,0,.148-.177.633.633,0,0,0,.057-.334A1.811,1.811,0,0,1,69.5,59a.529.529,0,0,1,.072-.193c.03-.048.04-.1.068-.147a1.345,1.345,0,0,1,.218-.221,2.136,2.136,0,0,0,.227-.225c.058-.08.014-.2-.009-.283a.767.767,0,0,1-.019-.227c0-.107.075-.154.148-.226.028-.026.064-.08.11-.054.067.038-.005.1-.028.126a.487.487,0,0,0-.078.225c-.005.036.024.208.051.211.049-.039.077-.137.116-.19s.077-.1.116-.143.074-.127.128-.181l.148-.147A1.458,1.458,0,0,0,71.023,57c.029-.053.048-.116.082-.167s.083-.1.117-.156c.149-.252.269-.519.417-.771a1.471,1.471,0,0,1,.113-.178,1.127,1.127,0,0,0,.128-.206c.033-.06.077-.116.109-.177a.348.348,0,0,0,.063-.2V54.66a2.985,2.985,0,0,0,0-.411,2.226,2.226,0,0,1-.024-.343c0-.141-.015-.271-.025-.408a.934.934,0,0,0-.089-.372c-.03-.053-.078-.1-.143-.075-.043.018-.063.075-.1.1a.62.62,0,0,1-.32.025c-.049-.005-.092-.024-.141-.028s-.118,0-.176,0-.085.009-.132-.044a.609.609,0,0,0-.1-.112c-.055-.038-.1-.013-.154-.025a.612.612,0,0,1-.133-.075.719.719,0,0,1-.3-.54.191.191,0,0,0-.1-.151.277.277,0,0,1-.123-.1.537.537,0,0,1-.031-.283,1.892,1.892,0,0,1,.026-.294c.011-.083.038-.164.056-.247a1.466,1.466,0,0,1,.134-.34c.041-.082.092-.164.141-.242.068-.107.126-.217.186-.328a1.7,1.7,0,0,1,.2-.311v-.025a.645.645,0,0,0-.2-.306c-.046-.044-.1-.08-.142-.127a1.29,1.29,0,0,0-.167-.175,7.245,7.245,0,0,1-.52-.552,2.067,2.067,0,0,0-.286-.23.562.562,0,0,1-.138-.092.83.83,0,0,0-.141-.116,1.359,1.359,0,0,0-.7-.294c-.2-.113-.4-.206-.606-.3a2.969,2.969,0,0,1-.657-.377c-.053-.044-.1-.087-.159-.128a.865.865,0,0,1-.138-.1.693.693,0,0,1-.128-.309,1.481,1.481,0,0,1,.024-.316.573.573,0,0,1,.021-.154.329.329,0,0,0,.033-.154l.051.051a2.236,2.236,0,0,1,.02-.46.778.778,0,0,0-.045-.461c-.04-.077-.089-.151-.129-.229s-.043-.186-.082-.276c-.013-.031-.038-.049-.048-.082a.541.541,0,0,0-.024-.1c-.034-.069-.067-.141-.1-.21a1.223,1.223,0,0,1-.1-.23c-.009-.033,0-.064-.01-.1a1.049,1.049,0,0,1-.044-.116,1.238,1.238,0,0,1-.023-.441.909.909,0,0,1,.058-.2c.041-.084.054-.182.1-.264a1.514,1.514,0,0,0,.123-.208.651.651,0,0,0,.025-.231c0-.1,0-.206,0-.308a.429.429,0,0,0-.005-.121c-.01-.036-.053-.075-.05-.116.009-.094.354-.026.439-.043a.7.7,0,0,1,.128-.028.874.874,0,0,0,.128,0c.083-.015.139-.107.171-.178a1.248,1.248,0,0,0,.033-.488,1.441,1.441,0,0,0,0-.255,1.112,1.112,0,0,0-.078-.2c-.038-.093-.079-.186-.121-.276a1.842,1.842,0,0,1-.142-.281,1.066,1.066,0,0,1,.008-.511,1.4,1.4,0,0,1,.108-.234.6.6,0,0,0,.1-.283v-.153a.254.254,0,0,0-.045-.158.487.487,0,0,1-.059-.169c-.013-.122.1-.175.1-.29a.9.9,0,0,0-.05-.352c-.035-.1-.141-.158-.176-.259-.082-.235.279-.246.416-.283.23-.063.193-.323.193-.509h.025A1.333,1.333,0,0,0,67.705,37c0-.092-.1-.156-.172-.2s-.187-.1-.11-.2.173-.018.259-.074a.671.671,0,0,0,.177-.226c.04-.065.1-.127.1-.208-.006-.026-.013-.051-.021-.078s-.008-.067-.013-.1a.818.818,0,0,0-.051-.105,1.171,1.171,0,0,0-.072-.129.122.122,0,0,1-.02-.121c.015-.039.05-.069.067-.108s.029-.08.05-.122a.509.509,0,0,0,.083-.236.359.359,0,0,0,0-.122c-.015-.036-.048-.055-.074-.083s-.062-.065,0-.1l.073-.009c.021-.013.043-.026.063-.04.09-.045.212-.088.226-.2a.554.554,0,0,0-.046-.262,2.084,2.084,0,0,0-.128-.254c-.024-.043-.039-.093-.063-.134s-.079-.09-.072-.147l-.077-.178c0-.215-.04-.452.127-.614a2.586,2.586,0,0,1,.358-.241c.083-.056.2-.1.207-.211a.9.9,0,0,1,.064-.48.614.614,0,0,1,.24-.182c.1-.048.148-.084.154-.195,0-.065,0-.121.065-.161.036-.023.082-.025.119-.05a.229.229,0,0,0,.122-.22.324.324,0,0,1,.089-.269c.074-.075.065-.118.064-.223s.033-.171.148-.172a.824.824,0,0,0,.236-.011.734.734,0,0,0,.22-.154c.038-.031.077-.058.113-.089a.476.476,0,0,0,.065-.05c.018-.023.02-.05.036-.073.073-.1.178-.185.252-.286a1.082,1.082,0,0,1,.105-.154c.033-.033.083-.054.112-.088s.043-.117.074-.168.049-.072.072-.112c.041-.075.142-.151.128-.245v-.025a.907.907,0,0,0,.154-.2c.04-.073.087-.138.127-.21a.89.89,0,0,0,.109-.2c.018-.062.025-.129.046-.19.045-.131.232-.152.33-.225.03-.023.053-.049.083-.072s.078-.035.093-.062c.029-.049-.02-.131-.023-.181,0-.082-.005-.126.065-.177.054-.04.117-.072.168-.117a1.843,1.843,0,0,0,.159-.153.221.221,0,0,0,.044-.18c0-.059-.015-.127.039-.164s.116-.046.166-.1.112-.142.172-.206a1.094,1.094,0,0,0,.161-.225v-.025c.063-.048.093-.152.142-.216s.034-.127.077-.182a.992.992,0,0,1,.191-.153.8.8,0,0,1,.208-.077c.116-.044.049-.08.046-.164s.059-.078.129-.078c.053,0,.105,0,.158,0s.183.023.217-.01c-.009-.03-.008-.065-.016-.093s-.048-.067-.044-.1c.006-.059.107-.114.146-.158a.239.239,0,0,0,.077-.17c0-.06-.009-.136.036-.185s.143-.049.2-.1a.363.363,0,0,0,.07-.151c.013-.034,0-.048.033-.069a.2.2,0,0,1,.1-.016.36.36,0,0,0,.18-.063.191.191,0,0,0,.1-.168.612.612,0,0,1,0-.186c.03-.075.134-.089.2-.11a.431.431,0,0,0,.2-.112.891.891,0,0,0,.128-.178c.044-.072.063-.138.139-.065.053.05.1.09.167.041a.235.235,0,0,0,.073-.084c.013-.033,0-.063.008-.1.044,0,.082.049.133.051a.44.44,0,0,0,.141,0,.2.2,0,0,0-.01-.139c-.03-.044-.1-.04-.139-.068-.005-.105.193-.072.254-.072l.077-.153c.069-.074.161-.078.245-.123s.073-.092.109-.156c.073-.124.226-.146.34-.213a.827.827,0,0,0,.276-.218c.046-.064.057-.085.137-.088.065,0,.136.02.193-.018s.085-.1.172-.118a.647.647,0,0,1,.139,0,.323.323,0,0,0,.26-.105,2.206,2.206,0,0,0,.237-.259,1.01,1.01,0,0,0,.1-.119c.029-.048.03-.1.075-.134.166-.142.406-.065.583-.178a.756.756,0,0,0,.242-.207,1.913,1.913,0,0,1,.162-.294c.082-.093.206-.143.3-.227.029-.028.084-.067.1-.1s-.018-.105.026-.134.118.019.168-.04c.034-.04.015-.075,0-.119C80.212,20.1,80.139,20,80.1,19.881Z" transform="translate(-29.96 -5)"/>
      <path id="Path_3857" data-name="Path 3857" d="M31.1,56.527s0,0,0-.005c0-.026,0-.051,0-.077Z" transform="translate(-29.668 8.148)"/>
      <path id="Path_3858" data-name="Path 3858" d="M52.244,51.762c-.018-.014-.035-.025-.053-.041s-.058-.053-.085-.082a.129.129,0,0,0-.036-.033.127.127,0,0,0-.062,0,.15.15,0,0,0-.06.025l-.043.021a.085.085,0,0,1-.1-.006c-.03-.028-.07-.041-.093,0a.141.141,0,0,0,.02.182l.018.062c.016,0,.034,0,.05,0a.629.629,0,0,1,.064.02.57.57,0,0,1,.121.041.9.9,0,0,1,.1.05c.024.015.048.031.072.044a.189.189,0,0,0,.088.011A.1.1,0,0,0,52.315,52a.236.236,0,0,0,.026-.1c0-.045-.026-.063-.056-.093A.465.465,0,0,0,52.244,51.762Z" transform="translate(-24.408 6.91)"/>
      <path id="Path_3859" data-name="Path 3859" d="M51.918,51.559c.034,0,.051.019.079-.009a.135.135,0,0,0,.044-.078c.009-.087-.07-.078-.134-.08-.021,0-.021,0-.033-.016a.147.147,0,0,0-.06-.054c-.04-.02-.069,0-.107.014a.087.087,0,0,1-.044.006c-.02-.006-.024-.036-.035-.053a.136.136,0,0,0-.088-.045.1.1,0,0,0-.1.026.076.076,0,0,0,0,.1.182.182,0,0,0,.068.079.108.108,0,0,0,.053.008c.023,0,.03,0,.036.021a.2.2,0,0,0,.01.053c.013.025.024.024.05.024a.5.5,0,0,1,.062,0,.186.186,0,0,0,.053.009l-.018-.07c.031,0,.063.03.088.046A.192.192,0,0,0,51.918,51.559Z" transform="translate(-24.473 6.818)"/>
      <path id="Path_3860" data-name="Path 3860" d="M51.874,52.422c-.024-.009-.016-.031-.025-.051a.131.131,0,0,0-.058-.062.355.355,0,0,0-.138-.038c-.043,0-.08-.018-.123-.018l-.062.035c.009.011.024.015.034.026s.01.024.02.035.036.039.055.056a.681.681,0,0,0,.171.105.266.266,0,0,0,.128.048c.019,0,.051.008.067-.008s.008-.044.008-.063.008-.055-.008-.067S51.894,52.43,51.874,52.422Z" transform="translate(-24.463 7.077)"/>
      <path id="Path_3861" data-name="Path 3861" d="M51.637,52c-.019,0-.1.051-.08.07l-.018.026a.25.25,0,0,0,.114.077.062.062,0,0,0,.065-.02.091.091,0,0,0,.005-.055A.127.127,0,0,0,51.637,52Z" transform="translate(-24.445 7.012)"/>
      <path id="Path_3862" data-name="Path 3862" d="M51.8,55.189a.21.21,0,0,0-.063,0,.19.19,0,0,0-.064.05l-.034.059c.023.019.029.049.059.058a.3.3,0,0,0,.067,0,.185.185,0,0,0,.059,0,.075.075,0,0,0,.043-.058.131.131,0,0,0,0-.031c0-.014-.01-.016-.018-.029S51.831,55.2,51.8,55.189Z" transform="translate(-24.419 7.826)"/>
      <path id="Path_3863" data-name="Path 3863" d="M51.777,55.49c-.009-.023-.051-.029-.073-.031a.207.207,0,0,0-.079,0c-.01.006-.016.045-.02.056a.106.106,0,0,0-.005.034.093.093,0,0,0,.025.068c.011.015.016.03.035.035a.2.2,0,0,0,.039,0c.025,0,.058,0,.078-.016h-.034c0-.02.019-.053.025-.07A.117.117,0,0,0,51.777,55.49Z" transform="translate(-24.429 7.895)"/>
    </g>
  </g>
</svg>
