<svg xmlns="http://www.w3.org/2000/svg" viewBox="0 0 141.82 98.15"><defs><style>.a{fill:#b89474;}</style></defs><path class="a" d="M88.22,18.71a1.66,1.66,0,0,1,.48.1,1.2,1.2,0,0,1,.26.25l.21.5,0,.13,0,.12a.25.25,0,0,0,.12.1v.15l-.19.59s.09-.09.14-.2.15-.16.13-.21l.07-.17a.64.64,0,0,1,0-.21.86.86,0,0,0-.14-.83l-.12-.46c0-.09-.08-.14-.23-.2l-.12.06c0-.12-.06-.2-.32-.23s-.34-.06-.29-.18a.36.36,0,0,1-.3,0,1.35,1.35,0,0,0-.21-.13.66.66,0,0,1-.48-.09,3.23,3.23,0,0,1-.49-.3c-.2-.12-.3-.24-.31-.39l-.13-.3a.49.49,0,0,0-.18-.08l-.07.18a.75.75,0,0,0,0,.24.84.84,0,0,0,0,.66l.06.13s.06.09.14.16l.08.18a.22.22,0,0,1,.11.1s.08.07.18.08a1.15,1.15,0,0,1,.29.16,1.33,1.33,0,0,0,.2.65,1.05,1.05,0,0,0,.2.28.41.41,0,0,0,.35.15c.07-.08,0-.19-.07-.34s0-.27.18-.44A.44.44,0,0,1,88.22,18.71Z"/><path class="a" d="M77.39,11.92a.67.67,0,0,0,.4-.18.3.3,0,0,0,.32-.24c-.17-.08-.28-.1-.32-.06h-.27l-.46-.12h-.4l-.13.12c-.09.2,0,.34.2.42Z"/><path class="a" d="M58.39,4.73a.55.55,0,0,0,.33.18h.13a.4.4,0,0,1,.2.12l.13.12s.07,0,.15.1l.11.17A29.25,29.25,0,0,1,61.09,8c.4.74.11,1.36.46,2.11.09.21.23.36.36.61,0,.08.2.71.46,1.57.56,1.87,1.42,4.72,1.46,4.72a1.21,1.21,0,0,1,.43.16L64,16.28l.2,0v-.66a.54.54,0,0,1-.14-.42v-.24l-.13-.18a2.23,2.23,0,0,1-.13-.3.38.38,0,0,1,.13-.3l-.26-.3.06-.12-.06-.3.13-.18-.13-.06v-.12l-.14-.24c-.08,0-.13-.08-.13-.12s0-.06-.13-.06l-.13.06a.84.84,0,0,0-.18-.15,1,1,0,0,0-.12-.43.64.64,0,0,1-.06-.16l.56,0h.53l.46-.06h.33a.45.45,0,0,0,.39-.18c0-.08,0-.12-.13-.12a1.16,1.16,0,0,0-.33-.06H62.77L62.61,11c.09,0,.16,0,.2,0l2.24-.06a.65.65,0,0,0,.2-.06.2.2,0,0,1,.14-.06.47.47,0,0,0-.4-.24,2.44,2.44,0,0,0-.53,0H62.4l0-.11a.24.24,0,0,1-.06-.18.29.29,0,0,0-.07-.2L63.53,10a.63.63,0,0,1,.27.06h.13a.3.3,0,0,1,.2-.06,1,1,0,0,1,.4.06s.08-.1.26-.18.13-.21-.13-.24a1.39,1.39,0,0,1-.4-.06.3.3,0,0,0-.33.06l-.46-.12.2-.18a.82.82,0,0,1,.13-.36q.2-.24,0-.42l.07-.36-.27-.36c0-.12-.07-.2-.33-.24a3.15,3.15,0,0,0-.53-.06l-.33.18-.33.3-.23-.11-.13-.05-.07-.19a.13.13,0,0,0,0-.19l.46-.06.6-.24V7h-1l-.17,0c-.05,0-.07-.1-.07-.3a.56.56,0,0,0-.07-.26.53.53,0,0,0,.37.06,3.55,3.55,0,0,1,.93,0l.13-.06h.53l1-.12c.17-.2.24-.3.2-.3a.78.78,0,0,0-.4-.06,1.44,1.44,0,0,1-.4-.06.23.23,0,0,0-.26.06l-.39-.12-.6.12h-1l-.14.12s0,0-.08.08A2,2,0,0,0,60,5a.5.5,0,0,0-.13-.33,2.56,2.56,0,0,1-.27-.29c0-.13-.11-.19-.2-.19S59.36,4,59.18,4a1.87,1.87,0,0,1-.4-.25l-.06-.18.2-.12c.21,0,.35,0,.39-.05a.5.5,0,0,1,.46-.07c.14.08.18.14.14.19a.43.43,0,0,0,.06.17,1.23,1.23,0,0,0,.46.06l.14-.06.13.06.66-.06V3.29a.44.44,0,0,1,.07-.24s.1-.08.19-.24a.4.4,0,0,0,.07-.24h.13l-.07-.17H62l-.13-.18L62,2.16c.18-.08.24-.14.2-.18s.07-.1.33-.18l.46.42a.52.52,0,0,1-.33.11c-.08,0-.13.08-.13.24s.11.31.46.31l.2-.12c.13.19.22.29.26.29s.13.08.13.24l-.26,0a1,1,0,0,1-.46-.12.24.24,0,0,1-.26.17,1.34,1.34,0,0,1-.27-.17l-.06.12L62,3.41c0,.17.09.24.13.24a1.11,1.11,0,0,1,.27.06h.92a.38.38,0,0,0,.33-.3c.09,0,.13.08.13.12h.2a1.12,1.12,0,0,0,.46-.12l.4-.24a.43.43,0,0,1,.53,0l-.14.12s.07,0,.07.12,0,.12-.07.12l.14.12h.39a.24.24,0,0,0,.2-.06l.13.12-.19.18-.27.19a.56.56,0,0,0-.19.11,1,1,0,0,1-.21.12,1.54,1.54,0,0,0-.26.48,1.71,1.71,0,0,0-.13.48h-.13V6.89l.06.78.14.06L64.79,8v.18l.13.42a1.62,1.62,0,0,0,.13.6.21.21,0,0,1,0,.24.79.79,0,0,0,.07.3l.2.59a.9.9,0,0,1,.07.54,1.2,1.2,0,0,1,.13.54v.18l.06.18a.58.58,0,0,1,.07.3,1.42,1.42,0,0,0,.13.3c0,.2,0,.32.13.36-.09.16,0,.5.13,1a3.46,3.46,0,0,1,.27,1V15L66,15h-.33a.23.23,0,0,0-.19-.06.28.28,0,0,0-.2.06h-.27c0,.08,0,.14-.13.24s.07.14.2.18a.44.44,0,0,0,.4-.06l.13.06.39-.06a1.43,1.43,0,0,0,.4-.18l.33,1.44v.24l-.33-.07q-.33,0-.33,0s-.09.07-.26.07h-.46c-.14,0-.23,0-.27.17.13,0,.2.11.2.18s.18.06.39.06h.2a1,1,0,0,1,.33-.06h.27c.08,0,.19,0,.39-.06v.18a.78.78,0,0,1,.14.54,2.66,2.66,0,0,0,.13.54,3.62,3.62,0,0,0,.13.54,4.16,4.16,0,0,1,.13.6l.13.48a1,1,0,0,0,.13.36.38.38,0,0,1,.07.18.92.92,0,0,0,.06.54c.09.2.12.34.07.42a.6.6,0,0,1,.13.3,2.69,2.69,0,0,0,.13.36,1.05,1.05,0,0,0,.07.3l.13.24a1.42,1.42,0,0,1,.13.3.2.2,0,0,1,0,.21c0,.2.12.63.17.91a.38.38,0,0,1,.12.2,1.05,1.05,0,0,1,.07.24v.53a.52.52,0,0,1,0,.18.46.46,0,0,1,.19.42c.09.13.11.2.07.24s0,.1,0,.18l.13.3a1.76,1.76,0,0,1,.13.6v.18s.11.08.2.24a1,1,0,0,0,.13.48.92.92,0,0,1,.07.36,1.56,1.56,0,0,1,.06.48,2.68,2.68,0,0,1,.2.66l.13.54a1.06,1.06,0,0,1,.07.42,1.76,1.76,0,0,0,.13.36,1.21,1.21,0,0,0,.07.24,1.25,1.25,0,0,1,.07.41l-.27-.05a2.36,2.36,0,0,1-.72.12.91.91,0,0,0-.66.12c0,.15,0,.24.06.24a.13.13,0,0,1,.2.05l.26-.05h.6a1.27,1.27,0,0,0,.59-.12,1.15,1.15,0,0,1,.07.36,2.67,2.67,0,0,0,.26.48l.13-.13v-.17l.2-.61.4-2.15a.68.68,0,0,0,.13-.42,1,1,0,0,1,.06-.42,3.68,3.68,0,0,1,.14-.48.93.93,0,0,0,.13-.54,2.06,2.06,0,0,0,.13-.54c0-.28.07-.44.07-.48v-.24a.53.53,0,0,0,.06-.24l.13-.23a.25.25,0,0,0,.07-.19v-.36a3,3,0,0,1,.2-.6v-.29a1,1,0,0,0,.13-.19v-.12c0-.07,0-.13,0-.17a.3.3,0,0,0,.07-.31,1.2,1.2,0,0,1,.13-.47,1.13,1.13,0,0,0,.06-.36,2.83,2.83,0,0,1,.07-.36.21.21,0,0,1,.07-.18.67.67,0,0,0,.06-.3v-.3s0-.1.13-.18v-.36a.44.44,0,0,0,.07-.24c.09-.24.11-.34.07-.3v-.24a1.24,1.24,0,0,1,.2-.6.74.74,0,0,0,.13-.54L74,19v-.3c.09-.08.13-.14.13-.18l.07-.42.06-.18a.53.53,0,0,1,0-.36,1.79,1.79,0,0,0,.21-.47v-.42c0-.16.08-.2.13-.13s.08,0,.13-.17c-.13-.09-.16-.25-.07-.48a1.6,1.6,0,0,0,.07-.84.4.4,0,0,0,.2-.36v-.42a1,1,0,0,1,.19-.48.38.38,0,0,0,.07-.18.44.44,0,0,1,.07-.24v-.18a1.71,1.71,0,0,1,.13-.48,2.19,2.19,0,0,1,.26-.6.21.21,0,0,0,0-.24.79.79,0,0,1,.07-.3.24.24,0,0,1,.06-.18c.05,0,.07-.12.07-.24v-.3a1.07,1.07,0,0,0,.06-.35.53.53,0,0,1,0-.36,1.68,1.68,0,0,0,.14-.3.5.5,0,0,1,.06-.24.78.78,0,0,0,0-.48c0-.2,0-.3.07-.3s.13-.16.13-.42c0,0,0-.11-.06-.18a1.86,1.86,0,0,0,.26-.66V7.37s0-.1.07-.18l-.14-.06.07-.3a.21.21,0,0,1,0-.24.79.79,0,0,0,.07-.3.38.38,0,0,0-.07-.18V5.87a.25.25,0,0,0-.13-.24.21.21,0,0,1,0-.24.36.36,0,0,0-.13-.24.79.79,0,0,1-.07-.3,2.44,2.44,0,0,0-.27-.6.5.5,0,0,0-.52-.36.53.53,0,0,0-.46-.18c-.14-.12-.18-.23-.14-.35s.18-.24.4-.24a.19.19,0,0,1,.13-.19.42.42,0,0,1,.27-.12.56.56,0,0,0,.19,0,1,1,0,0,1,.8.43h-.67c0,.12-.13.15-.26.12s-.24,0-.33.23l.14.12a1.17,1.17,0,0,0,.45-.06.27.27,0,0,1,.2.06h.53l.13-.12a1.45,1.45,0,0,1,.07-.23l.2.35c.09,0,.13.08.13.13h.2a.29.29,0,0,0,.19-.31V3.41c0-.07,0-.12-.06-.12V2.88a1.13,1.13,0,0,1,.06-.36,1.5,1.5,0,0,0,.14-.72l.19-.18c.14,0,.2-.1.2-.18a.34.34,0,0,1,.14-.24.64.64,0,0,1,.13.24,2,2,0,0,0,.26.3l.4.42a.75.75,0,0,1,.13.53,3.89,3.89,0,0,1,.06.48l-.13,0h-.39l-.4,0a.41.41,0,0,0-.13.31c0,.11.18.17.53.17s.57-.07.66-.24l.59-.24.4-.36.19-.12c.18,0,.29,0,.33,0a.75.75,0,0,1,.34-.07.68.68,0,0,1,.26.07,1.9,1.9,0,0,1,.4,0,.17.17,0,0,1,.19.19c0,.19-.09.28-.26.24a.9.9,0,0,0-.26-.07c-.31,0-.46.05-.46.12s0,.08-.14.12a1.52,1.52,0,0,0,.2.24.11.11,0,0,1,.13.12,1,1,0,0,1-.13.19L81,4.08,80.56,4c-.26-.08-.42-.1-.46,0a1.18,1.18,0,0,1-.46,0l-.2.07L79.17,4l-.32,0h-.66l-.14.07h-.26l-1,0-.26,0v.3s0,0,0,.11l.26.07h.46a.9.9,0,0,1,.53,0l.33.05a.63.63,0,0,1,.26-.05h.27a3.44,3.44,0,0,0,.46-.07.32.32,0,0,1,.33,0,1,1,0,0,0,.33,0s.15,0,.33,0l.79,0L80.76,5l-.53-.06L79.84,5h-.33l-.34-.06L78.58,5H78l-.47-.06a.21.21,0,0,1-.19.12s-.07.08-.07.24a.15.15,0,0,0,.07.12.59.59,0,0,1,.33.06.55.55,0,0,0,.33.06,1.22,1.22,0,0,0,.33-.06,1.85,1.85,0,0,1,.39-.06h.2l.26-.06.4.06.33-.06h.59l.2-.09L80.45,6l-.15,0a1.92,1.92,0,0,0-.66-.12h-.79a1.17,1.17,0,0,0-.53,0,3.68,3.68,0,0,1-.66.06c-.22.16-.29.3-.2.42a.67.67,0,0,0,.46.18h.66l1.26-.18h.39V6.17h.14l-.27.54s0-.06-.13-.06a.18.18,0,0,0-.13.06s0,.06-.14.06a.27.27,0,0,0-.19.06.53.53,0,0,1-.2-.06h-.2s0-.06-.13-.06a.59.59,0,0,1-.33.06l-.46-.06a2.12,2.12,0,0,1-.73.06.22.22,0,0,1-.13.06.15.15,0,0,0-.07.12v.18s.07,0,.07.12h.33c.13-.12.19-.12.19,0v.42l-.33-.06h-.26c0,.08-.08.12-.13.12v.18c0,.28.11.36.39.3L78,8a.91.91,0,0,0,.46.18h.66a.19.19,0,0,1,.13-.06h.14c0-.08.08-.12.13-.12s.13-.14.13-.3,0-.44.13-.48l.25,0-.2.57h-.18L79.7,8l-.12.18c0,.11,0,.25-.13.44a.12.12,0,0,0-.14.08l-.4-.12-.2.06-.39-.06-.13.06H78l-.27-.06h-.26a.76.76,0,0,0-.46.24l.07.3.39.12V9.11c.13,0,.18.06.13.06l.13.06h.13s.05-.06.14-.06a2.24,2.24,0,0,1,.59-.12L79.35,9v.11l-.11.3c0,.06-.12.09-.2.17l-.58-.05h-.53l-.2.06-.06-.12h-.2s0,.06-.13.06a1.16,1.16,0,0,0-.33.06c-.09,0-.13.14-.07.36l.14.06L78.85,10,79,10l-.11.28-.21.08.07.15H76.93c-.17,0-.26,0-.26.23s.09.1.26.18l.59.06.67-.06.13-.06.37.12-.13.36-.3,1-.34,0H76.67l-.27.12s-.06.06,0,.24a.48.48,0,0,0,.33.12h.4a1.16,1.16,0,0,1,.33-.06h.26c.09,0,.13,0,.13.18a1,1,0,0,1-.06.42l-.33-.18s-.11,0-.27,0l-.12.06a1.09,1.09,0,0,0-.4-.06h-.33c-.13,0-.2.18-.2.42,0,0,0,.08.13.12a.53.53,0,0,0,.2.06l1-.12.2-.06a4.13,4.13,0,0,1-.07.72c0,.28,0,.46-.13.54a.39.39,0,0,1,0,.3c0,.08,0,.14-.13.24a1.59,1.59,0,0,1-.07.48,1.59,1.59,0,0,0-.07.36,1,1,0,0,0-.46-.18,1.1,1.1,0,0,0-.46-.06.62.62,0,0,1-.26-.06s-.14,0-.27.06c-.13-.09-.22-.09-.26,0a.34.34,0,0,1-.13.24l.13.24H76.8l.33-.18c0,.36,0,.57-.13.65s-.13.21-.07.54a.47.47,0,0,0-.13.36c0,.17-.11.18-.33.06h-1a.38.38,0,0,0-.33.06.35.35,0,0,0-.2.3c0,.08.18.12.4.12h.13l1.06-.06.06.24-.2.42-.19-.06q-.4,0-1-.06c-.36-.08-.53,0-.53.18a.35.35,0,0,0,.06.24c.09,0,.14,0,.14.06h.79a1.38,1.38,0,0,0,.59-.12l.07.12-.07.24v.18l-.26.3V20l-.2-.06h-.66a.78.78,0,0,0-.4.06l-.26.18.07.18a1.29,1.29,0,0,1,.33.06,1.16,1.16,0,0,0,.33.06l.65-.12.2-.12v.48a1,1,0,0,1-.06.24,1.52,1.52,0,0,1-.2.36v.24a4.15,4.15,0,0,1-.2.72,6.68,6.68,0,0,0-.13.66l-.06.18v.42a.63.63,0,0,1-.14.24.56.56,0,0,0-.13.24s.07,0,.07.12a1.52,1.52,0,0,1-.07.48l-.13.35c0,.2-.09.38-.13.55a.34.34,0,0,1-.2.29s0,.1,0,.3a2.14,2.14,0,0,0-.07.36.92.92,0,0,1-.13.3,1.8,1.8,0,0,0-.06.3.66.66,0,0,1-.07.3.82.82,0,0,1-.14.3v.3a1.13,1.13,0,0,0-.06.36v.12c-.09,0-.13.14-.13.3a1,1,0,0,1-.13.36,1.41,1.41,0,0,0-.07.42v.36s0,0-.06.24a.74.74,0,0,1-.07.18v.18a.78.78,0,0,0-.13.48,2.61,2.61,0,0,1-.07.47l-.2,1v.13a.19.19,0,0,0,.07.17l-.07.12v.48s0,.26.13.66a4.66,4.66,0,0,0,.2.54,1.4,1.4,0,0,0,.14.3.46.46,0,0,1,.06.18s.09,0,.13.12.07.18.2.3.2.16.2.24-.07.12-.2.12a.38.38,0,0,1-.07.18s0,.06.13.06h.27a.3.3,0,0,0,.2-.06.41.41,0,0,1,.26-.18l.13.06h.27a.79.79,0,0,0,.52-.12q.27.24.27.3a.21.21,0,0,0,.07.18.24.24,0,0,1,.06.18q-.06.12-.33.18a.57.57,0,0,0-.26.12c-.05-.05-.16-.06-.33-.06H75a.47.47,0,0,0-.33,0c0-.08-.2-.1-.47-.06a3,3,0,0,1-.52.06v.3l.2.12L74,37h.13l1.19-.06q-.07.3-.66.3a1.32,1.32,0,0,1-.73-.12q-.33.12-.39-.06c0-.16-.16-.24-.53-.24-.18,0-.26.12-.26.36a1.2,1.2,0,0,1,.06.36l-.06.36-.14.24a1,1,0,0,0-.46.12.55.55,0,0,0-.33.3,2.79,2.79,0,0,1-.2.59,1.42,1.42,0,0,1-.13.36L71,39.42l-.13.18c0,.08.16.12.33.12s.26,0,.26.06l-.06.24a.55.55,0,0,0-.07.24.19.19,0,0,1-.13.18l-.2.42h-.13c-.09-.12-.15-.22-.2-.3a1.57,1.57,0,0,0-.19-.36.61.61,0,0,1-.2-.3q-.08-.24,0-.24h-.2c0-.08,0-.12-.07-.12a.23.23,0,0,1-.06-.18v-.12A.33.33,0,0,0,70,39a.32.32,0,0,0-.06-.23v-.24q.06-.24,0-.18s-.11-.06-.2-.18l-.53-.06L68.88,38v-.3l.13-.24v-.18c.09,0,.16-.16.2-.36s0-.38-.2-.42a1,1,0,0,0-.39.12l-.53.24a2.16,2.16,0,0,0-.92.12,1.4,1.4,0,0,1-.66-.06l-.4-.06a1.73,1.73,0,0,0-.26-.18.45.45,0,0,0-.2-.06.53.53,0,0,1-.2-.06c0-.12,0-.18.13-.18a1.33,1.33,0,0,0,.2,0h.66a1.16,1.16,0,0,0,.33-.06.67.67,0,0,1,.33-.12l.53-.36a1.57,1.57,0,0,1,.19-.36,2,2,0,0,1,.27-.3l.06-.12a.21.21,0,0,0,.07-.18,1,1,0,0,1,.13-.36l-.06-.3V34a.46.46,0,0,0,.06-.18L68.09,32l.06-.17a.55.55,0,0,1-.06-.19.35.35,0,0,0-.07-.17.5.5,0,0,0-.06-.24c0-.08,0-.19.06-.3a.91.91,0,0,1-.2-.42,1,1,0,0,0-.06-.42,2.92,2.92,0,0,0-.13-.48,4.3,4.3,0,0,0-.2-.6c-.09-.08-.15-.08-.2,0a.53.53,0,0,0-.06.24.38.38,0,0,0-.07.18.25.25,0,0,1,.07.18,1.33,1.33,0,0,0,.06.42.69.69,0,0,0,.13.48l-.06.42a2.39,2.39,0,0,1,.13.42.79.79,0,0,1,.13.36v.24s.07.07.07.24v.23l.06.72v.36c0,.12,0,.18.07.18a4,4,0,0,1-.13.54,1.59,1.59,0,0,0-.07.48.9.9,0,0,1-.2.48c-.13.2-.22.34-.26.42l-.59.3A.68.68,0,0,1,66,36l-.59-.18a2.4,2.4,0,0,0-.53-.12,1.31,1.31,0,0,1-.53-.12.46.46,0,0,0-.06.18,1.63,1.63,0,0,0,.2.54,3.12,3.12,0,0,0,.26.42,2,2,0,0,0,.26.36q.08.12,0,.12l.13.12a.9.9,0,0,0,.21.24c.13.08.19.16.19.24a.43.43,0,0,1,.27.12l.32.12a1.46,1.46,0,0,0,.6.12,6.29,6.29,0,0,0,.86.06l.66-.06.39.71.53.12a.65.65,0,0,0,.27.24c.12.08.19.16.19.24a.14.14,0,0,1-.07.12v.12a4.58,4.58,0,0,0,.14.54l.26.54a1.42,1.42,0,0,1,.13.36l.14.18a1.25,1.25,0,0,1,.26.48.85.85,0,0,0,.2.24.43.43,0,0,1,.2.24c-.05.12,0,.2.13.24l.39.18a1.11,1.11,0,0,0,.27-.3.38.38,0,0,0,.13-.3,2.23,2.23,0,0,0,.13-.3.56.56,0,0,0,.14-.3l.13-.24.13-.36q.06-.18,0-.18l.13-.18a.46.46,0,0,1,.07-.18.17.17,0,0,0,.06-.12,1.59,1.59,0,0,0,.14-.66c0-.24.1-.38.19-.42s.25-.13.6-.18.52-.24.39-.59a.41.41,0,0,1,.4.06.38.38,0,0,0,.33.05,1,1,0,0,1,.33-.05l.53-.12a1.14,1.14,0,0,1,.39-.18.88.88,0,0,0,.33-.18,2.73,2.73,0,0,1,.4-.3,1.27,1.27,0,0,1,.46-.3c.05,0,.11-.14.2-.42a.52.52,0,0,0,.06-.18.34.34,0,0,1,.07-.18,2.7,2.7,0,0,1,.06-.36,1.19,1.19,0,0,0,.14-.48,2.46,2.46,0,0,0-.07-.6c0-.2-.13-.3-.4-.3h-.32a.51.51,0,0,1-.33.18.72.72,0,0,0-.53.3h-.33a.18.18,0,0,1-.13-.06s-.11,0-.2,0a.73.73,0,0,0-.2-.36,2.42,2.42,0,0,1-.26-.36l-.33-.3a.62.62,0,0,0,.06-.36v-.42a.25.25,0,0,0,.07-.18v-.12a2.46,2.46,0,0,0-.07-.3v-.29a.4.4,0,0,1,.07-.24,1.13,1.13,0,0,0,.06-.36l.07-.19c0-.19,0-.32,0-.36A.78.78,0,0,0,75,31c.09-.08.11-.15.07-.23a.67.67,0,0,1,.06-.3,2.25,2.25,0,0,0,.14-.6,4.63,4.63,0,0,0,.13-.72,1.34,1.34,0,0,1,.07-.3.6.6,0,0,1,.13-.3v-.24a1,1,0,0,0,.06-.3v-.12s.07-.14.07-.3a.72.72,0,0,1,.13-.36.72.72,0,0,0,0-.42v-.12l.13-.18a2.32,2.32,0,0,1,.2-.89v-.13a.19.19,0,0,1,.13-.12.26.26,0,0,0-.06-.18c0-.07,0-.16.06-.3v-.11a.19.19,0,0,0,.07-.12,2.75,2.75,0,0,1,.06-.43l.2-.41a1.32,1.32,0,0,0,.13-.36,2,2,0,0,0,.07-.42v-.48a.38.38,0,0,1,.13-.3,1.82,1.82,0,0,0,.07-.36.55.55,0,0,0,.07-.24,1.05,1.05,0,0,0,.12-.3s.07-.16.07-.36a.3.3,0,0,1,.07-.24.89.89,0,0,0,.17-.24l0-.36v-.12a.19.19,0,0,1,.07-.12,1.42,1.42,0,0,0,.13-.3,1.21,1.21,0,0,1,.07-.24.25.25,0,0,0,0-.24,1.21,1.21,0,0,1,.13-.42,1.88,1.88,0,0,0,.13-.66.47.47,0,0,1,.07-.24.53.53,0,0,0,.07-.3v-.12a.6.6,0,0,1,.06-.24l.13-.35-.06-.12.13-.06a1.09,1.09,0,0,1,.07-.42,1.18,1.18,0,0,0,.06-.36,1.29,1.29,0,0,1,.07-.36,1,1,0,0,1,.18-.3l.3-1.05,1-3.14.07-.46L80.91,8l1.16-4,.35,0,.42-.12s1.32-.72,0-1.38c-.2-.1-.34-.12-.53-.22A1.1,1.1,0,0,0,81.49,2h-.27a1.7,1.7,0,0,0-.92.18A4.07,4.07,0,0,0,80,1.8c-.13-.17-.19-.26-.19-.3V1.38l-.27-.3L79.11.66,78.85.3,78.19,0l-.34.24-.13.3a1.14,1.14,0,0,0-.26.6,2,2,0,0,0-.33.72q-.19.54-.33.54a.47.47,0,0,1-.2-.07.42.42,0,0,0-.2-.17h-.72a2.62,2.62,0,0,0-.86.17,2,2,0,0,0-.73.43,1.88,1.88,0,0,0-.52.6.7.7,0,0,0,.06.65c0,.12.27.3.66.55a4.37,4.37,0,0,1,.66.35q.33.12.33.18a1.23,1.23,0,0,1,.2.3,1.41,1.41,0,0,1,.2.78l.06,1.08v.6l.13.24a.89.89,0,0,0-.26.42,3.07,3.07,0,0,1-.13.6,2.32,2.32,0,0,1-.13.54.93.93,0,0,0,0,.54.63.63,0,0,0-.13.48,1.86,1.86,0,0,1-.14.65,2.53,2.53,0,0,1-.06.42,2.62,2.62,0,0,0-.07.72c-.13.2-.22.34-.26.42s-.07.14-.2.18-.11.84.2.84q-.07.12,0,.18s0,0-.07.12l-.19.18a.81.81,0,0,0-.21.3.24.24,0,0,1-.06.18V15a.21.21,0,0,1-.07.18.56.56,0,0,1-.13.24v.84a1.71,1.71,0,0,0-.19.48l-.07.47a.36.36,0,0,0-.13.24,1.59,1.59,0,0,1-.07.36v.12c0,.08,0,.12-.07.12v.6a1,1,0,0,1-.06.3.79.79,0,0,0-.07.3,2.7,2.7,0,0,1-.06.36l-.07.3.07.24-.14.24-.15.08-.24,1.06-.13.66a.25.25,0,0,1,0,.24.21.21,0,0,0-.07.18.3.3,0,0,1-.07.24s-.06,0-.06.12v.35a.66.66,0,0,1-.13.36l-.2,1.51a1.35,1.35,0,0,1-.07.48.88.88,0,0,0-.06.29l-.14.36a.67.67,0,0,1-.06.3l-.07.54v.3l-.06.3v.18a.9.9,0,0,1-.14.42c0,.12-.1.16-.19.12s-.13-.14-.13-.3V28L71,27.92a2.52,2.52,0,0,1-.06-.6,1.51,1.51,0,0,0-.14-.3,1.49,1.49,0,0,1-.13-.42,4.46,4.46,0,0,0-.13-.48v-.29a.68.68,0,0,0-.06-.31,2.92,2.92,0,0,0-.07-.42,1.56,1.56,0,0,1-.13-.36,1.35,1.35,0,0,1-.07-.41c0-.2,0-.31-.07-.31a.92.92,0,0,1-.13-.36.48.48,0,0,1-.06-.24.21.21,0,0,0-.07-.17q-.06-.12,0-.18a17.17,17.17,0,0,0-.39-1.74v-.42l-.27-.54.07-.18a.34.34,0,0,0-.14-.24.53.53,0,0,1-.06-.24.38.38,0,0,0-.07-.18v-.18L68.88,19a1.33,1.33,0,0,1-.06-.42,2.12,2.12,0,0,0-.07-.36,2.69,2.69,0,0,0-.13-.36.58.58,0,0,0-.07-.3.24.24,0,0,0-.07-.18.62.62,0,0,1-.06-.29.73.73,0,0,0-.13-.36,2.66,2.66,0,0,0-.07-.48V16a.14.14,0,0,0-.07-.12,1,1,0,0,0-.06-.24.21.21,0,0,0-.07-.18.53.53,0,0,1-.06-.24,1.09,1.09,0,0,0-.07-.42.79.79,0,0,0-.07-.3.88.88,0,0,0-.13-.36l-.33-1.68a2.7,2.7,0,0,1-.26-.78c-.09-.44-.14-.76-.2-1,0-.09,0-.17-.07-.25a1.07,1.07,0,0,1-.06-.23A.59.59,0,0,1,66.7,10a.67.67,0,0,0-.06-.3.23.23,0,0,1-.07-.18V9.23A.64.64,0,0,0,66.44,9V8.75a.34.34,0,0,1-.06-.18.2.2,0,0,0-.07-.24.44.44,0,0,1-.07-.24v-.3a1.94,1.94,0,0,0-.26-.9L66,6.71l.07-.18A.34.34,0,0,1,66,6.17l.13-.6V5.33a1.18,1.18,0,0,1,.34-.3.77.77,0,0,0,.19-.3.8.8,0,0,1,.4-.35,1.78,1.78,0,0,0,.33-.25c.18-.12.26-.24.26-.36V3.65a.35.35,0,0,0-.06-.24s-.07-.14-.07-.29a3.76,3.76,0,0,0-.66-.36,2.1,2.1,0,0,0-.73-.19.21.21,0,0,0-.19,0l-.13,0a1.11,1.11,0,0,0-.4-.12.87.87,0,0,0-.33.17,1,1,0,0,1-.33.12c-.09,0-.2-.07-.33-.24a1.1,1.1,0,0,0-.2-.29L64.2,2a.08.08,0,0,0,0-.12.93.93,0,0,1-.14-.36l-.53-.36L63.27,1a.43.43,0,0,0-.13-.36l-.2-.12-.2-.06-.59.24a4.09,4.09,0,0,1-.27.42c-.13.16-.21.32-.32.48a.4.4,0,0,1-.2.36.46.46,0,0,0-.27.18l-.19.36a1.82,1.82,0,0,1-.2.29l-.27-.17H60c.05,0-.08-.1-.4-.19a1.11,1.11,0,0,0-.52.12.54.54,0,0,1-.27.07.57.57,0,0,0-.39.17l-.26.24a.85.85,0,0,0-.47.66,1.93,1.93,0,0,0,.2.54A1,1,0,0,0,58.39,4.73Z"/><path class="a" d="M67.23,21.33h-.46a.72.72,0,0,1-.26.12c-.05,0-.07,0-.07.24a1.07,1.07,0,0,0,.66.12l.46-.06q.14,0,.33-.24c0-.12-.2-.18-.46-.18Z"/><path class="a" d="M65.12,21.81a1.87,1.87,0,0,0,.13.48,1.74,1.74,0,0,1,.14.72,1.25,1.25,0,0,0,.06.48l.33,1.08a1.63,1.63,0,0,0,.13.29.55.55,0,0,1,.07.24.25.25,0,0,1,0,.24.57.57,0,0,0,.06.25l-.06.17a14.7,14.7,0,0,0,.4,2,2.2,2.2,0,0,1,.32.12,1,1,0,0,0,.34.18s.1,0,.19.12l-.72-3.3-.07-.18a.57.57,0,0,0-.06-.24,1.07,1.07,0,0,1-.14-.36V24c0-.08,0-.12-.07-.12v-.12a1.08,1.08,0,0,0-.13-.54.45.45,0,0,1,0-.48l-.33-.66-.13-.6a.24.24,0,0,1-.06-.18.21.21,0,0,0-.07-.18v-.18c0-.16-.09-.34-.13-.54a.82.82,0,0,0-.07-.36.55.55,0,0,1-.07-.24,1.13,1.13,0,0,1-.06-.36c0-.12,0-.18-.07-.18l.07-.18-.07-.12-.13-.06-.06-.18q.06-.12,0-.12a.21.21,0,0,1-.07-.18c0-.19,0-.3-.07-.3s-.06-.1-.06-.3a.64.64,0,0,0-.07-.24.49.49,0,0,0-.26-.18l-.13.42s0,.05.06.12l.07.12v.12a.83.83,0,0,0,.2.48.39.39,0,0,1,0,.3,1,1,0,0,0,.06.3.35.35,0,0,1,.13.42c.09.08.11.22.07.42a.86.86,0,0,0,.07.42,1.64,1.64,0,0,0,.06.36.51.51,0,0,1,.07.42A.8.8,0,0,1,65.12,21.81Z"/><path class="a" d="M67.76,23.49a2.23,2.23,0,0,0-.13-.3.22.22,0,0,1-.13.06.18.18,0,0,0-.2,0s-.11,0-.2.12.14.28.41.29Z"/><path class="a" d="M71.13,33.85a1,1,0,0,0-.2-.66,4.84,4.84,0,0,1-.27-.65c-.17.11-.33.49-.46,1.13a9.7,9.7,0,0,0-.13,1.26V35l-.07.36a.15.15,0,0,0,.07.12V36a.48.48,0,0,0-.4-.06,1.85,1.85,0,0,1-.39-.06c-.22,0-.36,0-.4.06s-.06.08-.2.12,0,.12.14.12a2.63,2.63,0,0,1,.39.06h.13L70.2,36l.27.06h.26l.33-.06c.17-.08.26-.14.26-.18a.44.44,0,0,0,.07-.24,2,2,0,0,0-.07-.42c0-.24,0-.38-.13-.42Z"/><path class="a" d="M62,5.57h.2a.58.58,0,0,1,.26-.06h.79a1.44,1.44,0,0,0,.4-.06,1.6,1.6,0,0,0,.46-.06l.26-.12c0-.2-.19-.3-.46-.3L63.67,5H61.56s-.05,0-.27,0-.17.08-.26.24l.13.24Z"/><path class="a" d="M63,4.38l.13.11.59-.11-.06-.19h-.33a.35.35,0,0,0-.33.06.82.82,0,0,1-.53-.12l-.4.06h-.65l-.2.12-.4-.12-.26.12.06.3.27.06L61,4.61h1A2.45,2.45,0,0,0,63,4.38Z"/><path class="a" d="M73.3,35.71H72.12s-.07,0-.2.06a.39.39,0,0,0-.2.18s0,.08.06.12.22.14.4.06.13,0,.13,0a.3.3,0,0,0,.2.06L74,36Q74,35.65,73.3,35.71Z"/><path class="a" d="M72.12,37a2.31,2.31,0,0,0,.52-.06c0-.2-.28-.29-.72-.24a5.52,5.52,0,0,1-.93-.06h-.13a.25.25,0,0,0-.2.06H70.4l-.07.18c.09.12.16.18.2.18s.11,0,.2,0a.85.85,0,0,0,.59,0h.33A.67.67,0,0,1,72.12,37Z"/><path class="a" d="M73,33.91h-1q-.27,0-.33.12a.63.63,0,0,1-.14.24.66.66,0,0,0,.27.06h1.06a.93.93,0,0,0,.39-.06l.13-.06v-.12h-.13C73.12,34,73.06,33.91,73,33.91Z"/><path class="a" d="M71.26,33.25c0,.08,0,.12.13.12a.81.81,0,0,1,.33.06l1.38-.12v-.24a3.28,3.28,0,0,0-.59-.06,2.05,2.05,0,0,0-.39-.06l-.47.06Q71.26,33.07,71.26,33.25Z"/><path class="a" d="M75.68,15.1c-.09.2,0,.34.19.42l.67.06a.62.62,0,0,0,.39-.18.3.3,0,0,0,.33-.24c-.17-.08-.29-.1-.33-.06h-.26L76.21,15h-.4Z"/><path class="a" d="M76.14,17.37h.13l.46-.06-.13-.06a.36.36,0,0,0-.13-.24h-.13l-.2-.06h-.66a.25.25,0,0,0-.13.06s0,.09-.13.12l.2.42Z"/><path class="a" d="M73.9,23a.52.52,0,0,0,.26.29h.13a.37.37,0,0,1,.2-.05H75q.33,0,.33-.3s0-.06-.06-.12l-.47-.06a.19.19,0,0,0-.13.06h-.13a.81.81,0,0,1-.33-.06C74.07,22.73,74,22.81,73.9,23Z"/><path class="a" d="M74.09,22.05q0,.12.27.24a2.08,2.08,0,0,0,.46.06.78.78,0,0,0,.4-.06.87.87,0,0,1,.26-.18l.07-.18a2.05,2.05,0,0,0-.4-.12h-.72C74.2,21.81,74.09,21.89,74.09,22.05Z"/><path class="a" d="M69.41,30.44a1.16,1.16,0,0,0-.33.06.32.32,0,0,0-.33.3.78.78,0,0,0,.59.18,2.81,2.81,0,0,1,.79-.18l.14-.18-.2-.18h-.66Z"/><path class="a" d="M71.52,37.69l-.13.06h-.33a.28.28,0,0,0-.2-.06h-.33a1.23,1.23,0,0,0-.46.06h-.2v.18a.92.92,0,0,1,.33.12,3,3,0,0,0,.4.06,1.08,1.08,0,0,0,.72-.24c.18.12.31.08.33-.18Z"/><path class="a" d="M68.82,27.86A2.21,2.21,0,0,0,68,28v.18l.79.12a1.18,1.18,0,0,0,.26-.06l.33-.06a.55.55,0,0,1,.07-.24C69.45,27.84,69.25,27.82,68.82,27.86Z"/><path class="a" d="M65.25,14.08h-.2a.65.65,0,0,0-.26.06c-.09,0-.13.08-.13.12a.19.19,0,0,0,.13.18l.26.12h.2s0,0,.14,0l.39-.06.13-.12c0-.16-.09-.24-.13-.24a2.52,2.52,0,0,0-.26-.18l-.13.12Z"/><path class="a" d="M72.71,28.52a.44.44,0,0,1-.07.24h1q.33-.06.33-.24V28.4l-.19-.06H73.3s-.13,0-.26,0S72.71,28.4,72.71,28.52Z"/><path class="a" d="M66.31,20.85H67l.26-.06.26-.06c0-.16-.09-.22-.13-.18s-.11,0-.2-.12h-.79l-.24.17s0,.07,0,.19Z"/><path class="a" d="M73.5,25a.78.78,0,0,0,.4.19,3.19,3.19,0,0,0,1-.19v-.24a1,1,0,0,1-.33,0h-.2q-.33-.07-.33,0s0,0-.2,0Z"/><path class="a" d="M71.85,32.18l.07.18a.21.21,0,0,0,.13,0h.39a.65.65,0,0,1,.27,0h.2l.33-.12a.37.37,0,0,0-.4-.25H72s0,0-.13.07Z"/><path class="a" d="M72.44,29.6a.4.4,0,0,0,.2.12.22.22,0,0,1,.14-.06h.79l.2-.18s0-.1-.14-.18L73,29.24l-.46.06C72.4,29.46,72.36,29.56,72.44,29.6Z"/><path class="a" d="M65.58,16.3H66a.39.39,0,0,1,.26-.06l.14-.18-.07-.12H65.25a.35.35,0,0,0-.13.3.45.45,0,0,1,.27.06Z"/><path class="a" d="M68.68,35.05a.39.39,0,0,1-.26.06h-.13c0,.16.09.24.13.24h1.06a2.68,2.68,0,0,0,.52-.18l-.06-.12-.2.06a.52.52,0,0,0-.6-.12A.69.69,0,0,1,68.68,35.05Z"/><path class="a" d="M72.58,30.56h.52c.31,0,.47-.06.47-.18s-.09-.14-.27-.18a2.37,2.37,0,0,0-.52-.06c-.31,0-.49.06-.53.17S72.36,30.52,72.58,30.56Z"/><polygon class="a" points="73.3 25.76 73.43 26.01 74.36 25.94 74.49 25.65 73.9 25.59 73.43 25.59 73.3 25.76"/><path class="a" d="M73.83,24.09a.63.63,0,0,0,.26.05h.6A.91.91,0,0,1,75,24l.07-.17h-.27a.73.73,0,0,0-.59,0q-.33.06-.33.12Z"/><path class="a" d="M73,26.78a1.33,1.33,0,0,0,.33.24A1.16,1.16,0,0,0,73.7,27c.22,0,.31-.06.26-.06l.26-.12V26.6c-.21,0-.32-.08-.32-.12a.14.14,0,0,0-.2.06s-.11,0-.2-.06l-.33.12Z"/><path class="a" d="M72.78,34.93l-.14-.06c-.09.08-.28.1-.59.06s-.33,0-.2.18a.19.19,0,0,0,.13.06h.4s.06-.06.2-.06l.46.06.33-.18a.77.77,0,0,0-.27-.12A.3.3,0,0,0,72.78,34.93Z"/><path class="a" d="M69.08,29.6c-.53,0-.57.18-.13.42l.59-.12.4-.12a.69.69,0,0,0-.46-.12A2,2,0,0,0,69.08,29.6Z"/><path class="a" d="M65.58,17.79l-.13.06c0,.17.09.23.13.18a.26.26,0,0,1,.27.06.53.53,0,0,1,.46,0c.17.05.33,0,.46-.24a3,3,0,0,0-.92-.12A.51.51,0,0,0,65.58,17.79Z"/><path class="a" d="M76.54,14.14a.29.29,0,0,1-.27.12.22.22,0,0,1-.2-.12l-.26.12a.36.36,0,0,0,.4.3l.33.06.13.06q.06-.18.33-.18v-.24h-.33S76.67,14.18,76.54,14.14Z"/><path class="a" d="M70.13,32.36a.88.88,0,0,1-.26-.06l-.53.11c-.26,0-.35,0-.26.13a.75.75,0,0,0,.46.11h.13a1.66,1.66,0,0,1,.33.06l.27-.12c.13,0,.15-.1.06-.18S70.27,32.36,70.13,32.36Z"/><path class="a" d="M74.75,21.27H75a.18.18,0,0,0,.13-.06c.14,0,.29,0,.47-.18a1.34,1.34,0,0,0-.33-.12h-.73c0,.08-.09.12-.13.12v.12a.09.09,0,0,1,.13,0Z"/><path class="a" d="M66,18.57l-.27.24a1.45,1.45,0,0,0,.86.12q.54-.06.39-.3Z"/><path class="a" d="M72.12,31.34l.13.05h.46l.13-.05.13.12.33-.19A.36.36,0,0,0,73,31.1h-.4a.14.14,0,0,0-.2.06l-.26-.06Z"/><path class="a" d="M73.24,27.74a.35.35,0,0,0,.19.12h.27a.19.19,0,0,0,.13-.06l.13-.12v-.24h-.59c-.09,0-.25,0-.46.18Z"/><path class="a" d="M64.72,12.4s-.11,0-.19.06l.13.36a.34.34,0,0,1,.2.06.46.46,0,0,0,.39-.18l.07-.24a.66.66,0,0,0-.27-.06Z"/><path class="a" d="M67.23,22.35H67l-.19.18.19.06h.47a.54.54,0,0,0,.39-.12l-.26-.12Z"/><path class="a" d="M69.54,33.25a.8.8,0,0,0-.4.12c-.13,0-.08.08.14.12a.57.57,0,0,0,.39.12q.33,0,.33-.18c0-.08-.06-.12-.2-.12Z"/><path class="a" d="M69.14,29q.27-.06.27-.18s-.07,0-.2-.06h-.33l-.33.06.07.24h.13A1.85,1.85,0,0,0,69.14,29Z"/><path class="a" d="M71.19,38.46a.57.57,0,0,0-.53.24c0,.08.18.12.4.12h.33c.09,0,.13,0,.13,0a.4.4,0,0,1,.07-.19l-.2,0A.24.24,0,0,0,71.19,38.46Z"/><polygon class="a" points="66.9 19.59 66.44 19.53 66.31 19.41 65.98 19.59 66.11 19.83 66.57 19.83 66.9 19.59"/><path class="a" d="M64.13,8.27q.33-.12.33-.06s0,0,.13-.24c-.13-.12-.22-.18-.26-.18H64.2q-.33,0-.27.18A.79.79,0,0,0,64.13,8.27Z"/><path class="a" d="M68.11,27c-.18,0-.26.05-.26.16s.11.16.35.16.52-.08.61-.32h-.7Z"/><path class="a" d="M78.85,2.76,79,2.45c-.27-.16-.4-.22-.4-.17s-.06.08-.33.12a1.09,1.09,0,0,1,.08.16,1.28,1.28,0,0,1,.32.2Z"/><polygon class="a" points="65.25 13.48 65.19 13.3 64.86 13.18 64.59 13.42 64.72 13.6 64.92 13.6 65.25 13.48"/><path class="a" d="M64.59,9s0,0,.13-.18l-.06-.12-.46-.06-.07.18.33.24C64.59,9,64.63,9,64.59,9Z"/><path class="a" d="M64.33,7.31c.09,0,.17-.06.26-.18C64.5,7,64.46,7,64.46,7h-.33l-.2.12.2.18C64.22,7.27,64.28,7.27,64.33,7.31Z"/><path class="a" d="M64.66,4.38c.13-.17,0-.25-.33-.25l-.2.18C64.35,4.51,64.53,4.53,64.66,4.38Z"/><path class="a" d="M69,34.45l.06.06c.09,0,.16,0,.2,0s.13,0,.27-.18a.22.22,0,0,0-.14-.06.58.58,0,0,1-.2-.06c-.13,0-.19,0-.19.06S69,34.37,69,34.45Z"/><polygon class="a" points="72.64 37.87 72.78 37.75 72.58 37.75 72.44 37.69 72.31 37.87 72.51 37.93 72.64 37.87"/><polygon class="a" points="65.45 13.24 65.45 13.42 65.58 13.36 65.45 13.24"/><path class="a" d="M68.08,24.13a.4.4,0,0,1-.2-.12h-.79l-.24.17s0,.08,0,.19l.13.06h.73l.26-.06.26-.06C68.17,24.15,68.13,24.09,68.08,24.13Z"/><path class="a" d="M68.36,25.07s-.11,0-.2-.12h-.79l-.24.17s0,.07,0,.19l.13.06H68l.27-.06.26-.06C68.45,25.09,68.4,25,68.36,25.07Z"/><path class="a" d="M68.13,26.05a2.21,2.21,0,0,0-.86.12v.18l.79.12a1.11,1.11,0,0,0,.27-.06l.32-.06a.55.55,0,0,1,.07-.24C68.77,26,68.57,26,68.13,26.05Z"/><path class="a" d="M82.15,9.07l-.08.24.29.1.24.09.07-.19-.21-.17a.21.21,0,0,1-.17,0Z"/><path class="a" d="M83.17,9s0,.06.18.11l.14-.1-.11-.3c-.07,0-.24-.1-.53-.23a.85.85,0,0,0-.47-.06l0,.14a.52.52,0,0,0,.31.21A3.31,3.31,0,0,0,83.17,9Z"/><path class="a" d="M84.78,26.83l-.31.12-.14,0-.43.21,0,.14.11.16.35.05.18,0a.57.57,0,0,1,.32-.13,2.32,2.32,0,0,1,.37-.14,1.39,1.39,0,0,0,.79-.41.47.47,0,0,0-.42-.1l-.39.08Z"/><path class="a" d="M82.8,7.19l-.22.63h.23L82.9,8l.57.25s0,0,.08.08.11-.07.27,0a.63.63,0,0,1,.26.19.48.48,0,0,1,.18,0c.1,0,.15,0,.16,0a.36.36,0,0,0,0-.15l-.32-.17-.45-.1-.47-.22-.15,0c-.06-.09,0-.17.08-.24l.32-.14a1.85,1.85,0,0,0,.31-.11c.12,0,.18,0,.19-.08a.17.17,0,0,0,.12,0l.22,0,.23,0h.27a1.41,1.41,0,0,0,.31.06.6.6,0,0,0,.4.24l.61.31a1.63,1.63,0,0,0,.35.23l.23,0c.11,0,.11-.06,0-.2s-.22-.15-.54-.18A.34.34,0,0,1,86,7.41c0-.08-.19-.14-.44-.15l-.16-.16a.42.42,0,0,1,.27,0,.32.32,0,0,0,.27,0,.32.32,0,0,1,.23,0c0,.06.12.06.21,0l.07.12.69.19.49.32.21,0,.44.62L87.18,8l0,.11a.22.22,0,0,1,.13.09.49.49,0,0,0,.18.11l.29.11a6.84,6.84,0,0,1,.68.23l.42.2.1.18.1.19-.22.14c-.1-.11-.19-.1-.27,0l0,.22.46.26.14,0a.44.44,0,0,1,.18.12v.31l-.58,0c.08.2.17.31.28.31s.2.14.19.37l-.22,0-.34,0a.35.35,0,0,0,.21.33l.06.12-.07.23a2.43,2.43,0,0,0-.28-.14l-.14-.05-.15,0-.14-.05c-.17-.06-.25,0-.26.11s.12.24.37.34l.16.16-.29.21-.29-.1a2.51,2.51,0,0,1-.42-.19c-.13-.05-.16-.18-.08-.4a.68.68,0,0,1,0-.62l.2-.08c.1,0,.17,0,.19-.1l.39,0a.91.91,0,0,1,.11-.16c.09,0,.14-.09.19-.25a.41.41,0,0,0,0-.31c0-.12,0-.18,0-.2s-.18-.13-.33-.32-.23-.27-.31-.36l-.27-.3a3,3,0,0,0-.44-.31l-.73-.25a1.73,1.73,0,0,0-.86,0V8.09l-.26-.19-.17,0c0-.11,0-.17-.05-.18l-.24-.08-.38-.18-.34-.12h-.27a.54.54,0,0,0,.39.29L85,8a.29.29,0,0,1,.23,0l.07.13.29.1a.63.63,0,0,1-.31.09.82.82,0,0,0-.37.14.3.3,0,0,1-.18,0,.3.3,0,0,0-.18,0,.31.31,0,0,1-.19.09.53.53,0,0,0-.14.1c-.31.14-.52.26-.67.34a.23.23,0,0,1-.19.09.24.24,0,0,0-.1.13L83,9.39s0,0-.11,0,0,.12-.16.15l-.21.13a.47.47,0,0,1-.16.16L82.2,10h-.11a.36.36,0,0,1,0-.15s-.06-.05-.19-.07l-.1.28.18,0c.06.12,0,.2-.08.23s-.13.1-.12.17a.18.18,0,0,0-.1,0l-.28.76-.09.32-.24.79-.23.81.1.21.27.62.12.28.14.64h-.54l-.26.06-.13,0-.26.05-.18.61h.18a2.21,2.21,0,0,0,.63-.2,1.36,1.36,0,0,1,.37-.13l.2,0,.15-.21a.63.63,0,0,1,.14.33,1,1,0,0,1,.12.23c0,.07,0,.12,0,.13s0,0,0,.11a.41.41,0,0,1,.12.23,5.68,5.68,0,0,0,.19.57,2,2,0,0,1,.26.61l0,.12,0,.12s.08,0,.09.1-.18.08-.19,0-.1,0-.26.06l-.21,0-.45.1-.19,0-.13,0L81,18l0,.13c.13.18.25.24.37.17l1.33-.41a1.74,1.74,0,0,1,.43.71,4.92,4.92,0,0,1,.31.86l-.23-.14-.66.08-.19,0-.57.18c-.27.22-.25.4,0,.54l1.46-.43.17-.16,0,.12a.21.21,0,0,1,.1.16.64.64,0,0,0,.18.21.81.81,0,0,0,.19.26s.09.09.13.28l.84.8.15,0,.16.15,0,.19-.47,0-.12.09-.44.15a.4.4,0,0,0-.31-.18c-.09,0-.19-.18-.3-.49l-.18-.2-.18-.21-.26-.25-.1-.16-.88.31L82,21c.11.1.19.15.23.14a.14.14,0,0,1,.21,0l.19.58h-.27a.69.69,0,0,0-.1.21c0,.07.1.1.29.06,0,0,0-.05.17-.16l.17.52,0,.17,0,.12a.25.25,0,0,0,.18.21l0,.23s0,.06,0,.13a1.17,1.17,0,0,0,.16.39.64.64,0,0,1,.12.29l0,.23a.39.39,0,0,0,.18.21l.21.69a1.27,1.27,0,0,0-.31.12.23.23,0,0,0-.09.21c.06,0,.09.06.09.1l1-.32,0-.12.13,0,0-.11,0-.18,0-.17,0-.12L84.35,24a.6.6,0,0,1-.11-.53A3,3,0,0,1,84.4,23l0-.12s.06-.06,0-.14l-.12-.27,0-.12,0-.18a.14.14,0,0,1,.21,0c.06.07.17.05.32-.07a.5.5,0,0,1,.19-.1.44.44,0,0,1,.24-.11c0,.13,0,.17,0,.19l0,.18,0,.11a.19.19,0,0,1-.1.2.51.51,0,0,0,0,.31.2.2,0,0,1,0,.19l.06.29,0,.12a.32.32,0,0,1-.08.26c0,.05,0,.15.13.28a.36.36,0,0,1,.06.3.34.34,0,0,0,.06.29.86.86,0,0,0-.53.05c-.12,0-.21.15-.26.36a1,1,0,0,0,.91-.19l.23.13c0,.24,0,.38,0,.44a1.58,1.58,0,0,1,.2.27,1,1,0,0,1,.13.28L86,26l.06.26.38.87.13,0,.24.19-.28.05-.59.26a.43.43,0,0,0-.24.17l-.9.19-.13.34.14,0,.32-.07.13,0,1.27-.39s0-.07.11-.08.11.07.2.26a1.38,1.38,0,0,1,.13.34l.09.41a.92.92,0,0,1,.15.4c.08.15.16.31.24.5a.77.77,0,0,0,.27.31l0,.17a1.52,1.52,0,0,0,.14.34,1.8,1.8,0,0,1,.15.4l.78,1.43a1.12,1.12,0,0,0,.14.33,1.44,1.44,0,0,0,.33.3,1.81,1.81,0,0,1,.22.38.68.68,0,0,0,.26.31A1.92,1.92,0,0,1,90,34a2,2,0,0,0,.19.26c.09,0,.14.13.14.34s.15.27.32.24c0,.09,0,.16.11.22s.17.14.07.29l-.22-.08-.29.25.17.15s0-.06.19,0,.27,0,.26-.06a.38.38,0,0,1,0-.19l.14,0c.07.1.13.19.19.26a.67.67,0,0,1,.18.21,1.69,1.69,0,0,1,.24.19q.23.07.18.21.14,0,.15,0l.22.13a.22.22,0,0,0,.11.16.49.49,0,0,1,.23.14,6.62,6.62,0,0,0,.78.51.5.5,0,0,0,.17.14.49.49,0,0,1,.23.14.37.37,0,0,0,.22.08.33.33,0,0,1,.21.07,1,1,0,0,0,.46.21.71.71,0,0,1,.37.17l-.39.08-.1.15a.39.39,0,0,1-.29-.07l-.94.33-.13,0a.61.61,0,0,0-.41.27l.08.1.26-.06.45-.09.51-.17.32-.07s.08-.08.09-.2l.22.07.37-.2,0-.18a2.19,2.19,0,0,0,1.1.07l1-.21a4.34,4.34,0,0,0,.61-.31l.4-.33.46-.4a1.38,1.38,0,0,1,.46-.35s0-.11,0-.25a.63.63,0,0,0,.06-.37l0-.12a.36.36,0,0,0-.18-.21.6.6,0,0,1-.11-.22l-.49-.08c0-.08-.1-.12-.24-.13L97.89,35a.86.86,0,0,1,.11-.76c0-.27,0-.43.17-.46a2.63,2.63,0,0,1,.57-.18l.39-.09.33.3,0,.12-.26.06a.17.17,0,0,0-.12.08.37.37,0,0,0-.41.27c0,.16.09.23.31.18l.19,0,.19,0,.2-.05a2.36,2.36,0,0,0,.37-.13l.07.29,0,.12-.13,0a.42.42,0,0,0-.32.38l.42.09.11-.09.17.15c0,.3-.13.44-.31.44s-.27.09-.4.33l.75,0-.06.38a.6.6,0,0,1-.24.12l-.2,0-.62.25-.08.26c.08.15.19.16.35.05l.25.2-.16.21-.16.22-.57.18-.11.09a5.16,5.16,0,0,0-.79.1l-.39.08a.9.9,0,0,0-.24.12.31.31,0,0,1-.19.1l0,.13.08.1,1.35-.34-.67.69h-.27l-.67.33-.91.14-.11.14a.22.22,0,0,0-.27,0,.38.38,0,0,1-.28-.07.51.51,0,0,0-.35,0,.57.57,0,0,1-.35,0l.23-.17c.32,0,.52,0,.59-.13A.37.37,0,0,1,95.7,39c.4,0,.64-.06.71-.15s.15-.24,0-.25l-.29-.06a2.57,2.57,0,0,0-.49.22c-.21.09-.46.16-.81.3a.88.88,0,0,0-.56.24l-.4,0a1,1,0,0,1-.35,0l-.28-.06L93,39.13a.2.2,0,0,0-.14,0s-.09-.08-.24-.13a1.42,1.42,0,0,0-.37-.17l-.38-.23c-.11-.09-.16-.19-.07-.29l.2,0,.63-.19.59-.07.44-.15a.38.38,0,0,0,0-.19s-.08,0-.21,0a.71.71,0,0,1-.21-.08,1,1,0,0,1-.37.2c-.21,0-.33,0-.34-.05-.13.07-.16.1-.12.09l-.13,0-.63.19-.16.22Q91,38.19,91,38q-.2,0-.15-.09a.61.61,0,0,1-.47-.27l0-.12-.31-.18h-.27a.35.35,0,0,0-.29-.43A.78.78,0,0,0,89,36.8a.77.77,0,0,0-.25.11.44.44,0,0,1-.32.07l-.58.12-.44.16,0,.13.17.15a1.87,1.87,0,0,0,.42-.22,1.35,1.35,0,0,1,.52-.11c.18,0,.27.09.26.26a.79.79,0,0,1-.13.33l0,.12c-.28-.07-.44-.07-.47,0S88,38,87.8,38a1.29,1.29,0,0,0-.39,0c-.09,0-.15.13-.2.34.12.14.22.2.31.18l.36-.2a1,1,0,0,0,.16.15c.09,0,.11,0,0,.18a.83.83,0,0,1-.54.3l-.19,0q-.45.09-.42.27a.18.18,0,0,0,.23.14l0,.17a2.35,2.35,0,0,0-.57.18c0,.05-.24,0-.63-.11.09-.22.16-.4.23-.53a3,3,0,0,0,.21-.6c0-.18.1-.27.14-.28a.75.75,0,0,0,0-.42c0-.2,0-.3,0-.31s0-.15,0-.31L86.5,37l0-.42-.14-.34-.1-.47a.24.24,0,0,1,0-.19.19.19,0,0,0,0-.18c0-.09,0-.12-.09-.11a.38.38,0,0,1,0-.19L86.08,35c.06-.09,0-.21-.14-.34l0-.11-.07-.36a1,1,0,0,0-.14-.34.81.81,0,0,1-.14-.33,1.56,1.56,0,0,0,0-.48,2.8,2.8,0,0,0-.21-.39,2.09,2.09,0,0,0-.24-.5L85,31.76l0-.23,0-.12a.23.23,0,0,1-.17-.21l-.07-.29a.3.3,0,0,0-.18-.21,1.07,1.07,0,0,1-.12-.28l-.08-.35,0-.12s0,0-.11-.22a1.79,1.79,0,0,1-.27-.61,1,1,0,0,1-.3-.49l0-.57-.2-.85a.67.67,0,0,1-.17-.46A1.55,1.55,0,0,0,83,26a1.61,1.61,0,0,1-.18-.52c0-.28-.09-.45-.24-.5a.22.22,0,0,0-.05-.23l-.18-.21,0-.13,0-.17a1.16,1.16,0,0,0-.21-.39,2.29,2.29,0,0,0-.23-.44c.06-.14,0-.19,0-.18s-.1-.14-.14-.33a.18.18,0,0,1,0-.13c0-.05,0-.11,0-.18s-.11-.2-.11-.16l0-.18L81.49,22c-.14,0-.22-.11-.27-.31a1.52,1.52,0,0,0,0-.42,1,1,0,0,1-.29-.43l-.09-.41-.06-.3a1,1,0,0,0-.12-.22,1.07,1.07,0,0,1-.11-.22c0-.05,0-.22-.11-.52a1.25,1.25,0,0,0-.33-.61v-.25l-.29-.43,0-.17v-.22l-.16-.18,0,.17,0,.84.4,1.32,0,.23a5.91,5.91,0,0,1,.39,1.21,1.62,1.62,0,0,0,.54.93l0,.24-.15,0,.22.63c0-.05.07,0,.1.1s0,.11,0,.13l.06.11.1.16c0,.09,0,.11,0,.13a4.72,4.72,0,0,0,.21.69,1.72,1.72,0,0,0,.3.49,4.46,4.46,0,0,1,.27.62,2.44,2.44,0,0,1,.3.79,2,2,0,0,0,.15.34,4,4,0,0,1,.21.38l.15.4c.05,0,.42,1.62.42,1.62s.15.07.19.27a2.24,2.24,0,0,1,.14.34l0,.17,0,.18,0,.17,0,.12,0,.12c.09,0,.16.13.23.44a2.46,2.46,0,0,0,.2.63,2.15,2.15,0,0,1,.15.4l.06.29a.91.91,0,0,1,.14.34l.07.35c.15.05.3.33.45.83s.22.72.24.8l.08.35.33.61.1.47,0,.42,0,.12c0,.07.08.08.08.1a.76.76,0,0,1,0,.5,1.45,1.45,0,0,0,0,.36l.08.35a.54.54,0,0,1,0,.25.43.43,0,0,0,0,.25l.09.1s-.09.13-.13.34a1.36,1.36,0,0,0,0,.43,2.47,2.47,0,0,1-.32.38l-.36.2-.35.26c.06.07.05.13,0,.19s0,.1,0,.17a.26.26,0,0,0,.1.17s0,0,0,.13a1,1,0,0,1,.5.13l.57.13a3.79,3.79,0,0,0,.49.08.8.8,0,0,1,.4,0l.11-.09.09.1a.35.35,0,0,1,.31-.13.74.74,0,0,0,.31-.12,2.75,2.75,0,0,0,.43-.21l.47-.35q.41-.27.39-.39a.59.59,0,0,0,.44-.46,5.57,5.57,0,0,1,.22-.54l.28-.3.55.07.23.13.22.08.81.62c-.08.06.75.46.85.55a1.19,1.19,0,0,1,.34.3,3.25,3.25,0,0,1,.44.15c.24.07.36.13.37.17a1.28,1.28,0,0,0,.44.15,1.6,1.6,0,0,1,.47,0,.54.54,0,0,0,.36.11.35.35,0,0,0,.22.07.49.49,0,0,1,.22.08,2.06,2.06,0,0,0,.48,0,1.69,1.69,0,0,1,.48,0l.68,0,.64-.14,1-.26a1.12,1.12,0,0,0,.36-.2,1.11,1.11,0,0,1,.54-.3l.64-.5c0-.08,0-.13.17-.16l0-.12.46-.4.39-.69.23-.48.2-.36c.08-.05.13-.19.18-.4s0-.19.1-.2a.84.84,0,0,0,.07-.27,1.69,1.69,0,0,1,.11-.75l-.13-.64a.77.77,0,0,0-.15-.34l-.06-.3-.12-.27-.36-.42-.23-.13-.31-.18-.17-.15a.39.39,0,0,0-.23-.14h-.33c0-.05,0-.1-.17-.15l-.13,0s0,0-.21,0l-.15-.09-.32.07s-.1,0-.26.06l-.26,0s-.11,0-.19,0a2.6,2.6,0,0,0-.65.45,1.8,1.8,0,0,0-.24.48,4.14,4.14,0,0,0-.14.58.89.89,0,0,0,0,.42l.05.23.09.11a.66.66,0,0,0,.13.28.36.36,0,0,1,.18.21l.22.07a.39.39,0,0,1,.29.12l.18.21a.41.41,0,0,0-.07.32c.07.11,0,.23-.19.35a4,4,0,0,0-.42.27.64.64,0,0,1-.3.19l-.12,0-.17.15a1.32,1.32,0,0,1-.35-.05.86.86,0,0,0-.35,0,.5.5,0,0,0-.27,0,.23.23,0,0,1-.22-.07l-.12.08a.37.37,0,0,0-.28-.06s0,0,0-.13c-.17,0-.24,0-.2,0l-.52-.2a3.86,3.86,0,0,1-1.28-.64c-4.17-4-6.62-7.91-7.09-13a.58.58,0,0,1,.07-.33c0-.12,0-.18,0-.17s0-.09,0-.19a1.62,1.62,0,0,1,.33-.37A2.23,2.23,0,0,1,87,22a.81.81,0,0,0,.12-.39.22.22,0,0,0-.11-.16l0-.18a1.81,1.81,0,0,1-.52-.2L86,20.7a.33.33,0,0,0-.21-.07l-.16-.1s0,0-.09-.1a.53.53,0,0,1-.27-.31.47.47,0,0,0-.19-.26.66.66,0,0,0-.19-.27c.06-.14,0-.23-.06-.29l-.2-.32a.73.73,0,0,1-.2-.27,3.3,3.3,0,0,1-.15-.4l0-.11,0-.2-.19-.26a.9.9,0,0,0-.12-.28.91.91,0,0,1-.14-.34.34.34,0,0,0-.12-.22s0-.15,0-.37c-.23,0-.36-.12-.4-.28a1.29,1.29,0,0,0,0-.36,1.4,1.4,0,0,0-.25-.56,2.47,2.47,0,0,1-.17-.46c0-.15-.07-.22-.11-.22l0-.17a.3.3,0,0,0-.11-.17l0-.17a.91.91,0,0,0-.14-.34,1.58,1.58,0,0,1-.13-.36l-.12-.28L82.14,13a.7.7,0,0,1-.06-.37c.1-.29,0-.59.15-.91s.19-.85.56-1.06c.42-.37.86-.74,1.4-1.16a2.9,2.9,0,0,1,1.06-.41L85.67,9c0-.05,0-.05.16,0,0-.09,0-.12,0-.11s.14,0,.31.05a.17.17,0,0,1,.18,0,.49.49,0,0,0,.21,0,.85.85,0,0,0,.27,0,1.5,1.5,0,0,1,.28,0l.21.18a.53.53,0,0,1,.21.18l.29.25q.21.18.12.3a.3.3,0,0,0,0,.26l-.16.15a.33.33,0,0,1-.24.08l-.17,0a.32.32,0,0,1-.17.15,2,2,0,0,0-.2.29l-.07.18a.88.88,0,0,0-.06.34,4.21,4.21,0,0,0,0,.49,1.34,1.34,0,0,0,.13.4,1.74,1.74,0,0,0,.46.42s.1.07.14,0l.19.06c.12.08.19.1.2.07l.24.08.13-.05a.6.6,0,0,0,.26,0c.12,0,.17-.06.14-.1l.26,0a.37.37,0,0,0,.2-.09.6.6,0,0,1,.14-.11l.26-.11.19-.09.33-.31.12-.21.09-.23a.69.69,0,0,0,.14-.26l.17-.51a1.55,1.55,0,0,1,0-.62.39.39,0,0,0,0-.22s0-.07,0-.17,0-.29-.1-.34l-.11-.3-.13-.41L90,8.18l-.28-.46c-.1,0-.13-.08-.11-.14l-.44-.47a.75.75,0,0,1-.39-.29,1,1,0,0,0-.26-.19l-.71-.29-.49-.17-.53,0a1,1,0,0,1-.37,0,1.79,1.79,0,0,0-.37,0,.29.29,0,0,1-.18,0,.26.26,0,0,0-.18,0,.35.35,0,0,0-.28.05,1.24,1.24,0,0,1-.38,0s-.15,0-.36.08c0,0-.11.06-.3.1L84,6.48a.77.77,0,0,1-.29.2c-.1.08-.79.32-.73.37Z"/><path class="a" d="M85,24a.73.73,0,0,1-.17-.15.11.11,0,0,0-.15-.09l-.13,0c-.09,0-.12,0-.12.08a.16.16,0,0,1,0,.14l.23.13Z"/><path class="a" d="M88.71,33.42c.17-.07.24-.15.22-.29s-.09-.1-.22-.07l-.26,0a.53.53,0,0,0-.34.31l-.24-.19-1.28.33-.1.15,0,.19a.81.81,0,0,1,.13.28,1.57,1.57,0,0,0,.19.27c0,.19.1.3.2.32a.19.19,0,0,1,.14,0,.28.28,0,0,0,.21,0l0,.11.39-.08.45-.09.38-.45.07-.32.24.19.19,0,.26,0,.08-.26-.14,0-.13,0-.26,0-.18.1-.14,0-.19-.26A.79.79,0,0,1,88.71,33.42Z"/><path class="a" d="M89.78,35.58l-.4,0a1.62,1.62,0,0,0-.44.16.74.74,0,0,1-.31.13c-.06-.11-.26-.09-.59.06a1.34,1.34,0,0,1-.77.17l-.11.14v.31l.77-.17.2,0,.26,0a.39.39,0,0,0,.28-.25.65.65,0,0,0,.43.1.81.81,0,0,0,.31-.13,1.09,1.09,0,0,1,.31-.13l.25,0a.74.74,0,0,1,.24-.17l-.11-.17Z"/><path class="a" d="M86.47,28.57l-.38.08-.39.08-.31.13-.15,0-.42.21,0,.13.1.16.35.05.19,0a.6.6,0,0,1,.31-.13,2.35,2.35,0,0,1,.38-.14,1.46,1.46,0,0,0,.79-.41A.49.49,0,0,0,86.47,28.57Z"/><path class="a" d="M86.91,32.52l-.32.06c-.18,0-.26.08-.25.12l-.11.15.09.1.19,0,.2,0,.15.08A.23.23,0,0,1,87,32.8l.13,0a1.64,1.64,0,0,0,.58-.12,1.92,1.92,0,0,1,.54-.31l0-.17-.19,0c-.06,0-.12,0-.28,0l-.12,0a.28.28,0,0,1-.12.08l-.46,0A1.36,1.36,0,0,1,86.91,32.52Z"/><path class="a" d="M86.9,30.56a1.14,1.14,0,0,1-.61,0,.82.82,0,0,1-.23.17.93.93,0,0,0-.22-.08.73.73,0,0,0-.24.18.23.23,0,0,0-.08.26c0,.15.13.19.3.12a1.63,1.63,0,0,1,.37-.14,4.17,4.17,0,0,0,1.26-.46C87.37,30.48,87.18,30.46,86.9,30.56Z"/><path class="a" d="M90.7,37.35c-.13,0-.19.08-.17.16a.27.27,0,0,0,.28.06l.17-.16c.11.1.34.11.68,0l.7-.21.2-.35-.17-.15s0,0-.13,0-.12,0-.11.09l-.14,0a3.71,3.71,0,0,0-.56.19.64.64,0,0,0-.43.21Z"/><path class="a" d="M91.2,36.2l-.33.07-.39.08-.76.23-.2.28a1,1,0,0,0,.21.08l.26,0a.53.53,0,0,1,.25-.12l.83-.24a.32.32,0,0,1,.2,0l.3-.18,0-.24Z"/><path class="a" d="M89,34.88l-.26.06a.32.32,0,0,0-.18.1l.14,0C89,35,89.05,35,89,34.88Z"/><path class="a" d="M88.59,35a.19.19,0,0,1-.14,0c0-.08-.07-.11-.16-.09a.32.32,0,0,0-.18.1.26.26,0,0,1-.18.1l-.2,0-.45.1c-.21,0-.31.12-.28.24a.24.24,0,0,0,.1.16,7.85,7.85,0,0,0,1-.26A.93.93,0,0,0,88.59,35Z"/><path class="a" d="M86.76,29.61a.9.9,0,0,0-.4,0l-.19,0-.65.14c-.21.05-.31.13-.28.24s.18.21.43.16l.44-.16a2.38,2.38,0,0,0,.5-.17,3.19,3.19,0,0,0,.48-.28L87,29.5A.45.45,0,0,1,86.76,29.61Z"/><path class="a" d="M86.59,32a1.12,1.12,0,0,1,.36-.2c.09,0,.16-.09.22-.23L87,31.45l-.2.05a.26.26,0,0,0-.2,0,1.38,1.38,0,0,0-.31.12l-.3.19C86.07,32.06,86.26,32.13,86.59,32Z"/><path class="a" d="M89.57,34.59a.47.47,0,0,0-.4.33l.14,0,.38-.08q.27-.06.24-.18C89.91,34.57,89.79,34.54,89.57,34.59Z"/><path class="a" d="M87.47,31.36l0,.17.19,0C87.67,31.37,87.6,31.33,87.47,31.36Z"/><path class="a" d="M81,14.23l0-.18a3.31,3.31,0,0,0-.45-.07l-.16.56.1,0s.11,0,.18-.1A1.55,1.55,0,0,1,81,14.23Z"/><path class="a" d="M81.08,16.85a.72.72,0,0,0-.36.2c-.12.11-.12.19,0,.25a.37.37,0,0,0,.37.16l.37-.2.26-.05a.76.76,0,0,0,.3-.13q.3-.18.15-.27a.28.28,0,0,0-.3-.13l-.25.06-.2,0Z"/><path class="a" d="M80.57,16c-.3.07-.38.22-.24.48l.39-.08a2.44,2.44,0,0,1,.53-.05.54.54,0,0,0,.46-.41l-.17-.15Z"/><path class="a" d="M81.9,19.12a1.18,1.18,0,0,1,.56-.23c.25-.06.37-.15.35-.26s-.13-.16-.3-.12l-.71.15a1,1,0,0,0-.31.12l-.26.06,0,.23.22.08Z"/><path class="a" d="M84.27,25.85l-.07-.05a.27.27,0,0,0-.18.11.39.39,0,0,1-.18.1l.19.26s.09-.08.31-.13a.83.83,0,0,1,.27,0,.38.38,0,0,0,.24-.12.23.23,0,0,1,.25-.11c.09,0,.16-.08.13-.33a2.08,2.08,0,0,0-.59.06A.57.57,0,0,0,84.27,25.85Z"/><path class="a" d="M83.24,20.37l-.32.07.12.22c.13,0,.2,0,.2,0l.26-.05c0-.05,0-.05.12-.09s.06,0,0-.13S83.5,20.32,83.24,20.37Z"/><path class="a" d="M83.65,21.33a.17.17,0,0,0,.09.1l.55-.24,0-.18-.65.14Z"/><polygon class="a" points="83.07 23.66 83.18 23.57 83.14 23.4 83 23.36 82.81 23.4 82.87 23.7 83.07 23.66"/><path class="a" d="M82.52,22.67c0,.08.07.11.15.09a.38.38,0,0,0,.17-.16l-.17-.15A.17.17,0,0,0,82.52,22.67Z"/><polygon class="a" points="84.67 22.95 84.81 22.98 84.9 22.78 84.75 22.68 84.67 22.95"/><path class="a" d="M83.25,24.23l0,.19.19,0C83.49,24.28,83.44,24.23,83.25,24.23Z"/><path class="a" d="M59.46,9.41l.29-.1-.08-.24-.15.06a.18.18,0,0,1-.16,0l-.21.17.06.19Z"/><path class="a" d="M59.48,8.53l0-.14a.86.86,0,0,0-.47.06c-.28.13-.45.21-.52.23l-.11.3.14.1c.17-.05.19-.08.18-.11a3.31,3.31,0,0,0,.52-.23A.6.6,0,0,0,59.48,8.53Z"/><path class="a" d="M57.35,27,57,26.83l-.39-.09-.39-.08a.5.5,0,0,0-.43.1,1.46,1.46,0,0,0,.79.41,2.76,2.76,0,0,1,.38.14.5.5,0,0,1,.31.13l.2,0,.34-.05.1-.16,0-.14-.42-.21Z"/><path class="a" d="M40,36.64s.08.08.09.2a.67.67,0,0,0,.19.4l.2.36.23.48.39.69.45.4,0,.12c.13,0,.19.08.17.16l.63.5a1.1,1.1,0,0,1,.55.3,1.12,1.12,0,0,0,.36.2l1,.26.64.14.68,0a1.66,1.66,0,0,1,.48,0,2.09,2.09,0,0,0,.48,0,.45.45,0,0,1,.22-.08.32.32,0,0,0,.21-.07.58.58,0,0,0,.37-.11,1.6,1.6,0,0,1,.47,0,1.28,1.28,0,0,0,.44-.15s.13-.1.37-.17A3.25,3.25,0,0,1,49,40a1.11,1.11,0,0,1,.33-.3c.12-.09.94-.49.86-.55l.81-.62.22-.08.23-.13.55-.07.28.3a5.57,5.57,0,0,1,.22.54.58.58,0,0,0,.44.46c0,.08.12.21.39.39l.47.35.42.21a.8.8,0,0,0,.31.12.33.33,0,0,1,.31.13l.09-.1.12.09a.8.8,0,0,1,.4,0,3.79,3.79,0,0,0,.49-.08l.57-.13a1,1,0,0,1,.5-.13c-.07-.1-.08-.15,0-.13a.26.26,0,0,0,.1-.17c.06-.07.07-.12,0-.17s-.09-.12,0-.19l-.35-.26-.36-.2a2.5,2.5,0,0,1-.33-.38,1,1,0,0,0,0-.43c0-.21-.09-.33-.13-.34l.09-.1a.44.44,0,0,0,0-.25.53.53,0,0,1,0-.25l.07-.35a.87.87,0,0,0,0-.36.76.76,0,0,1,0-.5s0,0,.08-.1l0-.12,0-.42.1-.47.33-.61.08-.35c0-.08.09-.34.23-.8s.31-.78.45-.83l.07-.35a1.14,1.14,0,0,1,.15-.34l.06-.29a1.6,1.6,0,0,1,.15-.4,2.46,2.46,0,0,0,.2-.63c.07-.31.14-.46.23-.44l0-.12,0-.12,0-.17,0-.18,0-.17a1.52,1.52,0,0,1,.14-.34c0-.2.11-.28.19-.27s.37-1.63.41-1.62l.16-.4a2.59,2.59,0,0,1,.21-.38,1.74,1.74,0,0,0,.14-.34,2.46,2.46,0,0,1,.31-.79,6.53,6.53,0,0,1,.26-.62,1.89,1.89,0,0,0,.31-.49,4.72,4.72,0,0,0,.21-.69.63.63,0,0,0,0-.13l.1-.16.07-.11s0-.06,0-.13.06-.15.09-.1l.23-.63-.15,0,0-.24a1.61,1.61,0,0,0,.53-.93,6.6,6.6,0,0,1,.4-1.21l0-.23.4-1.32,0-.84-.05-.17-.16.18v.22l0,.17-.29.43v.25a1.25,1.25,0,0,0-.33.61c-.11.3-.15.47-.11.52a.83.83,0,0,1-.12.22,1.41,1.41,0,0,0-.11.22l-.06.3-.09.41a.89.89,0,0,1-.3.43,3.32,3.32,0,0,0,0,.42c0,.2-.13.3-.26.31l-.07.29,0,.18s0,0-.1.16-.07.13,0,.18a.18.18,0,0,1,0,.13c0,.19-.09.3-.14.33s-.1,0,0,.18a1.83,1.83,0,0,0-.23.44,1.24,1.24,0,0,0-.22.39l0,.17,0,.13-.18.21a.22.22,0,0,0,0,.23c-.15.05-.23.22-.24.5a1.61,1.61,0,0,1-.18.52,1.71,1.71,0,0,0-.23.74.62.62,0,0,1-.16.46l-.2.85,0,.57a1,1,0,0,1-.3.49,1.79,1.79,0,0,1-.27.61c-.13.18-.16.25-.11.22l0,.12-.07.35a.86.86,0,0,1-.13.28.36.36,0,0,0-.18.21l-.06.29c0,.12-.08.19-.18.21l0,.12-.05.23-.08.35a2.09,2.09,0,0,0-.24.5,1.48,1.48,0,0,0-.21.39,1.56,1.56,0,0,0,0,.48.81.81,0,0,1-.14.33.83.83,0,0,0-.14.34l-.07.36,0,.11c-.16.13-.21.25-.14.34l-.15.09a.54.54,0,0,1,0,.19s-.08,0-.1.11a.27.27,0,0,0,0,.18.24.24,0,0,1,0,.19l-.1.47-.14.34,0,.42-.06.29c0,.16,0,.27,0,.31s.05.11,0,.31-.06.38,0,.42.09.1.14.28a3,3,0,0,0,.21.6c.06.13.14.31.23.53-.39.13-.6.16-.63.11a2.32,2.32,0,0,0-.58-.18l0-.17c.13,0,.21,0,.24-.14s-.12-.21-.42-.27l-.19,0a.89.89,0,0,1-.55-.3c-.06-.14,0-.2,0-.18a.73.73,0,0,0,.17-.15l.36.2c.08,0,.19,0,.31-.18,0-.21-.11-.32-.2-.34a1.33,1.33,0,0,0-.4,0c-.17,0-.27-.07-.31-.13s-.19,0-.47,0l0-.12a.79.79,0,0,1-.13-.33c0-.17.07-.25.25-.26a1.3,1.3,0,0,1,.52.11,2.3,2.3,0,0,0,.43.22l.17-.15,0-.13L54,37.1,53.42,37a.46.46,0,0,1-.32-.07.64.64,0,0,0-.24-.11.78.78,0,0,0-.57.12c-.24.07-.34.22-.3.43h-.26l-.31.18,0,.12a.59.59,0,0,1-.46.27c0,.09,0,.12-.15.09,0,.12-.14.19-.45.21L50.17,38l-.63-.19-.13,0s0,0-.12-.09c0,.08-.13.1-.34.05a1,1,0,0,1-.37-.2.68.68,0,0,1-.22.08c-.12,0-.19,0-.2,0a.48.48,0,0,0,0,.19l.44.15.6.07.63.19.19,0c.1.1.05.2-.06.29l-.38.23a1.49,1.49,0,0,0-.38.17c-.14.05-.22.09-.23.13a.19.19,0,0,0-.14,0l-.28.06-.28.06a1,1,0,0,1-.35,0l-.4,0A.88.88,0,0,0,47,39c-.35-.14-.61-.21-.81-.3a2.57,2.57,0,0,0-.49-.22l-.29.06c-.13,0-.13.1,0,.25s.3.14.71.15a.4.4,0,0,1,.23.17c.07.1.26.14.58.13l.23.17a.54.54,0,0,1-.34,0,.51.51,0,0,0-.35,0,.39.39,0,0,1-.28.07.22.22,0,0,0-.27,0l-.11-.14-.91-.14L44.22,39H44l-.66-.69,1.34.34.09-.1,0-.13a.32.32,0,0,1-.18-.1.9.9,0,0,0-.24-.12l-.39-.08a5.32,5.32,0,0,0-.79-.1L43,37.94l-.57-.18-.15-.22-.16-.21.25-.2c.15.11.27.1.35-.05l-.08-.26L42,36.57l-.19,0a.72.72,0,0,1-.25-.12L41.48,36l.75,0c-.13-.24-.27-.34-.4-.33s-.29-.14-.32-.44l.17-.15.12.09.42-.09a.42.42,0,0,0-.32-.38l-.13,0,0-.12.06-.29a2.45,2.45,0,0,0,.38.13l.19.05.2,0,.19,0c.21.05.32,0,.31-.18a.39.39,0,0,0-.42-.27.14.14,0,0,0-.11-.08L42.33,34l0-.12.34-.3.38.09a2.33,2.33,0,0,1,.57.18c.18,0,.23.19.18.46a.83.83,0,0,1,.1.76l-.23.14c-.14,0-.21.05-.23.13l-.49.08a.84.84,0,0,1-.11.22.32.32,0,0,0-.18.21l0,.12a.63.63,0,0,0,.06.37c.06.14.06.22,0,.25a1.38,1.38,0,0,1,.47.35c.19.16.34.29.45.4l.4.33a5.06,5.06,0,0,0,.61.31l1,.21a2.19,2.19,0,0,0,1.1-.07l0,.18.36.2.22-.07c0,.12,0,.19.09.2l.33.07.5.17.45.09L49,39l.09-.1a.61.61,0,0,0-.41-.27l-.13,0-.94-.33a.39.39,0,0,1-.29.07l-.1-.15-.39-.08a.67.67,0,0,1,.37-.17.94.94,0,0,0,.45-.21.37.37,0,0,1,.22-.07.37.37,0,0,0,.22-.08.49.49,0,0,1,.23-.14.5.5,0,0,0,.17-.14,6.62,6.62,0,0,0,.78-.51.49.49,0,0,1,.23-.14.19.19,0,0,0,.1-.16l.23-.13s.06,0,.14,0,0-.16.18-.21a1.62,1.62,0,0,1,.25-.19.56.56,0,0,1,.18-.21c.06-.07.12-.16.19-.26l.14,0a.38.38,0,0,1,0,.19s.07.06.25.06.21,0,.2,0l.16-.15-.28-.25-.22.08c-.1-.15-.08-.24.06-.29s.14-.13.12-.22c.17,0,.27,0,.32-.24s0-.32.14-.34.12-.16.19-.26a2,2,0,0,1,.2-.33.7.7,0,0,0,.27-.31,1.81,1.81,0,0,1,.22-.38,1.44,1.44,0,0,0,.33-.3,1.49,1.49,0,0,0,.14-.33l.78-1.43a1.41,1.41,0,0,1,.15-.4,2.24,2.24,0,0,0,.14-.34l0-.17a.64.64,0,0,0,.27-.31l.24-.5a1,1,0,0,1,.16-.4l.08-.41a2.24,2.24,0,0,1,.14-.34c.09-.19.15-.27.19-.26s.13,0,.12.08l1.27.39.13,0,.32.07.14,0L57,28l-.9-.19a.43.43,0,0,0-.24-.17l-.59-.26L55,27.33l.24-.19.13,0,.38-.87.06-.26,0-.11a1,1,0,0,1,.13-.28,2.43,2.43,0,0,1,.19-.27c-.08-.06-.09-.2,0-.44l.23-.13a.93.93,0,0,0,.9.19c0-.21-.13-.33-.26-.36a.86.86,0,0,0-.53-.05.35.35,0,0,0,.07-.29.36.36,0,0,1,.06-.3c.12-.13.16-.23.13-.28a.29.29,0,0,1-.08-.26l0-.12.06-.29a.24.24,0,0,1,0-.19c0-.16,0-.26,0-.31a.2.2,0,0,1-.09-.2l0-.11,0-.18s0-.06,0-.19a.44.44,0,0,1,.24.11.41.41,0,0,1,.18.1c.16.12.27.14.33.07a.13.13,0,0,1,.2,0l0,.18,0,.12-.12.27c0,.08,0,.13,0,.14l0,.12a3,3,0,0,1,.16.52.63.63,0,0,1-.11.53l-.08.35,0,.12,0,.17,0,.18,0,.11.13,0,0,.12.94.32a.17.17,0,0,1,.09-.1.19.19,0,0,0-.09-.21A1,1,0,0,0,58,25l.22-.69c.1-.07.16-.13.17-.21l0-.23a.78.78,0,0,1,.13-.29,1,1,0,0,0,.15-.39.3.3,0,0,1,0-.13l0-.23a.23.23,0,0,0,.18-.21l0-.12,0-.17.17-.52c.16.11.21.17.17.16.19,0,.27,0,.28-.06a.51.51,0,0,0-.09-.21h-.27l.19-.58a.13.13,0,0,1,.2,0s.12,0,.24-.14l0-.17L59,20.47l-.1.16-.25.25-.18.21-.18.2c-.11.31-.21.47-.3.49a.42.42,0,0,0-.32.18l-.43-.15-.12-.09-.48,0,0-.19.16-.15.14,0,.85-.8c0-.19.08-.29.12-.28A.59.59,0,0,0,58.1,20q.18-.15.18-.21a.24.24,0,0,1,.11-.16l0-.12.17.16,1.46.43c.3-.14.32-.32.05-.54l-.57-.18-.19,0-.66-.08-.23.14a4.2,4.2,0,0,1,.31-.86,1.9,1.9,0,0,1,.42-.71l1.33.41c.13.07.25,0,.38-.17l0-.13-.17-.15-.13,0-.19,0-.46-.1-.2,0c-.17-.08-.25-.1-.26-.06s-.07,0-.19,0,0-.11.08-.1l0-.12,0-.12a2.11,2.11,0,0,1,.27-.61c.11-.31.17-.5.19-.57a.35.35,0,0,1,.11-.23c.06-.07.07-.1,0-.11s-.06-.06,0-.13a1.37,1.37,0,0,1,.11-.23.86.86,0,0,1,.14-.33l.16.21.19,0a1.32,1.32,0,0,1,.38.13,2.21,2.21,0,0,0,.63.2h.18L61.54,15,61.28,15l-.13,0-.26-.06h-.54l.14-.64.12-.28.27-.62.1-.21-.24-.81-.23-.79-.09-.32-.28-.76a.23.23,0,0,0-.11,0,.15.15,0,0,0-.11-.17c-.12,0-.14-.11-.08-.23l.18,0-.1-.28c-.14,0-.2,0-.19.07a.36.36,0,0,1,0,.15h-.12a1.72,1.72,0,0,0-.17-.19.47.47,0,0,1-.16-.16l-.21-.13c-.12,0-.17-.08-.16-.15s-.1,0-.11,0l-.2-.09a.19.19,0,0,0-.09-.13.27.27,0,0,1-.2-.09,7.26,7.26,0,0,0-.66-.34.53.53,0,0,0-.14-.1.31.31,0,0,1-.19-.09.3.3,0,0,0-.18,0,.29.29,0,0,1-.18,0,.82.82,0,0,0-.37-.14.6.6,0,0,1-.31-.09l.29-.1L56.64,8a.26.26,0,0,1,.22,0l.7-.35A.54.54,0,0,0,58,7.4h-.28l-.33.12L57,7.69l-.24.08s0,.07,0,.18l-.18,0-.25.19v.16a1.69,1.69,0,0,0-.85,0l-.73.25a2.48,2.48,0,0,0-.44.31c-.05.05-.15.15-.28.3l-.3.36c-.16.19-.26.3-.33.32s.05.08,0,.2a.48.48,0,0,0,0,.31c.06.16.11.21.2.25a.91.91,0,0,1,.11.16l.38,0c0,.07.09.1.2.1l.19.08a.66.66,0,0,1,0,.62c.07.22,0,.35-.09.4a2.44,2.44,0,0,1-.41.19l-.3.1-.29-.21.16-.16c.26-.1.36-.19.38-.34s-.1-.17-.26-.11l-.14.05-.15,0-.15.05c-.09,0-.16.09-.27.14l-.08-.23.07-.12a.35.35,0,0,0,.21-.33l-.34,0-.23,0c0-.23.06-.36.2-.37s.2-.11.27-.31l-.58,0V10a.63.63,0,0,1,.18-.12l.15,0,.45-.26,0-.22c-.07-.11-.16-.12-.27,0l-.21-.14.1-.19.1-.18.42-.2A5.46,5.46,0,0,1,54,8.45l.29-.11a.58.58,0,0,0,.18-.11.19.19,0,0,1,.13-.09l0-.11-1.09.32L54,7.73l.21,0,.48-.32.7-.19.07-.12a.18.18,0,0,0,.21,0,.3.3,0,0,1,.22,0,.34.34,0,0,0,.28,0,.42.42,0,0,1,.27,0l-.16.16c-.25,0-.39.07-.44.15a.31.31,0,0,1-.16.16c-.31,0-.49.1-.53.18s-.1.2,0,.2l.23,0a2.87,2.87,0,0,0,.36-.23c.14-.09.33-.17.59-.31a.62.62,0,0,0,.41-.24,1.41,1.41,0,0,0,.31-.06h.27l.23,0,.22,0a.17.17,0,0,0,.12,0s.07.06.19.08a1.58,1.58,0,0,0,.31.11l.32.14c.09.07.14.15.08.24l-.15,0-.47.22-.45.1-.33.17a.36.36,0,0,0,0,.15s.07,0,.16,0a.4.4,0,0,1,.18,0A.84.84,0,0,1,58,8.32a1.18,1.18,0,0,1,.36-.07L58.92,8,59,7.81h.23L59,7.19l-.21-.14s-.63-.29-.73-.37a.77.77,0,0,1-.29-.2l-.35-.09c-.2,0-.3-.07-.31-.1-.2-.07-.32-.1-.36-.08a1.12,1.12,0,0,1-.36,0c-.14-.06-.23-.08-.29-.05a.26.26,0,0,0-.18,0,.28.28,0,0,1-.18,0,1.77,1.77,0,0,0-.37,0,1.06,1.06,0,0,1-.37,0l-.54,0L54,6.34l-.72.29a1,1,0,0,0-.25.19.75.75,0,0,1-.39.29l-.44.47c0,.06,0,.1-.12.14l-.27.46-.24.59-.12.41-.12.3a.54.54,0,0,0-.1.34c0,.1,0,.16,0,.17a.54.54,0,0,0,0,.22,1.42,1.42,0,0,1,0,.62l.18.51a.58.58,0,0,0,.15.26l.07.23.13.21.32.31.2.09.26.11a.6.6,0,0,1,.14.11.34.34,0,0,0,.19.09l.26,0s0,.07.15.1a.54.54,0,0,0,.25,0l.13.05.25-.08s.07,0,.19-.07l.2-.06s.09,0,.14,0a1.54,1.54,0,0,0,.45-.42,1.36,1.36,0,0,0,.14-.4,4.21,4.21,0,0,0,.05-.49.77.77,0,0,0-.07-.34l-.06-.18a1.34,1.34,0,0,0-.21-.29.34.34,0,0,1-.16-.15l-.18,0a.36.36,0,0,1-.24-.08L53.91,10a.33.33,0,0,0,0-.26c-.06-.08,0-.18.11-.3a2.82,2.82,0,0,0,.3-.25A.42.42,0,0,1,54.55,9l.21-.18a1.39,1.39,0,0,1,.27,0,.91.91,0,0,0,.28,0,.5.5,0,0,0,.21,0,.16.16,0,0,1,.17,0c.17,0,.25,0,.31-.05s0,0,0,.11c.13-.05.18-.05.16,0l.42.11a2.9,2.9,0,0,1,1.06.41c.53.42,1,.79,1.4,1.16.37.21.37.68.56,1.06s0,.62.15.91a.82.82,0,0,1-.06.37l-.07.18-.11.28a1.45,1.45,0,0,1-.14.36.89.89,0,0,0-.13.34l0,.17a.26.26,0,0,0-.11.17l0,.17s-.09.07-.12.22a2.31,2.31,0,0,1-.16.46,1.58,1.58,0,0,0-.26.56,2.09,2.09,0,0,0,0,.36c0,.16-.17.25-.41.28,0,.22,0,.34,0,.37s-.09.1-.12.22a.91.91,0,0,1-.14.34.71.71,0,0,0-.12.28l-.19.26,0,.2,0,.11a2.44,2.44,0,0,1-.16.4.64.64,0,0,1-.19.27l-.2.32c-.1.06-.12.15-.06.29a.66.66,0,0,0-.19.27.42.42,0,0,0-.19.26.51.51,0,0,1-.28.31c-.1.06-.13.1-.08.1l-.16.1a.33.33,0,0,0-.21.07c-.17.13-.3.24-.41.34a1.81,1.81,0,0,1-.52.2l0,.18a.24.24,0,0,0-.1.16.71.71,0,0,0,.12.39,2.23,2.23,0,0,1,.13.34,1.62,1.62,0,0,1,.33.37c.07.1.08.16,0,.19s-.05.05,0,.17a.57.57,0,0,1,.06.33c-.46,5.1-2.91,9-7.08,13A3.86,3.86,0,0,1,47,37l-.52.2c0,.05,0,.05-.2,0,.06.1.08.14,0,.13a.39.39,0,0,0-.28.06l-.11-.08a.24.24,0,0,1-.22.07.5.5,0,0,0-.27,0,.86.86,0,0,0-.35,0,1.32,1.32,0,0,1-.35.05l-.17-.15-.13,0a.7.7,0,0,1-.3-.19,3.16,3.16,0,0,0-.41-.27c-.2-.12-.26-.24-.19-.35a.41.41,0,0,0-.07-.32l.18-.21a.39.39,0,0,1,.29-.12l.22-.07a.36.36,0,0,1,.18-.21.66.66,0,0,0,.13-.28l.09-.11,0-.23a1,1,0,0,0,0-.42,4.54,4.54,0,0,0-.15-.58,1.53,1.53,0,0,0-.23-.48,2.8,2.8,0,0,0-.65-.45c-.08,0-.14-.07-.19,0l-.26,0c-.17-.08-.25-.1-.26-.06l-.32-.07-.16.09c-.15,0-.2,0-.21,0l-.12,0c-.15.05-.2.1-.17.15h-.33a.42.42,0,0,0-.24.14,1.1,1.1,0,0,1-.16.15l-.31.18-.23.13-.36.42-.13.27-.06.3A.78.78,0,0,0,40,35l-.14.64a1.74,1.74,0,0,1,.12.75A.64.64,0,0,0,40,36.64Z"/><path class="a" d="M57.31,23.78l-.13,0c-.08,0-.14,0-.15.09a.73.73,0,0,1-.17.15l.38.14.23-.13a.16.16,0,0,1,0-.14S57.4,23.8,57.31,23.78Z"/><path class="a" d="M55,34.45a2.43,2.43,0,0,0,.19-.27.66.66,0,0,1,.13-.28l0-.19-.1-.15L54,33.23l-.24.19a.55.55,0,0,0-.34-.31l-.26,0c-.13,0-.2,0-.22.07s0,.22.21.29a.76.76,0,0,1,.35.26l-.19.26-.14,0-.18-.1-.26,0-.13,0-.14,0,.08.26.26,0,.19,0,.24-.19.07.32.38.45.45.09.39.08,0-.11a.28.28,0,0,0,.21,0,.18.18,0,0,1,.14,0C54.93,34.75,55,34.64,55,34.45Z"/><path class="a" d="M52.72,36.16a.66.66,0,0,0,.43-.1.39.39,0,0,0,.28.25l.26,0,.19,0,.78.17v-.31l-.11-.14a1.31,1.31,0,0,1-.77-.17q-.49-.23-.6-.06a.88.88,0,0,1-.31-.13,1.67,1.67,0,0,0-.43-.16l-.41,0-.32-.07-.1.17a.58.58,0,0,1,.23.17l.26,0a1.09,1.09,0,0,1,.31.13A.81.81,0,0,0,52.72,36.16Z"/><path class="a" d="M56.94,29.33l.1-.16L57,29l-.43-.21-.14,0-.31-.13-.38-.08-.39-.08a.48.48,0,0,0-.43.09,1.43,1.43,0,0,0,.79.41,2.76,2.76,0,0,1,.38.14.6.6,0,0,1,.31.13l.19,0Z"/><path class="a" d="M55.59,32.85l-.11-.15s-.07-.08-.25-.12l-.32-.06a.89.89,0,0,1-.17-.16l-.46,0a.28.28,0,0,1-.12-.08l-.13,0c-.15,0-.22,0-.27,0l-.19,0,0,.17a1.78,1.78,0,0,1,.54.31,1.77,1.77,0,0,0,.59.12l.12,0A.2.2,0,0,1,55,33l.16-.08.19,0,.2,0Z"/><path class="a" d="M56.29,31.1a.22.22,0,0,0-.08-.26.73.73,0,0,0-.23-.18.79.79,0,0,0-.22.08.82.82,0,0,1-.23-.17,1.15,1.15,0,0,1-.61,0c-.29-.1-.47-.08-.55.06a4.2,4.2,0,0,0,1.25.46,1.51,1.51,0,0,1,.38.14C56.16,31.29,56.26,31.25,56.29,31.1Z"/><path class="a" d="M50.8,37.28a.67.67,0,0,0-.43-.21,3.45,3.45,0,0,0-.57-.19l-.13,0s0-.07-.12-.09-.09,0-.13,0l-.16.15.2.35.69.21c.35.07.58.06.69,0l.16.16c.16,0,.23,0,.29-.06s0-.13-.17-.16Z"/><path class="a" d="M51.83,36.89l.25,0a1.2,1.2,0,0,0,.22-.08l-.21-.28-.76-.23-.39-.08-.32-.07-.32-.07,0,.24.3.18a.32.32,0,0,1,.2,0l.83.24A.53.53,0,0,1,51.83,36.89Z"/><path class="a" d="M52.79,34.88c0,.08.08.14.3.19l.14,0a.4.4,0,0,0-.18-.1Z"/><path class="a" d="M54.82,35.5c0-.12-.07-.2-.29-.24l-.45-.1-.19,0a.31.31,0,0,1-.19-.1.26.26,0,0,0-.17-.1c-.09,0-.14,0-.16.09a.19.19,0,0,1-.14,0,.93.93,0,0,0,.53.36,7.38,7.38,0,0,0,1,.26A.24.24,0,0,0,54.82,35.5Z"/><path class="a" d="M56.58,30.05c0-.11-.07-.19-.28-.24l-.65-.14-.19,0a.91.91,0,0,0-.4,0,.45.45,0,0,1-.25-.11l-.09.1a4.83,4.83,0,0,0,.48.28,2.6,2.6,0,0,0,.51.17,4.19,4.19,0,0,1,.43.16C56.41,30.26,56.55,30.21,56.58,30.05Z"/><path class="a" d="M55.81,31.79l-.3-.19a1.38,1.38,0,0,0-.31-.12.28.28,0,0,0-.21,0l-.19-.05-.15.09c.06.14.13.22.22.23a1.23,1.23,0,0,1,.36.2C55.56,32.13,55.75,32.06,55.81,31.79Z"/><path class="a" d="M52.51,35l.14,0a.47.47,0,0,0-.41-.33c-.21-.05-.33,0-.35.1s.06.14.23.18Z"/><path class="a" d="M54.35,31.36c-.13,0-.21,0-.23.13l.19,0Z"/><path class="a" d="M60.82,14.23a1.49,1.49,0,0,1,.3.19c.07.1.13.13.18.1l.1,0L61.24,14a3.31,3.31,0,0,0-.45.07Z"/><path class="a" d="M60.42,16.78l-.2,0L60,16.68a.27.27,0,0,0-.29.13c-.11.06-.06.15.14.27a.81.81,0,0,0,.31.13l.26.05.36.2a.38.38,0,0,0,.38-.16c.1-.06.09-.14,0-.25a.72.72,0,0,0-.36-.2Z"/><path class="a" d="M61.25,16l-1-.21-.17.15a.54.54,0,0,0,.46.41,2.44,2.44,0,0,1,.53.05l.38.08C61.63,16.26,61.55,16.11,61.25,16Z"/><path class="a" d="M60,18.66l-.71-.15c-.18,0-.27,0-.3.12s.09.2.35.26a1.22,1.22,0,0,1,.56.23l.39,0,.23-.08.05-.23-.26-.06A1,1,0,0,0,60,18.66Z"/><path class="a" d="M57.8,25.91c0-.05-.09-.09-.26-.06a.55.55,0,0,0-.36-.2,2.08,2.08,0,0,0-.59-.06c0,.25,0,.35.13.33A.24.24,0,0,1,57,26a.38.38,0,0,0,.24.12.83.83,0,0,1,.27,0c.21.05.32.09.31.13L58,26A.39.39,0,0,1,57.8,25.91Z"/><path class="a" d="M58.32,20.63l.26.05s.07,0,.2,0l.11-.22-.32-.07c-.25-.05-.39,0-.41,0s0,.12,0,.13S58.33,20.58,58.32,20.63Z"/><path class="a" d="M57.52,21.19l.56.24a.17.17,0,0,0,.09-.1l0-.18L57.56,21Z"/><polygon class="a" points="58.67 23.4 58.64 23.57 58.75 23.66 58.95 23.7 59.01 23.4 58.82 23.36 58.67 23.4"/><path class="a" d="M59.3,22.67c0-.12,0-.19-.16-.22L59,22.6c.07.1.12.15.16.16S59.28,22.75,59.3,22.67Z"/><polygon class="a" points="57.07 22.68 56.92 22.78 57.01 22.98 57.15 22.95 57.07 22.68"/><path class="a" d="M58.4,24.38l.19,0,0-.19C58.38,24.23,58.33,24.28,58.4,24.38Z"/><path class="a" d="M62.51,32.64l-.11-.06c0,.08.11.19.33.34a1,1,0,0,1,.27.72.87.87,0,0,1,0,.28,1.86,1.86,0,0,1-.11.27.46.46,0,0,1-.17.28c-.14.15-.18.22-.11.22s.11,0,.11,0h.17a.15.15,0,0,1,.11-.06h.17a1.36,1.36,0,0,0,.27-.22,1.82,1.82,0,0,0,.28-.22.89.89,0,0,0,.22-.56v-.49l0-.34v-.17c0-.11.09-.16.17-.16s.1,0,.21,0a.54.54,0,0,1,.23-.11.23.23,0,0,0,.22-.11c.07,0,.11-.07.11-.11s0-.08.11-.11a.42.42,0,0,0,.28-.06l0-.33a.18.18,0,0,1-.11-.17s0-.06-.11-.06,0-.16-.16-.27a1.48,1.48,0,0,0-.39-.11.71.71,0,0,0-.28-.11l-.33-.06V30.7a.32.32,0,0,0,0-.16.38.38,0,0,1,.06-.17.77.77,0,0,0,.16-.22s0-.09.11-.17a1.55,1.55,0,0,1,.06-.22v-.22a1.49,1.49,0,0,0,.11-.28.43.43,0,0,0,.06-.22l.11-.44v-.33L64.45,28v-.17a2.73,2.73,0,0,0-.06-.66,2.28,2.28,0,0,1-.11-.39q-.11-.22-.06-.27c-.11,0-.18-.08-.21-.23a1,1,0,0,0-.17-.27,1.46,1.46,0,0,0-.28-.17l-.05-.16-.12-.12a1.93,1.93,0,0,1-.61-.27.47.47,0,0,0-.16-.11h-.11a.18.18,0,0,1-.11-.17l-.06-.28a3.09,3.09,0,0,1,.11-.38l.22-.11a.24.24,0,0,1,.17-.06.62.62,0,0,1,.61.5c.07.19.18.26.33.22s.13-.17.06-.39-.09-.2-.17-.39-.2-.27-.28-.27,0-.11-.11-.11-.16,0-.16-.12a.17.17,0,0,1,.11-.16l.11-.11a.29.29,0,0,1,0-.17v-.11a.54.54,0,0,0,0-.5c0-.07,0-.13,0-.16l0-.11a.61.61,0,0,0-.22-.28,1,1,0,0,0-.06-.33H62.9l-.12-.06h-.11s-.09.06-.11.11,0,0,.06.11a.4.4,0,0,0,.16.06s0,.05.12.05v.34a.64.64,0,0,1-.34.61.74.74,0,0,0-.39.33q-.11-.06-.27.33a1.88,1.88,0,0,0-.17.61,2.12,2.12,0,0,0,.05.44s0,.06.12.06a1.42,1.42,0,0,1,.11.16c0,.15,0,.24.11.28l.66.44c-.07.08-.12.09-.16.06a.46.46,0,0,0-.22-.06.33.33,0,0,0-.23.06.55.55,0,0,1-.22.06,1.26,1.26,0,0,1-.33.05c0,.11-.15.16-.33.22a.46.46,0,0,0-.28.17,3.63,3.63,0,0,0-.22.33.47.47,0,0,0-.11.33.3.3,0,0,1-.33.23l-.12.22c-.07,0-.16.22-.27.55a2,2,0,0,0-.22.67v.39a.92.92,0,0,0,.11.44s0,.16,0,.38.06.36.06.4v.16a2.26,2.26,0,0,1-.11.22l-.11.11a.18.18,0,0,0-.17.11.13.13,0,0,1-.22,0l-.17-.11h-.11a.44.44,0,0,0-.22-.05c0,.07,0,.14.17.22a1.36,1.36,0,0,1,.22.27h.22a.42.42,0,0,0,.28.06,1.83,1.83,0,0,0,.49-.06,1.09,1.09,0,0,0,.45-.33.66.66,0,0,1,.33-.33.53.53,0,0,1,.11-.27,1,1,0,0,0,.06-.34v-.28c0-.18,0-.29.11-.33a.87.87,0,0,0,.28-.11c.07-.07.16-.19.27-.33a.48.48,0,0,0,.11-.28v-.27a2,2,0,0,0-.05-.34c0-.11-.09-.16-.17-.16a.16.16,0,0,0-.16.11.59.59,0,0,1-.39.1.32.32,0,0,0-.22-.1c-.08,0-.13-.1-.17-.28s-.09-.19-.06-.22a.55.55,0,0,0,.06-.33.77.77,0,0,1,.17-.45,3,3,0,0,1,.27-.33,2.15,2.15,0,0,1,.55-.23,4.58,4.58,0,0,1,.56-.05h.33a.48.48,0,0,0,.23.05h.16a.7.7,0,0,1,.17.06s.09.06.11.11a.33.33,0,0,1,.22.12.37.37,0,0,0,.22.22l.17.16a.91.91,0,0,1,.06.22,1.36,1.36,0,0,1,.21.39,2.15,2.15,0,0,1,.06.45,2.2,2.2,0,0,1-.06.55,2.09,2.09,0,0,0-.11.39c-.1,0-.16.13-.22.28s0,.16-.16.38a2.2,2.2,0,0,1-.39.39,1,1,0,0,0-.22.17A1.46,1.46,0,0,1,63,30l-.28.11c-.11,0-.16.07-.16.11v.11c-.08,0-.2.07-.39.22l-.44.28a3.39,3.39,0,0,0-.39.22,1,1,0,0,1-.44.33l-.89.89a.1.1,0,0,1-.11.11c-.08.07-.09.11-.06.11a.58.58,0,0,1,0,.17s0,.07-.11.11a.28.28,0,0,0-.11.22,1.68,1.68,0,0,0-.23.72v.61c0,.15,0,.22,0,.22v.33a.61.61,0,0,1,.12.22.34.34,0,0,0,.05.23l.22.22c.08.11.09.18.06.22s.11.07.11.11a.18.18,0,0,0,0,.11c.08.11.13.17.17.17l.11.11a.73.73,0,0,0,.5.22l-.56-.5A.77.77,0,0,0,60,35.8a.66.66,0,0,1-.22-.33.93.93,0,0,1-.06-.39v-.56s0,0,0-.11v-.49l.06-.17a.82.82,0,0,1,0-.17c0-.11.08-.16.11-.16L60,33.3c0-.18.07-.27.22-.27,0-.08,0-.15.28-.22a1.48,1.48,0,0,0,.33-.17,1,1,0,0,0,.39-.17.68.68,0,0,1,.27,0h.67c.19.15.31.16.39,0Z"/><path class="a" d="M80.49,30.1a.53.53,0,0,1,.11.27.66.66,0,0,1,.33.33,1.23,1.23,0,0,0,.45.33,1.83,1.83,0,0,0,.49.06.42.42,0,0,0,.28-.06h.23a1,1,0,0,1,.21-.27c.15-.08.21-.15.17-.22a.44.44,0,0,0-.22.05h-.11l-.17.11a.13.13,0,0,1-.22,0,.18.18,0,0,0-.17-.11l-.11-.11a2.26,2.26,0,0,1-.11-.22V30.1s0-.17.06-.4a2.64,2.64,0,0,0,.05-.38.92.92,0,0,0,.11-.44v-.39a2,2,0,0,0-.22-.67c-.11-.33-.2-.52-.27-.55l-.11-.22a.31.31,0,0,1-.34-.23.43.43,0,0,0-.11-.33,2.26,2.26,0,0,0-.22-.33.46.46,0,0,0-.28-.17c-.18-.06-.29-.11-.33-.22a1.26,1.26,0,0,1-.33-.05.6.6,0,0,1-.22-.06.3.3,0,0,0-.22-.06.49.49,0,0,0-.23.06s-.09,0-.16-.06l.66-.44c.08,0,.11-.13.11-.28a1.42,1.42,0,0,1,.11-.16q.12,0,.12-.06a2.12,2.12,0,0,0,0-.44,1.88,1.88,0,0,0-.17-.61q-.17-.39-.27-.33a.74.74,0,0,0-.39-.33.63.63,0,0,1-.33-.61V22c.07,0,.11,0,.11-.05a.4.4,0,0,0,.16-.06c.08-.07.1-.11.06-.11s-.07-.07-.11-.11h-.11l-.11.06h-.17a1.26,1.26,0,0,0,0,.33.56.56,0,0,0-.22.28l-.06.11s0,.09,0,.16a.54.54,0,0,0,0,.5v.11a.24.24,0,0,1,.06.17l.1.11a.18.18,0,0,1,.12.16c0,.08-.06.12-.17.12s-.15,0-.11.11-.17.09-.28.27a2.82,2.82,0,0,1-.17.39c-.07.22,0,.36.06.39s.26,0,.33-.22a.64.64,0,0,1,.61-.5.22.22,0,0,1,.17.06l.22.11a3.09,3.09,0,0,1,.11.38l0,.28a.19.19,0,0,1-.12.17H79a.47.47,0,0,0-.16.11,1.83,1.83,0,0,1-.61.27l-.11.12-.06.16a1.9,1.9,0,0,0-.28.17,1.13,1.13,0,0,0-.16.27c0,.15-.11.23-.22.23,0,0,0,.12-.06.27a1.25,1.25,0,0,1-.11.39,3.37,3.37,0,0,0-.06.66V28l-.1.23v.33l.1.44a.55.55,0,0,0,.06.22l.11.28v.22a.81.81,0,0,1,.06.22c.07.08.11.13.11.17a.82.82,0,0,0,.17.22.51.51,0,0,1,0,.17.47.47,0,0,0,0,.16v.11l-.33.06a.79.79,0,0,0-.28.11,1.35,1.35,0,0,0-.38.11c-.15.11-.2.2-.17.27s-.11,0-.11.06a.17.17,0,0,1-.11.17l.06.33s.13.06.27.06.11.07.11.11,0,.07.12.11a.21.21,0,0,0,.21.11.49.49,0,0,1,.23.11c.11,0,.18,0,.22,0s.13,0,.16.16v.17l0,.34v.49a.89.89,0,0,0,.22.56l.28.22a1.14,1.14,0,0,0,.28.22h.16a.14.14,0,0,1,.11.06h.17s0,0,.11,0,0-.07-.11-.22a.46.46,0,0,1-.17-.28c0-.07-.07-.16-.11-.27a.87.87,0,0,1,0-.28.94.94,0,0,1,.28-.72c.21-.15.33-.26.33-.34l-.12.06v-.17c.08.11.21.1.39,0h.67a.78.78,0,0,1,.28,0,1,1,0,0,0,.38.17,1.41,1.41,0,0,0,.34.17c.22.07.31.14.27.22.15,0,.22.09.22.27l.06.12s.07,0,.11.16a.45.45,0,0,1,.05.17l.06.17v.49c0,.08,0,.11,0,.11v.56a.93.93,0,0,1-.06.39.6.6,0,0,1-.22.33.77.77,0,0,0-.16.22l-.56.5a.72.72,0,0,0,.5-.22l.11-.11s.1-.06.17-.17a.14.14,0,0,0,.05-.11s0-.07.11-.11,0-.11.06-.22l.22-.22a.33.33,0,0,0,.06-.23.63.63,0,0,1,.11-.22v-.33s0-.07,0-.22v-.61A1.64,1.64,0,0,0,82.1,33a.31.31,0,0,0-.11-.22c-.08,0-.12-.08-.12-.11a.58.58,0,0,1-.05-.17s0,0-.06-.11a.1.1,0,0,1-.11-.11l-.88-.89a1,1,0,0,1-.45-.33,4.27,4.27,0,0,0-.38-.22,4.52,4.52,0,0,1-.45-.28.78.78,0,0,0-.39-.22v-.11s0-.07-.16-.11L78.66,30a.93.93,0,0,1-.16-.22l-.22-.17a1.67,1.67,0,0,1-.39-.39c-.15-.22-.21-.35-.17-.38a.39.39,0,0,0-.22-.28c-.07-.3-.11-.43-.11-.39a2.2,2.2,0,0,1-.06-.55,2.15,2.15,0,0,1,.06-.45,1.34,1.34,0,0,1,.22-.39.91.91,0,0,1,.06-.22l.16-.16a.34.34,0,0,0,.22-.22.33.33,0,0,1,.23-.12c0-.05.07-.07.1-.11a.88.88,0,0,1,.17-.06h.17a.47.47,0,0,0,.22-.05h.33a4.58,4.58,0,0,1,.56.05,2.15,2.15,0,0,1,.55.23,2.17,2.17,0,0,1,.27.33.71.71,0,0,1,.17.45.55.55,0,0,0,.06.33s0,.11-.06.22-.09.28-.17.28a.29.29,0,0,0-.21.1.55.55,0,0,1-.39-.1.17.17,0,0,0-.17-.11c-.07,0-.13.05-.17.16a2,2,0,0,0,0,.34v.27a.56.56,0,0,0,.11.28,2.75,2.75,0,0,0,.28.33.86.86,0,0,0,.27.11q.12.06.12.33v.28A1,1,0,0,0,80.49,30.1Z"/><path class="a" d="M51,23.61c0,.2.06.32.14.35a.42.42,0,0,0,.12.42,1.57,1.57,0,0,1,.08.33,2,2,0,0,1-.19.8.9.9,0,0,0-.07.33c-.07.17-.07.27,0,.3s.19,0,.32-.07a.65.65,0,0,0,.26-.27l.23-.19a.87.87,0,0,0,.17-.22,1.35,1.35,0,0,0,.07-.34.66.66,0,0,1,0-.28.54.54,0,0,0,.07-.33l.08-.19s-.07-.08-.07-.17a2.6,2.6,0,0,0,.47-.25c.15-.13.21-.2.16-.22s0-.06.05-.12l-.13-.21a.26.26,0,0,0-.21,0,1.1,1.1,0,0,1-.4-.1L52,23.09c-.05,0-.11,0-.16-.14-.21-.19-.31-.3-.29-.34a.68.68,0,0,0,0-.31.11.11,0,0,1-.07-.17l.18-.44.06-.12a.47.47,0,0,0-.5.3,2.35,2.35,0,0,0-.3.53,1.61,1.61,0,0,0,0,.64C50.84,23.37,50.88,23.55,51,23.61Z"/><path class="a" d="M53.87,19.62a.27.27,0,0,0,.34-.09,1.26,1.26,0,0,0,.19-.28,1.33,1.33,0,0,0,.2-.65.88.88,0,0,1,.29-.16c.1,0,.16,0,.18-.08a.22.22,0,0,1,.11-.1l.08-.18c.08-.07.13-.12.14-.16l.06-.13a.89.89,0,0,0,0-.66.72.72,0,0,0-.05-.24l-.13-.21a.26.26,0,0,1-.12.11l-.13.3c0,.15-.12.27-.31.39a3.23,3.23,0,0,1-.49.3.66.66,0,0,1-.48.09,1.35,1.35,0,0,0-.21.13.36.36,0,0,1-.3,0c.05.12,0,.18-.29.18s-.37.11-.32.23l-.21,0c-.06,0-.11.07-.17.22l-.19.44a1,1,0,0,0,0,.79.45.45,0,0,1,0,.21s0,0,.07.17,0,.11.13.21.09.18.14.2l0-.06-.21-.53v-.15c.06,0,.1-.06.11-.1l.06-.12,0-.13.21-.5a1.2,1.2,0,0,1,.26-.25,1.59,1.59,0,0,1,.48-.1.44.44,0,0,1,.43.19c.17.17.23.32.18.44S53.78,19.6,53.87,19.62Z"/><path class="a" d="M90.38,24c.08,0,.13-.15.14-.35s.17-.24.13-.57a1.61,1.61,0,0,0-.05-.64,2.35,2.35,0,0,0-.3-.53.48.48,0,0,0-.5-.3l.06.12.18.44a.11.11,0,0,1-.07.17.68.68,0,0,0,0,.31s-.08.15-.29.34c0,.12-.11.16-.17.14l-.18.08a1.1,1.1,0,0,1-.4.1.26.26,0,0,0-.21,0l-.14.21c.08.06.09.1.06.12s0,.09.16.22a2.6,2.6,0,0,0,.47.25c0,.09,0,.16-.07.17l.08.19a.54.54,0,0,0,.07.33.66.66,0,0,1,0,.28,1.35,1.35,0,0,0,.07.34.69.69,0,0,0,.17.22l.23.19a.65.65,0,0,0,.26.27c.13.08.24.11.32.07s.09-.13,0-.3a.9.9,0,0,0-.07-.33,2,2,0,0,1-.19-.8,1.13,1.13,0,0,1,.08-.33A.42.42,0,0,0,90.38,24Z"/><path class="a" d="M141.56,77.21a3.15,3.15,0,0,1-1-.16c-.53-.15-1.25-.55-2.15-2.77-1.53-3.81-5.46-14.16-5.84-15.11-.3-.77-.4-.9-.55-.9s-.25.15-.55,1L125.78,74.8c-.45,1.25-.94,2.21-2.1,2.36l-.72,0c-.13,0-.23.05-.23.14s.15.21.48.21c1.17,0,2.55-.08,2.83-.08s1.35.08,1.95.08c.23,0,.37,0,.37-.21s-.07-.14-.25-.14h-.25c-.42,0-1-.23-1-.73a5.24,5.24,0,0,1,.36-1.68l1.5-4.43c0-.13.12-.2.25-.2h5.38a.22.22,0,0,1,.23.15L137,76.48c.14.4,0,.62-.33.85,0,.15.27.15.75.18,1.73,0,3.56,0,3.93,0s.51,0,.51-.21S141.71,77.21,141.56,77.21Zm-12.27-7.94-.07-.18,2.2-6.76c.12-.38.25-.38.38,0l2.28,6.94Z"/><path class="a" d="M25,77.33c0-.1-.07-.12-.2-.12A5.35,5.35,0,0,1,23.19,77c-1.07-.35-1.25-1.75-1.35-2.65L20.16,59c-.05-.48-.12-.68-.3-.68s-.27.18-.37.4L12.12,74.4,4.46,58.65c-.12-.28-.23-.38-.38-.38s-.24.18-.27.45L2,75.05C1.9,76,1.83,77,1,77.13a3.11,3.11,0,0,1-.76.08c-.12,0-.25.05-.25.12s.18.23.43.23c.67,0,1.88-.08,2.1-.08s1.4.08,2.33.08c.3,0,.45,0,.45-.23s-.1-.12-.2-.12a4.68,4.68,0,0,1-1-.13.79.79,0,0,1-.65-.78c0-.42,0-.87,0-1.27L4.64,63.41c.27.67,3.07,6.68,3.3,7.14.13.24,2.28,4.58,2.93,5.8.48.91.6,1.16.78,1.16s.3-.23.82-1.33l6.22-13,1.19,12.93c.06.45,0,.88-.27,1.08,0,.12.13.19.71.25.92.07,3.63.15,4.18.15C24.8,77.56,25,77.48,25,77.33Z"/><path class="a" d="M45.17,77.35c0-.12-.1-.14-.25-.14a3.07,3.07,0,0,1-1-.16c-.53-.15-1.26-.55-2.16-2.77-1.53-3.81-5.46-14.16-5.83-15.11-.31-.77-.4-.9-.56-.9s-.25.15-.55,1L29.14,74.8c-.45,1.25-1,2.21-2.11,2.36l-.72,0c-.13,0-.23.05-.23.14s.15.21.48.21c1.17,0,2.56-.08,2.83-.08s1.35.08,1.95.08c.23,0,.38,0,.38-.21s-.08-.14-.25-.14h-.25c-.43,0-1-.23-1-.73a5.24,5.24,0,0,1,.36-1.68l1.5-4.43c.05-.13.12-.2.25-.2h5.38a.22.22,0,0,1,.23.15l2.33,6.16c.15.4,0,.62-.33.85,0,.15.28.15.76.18,1.72,0,3.55,0,3.92,0S45.17,77.51,45.17,77.35ZM32.64,69.27l-.07-.18,2.2-6.76c.13-.38.25-.38.38,0l2.28,6.94Z"/><path class="a" d="M57.51,72.7c0-2-.7-3.56-3.66-5.89l-.7-.55c-2.4-1.88-3.06-2.78-3.06-4.21a2.85,2.85,0,0,1,3.09-2.9c2.3,0,3,1.05,3.13,1.32a4.67,4.67,0,0,1,.32,1.26c0,.2,0,.32.2.32s.18-.17.18-.57c0-1.71.1-2.53.1-2.66s0-.17-.25-.17a4.2,4.2,0,0,1-.88-.13,9.74,9.74,0,0,0-2.33-.25c-3.18,0-5.19,1.83-5.19,4.51,0,1.7.61,3.26,3.26,5.44l1.13.92c2.16,1.78,2.88,2.78,2.88,4.51A3.35,3.35,0,0,1,52.15,77c-1.68,0-3.33-.7-3.71-2.56a4.64,4.64,0,0,1-.07-.92c0-.2,0-.28-.18-.28s-.17.13-.2.4-.12,1.41-.12,2.66c0,.68,0,.77.37,1a7.63,7.63,0,0,0,3.36.67,6.6,6.6,0,0,0,3.78-1.05A5.17,5.17,0,0,0,57.51,72.7Z"/><path class="a" d="M78.17,77.33c.45-.2.5-.25.64-.73a24.26,24.26,0,0,0,.55-3.2c0-.2,0-.38-.17-.38s-.2.1-.25.38A4.66,4.66,0,0,1,78,75.5c-1,1-2.47,1.25-4.35,1.25a9,9,0,0,1-9-9.16c0-2.56.42-4.79,2.25-6.54.88-.85,2.43-1.83,5.76-1.83a8.37,8.37,0,0,1,5,1.43,3.47,3.47,0,0,1,1,2.55c0,.35,0,.53.2.53s.2-.15.23-.53,0-1.75.07-2.58.12-1.2.12-1.4,0-.25-.32-.27a20.78,20.78,0,0,1-2.55-.38,22.06,22.06,0,0,0-3.63-.3c-3.86,0-6.14,1.18-7.64,2.68a10,10,0,0,0-2.81,6.83,9.59,9.59,0,0,0,3,7.42c2,1.78,4.51,2.7,8.27,2.7A14.61,14.61,0,0,0,78.17,77.33Z"/><path class="a" d="M93.49,58.27a9.69,9.69,0,0,0-9.87,9.79c0,4.51,2.85,9.84,9.72,9.84,6,0,10-4.63,10-10.24C103.33,61.83,99.12,58.27,93.49,58.27ZM94,77c-4.51,0-8-3.76-8-9.6,0-5.48,3.13-8.24,7.31-8.24,4,0,7.61,3.24,7.61,9.24C100.92,75.65,96.27,77,94,77Z"/><path class="a" d="M121.38,58.45c-.1,0-.34.07-.71.12a9.38,9.38,0,0,1-1.77.13h-9.39c-.3,0-1.25-.05-2-.13a4.82,4.82,0,0,1-1.11-.3c-.1,0-.2.33-.25.48s-.55,2.35-.55,2.6.05.23.13.23.17,0,.24-.25a5.4,5.4,0,0,1,.43-.78c.4-.6,1-.78,2.56-.8l3.7,0V70.29c0,2.41,0,4.38-.12,5.44-.1.72-.23,1.28-.73,1.37a3.24,3.24,0,0,1-.75.11c-.15,0-.2.07-.2.14s.12.21.4.21c.75,0,2.33-.08,2.46-.08s1.7.08,3.07.08c.28,0,.4-.08.4-.21s0-.14-.2-.14a8.92,8.92,0,0,1-1.12-.11c-.75-.09-.91-.65-1-1.37-.12-1.06-.12-3-.12-5.44V59.7l3.15,0c2.4,0,3,.62,3.07,1.37l0,.28c0,.35.08.43.21.43s.18-.1.18-.33.08-2,.08-2.75C121.51,58.6,121.51,58.45,121.38,58.45Z"/><path class="a" d="M117.33,93.24c-1.9-.41-2.34-.86-2.34-1.69s.71-1.4,1.83-1.4a3.79,3.79,0,0,1,2.49.93l.57-.75a4.51,4.51,0,0,0-3-1.06c-1.64,0-2.83,1-2.83,2.37s.91,2.07,2.89,2.5c1.81.38,2.24.84,2.24,1.65s-.76,1.48-1.92,1.48a4.1,4.1,0,0,1-3-1.22l-.6.72a5.06,5.06,0,0,0,3.52,1.38c1.72,0,3-1,3-2.45S119.25,93.66,117.33,93.24Z"/><polygon class="a" points="25.83 96.83 22.76 89.4 21.68 89.4 25.39 98.08 26.25 98.08 29.96 89.4 28.91 89.4 25.83 96.83"/><rect class="a" x="35.12" y="89.4" width="0.97" height="8.62"/><polygon class="a" points="48.33 96.31 42.9 89.4 41.98 89.4 41.98 98.02 42.94 98.02 42.94 90.95 48.51 98.02 49.28 98.02 49.28 89.4 48.33 89.4 48.33 96.31"/><polygon class="a" points="56.07 94.11 60.77 94.11 60.77 93.23 56.07 93.23 56.07 90.28 61.33 90.28 61.33 89.4 55.09 89.4 55.09 98.02 61.39 98.02 61.39 97.13 56.07 97.13 56.07 94.11"/><polygon class="a" points="69.72 93.71 66.81 89.4 65.63 89.4 69.21 94.61 69.21 98.02 70.19 98.02 70.19 94.59 73.78 89.4 72.65 89.4 69.72 93.71"/><path class="a" d="M80.4,89.33,76.47,98h1l1-2.28h4.7l1,2.28h1l-3.93-8.69Zm-1.52,5.54,2-4.4,2,4.4Z"/><path class="a" d="M97,92c0-1.55-1.22-2.57-3.12-2.57H90.18V98h1V94.67h2.46L96.12,98h1.19L94.67,94.5A2.54,2.54,0,0,0,97,92ZM91.16,93.8V90.3h2.66c1.39,0,2.2.64,2.2,1.71S95.1,93.8,93.8,93.8Z"/><path class="a" d="M105.45,89.4h-3V98h3a4.32,4.32,0,1,0,0-8.62Zm0,7.72h-2V90.3h2a3.41,3.41,0,1,1,0,6.82Z"/></svg>