<svg xmlns="http://www.w3.org/2000/svg" viewBox="1532 3605.292 23 39.297">
  <path id="Path_3157" data-name="Path 3157" d="M128.6,8.834H124.8V6.95a6.95,6.95,0,1,0-13.9,0V8.834h-3.769a.762.762,0,0,0-.762.762v28.94a.762.762,0,0,0,.762.761H128.6a.762.762,0,0,0,.762-.761V9.6A.762.762,0,0,0,128.6,8.834ZM112.418,6.95a5.427,5.427,0,0,1,10.854,0V8.834H112.418Zm15.424,30.824H107.888V10.357H110.9v3.354a1.371,1.371,0,1,0,1.523,0V10.357h10.854v3.354a1.371,1.371,0,1,0,1.523,0V10.357h3.046V37.774Z" transform="translate(1425.635 3605.292)"/>
</svg>
