<svg xmlns="http://www.w3.org/2000/svg" xmlns:xlink="http://www.w3.org/1999/xlink" viewBox="749 5260 133.555 97.756">
  <defs>
    <style>
      .cls-1 {
        fill: none;
      }

      .cls-2 {
        clip-path: url(#clip-path);
      }

      .cls-3 {
        fill: #d16c48;
      }

      .cls-4 {
        fill: #2b2e34;
      }
    </style>
    <clipPath id="clip-path">
      <path id="Path_349" data-name="Path 349" class="cls-1" d="M0-123.965H133.555v97.756H0Z" transform="translate(0 123.965)"/>
    </clipPath>
  </defs>
  <g id="Group_389" data-name="Group 389" class="cls-2" transform="translate(749 5260)">
    <g id="Group_357" data-name="Group 357" transform="translate(14.908 90.867)">
      <path id="Path_317" data-name="Path 317" class="cls-3" d="M0,0H5.777l.668,1.779L6,1.942a2.748,2.748,0,0,0-.369-.687A1.8,1.8,0,0,0,5.152.83,1.767,1.767,0,0,0,4.587.6,5.558,5.558,0,0,0,3.568.541H1.846V3.019H2.7a1.327,1.327,0,0,0,.715-.152.809.809,0,0,0,.337-.378,1.715,1.715,0,0,0,.07-.6V1.779h.5V4.75h-.5V4.5A1.754,1.754,0,0,0,3.776,4a.834.834,0,0,0-.2-.286.8.8,0,0,0-.306-.178,2.158,2.158,0,0,0-.568-.05H1.846v2.2a1.724,1.724,0,0,0,.028.423.238.238,0,0,0,.112.1,1.347,1.347,0,0,0,.417.035H3.471a3.8,3.8,0,0,0,1.4-.2,2.358,2.358,0,0,0,.882-.626A3.488,3.488,0,0,0,6.326,4.5l.464.152L6,6.772H0v-.41H.205a1.255,1.255,0,0,0,.443-.044.446.446,0,0,0,.2-.2A1.087,1.087,0,0,0,.9,5.7V1.033A.887.887,0,0,0,.831.61.417.417,0,0,0,.606.442,3.171,3.171,0,0,0,0,.41Z"/>
    </g>
    <g id="Group_358" data-name="Group 358" transform="translate(24.932 90.75)">
      <path id="Path_318" data-name="Path 318" class="cls-3" d="M-1.253-.031h.365l.542,2.087-.474.137A3.58,3.58,0,0,0-2.011.811,2.3,2.3,0,0,0-3.365.392a2.037,2.037,0,0,0-.8.148,1.175,1.175,0,0,0-.531.4.8.8,0,0,0-.181.493.776.776,0,0,0,.14.438,1.1,1.1,0,0,0,.418.375,4.032,4.032,0,0,0,.915.343l1.33.375a6.721,6.721,0,0,1,.71.261,2.835,2.835,0,0,1,.724.409,1.49,1.49,0,0,1,.411.532,1.639,1.639,0,0,1,.146.677,1.787,1.787,0,0,1-.74,1.411,2.936,2.936,0,0,1-1.917.606A3.394,3.394,0,0,1-3.831,6.69,3.947,3.947,0,0,1-4.865,6.1l-.233.645h-.36L-5.926,4.31l.468-.093a3.662,3.662,0,0,0,.692,1.146,3.022,3.022,0,0,0,.954.711,2.552,2.552,0,0,0,1.058.238,2.052,2.052,0,0,0,1.287-.423,1.031,1.031,0,0,0,.459-.833.9.9,0,0,0-.334-.722,3.344,3.344,0,0,0-1.2-.528l-1.272-.349A3.272,3.272,0,0,1-5.323,2.7a1.481,1.481,0,0,1-.438-1.056A1.45,1.45,0,0,1-5.475.782,2.166,2.166,0,0,1-4.6.121,3.12,3.12,0,0,1-3.306-.148a3.315,3.315,0,0,1,1.133.2,2.557,2.557,0,0,1,.7.388Z" transform="translate(5.926 0.148)"/>
    </g>
    <g id="Group_359" data-name="Group 359" transform="translate(33.513 90.64)">
      <path id="Path_319" data-name="Path 319" class="cls-3" d="M-.2,0H.158L.214.226H4.57L4.612,0h.375l.747,1.99-.457.155a2.557,2.557,0,0,0-.787-1.121A1.959,1.959,0,0,0,3.327.7a1.389,1.389,0,0,0-.352.021A.138.138,0,0,0,2.9.8a1.213,1.213,0,0,0-.025.34v4.7a1.829,1.829,0,0,0,.037.452.482.482,0,0,0,.111.181.471.471,0,0,0,.2.084,3.266,3.266,0,0,0,.555.032V7H1.038v-.41a4.113,4.113,0,0,0,.553-.026.4.4,0,0,0,.252-.187,1.126,1.126,0,0,0,.083-.505v-4.8A.846.846,0,0,0,1.9.8.146.146,0,0,0,1.813.732.771.771,0,0,0,1.553.7a2.427,2.427,0,0,0-.9.135A1.756,1.756,0,0,0,.031,1.3a2.861,2.861,0,0,0-.5.845L-.931,1.99Z" transform="translate(0.931)"/>
    </g>
    <g id="Group_360" data-name="Group 360" transform="translate(42.197 90.867)">
      <path id="Path_320" data-name="Path 320" class="cls-3" d="M-.6-1.015H1.6L.507-3.927ZM.306-4.8h.83L3.345.859a1.47,1.47,0,0,0,.33.566.674.674,0,0,0,.445.137h.112v.409H1.707V1.562q.122-.009.239-.009A.664.664,0,0,0,2.268,1.5a.268.268,0,0,0,.146-.229,2.088,2.088,0,0,0-.141-.5L1.8-.539H-.772L-1.328.926a1.1,1.1,0,0,0-.086.315.278.278,0,0,0,.051.172.289.289,0,0,0,.146.108.853.853,0,0,0,.3.035c.092,0,.163,0,.224.006v.409H-2.823V1.562A1.081,1.081,0,0,0-2.4,1.5a.566.566,0,0,0,.227-.178A2.381,2.381,0,0,0-1.915.805Z" transform="translate(2.823 4.801)"/>
    </g>
    <g id="Group_361" data-name="Group 361" transform="translate(51.599 90.64)">
      <path id="Path_321" data-name="Path 321" class="cls-3" d="M-.2,0H.162L.209.226H4.574L4.617,0h.367l.752,1.99-.457.155a2.575,2.575,0,0,0-.785-1.121A1.979,1.979,0,0,0,3.332.7a1.38,1.38,0,0,0-.356.021A.163.163,0,0,0,2.9.8a1.651,1.651,0,0,0-.022.34v4.7a1.687,1.687,0,0,0,.039.452.426.426,0,0,0,.11.181.5.5,0,0,0,.2.084,3.275,3.275,0,0,0,.557.032V7H1.042v-.41a4.139,4.139,0,0,0,.55-.026.415.415,0,0,0,.255-.187,1.129,1.129,0,0,0,.075-.505v-4.8A.992.992,0,0,0,1.9.8.16.16,0,0,0,1.814.732.772.772,0,0,0,1.551.7,2.392,2.392,0,0,0,.663.839,1.775,1.775,0,0,0,.032,1.3a2.847,2.847,0,0,0-.5.845L-.929,1.99Z" transform="translate(0.929)"/>
    </g>
    <g id="Group_362" data-name="Group 362" transform="translate(61.061 90.867)">
      <path id="Path_322" data-name="Path 322" class="cls-3" d="M0,0H5.78l.67,1.779L6,1.942a2.453,2.453,0,0,0-.367-.687A1.919,1.919,0,0,0,5.157.83,1.71,1.71,0,0,0,4.593.6,5.612,5.612,0,0,0,3.572.541H1.846V3.019h.862a1.327,1.327,0,0,0,.716-.152.8.8,0,0,0,.334-.378,1.72,1.72,0,0,0,.073-.6V1.779h.5V4.75h-.5V4.5A1.609,1.609,0,0,0,3.776,4a.756.756,0,0,0-.2-.286.783.783,0,0,0-.313-.178,2.07,2.07,0,0,0-.559-.05H1.846v2.2a1.369,1.369,0,0,0,.035.423.21.21,0,0,0,.11.1,1.351,1.351,0,0,0,.416.035H3.475a3.779,3.779,0,0,0,1.393-.2,2.392,2.392,0,0,0,.888-.626A3.658,3.658,0,0,0,6.328,4.5l.468.152L6,6.772H0v-.41H.208A1.229,1.229,0,0,0,.65,6.318a.417.417,0,0,0,.205-.2A1.1,1.1,0,0,0,.908,5.7V1.033A.9.9,0,0,0,.837.61.43.43,0,0,0,.61.442,3.157,3.157,0,0,0,0,.41Z"/>
    </g>
    <g id="Group_363" data-name="Group 363" transform="translate(73.244 90.867)">
      <path id="Path_323" data-name="Path 323" class="cls-3" d="M0,0H2.547V.41H2.279a.877.877,0,0,0-.363.05.249.249,0,0,0-.151.233,1.256,1.256,0,0,0,.084.356L3.307,5.561,4.573,1.847l-.3-.89A.833.833,0,0,0,3.95.493.906.906,0,0,0,3.488.41V0H6.016V.41H5.771a.842.842,0,0,0-.415.069.244.244,0,0,0-.11.2,1.34,1.34,0,0,0,.086.366l1.46,4.541,1.47-4.541A1.2,1.2,0,0,0,8.346.686a.252.252,0,0,0-.1-.209A.835.835,0,0,0,7.837.41h-.25V0H9.752V.41a1.092,1.092,0,0,0-.408.05.5.5,0,0,0-.219.162,1.329,1.329,0,0,0-.188.426L6.973,6.772H6.228L4.864,2.708,3.488,6.772H2.751L.826,1.049A.994.994,0,0,0,.485.505.958.958,0,0,0,0,.41Z"/>
    </g>
    <g id="Group_364" data-name="Group 364" transform="translate(85.523 90.867)">
      <path id="Path_324" data-name="Path 324" class="cls-3" d="M0,0H2.718V.41H2.509a.9.9,0,0,0-.427.076.469.469,0,0,0-.194.222,1.706,1.706,0,0,0-.059.56V5.632a1.182,1.182,0,0,0,.065.466.4.4,0,0,0,.185.2,1.048,1.048,0,0,0,.43.063h.209v.41H0v-.41H.224A1.046,1.046,0,0,0,.648,6.3a.392.392,0,0,0,.179-.188,1.335,1.335,0,0,0,.058-.479V1.166A1.432,1.432,0,0,0,.827.661.344.344,0,0,0,.648.471,1.1,1.1,0,0,0,.224.41H0Z"/>
    </g>
    <g id="Group_365" data-name="Group 365" transform="translate(91.923 90.867)">
      <path id="Path_325" data-name="Path 325" class="cls-3" d="M0,0H2.177L5.415,5.075V1.214a1.248,1.248,0,0,0-.076-.5A.483.483,0,0,0,5.125.487.9.9,0,0,0,4.705.41H4.519V0H6.891V.41H6.769a1.162,1.162,0,0,0-.424.05.441.441,0,0,0-.237.245,1.391,1.391,0,0,0-.079.508V6.772H5.415l-3.9-6.1V5.5a3.141,3.141,0,0,0,.025.487.565.565,0,0,0,.13.207.52.52,0,0,0,.224.127,2.671,2.671,0,0,0,.517.038v.41H0v-.41H.129a1.158,1.158,0,0,0,.494-.07.425.425,0,0,0,.205-.229A1.531,1.531,0,0,0,.9,5.5V1.214A3.408,3.408,0,0,0,.878.721.4.4,0,0,0,.7.479,1.274,1.274,0,0,0,.183.41H0Z"/>
    </g>
    <g id="Group_366" data-name="Group 366" transform="translate(101.88 90.867)">
      <path id="Path_326" data-name="Path 326" class="cls-3" d="M0,0H5.777l.668,1.779L6,1.942a2.773,2.773,0,0,0-.37-.687A1.818,1.818,0,0,0,5.151.83,1.711,1.711,0,0,0,4.592.6a5.609,5.609,0,0,0-1.02-.06H1.846V3.019H2.7a1.363,1.363,0,0,0,.725-.152.821.821,0,0,0,.327-.378,1.582,1.582,0,0,0,.075-.6V1.779h.5V4.75h-.5V4.5A1.585,1.585,0,0,0,3.773,4a.726.726,0,0,0-.2-.286.743.743,0,0,0-.306-.178,2.12,2.12,0,0,0-.566-.05H1.846v2.2a1.62,1.62,0,0,0,.032.423.206.206,0,0,0,.109.1,1.382,1.382,0,0,0,.418.035H3.47a3.8,3.8,0,0,0,1.4-.2,2.4,2.4,0,0,0,.888-.626A3.7,3.7,0,0,0,6.33,4.5l.463.152L6,6.772H0v-.41H.2a1.247,1.247,0,0,0,.446-.044.43.43,0,0,0,.2-.2A1.144,1.144,0,0,0,.9,5.7V1.033A.981.981,0,0,0,.837.61.427.427,0,0,0,.606.442,3.163,3.163,0,0,0,0,.41Z"/>
    </g>
    <g id="Group_367" data-name="Group 367" transform="translate(111.692 90.75)">
      <path id="Path_327" data-name="Path 327" class="cls-3" d="M-1.252-.031h.37l.547,2.087-.476.137A3.567,3.567,0,0,0-2,.811,2.312,2.312,0,0,0-3.357.392a2.008,2.008,0,0,0-.8.148,1.226,1.226,0,0,0-.532.4.8.8,0,0,0-.18.493.747.747,0,0,0,.14.438,1.065,1.065,0,0,0,.415.375,4.08,4.08,0,0,0,.919.343l1.33.375a7.286,7.286,0,0,1,.708.261,2.848,2.848,0,0,1,.727.409,1.553,1.553,0,0,1,.41.532,1.636,1.636,0,0,1,.143.677A1.78,1.78,0,0,1-.819,6.251a2.94,2.94,0,0,1-1.921.606A3.35,3.35,0,0,1-3.822,6.69,3.864,3.864,0,0,1-4.856,6.1l-.235.645h-.361L-5.924,4.31l.474-.093a3.648,3.648,0,0,0,.692,1.146,3.034,3.034,0,0,0,.95.711,2.565,2.565,0,0,0,1.063.238,2.049,2.049,0,0,0,1.285-.423A1.031,1.031,0,0,0-1,5.057a.888.888,0,0,0-.332-.722,3.354,3.354,0,0,0-1.2-.528l-1.273-.349A3.228,3.228,0,0,1-5.31,2.7a1.465,1.465,0,0,1-.442-1.056A1.446,1.446,0,0,1-5.469.782,2.162,2.162,0,0,1-4.591.121,3.109,3.109,0,0,1-3.3-.148a3.294,3.294,0,0,1,1.13.2,2.55,2.55,0,0,1,.7.388Z" transform="translate(5.924 0.148)"/>
    </g>
    <g id="Group_368" data-name="Group 368" transform="translate(0 68.411)">
      <path id="Path_328" data-name="Path 328" class="cls-4" d="M-33.474-1.818v.3h.427L-31.138-.33V1.746a1.544,1.544,0,0,1-.781,1.371,4.086,4.086,0,0,1-2.212.505A4.086,4.086,0,0,1-37.957,1.65,4.561,4.561,0,0,1-38.4.626,8.588,8.588,0,0,1-38.721-.75a9.706,9.706,0,0,1-.108-1.37,9.664,9.664,0,0,1,.569-3.486,4.018,4.018,0,0,1,.928-1.443,3.253,3.253,0,0,1,1.148-.742,3.74,3.74,0,0,1,1.41-.268,6.563,6.563,0,0,1,2.389.461,8.588,8.588,0,0,1,2.322,1.4A9.9,9.9,0,0,1-29-5.238,11.479,11.479,0,0,1-28.013-4l.011.016h.258l-.088-4.578h-.31l-.334.235a12.376,12.376,0,0,1-1.239.81,1.647,1.647,0,0,1-.729.226,2.505,2.505,0,0,1-.964-.354A9.245,9.245,0,0,0-32.669-8.2a6.86,6.86,0,0,0-1.2-.3,8.866,8.866,0,0,0-1.36-.1,9.772,9.772,0,0,0-3.058.472,8.262,8.262,0,0,0-2.594,1.392,7.962,7.962,0,0,0-1.373,1.391,6.2,6.2,0,0,0-.871,1.564,4.647,4.647,0,0,0-.3,1.643,4.873,4.873,0,0,0,.7,2.472,6.743,6.743,0,0,0,1.963,2.11A8.747,8.747,0,0,0-38.072,3.71a11.526,11.526,0,0,0,3.169.438,11.475,11.475,0,0,0,1.2-.061c.357-.048.741-.125,1.139-.219s.929-.248,1.58-.439c.6-.186,1.1-.326,1.49-.412a4.915,4.915,0,0,1,1.044-.131,3.087,3.087,0,0,1,.794.089,5.077,5.077,0,0,1,.811.317l.106.052.085.047.038.021.02-.039.117-.2.015-.035-.027-.021a1.318,1.318,0,0,1-.6-.975V-.33L-25.2-1.519h.429v-.3ZM-56.425-2.2V-8.028H-53.6c2.355.007,3.5.968,3.5,2.924a3.291,3.291,0,0,1-.367,1.63,2.232,2.232,0,0,1-1.106.957,4.759,4.759,0,0,1-1.883.318Zm9.777,4.643L-48.842-1.3h-1.173a9.228,9.228,0,0,1-1.15-.079,8.973,8.973,0,0,1-1.254-.245,3.185,3.185,0,0,1-.524-.181,19.267,19.267,0,0,0,2.852-.242,9.084,9.084,0,0,0,2.236-.626,3.573,3.573,0,0,0,1.368-1,2.107,2.107,0,0,0,.463-1.339,2.326,2.326,0,0,0-.43-1.335,3.559,3.559,0,0,0-1.2-1.074,7.1,7.1,0,0,0-2.05-.712A13.127,13.127,0,0,0-52.368-8.4H-62.839v.308h.423l1.893,1.149v9.4l-1.893,1.185h-.461v.305h8.8V3.643H-54.5l-1.927-1.17V-1.786h2.66l3.383,5.734h6.229V3.643H-44.7Zm-39.916-.414a2.284,2.284,0,0,1-.534.983,2.04,2.04,0,0,1-1.549.541H-92.08v-5.8h2.993a2.573,2.573,0,0,1,1.984.671,3.467,3.467,0,0,1,.677,2.24c0,.084.006.165.006.248a4.206,4.206,0,0,1-.144,1.115M-92.08-7.993h2.631a5.038,5.038,0,0,1,1.373.157,2.195,2.195,0,0,1,.908.5,1.9,1.9,0,0,1,.484.826,3.87,3.87,0,0,1,.177,1.2,3.145,3.145,0,0,1-.539,2.027,2.065,2.065,0,0,1-1.7.652h-3.339Zm8.612,6.515a4.839,4.839,0,0,0-1.184-.508l-2.232-.473,1.9-.372a3.763,3.763,0,0,0,1.08-.438,4.361,4.361,0,0,0,1-.74,1.621,1.621,0,0,0,.492-1.18,1.932,1.932,0,0,0-.5-1.28A4.26,4.26,0,0,0-84.307-7.5a8.9,8.9,0,0,0-2.092-.67A13.135,13.135,0,0,0-88.955-8.4h-9.521V-8.1h.451l1.874,1.166V2.511L-97.99,3.643h-.463v.305h10.5A10.482,10.482,0,0,0-85.6,3.665a7.117,7.117,0,0,0,1.987-.731,2.662,2.662,0,0,0,1.6-2.339,1.837,1.837,0,0,0-.493-1.3,4.106,4.106,0,0,0-.963-.77m-27.7,1.319L-116.046-8.4H-122.5V-8.1h.607l1.9.99V.767l-1.916,2.876h-.567v.305h5.354V3.643h-.54L-119.581.767V-6.715l6.242,10.662h.359l6.2-11.333v9.86l-1.891,1.167h-.462v.305h8.752V3.643h-.461l-1.892-1.167V-6.93l1.908-1.166h.445V-8.4h-6.265Zm45.626-.559-3.9,4.272H-73.9V-2.274h1.977l2.309,1.865V.326h.28V-5.587h-.3V-5.1l-2.338,2.422h-1.911V-7.993h4.433l3.729,3.821v.349h.27V-8.4h-14.9V-8.1h.479L-77.94-6.93V2.475l-1.873,1.163-.447,0H-80.3v.305h14.8l.25-5.082H-65.5Zm-59.4,0-3.9,4.272H-133.3V-2.274h1.977l2.308,1.865V.326h.28V-5.587h-.3V-5.1l-2.337,2.422h-1.912V-7.993h4.433l3.729,3.821v.349h.27V-8.4h-14.9V-8.1h.479l1.936,1.166V2.475l-1.874,1.163-.446,0h-.042v.305h14.8l.249-5.082h-.241Zm-21.479,2.748a2.269,2.269,0,0,1-.535.983,2.034,2.034,0,0,1-1.547.541h-3.434v-5.8h3a2.568,2.568,0,0,1,1.982.671,3.462,3.462,0,0,1,.679,2.24c0,.084,0,.162,0,.245a4.149,4.149,0,0,1-.143,1.118m-5.517-10.024h2.636a5.029,5.029,0,0,1,1.37.157,2.2,2.2,0,0,1,.909.5,1.933,1.933,0,0,1,.484.826,3.917,3.917,0,0,1,.177,1.2,3.136,3.136,0,0,1-.539,2.027,2.067,2.067,0,0,1-1.7.652h-3.339Zm8.614,6.515a4.8,4.8,0,0,0-1.184-.508l-2.232-.473,1.907-.372a3.8,3.8,0,0,0,1.077-.438,4.231,4.231,0,0,0,1-.74,1.614,1.614,0,0,0,.494-1.18,1.939,1.939,0,0,0-.507-1.28,4.2,4.2,0,0,0-1.4-1.028,8.728,8.728,0,0,0-2.089-.67A13.126,13.126,0,0,0-148.8-8.4h-9.524V-8.1h.453L-156-6.93V2.511l-1.838,1.132h-.461v.305h10.5a10.536,10.536,0,0,0,2.353-.283,7.17,7.17,0,0,0,1.988-.731,2.663,2.663,0,0,0,1.6-2.339,1.825,1.825,0,0,0-.494-1.3,4.1,4.1,0,0,0-.961-.77" transform="translate(158.328 8.597)"/>
    </g>
    <g id="Group_369" data-name="Group 369" transform="translate(45.033)">
      <path id="Path_329" data-name="Path 329" class="cls-3" d="M-5.215-2.266a3.341,3.341,0,0,0-.073.563.587.587,0,0,0,.157.387A3.641,3.641,0,0,0-5.124-.054a4.575,4.575,0,0,0-.13,1.707l-.006,0a1.4,1.4,0,0,1-.546.1,1.677,1.677,0,0,1-.517-.08.549.549,0,0,1-.113-.581A2.538,2.538,0,0,1-6.284.778,4.386,4.386,0,0,1-5.733.067a.048.048,0,0,0,0-.06A.049.049,0,0,0-5.8,0a4.488,4.488,0,0,0-.657.661,1.852,1.852,0,0,0-.373.774A1.7,1.7,0,0,1-7.637.954a.591.591,0,0,1,.006-.41,3.64,3.64,0,0,1,.612-.858,4.309,4.309,0,0,1,.994-.776.048.048,0,0,0,.017-.064.043.043,0,0,0-.061-.022A4.279,4.279,0,0,0-7.939.474a2.163,2.163,0,0,1-.755-.957c-.022-.171.131-.281.248-.33a3.053,3.053,0,0,0,1-.45,3.267,3.267,0,0,0,.558-.49,2.381,2.381,0,0,0,.411-.61A.047.047,0,0,0-6.5-2.424a.041.041,0,0,0-.06.018,2.742,2.742,0,0,1-1,.97,2.545,2.545,0,0,1-1.307.369h-.014c-.006,0-.007.006-.012.006a2.359,2.359,0,0,1-1.355-.883c-.037-.159.393-.13.393-.13s.055.006.106.006a4.35,4.35,0,0,0,.883-.054,3.56,3.56,0,0,0,1.6-.7.053.053,0,0,0,.011-.066A.05.05,0,0,0-7.324-2.9a3.373,3.373,0,0,1-1.57.575,3.813,3.813,0,0,1-.837,0,5.339,5.339,0,0,1-.823-.165.015.015,0,0,0-.007,0,2.469,2.469,0,0,1-.9-1.592c-.014-.121.076-.125.177-.1a4.929,4.929,0,0,0,1.071.5,3.941,3.941,0,0,0,1.686.173.046.046,0,0,0,.038-.043.043.043,0,0,0-.044-.04,3.814,3.814,0,0,1-1.612-.276,5.925,5.925,0,0,1-1.417-.818l-.008-.006a.623.623,0,0,0-.084-.063,2.9,2.9,0,0,1-.308-1.306c.047-.111.168-.029.259.06a.691.691,0,0,0,.064.063c.027.032.046.058.046.058l-.019-.029a5.287,5.287,0,0,0,.826.71A7.153,7.153,0,0,0-9.2-4.4a16.436,16.436,0,0,0,1.7.474,2.528,2.528,0,0,1,1.483.8.042.042,0,0,0,.056.013.043.043,0,0,0,.013-.057,1.668,1.668,0,0,0-.685-.573,5.769,5.769,0,0,0-.83-.308A15.361,15.361,0,0,1-9.13-4.586a5.794,5.794,0,0,1-2.6-1.944l-.11-.166a1.708,1.708,0,0,1-.292-1.09c.039-.191.319-.181.535.061A24.767,24.767,0,0,0-9.45-5.736,13.3,13.3,0,0,0-6.374-4.341a1.853,1.853,0,0,1,1.2,1.04,2.119,2.119,0,0,1-.043,1.035M-.062,12.3c-.252,0-.464-.3-.464-.651s.213-.652.464-.652.467.3.467.652-.213.651-.467.651M-15.155,8.7a2.209,2.209,0,0,0,.024,1.151,2.549,2.549,0,0,0,.558,1.033,1.582,1.582,0,0,0,1.012.544.055.055,0,0,1,.048.062.054.054,0,0,1-.054.052h0A1.741,1.741,0,0,1-14.692,11a2.712,2.712,0,0,1-.637-1.084A2.4,2.4,0,0,1-15.4,8.644a1.545,1.545,0,0,1,.123-.352.009.009,0,0,0-.006,0,3.141,3.141,0,0,0-.866.975,3.905,3.905,0,0,0-.44,1.245,3.465,3.465,0,0,0-.011,1.323,2.71,2.71,0,0,0,1.577,2,3.979,3.979,0,0,0,2.638.091.058.058,0,0,1,.069.038.059.059,0,0,1-.037.071,4.992,4.992,0,0,1-1.374.207,3.478,3.478,0,0,1-1.357-.261,2.89,2.89,0,0,1-1.716-2.1,3.538,3.538,0,0,1-.011-1.4,4.024,4.024,0,0,1,.442-1.328,3.4,3.4,0,0,1,.92-1.068,4.326,4.326,0,0,1,.781-.48.15.15,0,0,1,.056-.028c.135-.067.268-.127.387-.181a.352.352,0,0,1,.055-.009.151.151,0,0,1,.139.091.148.148,0,0,1-.08.194c-.12.047-.248.109-.382.17l-.006,0a1.4,1.4,0,0,0-.66.867m5.362-2.628a1.358,1.358,0,0,0-.445,1.045,1.441,1.441,0,0,0,.537.985,1.534,1.534,0,0,0,.5.284c.14.04.3.069.453.1l.289.057a2.708,2.708,0,0,1,1.069.34.151.151,0,0,1,.044.207.145.145,0,0,1-.124.067.156.156,0,0,1-.088-.026A2.457,2.457,0,0,0-8.515,8.8l-.291-.066a4.465,4.465,0,0,1-.472-.125,1.672,1.672,0,0,1-.557-.343A1.624,1.624,0,0,1-10.4,7.129,1.488,1.488,0,0,1-9.869,6a.05.05,0,0,1,.076,0,.056.056,0,0,1,0,.08M-5.112-7.929l.621-.841-.618-.852a.1.1,0,0,1,0-.121A.108.108,0,0,1-5-9.8l1.041.116.426-.964a.113.113,0,0,1,.1-.066.116.116,0,0,1,.106.07l.421.96L-1.861-9.8a.127.127,0,0,1,.113.058.121.121,0,0,1-.008.128l-.62.845.62.845a.119.119,0,0,1,0,.127.114.114,0,0,1-.11.057l-1.046-.114-.424.96a.113.113,0,0,1-.1.067.13.13,0,0,1-.058-.017A.077.077,0,0,1-3.54-6.9l-.425-.96-1.042.112a.109.109,0,0,1-.11-.054.121.121,0,0,1,0-.131m1.349,1.822-.205.067a.179.179,0,0,1,.054.13.187.187,0,0,1-.188.187.185.185,0,0,1-.183-.168,1.277,1.277,0,0,1-.11.07.089.089,0,0,1-.019.006.048.048,0,0,1-.031-.013.04.04,0,0,1,0-.047.7.7,0,0,1,.676-.305c.019,0,.028.016.03.034a.035.035,0,0,1-.024.039m1.554,10.5a2.078,2.078,0,0,1-.86-.186A3.411,3.411,0,0,1-4.935.125,1.248,1.248,0,0,0-3.881.373,1.413,1.413,0,0,0-3.5.235.048.048,0,0,0-3.474.166.062.062,0,0,0-3.548.144,1.169,1.169,0,0,1-4.894-.1.105.105,0,0,0-4.908-.1a2.739,2.739,0,0,1,.947-2.728C-3.077-3.61-2.133-4.75-2.15-5.414a.454.454,0,0,0-.157-.356.747.747,0,0,0-.479-.182.683.683,0,0,0-.18.026s0,0,0-.006a.9.9,0,0,0-.353.121,1.367,1.367,0,0,1-.5.3c-.435.155-.9.069-.979-.15s-.046-.49.665-.74a1.316,1.316,0,0,1,.333-.073A.034.034,0,0,1-3.8-6.483a4.278,4.278,0,0,1,.816.083v0c.062,0,.117.009.18.013a.187.187,0,0,1,.041,0,1.338,1.338,0,0,1,.871.293,1.147,1.147,0,0,1,.307.881,2.758,2.758,0,0,1-.7,1.572C-3.548-2.15-3.7-1.626-3.532-1.134c.035.114.15.177.308.26a2.022,2.022,0,0,1,.785.662,1.563,1.563,0,0,0-.4.886,1.641,1.641,0,0,0,.4,1.255,1.188,1.188,0,0,0,.858.379,1.8,1.8,0,0,0,.8.177,1.422,1.422,0,0,0,.77-.2,2.648,2.648,0,0,0,.679-.2,3.45,3.45,0,0,1,.815,1.036,2.766,2.766,0,0,0,.856.683,3.382,3.382,0,0,1,.991.8,5.42,5.42,0,0,1-1.509-.483A2.177,2.177,0,0,0,.753,3.912L.535,3.9a2.623,2.623,0,0,1-.971-.26,1.276,1.276,0,0,0-.291-.607.09.09,0,0,0-.132-.013.092.092,0,0,0-.009.131,1.064,1.064,0,0,1,.259.858A.079.079,0,0,0-.6,4.06,4.989,4.989,0,0,1-.261,5.33c0,.241-.494.81-.836,1.106a2.073,2.073,0,0,0-.295.305l-.032.035s0,0,0,0c-.053.063-.049.168-.034.327l-.4-.154a2.177,2.177,0,0,0-.839.274c.057-.343.245-.388.534-.458a2.925,2.925,0,0,0,.377-.121,1.018,1.018,0,0,0,.149-.07c.3-.241.983-.848.983-1.2,0-.276-.21-.578-.728-1.049-.088-.076-.18-.146-.271-.216a1.774,1.774,0,0,1-.817-1.6.091.091,0,0,0-.1-.087.1.1,0,0,0-.088.1,1.96,1.96,0,0,0,.888,1.74,1.541,1.541,0,0,1,.121.1l-.187.013a3.3,3.3,0,0,1-.371.024M-3.8,6.722a2.123,2.123,0,0,0-.792.394c0-.028,0-.047,0-.069.03-.288.2-.36.456-.464a2.13,2.13,0,0,0,.485-.248c.413-.3,1.007-.925,1.007-1.236A.96.96,0,0,0-2.913,4.5a2.342,2.342,0,0,0,.6.111,2.05,2.05,0,0,1,.071.434c0,.242-.5.808-.834,1.11a1.464,1.464,0,0,0-.311.328.184.184,0,0,0-.024.1,1.156,1.156,0,0,0,.035.237ZM-4.57-5.243a.965.965,0,0,0,.247.035.541.541,0,0,1-.434.454,1.666,1.666,0,0,0,.187-.49m6.2,14.129A2.669,2.669,0,0,1,2.7,8.546l.29-.057c.153-.029.313-.058.452-.1a1.534,1.534,0,0,0,.5-.284,1.459,1.459,0,0,0,.539-.985,1.376,1.376,0,0,0-.448-1.045.058.058,0,0,1,0-.08A.05.05,0,0,1,4.1,6a1.478,1.478,0,0,1,.527,1.132,1.608,1.608,0,0,1-.562,1.134,1.675,1.675,0,0,1-.554.343,4.642,4.642,0,0,1-.476.125L2.747,8.8a2.454,2.454,0,0,0-.953.337.159.159,0,0,1-.086.026.14.14,0,0,1-.125-.067.148.148,0,0,1,.047-.207M8.261,7.471A.149.149,0,0,1,8.4,7.38a.287.287,0,0,1,.055.009c.119.054.254.114.39.181A.167.167,0,0,1,8.9,7.6a4.235,4.235,0,0,1,.78.48A3.385,3.385,0,0,1,10.6,9.147a4.3,4.3,0,0,1,.445,1.328,3.706,3.706,0,0,1-.012,1.4,2.912,2.912,0,0,1-1.718,2.1,3.491,3.491,0,0,1-1.358.261,4.967,4.967,0,0,1-1.372-.207.058.058,0,0,1-.039-.071.058.058,0,0,1,.07-.038,3.974,3.974,0,0,0,2.636-.091,2.712,2.712,0,0,0,1.577-2,3.287,3.287,0,0,0-.013-1.323,3.774,3.774,0,0,0-.437-1.245A3.2,3.2,0,0,0,9.513,8.3s0,0,0,0a1.925,1.925,0,0,1,.124.352,2.413,2.413,0,0,1-.073,1.267A2.728,2.728,0,0,1,8.923,11a1.734,1.734,0,0,1-1.118.551h0a.056.056,0,0,1-.054-.052.055.055,0,0,1,.049-.062,1.586,1.586,0,0,0,1.011-.544,2.56,2.56,0,0,0,.558-1.033A2.225,2.225,0,0,0,9.388,8.7a1.392,1.392,0,0,0-.659-.867s0,0,0,0c-.135-.061-.265-.122-.385-.17a.149.149,0,0,1-.079-.194M-5-5.593a.523.523,0,0,0,.113.179,1.173,1.173,0,0,0-.529.5.926.926,0,0,1,.383-.861A.777.777,0,0,0-5-5.593M-2.055,5.049a2.035,2.035,0,0,0-.069-.434c.11,0,.213-.013.306-.021a1.851,1.851,0,0,1,.336-.015c.035,0,.067.006.1.006.366.35.537.6.537.789s-.367.61-.9,1.05a1.408,1.408,0,0,1-.394.139A3.464,3.464,0,0,0-3.2,6.547,1.93,1.93,0,0,1-2.956,6.3c.232-.2.9-.873.9-1.249m3.812-.793a5.453,5.453,0,0,0,1.581.5,2.874,2.874,0,0,1-1.481-.076A11.315,11.315,0,0,0,.138,4.456a3.177,3.177,0,0,1-.4.019c-.054-.173-.114-.338-.162-.461,0-.071,0-.131,0-.2a2.769,2.769,0,0,0,.946.235l.221.007a2.122,2.122,0,0,1,1.009.2M16.569,19.11c2.019,2.446,1.509,4.125.722,5.1a3.058,3.058,0,0,1-2.426,1.117,2.684,2.684,0,0,1-.826-.118,2.051,2.051,0,0,1-1.267-2.367,2.669,2.669,0,0,0,1.777,1.173,1.808,1.808,0,0,0,1.777-1.253.494.494,0,0,0-.2-.6.76.76,0,0,0-.882.2l-.053.058a.8.8,0,0,1-.614.371,1.116,1.116,0,0,1-.879-.359,1.248,1.248,0,0,1-.274-.875,1.371,1.371,0,0,0,.839.3,1.112,1.112,0,0,0,1.029-.671,2.5,2.5,0,0,0,.132-1.71,3.061,3.061,0,0,0-1.1-1.664c-.9-.715-1.529-.96-1.955-.763a.7.7,0,0,0-.4.538.788.788,0,0,0,.1.464,8.114,8.114,0,0,0-.876-.554,7.054,7.054,0,0,0-2.725-.8c-.494-.046-1-.058-1.487-.065A18.817,18.817,0,0,1,9.4,16.3a13.928,13.928,0,0,1,1.777.022,5.825,5.825,0,0,1,1.72.337,7.1,7.1,0,0,1,.812.356,4.584,4.584,0,0,1,.752.449,4.9,4.9,0,0,1,1.169,1.306,6.239,6.239,0,0,1,.731,1.608,4.347,4.347,0,0,1,.175,1.744.058.058,0,0,0,.047.064h.008a.064.064,0,0,0,.055-.048,4.514,4.514,0,0,0-.155-1.8,6.355,6.355,0,0,0-.727-1.656,5.054,5.054,0,0,0-1.194-1.366,4.592,4.592,0,0,0-.775-.478,8.684,8.684,0,0,0-.822-.378A6.178,6.178,0,0,0,11.19,16.1a13.4,13.4,0,0,0-1.807-.044,21.2,21.2,0,0,0-3.566.525c-.019,0-.136.015-.179.015A9.836,9.836,0,0,1,2.9,16.119l-.047-.006a.152.152,0,0,0-.143.1.151.151,0,0,0,.075.177.125.125,0,0,0,.024.013,9.968,9.968,0,0,0,2.817.438c.058,0,.3.014.33.007.282.007.569.01.849.01.539,0,1.1,0,1.641.041a6.822,6.822,0,0,1,2.665.74A9.15,9.15,0,0,1,13.238,19.2a.619.619,0,0,1,.189.559,1.994,1.994,0,0,0-.817-.382l-.083-.028a2.689,2.689,0,0,0-.5-.064,1.117,1.117,0,0,1-.935-.343A5.727,5.727,0,0,0,7.7,17.263,15.159,15.159,0,0,0,6.054,17.2a10.47,10.47,0,0,1-2.194-.171c-1.737-.347-2.2-.931-2.3-1.1a1.291,1.291,0,0,1-.053-.953A2.192,2.192,0,0,0,3.13,15.982a19.913,19.913,0,0,0,5.638-.337,9.578,9.578,0,0,1,5.656.865,10.211,10.211,0,0,1,.89.524,5.279,5.279,0,0,0,2.2.979h.054a3.824,3.824,0,0,0,1.088-.2,1.16,1.16,0,0,1-1.054.912.786.786,0,0,1-.336-.074.707.707,0,0,0-.3-.225.421.421,0,0,0-.526.175.468.468,0,0,0,.126.505M-2.044-.311A3.489,3.489,0,0,1-1.6-.658c.238-.158.438-.3.477-.581a3.791,3.791,0,0,0-.015-.573,2.053,2.053,0,0,1,.077-1.051,1.828,1.828,0,0,1,1.293-.89,13.464,13.464,0,0,0,3.2-1.065A24.706,24.706,0,0,0,5.773-6.578c.241-.218.518-.2.535,0a1.682,1.682,0,0,1-.4,1.052l-.138.172A5.83,5.83,0,0,1,2.992-3.711a16.808,16.808,0,0,1-1.708.356,5.817,5.817,0,0,0-.861.219,1.609,1.609,0,0,0-.737.5.036.036,0,0,0,.007.054.038.038,0,0,0,.055,0A2.509,2.509,0,0,1,1.3-3.225a16.515,16.515,0,0,0,1.738-.3A6.858,6.858,0,0,0,4.7-4.159a5.549,5.549,0,0,0,.9-.621l-.021.026a.543.543,0,0,1,.05-.051c.024-.016.048-.039.073-.057.1-.083.224-.147.264-.035A2.9,2.9,0,0,1,5.52-3.629c-.024.013-.052.032-.089.058l-.009,0A5.8,5.8,0,0,1,3.928-2.9a3.816,3.816,0,0,1-1.633.108.044.044,0,0,0-.047.032.049.049,0,0,0,.032.052,4.07,4.07,0,0,0,1.693,0,4.807,4.807,0,0,0,1.119-.384c.1-.018.192-.006.166.115A2.472,2.472,0,0,1,4.2-1.487H4.193a4.962,4.962,0,0,1-.834.084,3.844,3.844,0,0,1-.833-.087,3.386,3.386,0,0,1-1.5-.731.045.045,0,0,0-.065.007.047.047,0,0,0,0,.064,3.561,3.561,0,0,0,1.516.86,3.852,3.852,0,0,0,.875.144,1.157,1.157,0,0,0,.149,0l-.044,0s.429.018.379.171a2.38,2.38,0,0,1-1.443.738s-.006-.007-.009-.007a.017.017,0,0,1-.013,0,2.535,2.535,0,0,1-1.262-.5A2.671,2.671,0,0,1,.215-1.811a.053.053,0,0,0-.062-.025.049.049,0,0,0-.028.057,2.461,2.461,0,0,0,.349.655,3.4,3.4,0,0,0,.5.544,2.94,2.94,0,0,0,.946.55c.11.063.252.191.208.356a2.157,2.157,0,0,1-.849.875A4.232,4.232,0,0,0-.4-.636a.045.045,0,0,0-.064.013.051.051,0,0,0,.011.064,4.322,4.322,0,0,1,.91.88,3.572,3.572,0,0,1,.518.913.581.581,0,0,1-.036.41,1.825,1.825,0,0,1-.893.4,1.659,1.659,0,0,0-.156-.534A4.069,4.069,0,0,0-.418,1,4.156,4.156,0,0,0-1.208.125a.056.056,0,0,0-.065.006.052.052,0,0,0,0,.07,3.805,3.805,0,0,1,.677.905,3.245,3.245,0,0,1,.233.509l.014.039a.542.542,0,0,1-.174.574A1.7,1.7,0,0,1-1.5,2.1c0-.007,0-.013,0-.022a2.778,2.778,0,0,0-.028-.8A3.737,3.737,0,0,0-1.756.538l0,0A.044.044,0,0,0-1.815.509a.046.046,0,0,0-.03.058,3.817,3.817,0,0,1,.121.737,2.439,2.439,0,0,1-.058.617.153.153,0,0,1-.153.089,1.123,1.123,0,0,1-.338-.236A1.412,1.412,0,0,1-2.612.686a1.557,1.557,0,0,1,.569-1M1.036,8.848a5.238,5.238,0,0,1,1.544-.63c.139-.034.3-.076.487-.129a1.259,1.259,0,0,0,.264-2.259,1.172,1.172,0,0,1,1.433.423,1.424,1.424,0,0,1,.05,1.36.118.118,0,0,0,.017.121.125.125,0,0,0,.119.039A.925.925,0,0,0,5.6,7.145c.042-.087.084-.178.145-.287A1.321,1.321,0,0,1,6.606,6.2l.132-.055A1.44,1.44,0,0,0,7.252,5.8a1.166,1.166,0,0,1-.15.722,2.227,2.227,0,0,1-.916.667,1.125,1.125,0,0,0-.144.063.107.107,0,0,0-.057.14.11.11,0,0,0,.141.064,1.508,1.508,0,0,0,.14-.057,4.529,4.529,0,0,1,1.552-.287,3.352,3.352,0,0,1,2.151.734,4.5,4.5,0,0,1,1.481,2.24,5.139,5.139,0,0,1,.072,1.745,3.574,3.574,0,0,1-2.412,2.8,3.077,3.077,0,0,1-1.1.212,2.817,2.817,0,0,1-2.306-1.2A1.911,1.911,0,0,0,6.825,13.5a3.337,3.337,0,0,1,1.35-.242c.346.03.673.051.93.051.367,0,.569-.048.672-.165a.3.3,0,0,0,.075-.239c-.022-.209-.145-.239-.215-.239a.619.619,0,0,0-.2.048,1.044,1.044,0,0,1-.473.074c-.325-.039-.446-.173-.491-.278l.065,0a1.991,1.991,0,0,0,1.352-.391c.493-.442.723-1.146.471-1.445a.583.583,0,0,0-.871.137c-.394.548-.83,1.083-1.464,1.1h-.05a1.065,1.065,0,0,1-1.041-.606,1.735,1.735,0,0,0,.327.034,1.3,1.3,0,0,0,1.193-.8.112.112,0,0,0-.03-.128.109.109,0,0,0-.128-.013.651.651,0,0,1-.311.073.916.916,0,0,1-.64-.263.775.775,0,0,1-.073-.558.753.753,0,0,1,.144-.346.688.688,0,0,0,.64.406.747.747,0,0,0,.7-.409,1.354,1.354,0,0,0-.468-1.36A2.475,2.475,0,0,0,6.842,7.57c-.088,0-.173,0-.258.009-.47.038-1,.181-1.131.423a.272.272,0,0,0,.006.26.449.449,0,0,0,.558.226.906.906,0,0,1,.449-.009.772.772,0,0,1,.371.184,3.088,3.088,0,0,0-.706.023,1.6,1.6,0,0,0-.748.487,1.739,1.739,0,0,1-.294.247,1.229,1.229,0,0,1-.742.175c-.079-.006-.188-.025-.308-.048a2.677,2.677,0,0,0-.494-.065c-.161,0-.264.047-.3.145a.376.376,0,0,0-.008.292.666.666,0,0,0,.4.3.534.534,0,0,1,.309.6,1.522,1.522,0,0,0-.9-.331,2.443,2.443,0,0,0-.655.12,1.736,1.736,0,0,1-.836.1,3.246,3.246,0,0,0-.445-1.538,2.766,2.766,0,0,0-.148-.28.457.457,0,0,0,.076-.038m14.4,21.565c-.377.559-.763,1.137-1.1,1.744-.616,1.116-1.262,2.67-.826,3.708a1.7,1.7,0,0,0,1.192.961l.009,0a.749.749,0,0,0,1.028.108.662.662,0,0,0,.239-.715.586.586,0,0,0-.229-.358.567.567,0,0,1,.555.548.955.955,0,0,1-.181.74,1.615,1.615,0,0,1-1.117.49c-.067.006-.137.009-.2.009-.893,0-2.048-.658-2.357-2.509a6.769,6.769,0,0,1,1.415-5c.474-.521.573-.647.654-.744a4.591,4.591,0,0,1,.346-.394,3.715,3.715,0,0,1,1.168-.81,3.907,3.907,0,0,1-.478.978,5.037,5.037,0,0,1-1.088,1.069l-.094.072a3.637,3.637,0,0,0-1.085,1.322,5.874,5.874,0,0,0-.461,1.634.053.053,0,0,0,.047.063h.009a.058.058,0,0,0,.057-.044,5.6,5.6,0,0,1,.491-1.586A3.428,3.428,0,0,1,14.5,30.479l.094-.072a5.242,5.242,0,0,0,1.166-1.084,4.475,4.475,0,0,0,.623-1.274c.16-.058.3-.1.4-.13a8.8,8.8,0,0,1-1.343,2.494m-5.222,11.9h0a3.9,3.9,0,0,1,.185-.479,3.452,3.452,0,0,0,.315-1.011s.009,0,.014-.006a1.176,1.176,0,0,0,.291-.257,2.239,2.239,0,0,0,.211-.3,6.216,6.216,0,0,0,.323-.649.038.038,0,0,0-.021-.047.041.041,0,0,0-.047.015,5,5,0,0,1-.393.586c-.083.1-.158.185-.227.252a1,1,0,0,1-.265.178.255.255,0,0,0-.032.021s-.009,0-.014.007a.6.6,0,0,1-.274.1,4.081,4.081,0,0,0,.24-.72,4.389,4.389,0,0,1,.241-.7.152.152,0,0,0,.031-.006,1.443,1.443,0,0,0,.247-.175,1.544,1.544,0,0,0,.192-.213,4.013,4.013,0,0,0,.3-.457.036.036,0,0,0-.011-.048.037.037,0,0,0-.051.007,2.012,2.012,0,0,1-.778.647l-.006,0s-.014,0-.019,0a1.181,1.181,0,0,1-.482.02,2.6,2.6,0,0,0,.6-1.069,3.131,3.131,0,0,1,1.084-1.633,3.829,3.829,0,0,0,.805,1.182,8.791,8.791,0,0,1-2.449,4.757M.12,17.483a4.427,4.427,0,0,0,1.438.963l.14.07a5.272,5.272,0,0,0-1.359,2.6H-7.506l.14-.566a6.942,6.942,0,0,1,1.121-2.494c.156-.073.385-.181.614-.28A3.54,3.54,0,0,0-3.4,19.2l-.521.5a.353.353,0,0,0-.025.464l.561.673a.29.29,0,0,0,.431.022l.635-.6a.354.354,0,0,0,.027-.468l-.452-.541A3.539,3.539,0,0,0,.12,17.483m2.154,1.136a.8.8,0,0,1,.081-.015c.006,0,.015,0,.022,0a.8.8,0,0,1,.376.112l-.032.009c-.5.126-1.121,1.09-1.557,2.393H.728c.415-1.443.957-2.33,1.546-2.5M7.94,21.671v13.7A10.891,10.891,0,0,1-2.87,46.293a10.887,10.887,0,0,1-10.8-10.919v-13.7ZM-7.116,18.127a.581.581,0,0,1,.359-.035,8.216,8.216,0,0,0-.972,2.362l-.162.662h-.494c.248-1.412.783-2.788,1.27-2.988m-.211-2.2c-.1.169-.565.753-2.3,1.1a10.492,10.492,0,0,1-2.195.171,15.165,15.165,0,0,0-1.643.064,5.706,5.706,0,0,0-3.39,1.678,1.128,1.128,0,0,1-.938.343,2.59,2.59,0,0,0-.5.064l-.08.028a2,2,0,0,0-.82.382A.615.615,0,0,1-19,19.2a9.176,9.176,0,0,1,2.12-1.558,6.834,6.834,0,0,1,2.668-.74c.543-.038,1.1-.041,1.639-.041q.425,0,.854-.01c.022.007.27-.007.326-.007A10,10,0,0,0-8.574,16.4a.07.07,0,0,0,.019-.013.146.146,0,0,0,.076-.177.151.151,0,0,0-.141-.1l-.048.006a9.841,9.841,0,0,1-2.737.474c-.043,0-.159-.013-.18-.015a21.22,21.22,0,0,0-3.566-.525,13.364,13.364,0,0,0-1.8.044,6.15,6.15,0,0,0-1.78.368,8.555,8.555,0,0,0-.826.378,5.1,5.1,0,0,0-.778.478,5.123,5.123,0,0,0-1.189,1.366,6.305,6.305,0,0,0-.728,1.656,4.5,4.5,0,0,0-.155,1.8.06.06,0,0,0,.056.048h.006a.061.061,0,0,0,.051-.064,4.327,4.327,0,0,1,.172-1.744,6.317,6.317,0,0,1,.73-1.608,4.917,4.917,0,0,1,1.172-1.306,4.422,4.422,0,0,1,.755-.449,6.55,6.55,0,0,1,.808-.356,5.816,5.816,0,0,1,1.723-.337,13.833,13.833,0,0,1,1.771-.022,18.922,18.922,0,0,1,2.428.334c-.49.006-.994.019-1.494.065a7.047,7.047,0,0,0-2.72.8,8.073,8.073,0,0,0-.879.554.778.778,0,0,0,.1-.464.682.682,0,0,0-.408-.538c-.419-.2-1.049.048-1.946.763a3.016,3.016,0,0,0-1.1,1.664,2.475,2.475,0,0,0,.132,1.71,1.111,1.111,0,0,0,1.025.671,1.358,1.358,0,0,0,.84-.3,1.229,1.229,0,0,1-.273.875,1.117,1.117,0,0,1-.881.359.8.8,0,0,1-.616-.371l-.047-.058a.766.766,0,0,0-.887-.2.5.5,0,0,0-.2.6,1.811,1.811,0,0,0,1.778,1.253,2.667,2.667,0,0,0,1.778-1.173A2.057,2.057,0,0,1-19.8,25.211a2.712,2.712,0,0,1-.83.118,3.06,3.06,0,0,1-2.423-1.117c-.785-.978-1.3-2.657.722-5.1a.462.462,0,0,0,.125-.505.42.42,0,0,0-.524-.175.725.725,0,0,0-.3.225.765.765,0,0,1-.332.074,1.157,1.157,0,0,1-1.056-.912,3.8,3.8,0,0,0,1.087.2h.057a5.284,5.284,0,0,0,2.195-.979c.323-.2.627-.394.89-.524a9.586,9.586,0,0,1,5.659-.865,19.91,19.91,0,0,0,5.638.337,2.191,2.191,0,0,0,1.622-1.008,1.287,1.287,0,0,1-.053.953M-22.149,28.049a4.353,4.353,0,0,0,.621,1.274,5.272,5.272,0,0,0,1.166,1.084l.1.072A3.456,3.456,0,0,1-19.2,31.706a5.519,5.519,0,0,1,.492,1.586.059.059,0,0,0,.059.044h.008a.054.054,0,0,0,.044-.063,5.692,5.692,0,0,0-.461-1.634,3.627,3.627,0,0,0-1.084-1.322l-.09-.072a4.917,4.917,0,0,1-1.092-1.069A3.99,3.99,0,0,1-21.8,28.2a3.742,3.742,0,0,1,1.168.81,4.3,4.3,0,0,1,.346.394c.078.1.18.223.651.744a6.769,6.769,0,0,1,1.419,5c-.31,1.852-1.465,2.509-2.359,2.509-.069,0-.133,0-.2-.009a1.63,1.63,0,0,1-1.119-.49.981.981,0,0,1-.182-.74.571.571,0,0,1,.559-.548.6.6,0,0,0-.23.358.654.654,0,0,0,.241.715.746.746,0,0,0,1.025-.108l.009,0a1.7,1.7,0,0,0,1.194-.961c.435-1.038-.211-2.592-.828-3.708-.334-.607-.722-1.185-1.1-1.744a8.73,8.73,0,0,1-1.345-2.494c.1.028.238.072.4.13m4.526,8.329a3.154,3.154,0,0,1,1.081,1.633,2.619,2.619,0,0,0,.591,1.069,1.189,1.189,0,0,1-.482-.02s-.009,0-.013,0,0,0-.008,0a2.028,2.028,0,0,1-.78-.647.033.033,0,0,0-.048-.007.037.037,0,0,0-.013.048,3.654,3.654,0,0,0,.3.457,1.365,1.365,0,0,0,.192.213,1.213,1.213,0,0,0,.244.175.2.2,0,0,0,.032.006,4.39,4.39,0,0,1,.241.7,4.356,4.356,0,0,0,.24.72.573.573,0,0,1-.271-.1c-.006,0-.013,0-.014-.007s-.021-.016-.034-.021a.9.9,0,0,1-.262-.178,2.174,2.174,0,0,1-.231-.252,4.918,4.918,0,0,1-.39-.586.047.047,0,0,0-.051-.015.036.036,0,0,0-.017.047,5.662,5.662,0,0,0,.321.649,2.475,2.475,0,0,0,.211.3,1.156,1.156,0,0,0,.293.257s.008,0,.011.006a3.454,3.454,0,0,0,.316,1.011,3.421,3.421,0,0,1,.183.479h-.006a8.828,8.828,0,0,1-2.449-4.757,3.931,3.931,0,0,0,.812-1.182M-6.461,14.959a4.352,4.352,0,0,1-1.317-1.805,3.919,3.919,0,0,1-.173-2.49,2.089,2.089,0,0,1-.2-.057,2.409,2.409,0,0,0-.654-.12,1.519,1.519,0,0,0-.9.331.53.53,0,0,1,.311-.6c.227-.09.351-.178.4-.3a.373.373,0,0,0-.007-.292c-.039-.1-.143-.145-.3-.145a2.7,2.7,0,0,0-.494.065,3.079,3.079,0,0,1-.31.048,1.228,1.228,0,0,1-.74-.175,1.834,1.834,0,0,1-.293-.247,1.622,1.622,0,0,0-.748-.487,3.1,3.1,0,0,0-.706-.023.773.773,0,0,1,.369-.184.91.91,0,0,1,.449.009.447.447,0,0,0,.556-.226A.266.266,0,0,0-11.221,8c-.131-.241-.662-.385-1.132-.423-.083-.006-.169-.009-.255-.009a2.469,2.469,0,0,0-1.442.378,1.357,1.357,0,0,0-.472,1.36.758.758,0,0,0,.7.409.682.682,0,0,0,.637-.406.789.789,0,0,1,.147.346.773.773,0,0,1-.075.558.911.911,0,0,1-.64.263.683.683,0,0,1-.313-.073.109.109,0,0,0-.128.013.114.114,0,0,0-.028.128,1.308,1.308,0,0,0,1.2.8,1.687,1.687,0,0,0,.326-.034,1.061,1.061,0,0,1-1.039.606h-.053c-.636-.015-1.071-.55-1.462-1.1a.584.584,0,0,0-.871-.137c-.252.3-.021,1,.47,1.445a2,2,0,0,0,1.352.391l.065,0c-.043.1-.166.239-.49.278a1.053,1.053,0,0,1-.475-.074.6.6,0,0,0-.2-.048c-.073,0-.194.03-.214.239a.291.291,0,0,0,.072.239c.1.117.308.165.673.165.26,0,.585-.021.928-.051a3.344,3.344,0,0,1,1.351.242,1.919,1.919,0,0,0,1.12.144,2.817,2.817,0,0,1-2.306,1.2,3.061,3.061,0,0,1-1.1-.212,3.557,3.557,0,0,1-2.408-2.8,5.011,5.011,0,0,1,.065-1.745,4.5,4.5,0,0,1,1.481-2.24,3.352,3.352,0,0,1,2.151-.734,4.52,4.52,0,0,1,1.554.287c.085.038.138.057.138.057a.108.108,0,0,0,.14-.064.106.106,0,0,0-.053-.14,1.451,1.451,0,0,0-.144-.063,2.209,2.209,0,0,1-.917-.667,1.18,1.18,0,0,1-.152-.722,1.522,1.522,0,0,0,.516.338l.132.055a1.321,1.321,0,0,1,.868.662c.058.109.1.2.141.287a.923.923,0,0,0,.651.627.116.116,0,0,0,.114-.039.118.118,0,0,0,.018-.121,1.424,1.424,0,0,1,.049-1.36,1.178,1.178,0,0,1,1.437-.423,1.221,1.221,0,0,0-.593,1.137,1.213,1.213,0,0,0,.853,1.122c.192.054.351.1.487.129a5.2,5.2,0,0,1,1.544.63c.11.06.207.1.3.152-.2.283-.423.626-.684,1.058a2.26,2.26,0,0,0-.325.425.11.11,0,0,1-.017.029,3.76,3.76,0,0,0,1.111,4.02c0,.007.009.007.014.013.038.032.073.067.114.1a.985.985,0,0,1,.124.1,2.059,2.059,0,0,0,1.009.555h.03a.213.213,0,0,1,.028,0c2.182-.284,4.058-1.422,4.7-2.713a.991.991,0,0,1-.449-.6c-.241.07-.49.143-.733.2a5.365,5.365,0,0,1-.26,1.471c-.122.086-.247.171-.377.255A15.473,15.473,0,0,0-2.064,12.3c-.351.075-.7.143-1.062.2A5.513,5.513,0,0,1-3.5,14.52l-.219.076c.067-.689.064-1.36.07-2.025-.049,0-.1.017-.148.02-.364.035-.729.057-1.1.057l-.032,1.094c0,.387-.02.781,0,1.147-.075.013-.153.028-.229.035a.415.415,0,0,1-.058-.009,6,6,0,0,1-.177-1.16c-.025-.372-.03-.75-.028-1.121-.11-.006-.221-.013-.33-.029a4.9,4.9,0,0,1-.695-.133A10.354,10.354,0,0,0-6.2,14.224a3.073,3.073,0,0,1-.476-.527,6.576,6.576,0,0,1-.185-1.367,2.8,2.8,0,0,1-.469-.255q-.019-.142-.028-.286a4.609,4.609,0,0,0,.5.147,4.775,4.775,0,0,1,.135-1.008,3.982,3.982,0,0,1,.324-.857,1.556,1.556,0,0,1,.319-.032h.035a5.092,5.092,0,0,0-.3.991,5.58,5.58,0,0,0-.1.985c.247.035.5.061.743.08.1.007.2.007.3.01.012-.3.033-.595.071-.893a6.753,6.753,0,0,1,.169-.944.266.266,0,0,1,.044.019.2.2,0,0,0,.2-.013.525.525,0,0,1,.1-.058c-.024.339-.027.685-.041,1.029l-.024.876c.349,0,.7-.006,1.043-.034.065,0,.13-.013.192-.016-.017-.48-.05-.942-.05-.942s-.034-.676-.1-1.117c.059,0,.118,0,.177-.006a2.833,2.833,0,0,1,.36,1.039c.038.229.109.616.132.975.356-.035.711-.075,1.067-.129a6.433,6.433,0,0,0-.064-.9,5,5,0,0,0-.2-.837c.129.032.255.066.379.109a2.922,2.922,0,0,1,.243.644,4.379,4.379,0,0,1,.119.906l.687-.114c0-.018,0-.035,0-.054a1.066,1.066,0,0,1,.426-.887A4.236,4.236,0,0,0-3.589,9.633a3.148,3.148,0,0,0-1.448.275,2.446,2.446,0,0,0-1.041-.244,1.834,1.834,0,0,0-.449.051,4.3,4.3,0,0,1,.465-.575l.035-.042A4.905,4.905,0,0,1-2.563,7.628a4.126,4.126,0,0,1,3.3,1.643c.59.867.6,2.183.032,3.8a8.953,8.953,0,0,1-.543,1.147c-.118.224-.238.446-.349.677a2.767,2.767,0,0,0-.163,1.938,1.329,1.329,0,0,0,.055.134,3.015,3.015,0,0,1-2.628,1.725,2.906,2.906,0,0,1-2.314-1.232,2.648,2.648,0,0,0,.159-1.777A3.22,3.22,0,0,1-6.413,15ZM-9.3,13.194c.08.41.7.653.7.653A1,1,0,0,1-9.634,13.5a.874.874,0,0,1,0-.979c.1-.3-.582-.064-.8.512a1.327,1.327,0,0,0,.74,1.873c.8.317,1.489-.386,2.11-.249a.77.77,0,0,1,.189.07,1.916,1.916,0,0,1-1.535,1.039,19.909,19.909,0,0,1-5.571-.337,9.767,9.767,0,0,0-5.8.884c-.27.139-.58.33-.906.53a5.179,5.179,0,0,1-2.078.947h-.044a3,3,0,0,1-1.18-.244.122.122,0,0,0-.114,0,.117.117,0,0,0-.052.1,1.393,1.393,0,0,0,1.3,1.305.867.867,0,0,0,.226-.028c-2.159,2.191-1.514,4.5-.829,6.172.188.457.352.845.583,1.551s.237,1.537-.065,1.731a.566.566,0,0,1-.675.023.085.085,0,0,0-.114.079.758.758,0,0,0,.881.677.845.845,0,0,0,.695-.845,11.145,11.145,0,0,0,1.273,2.225c.373.559.756,1.135,1.088,1.729.594,1.076,1.217,2.561.815,3.515a1.418,1.418,0,0,1-.9.781c.216-.461.008-1.35-1.2-1.324a1.232,1.232,0,0,0-1.125,1.185,1.924,1.924,0,0,0,.269,1.087,1.906,1.906,0,0,0,1.285.794,2.9,2.9,0,0,0,1.754-.162,2.431,2.431,0,0,0,.282,1.357,3.572,3.572,0,0,1,.349,2.065.109.109,0,0,0,.039.1.107.107,0,0,0,.11.02.82.82,0,0,0,.483-.49,3.045,3.045,0,0,0,2.281,1.367h.014a.126.126,0,0,0,.072-.025.111.111,0,0,0,.038-.086,1.915,1.915,0,0,0-.221-.7,3.868,3.868,0,0,1-.289-.843.535.535,0,0,0,.418.017.112.112,0,0,0,.065-.063.11.11,0,0,0-.009-.093,3.75,3.75,0,0,1-.3-.822,4.344,4.344,0,0,0-.2-.628,1.481,1.481,0,0,0,.615-.089.106.106,0,0,0,.071-.1.1.1,0,0,0-.058-.1,1.945,1.945,0,0,1-.687-1.094,3.293,3.293,0,0,0-1.2-1.762,4.837,4.837,0,0,0,.307-.975,6.829,6.829,0,0,0-.94-4.843c-.021-.047-.109-.079-.109-.079a4.941,4.941,0,0,1-.583-.213,2.981,2.981,0,0,1-.618-.394,4.285,4.285,0,0,1-.925-1.1.035.035,0,0,1,.013-.051.033.033,0,0,1,.046.009,4.237,4.237,0,0,0,.964,1.008,3.07,3.07,0,0,0,.6.33c.179.069.733.222.752.251a1.557,1.557,0,0,1,.429.315c.014.016.071.006.077-.022a1.287,1.287,0,0,0-.169-.8A5.294,5.294,0,0,0-18.9,28.3a7.193,7.193,0,0,0-1.606-.83,4.521,4.521,0,0,1-1.569-.982,5.5,5.5,0,0,1-1.035-1.531.038.038,0,0,1,.017-.049.041.041,0,0,1,.049.017c.068.133.138.253.208.375h0a1.873,1.873,0,0,0,.867.58,4.562,4.562,0,0,0,1.047.195l.39.029a10.032,10.032,0,0,1,1.766.236,5.234,5.234,0,0,1,1.994.908,4.222,4.222,0,0,1,1.264,1.8.135.135,0,0,1-.076.169.215.215,0,0,1-.049.009.13.13,0,0,1-.119-.087,3.914,3.914,0,0,0-1.157-1.725,5.047,5.047,0,0,0-1.9-.915,10.354,10.354,0,0,0-1.74-.268l-.386-.038A4.322,4.322,0,0,1-22,25.973a2.132,2.132,0,0,1-.65-.381,4.856,4.856,0,0,0,.658.808,4.431,4.431,0,0,0,1.57.918,7.34,7.34,0,0,1,1.648.807A5.876,5.876,0,0,1-17.5,29.419a.239.239,0,0,0,.11.079,4.168,4.168,0,0,0,1.021.235,1.156,1.156,0,0,1,.938,1.524c-.067.231.03.435.191.141a4.512,4.512,0,0,0-.262-4.114A4.18,4.18,0,0,0-19.022,25h-.006a2.541,2.541,0,0,0,.666-2.472.113.113,0,0,0-.092-.089.114.114,0,0,0-.114.051c-.006.012-.756,1.24-1.759,1.3a.559.559,0,0,1-.073,0c-.028,0-.054-.007-.081-.007a2.239,2.239,0,0,1-.152-.83.853.853,0,0,0,.288.058,1.337,1.337,0,0,0,1.053-.438,1.567,1.567,0,0,0,.308-1.27.11.11,0,0,0-.078-.091.105.105,0,0,0-.114.032,1.2,1.2,0,0,1-.852.388.8.8,0,0,1-.125-.018,3.581,3.581,0,0,1,2.418-1.3c1.454-.181,1.39.279,2.458-.223a12.064,12.064,0,0,1,1.225-.676c.307-.173.759-.411,1.384-.71,1.3-.62,1.964-.193,3.578-.874A11.639,11.639,0,0,1-6.4,16.894a4.83,4.83,0,0,1,1.133-.166.913.913,0,0,1-.366.722,5.814,5.814,0,0,1-.88.406c-.285-.226-1.061-.006-1.3.569a9.835,9.835,0,0,1-1.08.359A17,17,0,0,0-12.675,19.9a3.386,3.386,0,0,0-.971,1.244l-.59.022V35.373A11.451,11.451,0,0,0-2.87,46.853,11.454,11.454,0,0,0,8.5,35.373V21.115h-.67A3.3,3.3,0,0,0,6.872,19.9a16.13,16.13,0,0,0-3.748-1.07.912.912,0,0,0-1.143-.505A3.917,3.917,0,0,1,.105,16.887s.5-.31,3.3.953c1.615.681,2.277.254,3.579.874a15.482,15.482,0,0,1,1.37.731c.293.111.667.4,1.16.655,1.065.5,1,.042,2.453.223a3.585,3.585,0,0,1,2.42,1.3.814.814,0,0,1-.129.018,1.184,1.184,0,0,1-.849-.388.11.11,0,0,0-.117-.032.116.116,0,0,0-.076.091,1.559,1.559,0,0,0,.31,1.27,1.325,1.325,0,0,0,1.049.438.838.838,0,0,0,.289-.058,2.223,2.223,0,0,1-.152.83c-.025,0-.05.007-.078.007a.615.615,0,0,1-.077,0c-1-.063-1.748-1.291-1.756-1.3a.117.117,0,0,0-.116-.051.112.112,0,0,0-.089.089A2.534,2.534,0,0,0,13.26,25h0a4.175,4.175,0,0,0-3.519,2.282A4.517,4.517,0,0,0,9.473,31.4c.163.293.256.09.193-.141a1.154,1.154,0,0,1,.937-1.524A4.124,4.124,0,0,0,11.62,29.5a.243.243,0,0,0,.113-.079A5.839,5.839,0,0,1,13,28.125a7.286,7.286,0,0,1,1.65-.807,4.477,4.477,0,0,0,1.569-.918,5.019,5.019,0,0,0,.658-.808,2.143,2.143,0,0,1-.648.381,4.393,4.393,0,0,1-1.071.216l-.387.038a10.269,10.269,0,0,0-1.737.268,5.09,5.09,0,0,0-1.9.915,3.919,3.919,0,0,0-1.151,1.725.132.132,0,0,1-.121.087.256.256,0,0,1-.047-.009.131.131,0,0,1-.08-.169A4.192,4.192,0,0,1,11,27.245a5.231,5.231,0,0,1,1.99-.908,10.165,10.165,0,0,1,1.77-.236l.389-.029a4.562,4.562,0,0,0,1.047-.195,1.861,1.861,0,0,0,.867-.58h0c.07-.121.14-.241.207-.375a.046.046,0,0,1,.052-.017.04.04,0,0,1,.015.049,5.421,5.421,0,0,1-1.035,1.531,4.5,4.5,0,0,1-1.572.982,7.109,7.109,0,0,0-1.6.83,5.274,5.274,0,0,0-1.218,1.316,1.337,1.337,0,0,0-.169.8c0,.028.065.038.081.022a1.557,1.557,0,0,1,.429-.315c.016-.029.569-.181.749-.251a2.89,2.89,0,0,0,.6-.33,4.328,4.328,0,0,0,.963-1.008.039.039,0,0,1,.05-.009.039.039,0,0,1,.013.051,4.361,4.361,0,0,1-.923,1.1,3.034,3.034,0,0,1-.62.394,4.824,4.824,0,0,1-.585.213s-.088.032-.11.079a6.85,6.85,0,0,0-.943,4.843,5.364,5.364,0,0,0,.308.975,3.311,3.311,0,0,0-1.2,1.762,1.92,1.92,0,0,1-.693,1.094.113.113,0,0,0,.016.2,1.5,1.5,0,0,0,.615.089,5.575,5.575,0,0,0-.2.628,3.678,3.678,0,0,1-.3.822.144.144,0,0,0-.009.093.109.109,0,0,0,.066.063.537.537,0,0,0,.418-.017,3.787,3.787,0,0,1-.289.843,2.011,2.011,0,0,0-.221.7.122.122,0,0,0,.038.086.121.121,0,0,0,.073.025H10.1A3.032,3.032,0,0,0,12.373,41.2a.842.842,0,0,0,.483.49.115.115,0,0,0,.114-.02.121.121,0,0,0,.036-.1,3.541,3.541,0,0,1,.351-2.065,2.4,2.4,0,0,0,.277-1.357,2.9,2.9,0,0,0,1.754.162,1.916,1.916,0,0,0,1.289-.794,1.938,1.938,0,0,0,.27-1.087,1.237,1.237,0,0,0-1.128-1.185c-1.2-.026-1.414.863-1.195,1.324a1.428,1.428,0,0,1-.905-.781c-.4-.953.221-2.438.818-3.515.327-.595.714-1.17,1.087-1.729A11.191,11.191,0,0,0,16.9,28.309a.842.842,0,0,0,.694.845.754.754,0,0,0,.878-.677.082.082,0,0,0-.113-.079.566.566,0,0,1-.675-.023c-.3-.194-.293-1.028-.065-1.731s.394-1.094.582-1.551c.688-1.676,1.333-3.982-.828-6.172a.88.88,0,0,0,.229.028,1.387,1.387,0,0,0,1.3-1.305.113.113,0,0,0-.052-.1.119.119,0,0,0-.113,0,3,3,0,0,1-1.181.244h-.042a5.124,5.124,0,0,1-2.076-.947c-.329-.2-.637-.391-.908-.53a9.776,9.776,0,0,0-5.8-.884,19.9,19.9,0,0,1-5.567.337,1.921,1.921,0,0,1-1.539-1.039.788.788,0,0,1,.185-.07c.626-.136,1.311.566,2.113.249a1.324,1.324,0,0,0,.74-1.873c-.222-.576-.9-.811-.8-.512a.878.878,0,0,1,0,.979,1,1,0,0,1-1.03.351s.618-.243.7-.653a.775.775,0,0,0-.814-.911c-.047,0,.26.467-.224.756a.605.605,0,0,1-.938-.262.6.6,0,0,1,.285-.841c.6-.226,1.1.169,2.162-.087s1.3-1.311,2.62-1.572a3.518,3.518,0,0,1,.472-.045.564.564,0,0,0,.07.124,1.145,1.145,0,0,0,.934.337,1.036,1.036,0,0,1-.846.426,1.555,1.555,0,0,1-.517-.095.111.111,0,0,0-.139.155c.338.639.643.963,1.369.963h.057a1.931,1.931,0,0,0,1.393-.863,3.148,3.148,0,0,1,.366.629.356.356,0,0,1-.053.05,1.8,1.8,0,0,1-1.2.338l-.207,0a.107.107,0,0,0-.108.108c0,.185.138.543.713.614.011,0,.026,0,.039,0v.073c-.226-.01-.5-.026-.778-.05a3.448,3.448,0,0,0-1.44.252c-.507.17-.9.266-1.27,0a.114.114,0,0,0-.137,0,.116.116,0,0,0-.028.135,3.019,3.019,0,0,0,2.695,1.64,3.281,3.281,0,0,0,1.179-.226,3.841,3.841,0,0,0,2.516-2.765,1.226,1.226,0,0,0,.476.471.894.894,0,0,0,.456.13,1.106,1.106,0,0,0,.806-.435.188.188,0,0,0-.165-.3.566.566,0,0,1-.08,0c-.255,0-.523-.107-.537-.9v-.048a2.191,2.191,0,0,0-.757-1.91,1.291,1.291,0,0,0-.692-.248.5.5,0,0,0-.072.006,4.612,4.612,0,0,0-1.032-1.18,3.588,3.588,0,0,0-2.29-.785A4.2,4.2,0,0,0,7,6.97a1.607,1.607,0,0,0,.3-.325,1.511,1.511,0,0,0,.133-1.154.1.1,0,0,0-.1-.076.126.126,0,0,0-.11.063.959.959,0,0,1-.561.452l-.127.054a1.546,1.546,0,0,0-.983.766c-.062.11-.107.209-.15.3a.9.9,0,0,1-.281.409,1.634,1.634,0,0,0-.161-1.322,1.465,1.465,0,0,0-1.94-.416.1.1,0,0,0-.067.1.108.108,0,0,0,.069.1A1.028,1.028,0,0,1,3.7,6.953a.994.994,0,0,1-.69.923c-.19.054-.346.092-.483.127a5.276,5.276,0,0,0-1.6.651l-.1.047c-.085-.123-.185-.26-.318-.428A5.38,5.38,0,0,0-1.246,6.855a2.081,2.081,0,0,1,.27-.277c.235-.2.9-.87.9-1.248A2.666,2.666,0,0,0-.193,4.7c.1,0,.21-.006.336-.018a10.316,10.316,0,0,1,1.674.229,6.874,6.874,0,0,0,1.132.159.849.849,0,0,0,.615-.193L3.6,4.847l0-.043c.048-.431-.559-.813-1.142-1.184a3.015,3.015,0,0,1-.776-.588A3.424,3.424,0,0,0,.873,1.977a1.1,1.1,0,0,0,.481-.559A2.119,2.119,0,0,0,2.454.035a.187.187,0,0,0,.041-.047A2.478,2.478,0,0,0,4.314-1.29,3.061,3.061,0,0,0,5.6-3.372c.013-.013.021-.028.033-.04a3.2,3.2,0,0,0,.576-1.723.554.554,0,0,0-.065-.343A1.848,1.848,0,0,0,6.531-6.6a.4.4,0,0,0-.414-.369.738.738,0,0,0-.494.229A24.594,24.594,0,0,1,3.312-5.008,13.28,13.28,0,0,1,.184-3.972a2.068,2.068,0,0,0-1.442,1,2.126,2.126,0,0,0-.106,1.176,3.362,3.362,0,0,1,.018.524c-.021.178-.143.265-.382.43A3.308,3.308,0,0,0-2.2-.474c-.033.03-.062.062-.089.09a2.355,2.355,0,0,0-.834-.686.665.665,0,0,1-.2-.13c-.117-.357-.1-.751,1.2-2.3a2.945,2.945,0,0,0,.754-1.713,1.356,1.356,0,0,0-.374-1.04,1.916,1.916,0,0,0-1.284-.375l-.277-.02h-.016a1.021,1.021,0,0,0-.351-.06,1.64,1.64,0,0,0-.537.1c-.185.07-.651.232-.8.585a1.128,1.128,0,0,0-.573,1.271.144.144,0,0,0,.139.1h0a.157.157,0,0,0,.137-.089.966.966,0,0,1,.538-.527,1.486,1.486,0,0,1-.2.493.154.154,0,0,0,0,.155.149.149,0,0,0,.128.07h.013a.729.729,0,0,0,.681-.658A1.687,1.687,0,0,0-3.739-5.3,1.807,1.807,0,0,0-3.3-5.53c.274-.162.577-.292.856-.067a.227.227,0,0,1,.073.185A4.819,4.819,0,0,1-4.1-3a2.865,2.865,0,0,0-.949,1.363.268.268,0,0,1-.013-.069,3.316,3.316,0,0,1,.073-.522A2.173,2.173,0,0,0-4.969-3.39,2.089,2.089,0,0,0-6.307-4.553a13.19,13.19,0,0,1-3-1.354,24.567,24.567,0,0,1-2.12-1.967.73.73,0,0,0-.517-.278.4.4,0,0,0-.4.324,1.829,1.829,0,0,0,.264,1.158.56.56,0,0,0-.1.327,3.2,3.2,0,0,0,.4,1.78.206.206,0,0,0,.028.047,3.052,3.052,0,0,0,1.066,2.2A2.461,2.461,0,0,0-9.014-.857.158.158,0,0,0-8.982-.8,2.122,2.122,0,0,0-8.033.686a1.6,1.6,0,0,0,1.221.992.169.169,0,0,0,.1.05,1.6,1.6,0,0,0,.9.248,1.607,1.607,0,0,0,.587-.1A3.7,3.7,0,0,0-3.434,4.236c.42.391.61.655.61.862s-.486.763-.927,1.084a1.812,1.812,0,0,1-.442.225c-.3.125-.587.245-.582.763a4.107,4.107,0,0,0-.707.595,7.786,7.786,0,0,0-.89,1.045,2.921,2.921,0,0,1-.323-.155A5.3,5.3,0,0,0-8.29,8c-.138-.035-.295-.073-.484-.127a1,1,0,0,1-.69-.923,1.032,1.032,0,0,1,.682-1.035.108.108,0,0,0,.068-.1.1.1,0,0,0-.065-.1,1.462,1.462,0,0,0-1.939.416,1.628,1.628,0,0,0-.163,1.322.9.9,0,0,1-.282-.409c-.041-.087-.088-.186-.147-.3a1.551,1.551,0,0,0-.981-.766l-.129-.054a1.007,1.007,0,0,1-.566-.452.115.115,0,0,0-.109-.063.105.105,0,0,0-.1.076,1.533,1.533,0,0,0,.139,1.154,1.487,1.487,0,0,0,.293.325,4.234,4.234,0,0,0-.825-.08,3.59,3.59,0,0,0-2.288.785,4.633,4.633,0,0,0-1.034,1.18.433.433,0,0,0-.069-.006,1.3,1.3,0,0,0-.7.248,2.189,2.189,0,0,0-.753,1.91l0,.048c-.019.789-.283.9-.537.9a.513.513,0,0,1-.076,0,.193.193,0,0,0-.178.094.186.186,0,0,0,.009.2,1.1,1.1,0,0,0,.808.435.907.907,0,0,0,.456-.13,1.24,1.24,0,0,0,.476-.471,3.842,3.842,0,0,0,2.516,2.765,3.27,3.27,0,0,0,1.177.226,3.02,3.02,0,0,0,2.692-1.64.112.112,0,0,0-.026-.135.115.115,0,0,0-.138,0c-.37.269-.764.173-1.27,0a3.437,3.437,0,0,0-1.439-.252c-.285.024-.553.04-.781.05v-.073c.015,0,.026,0,.039,0,.577-.07.721-.428.716-.614a.111.111,0,0,0-.109-.108l-.208,0a1.8,1.8,0,0,1-1.2-.338.508.508,0,0,1-.05-.05,2.962,2.962,0,0,1,.365-.629,1.927,1.927,0,0,0,1.392.863h.059c.725,0,1.03-.324,1.367-.963a.107.107,0,0,0-.013-.123.11.11,0,0,0-.123-.032,1.567,1.567,0,0,1-.517.095,1.032,1.032,0,0,1-.848-.426,1.14,1.14,0,0,0,.932-.337.542.542,0,0,0,.074-.124,3.568,3.568,0,0,1,.471.045c1.32.26,1.552,1.312,2.62,1.572a3.659,3.659,0,0,0,1.446.032,4.189,4.189,0,0,0,.279,1.269.783.783,0,0,1-.3-.1c-.483-.293-.178-.759-.224-.759a.75.75,0,0,0-.73.9" transform="translate(24.667 10.716)"/>
    </g>
    <g id="Group_370" data-name="Group 370" transform="translate(64.471 35.011)">
      <path id="Path_330" data-name="Path 330" class="cls-3" d="M-.345-.664A4.816,4.816,0,0,0-1.1-.928a1.771,1.771,0,0,1-.442-.162.168.168,0,0,1-.089-.149.166.166,0,0,1,.077-.14A1.8,1.8,0,0,1-1.214-1.5a6.076,6.076,0,0,0,.868-.3,4.828,4.828,0,0,0-.11-.769,2.569,2.569,0,0,1-.064-.388c0-.124.051-.185.147-.185s.222.087.407.258a4.531,4.531,0,0,0,.655.52,4.787,4.787,0,0,0,.638-.486c.207-.185.352-.28.434-.28.1,0,.152.067.152.2a1.455,1.455,0,0,1-.066.363,3.482,3.482,0,0,0-.132.769,4.9,4.9,0,0,0,.909.324,1.639,1.639,0,0,1,.349.117.147.147,0,0,1,.067.133.2.2,0,0,1-.1.176,1.8,1.8,0,0,1-.408.13,3.7,3.7,0,0,0-.82.295,3.727,3.727,0,0,0,.141.884,1.29,1.29,0,0,1,.053.3c0,.108-.048.165-.14.165-.073,0-.214-.1-.434-.3A3.386,3.386,0,0,0,.69-.069,4.959,4.959,0,0,0-.023.5c-.142.143-.249.22-.323.22C-.469.716-.532.648-.532.508A1.1,1.1,0,0,1-.474.219,3.634,3.634,0,0,0-.345-.664" transform="translate(1.634 3.143)"/>
    </g>
    <g id="Group_371" data-name="Group 371" transform="translate(70.841 35.011)">
      <path id="Path_331" data-name="Path 331" class="cls-3" d="M-.345-.664A4.816,4.816,0,0,0-1.1-.928a1.761,1.761,0,0,1-.441-.162.164.164,0,0,1-.087-.149.165.165,0,0,1,.073-.14A1.829,1.829,0,0,1-1.213-1.5a5.974,5.974,0,0,0,.868-.3,4.646,4.646,0,0,0-.11-.769,2.936,2.936,0,0,1-.064-.388c0-.124.05-.185.149-.185s.22.087.405.258a4.506,4.506,0,0,0,.658.52,4.962,4.962,0,0,0,.635-.486c.207-.185.352-.28.434-.28.1,0,.154.067.154.2a1.587,1.587,0,0,1-.067.363,3.318,3.318,0,0,0-.135.769,4.968,4.968,0,0,0,.912.324,1.684,1.684,0,0,1,.348.117.144.144,0,0,1,.066.133.2.2,0,0,1-.1.176,1.694,1.694,0,0,1-.408.13,3.806,3.806,0,0,0-.822.295,3.743,3.743,0,0,0,.143.884,1.416,1.416,0,0,1,.054.3c0,.108-.047.165-.143.165-.069,0-.213-.1-.431-.3A3.537,3.537,0,0,0,.694-.069,4.691,4.691,0,0,0-.021.5c-.144.143-.252.22-.324.22C-.47.716-.531.648-.531.508A1.082,1.082,0,0,1-.475.219a3.385,3.385,0,0,0,.13-.884" transform="translate(1.63 3.143)"/>
    </g>
    <g id="Group_372" data-name="Group 372" transform="translate(58.081 35.012)">
      <path id="Path_332" data-name="Path 332" class="cls-3" d="M-.943-.9a1.089,1.089,0,0,1,.054.289c0,.14-.058.207-.182.207-.073,0-.183-.077-.326-.22a4.875,4.875,0,0,0-.714-.565A3.542,3.542,0,0,0-2.757-.7c-.218.2-.359.3-.429.3-.1,0-.143-.058-.143-.165a1.454,1.454,0,0,1,.054-.3,3.624,3.624,0,0,0,.143-.884,3.8,3.8,0,0,0-.818-.295,1.715,1.715,0,0,1-.41-.13.194.194,0,0,1-.1-.176.149.149,0,0,1,.068-.133A1.643,1.643,0,0,1-4.043-2.6a4.979,4.979,0,0,0,.91-.324,3.482,3.482,0,0,0-.132-.769,1.493,1.493,0,0,1-.066-.363c0-.13.048-.2.153-.2.08,0,.226.1.431.279a5.09,5.09,0,0,0,.637.487,4.42,4.42,0,0,0,.658-.521c.185-.17.318-.257.405-.257S-.9-4.2-.9-4.079a2.922,2.922,0,0,1-.062.388,4.4,4.4,0,0,0-.11.769,5.928,5.928,0,0,0,.867.3A1.836,1.836,0,0,1,.14-2.5a.161.161,0,0,1,.073.14.166.166,0,0,1-.086.149,1.777,1.777,0,0,1-.44.162,4.733,4.733,0,0,0-.758.263A3.4,3.4,0,0,0-.943-.9" transform="translate(4.459 4.264)"/>
    </g>
    <g id="Group_373" data-name="Group 373" transform="translate(59.983 41.262)">
      <path id="Path_333" data-name="Path 333" class="cls-3" d="M-3.2-2.3a.221.221,0,0,1-.155-.061L-4.889-3.9a.22.22,0,0,1-.062-.155A.21.21,0,0,1-4.889-4.2l1.531-1.53A.209.209,0,0,1-3.2-5.8a.213.213,0,0,1,.155.063L-1.52-4.2a.218.218,0,0,1,.065.152A.215.215,0,0,1-1.52-3.9L-3.048-2.365A.228.228,0,0,1-3.2-2.3m-.866.957L-5.6.18a.21.21,0,0,1-.155.068A.218.218,0,0,1-5.907.18L-7.436-1.348A.217.217,0,0,1-7.5-1.5a.215.215,0,0,1,.065-.156l1.529-1.529a.221.221,0,0,1,.154-.063.221.221,0,0,1,.155.063l1.53,1.529A.219.219,0,0,1-4-1.5a.216.216,0,0,1-.065.152M-6.619,1.2l-1.53,1.528A.22.22,0,0,1-8.3,2.8a.227.227,0,0,1-.154-.066L-9.988,1.2a.228.228,0,0,1-.065-.157A.2.2,0,0,1-9.986.9L-8.459-.636A.237.237,0,0,1-8.3-.7a.223.223,0,0,1,.155.064L-6.619.9a.209.209,0,0,1,.062.157.248.248,0,0,1-.062.152M-10.852.248A.217.217,0,0,1-11.006.18l-1.53-1.527A.213.213,0,0,1-12.6-1.5a.215.215,0,0,1,.062-.156l1.531-1.529a.217.217,0,0,1,.154-.063.225.225,0,0,1,.153.063l1.53,1.529a.227.227,0,0,1,.064.156.224.224,0,0,1-.064.152L-10.7.18a.209.209,0,0,1-.153.068m-2.4-2.613A.224.224,0,0,1-13.4-2.3a.213.213,0,0,1-.155-.061L-15.086-3.9a.219.219,0,0,1-.064-.155.209.209,0,0,1,.064-.152l1.528-1.53A.215.215,0,0,1-13.4-5.8a.211.211,0,0,1,.153.063L-11.72-4.2a.21.21,0,0,1,.067.152.214.214,0,0,1-.067.155Zm.712-4.392,1.528-1.526a.214.214,0,0,1,.155-.067.215.215,0,0,1,.153.067l1.53,1.526a.222.222,0,0,1,.064.155.236.236,0,0,1-.064.155L-10.7-4.917a.212.212,0,0,1-.153.064.222.222,0,0,1-.155-.064l-1.528-1.529A.219.219,0,0,1-12.6-6.6a.222.222,0,0,1,.064-.155m2.549-2.549,1.527-1.528a.22.22,0,0,1,.154-.064.221.221,0,0,1,.156.062l1.53,1.531a.23.23,0,0,1,.062.155A.219.219,0,0,1-6.619-9l-1.53,1.531a.224.224,0,0,1-.156.064.224.224,0,0,1-.152-.064L-9.986-9a.214.214,0,0,1-.066-.154.218.218,0,0,1,.066-.155m3.43,5.254a.217.217,0,0,1-.062.155L-8.151-2.365A.216.216,0,0,1-8.3-2.3a.222.222,0,0,1-.154-.061L-9.986-3.9a.207.207,0,0,1-.066-.155A.209.209,0,0,1-9.986-4.2l1.529-1.53A.209.209,0,0,1-8.305-5.8a.211.211,0,0,1,.156.063l1.53,1.53a.208.208,0,0,1,.062.152m.8-4.3a.221.221,0,0,1,.156.067L-4.07-6.756a.224.224,0,0,1,.065.155.214.214,0,0,1-.065.155L-5.6-4.917a.212.212,0,0,1-.155.064.219.219,0,0,1-.154-.064L-7.436-6.449A.216.216,0,0,1-7.5-6.6a.226.226,0,0,1,.065-.155l1.529-1.526a.212.212,0,0,1,.154-.067" transform="translate(15.15 10.898)"/>
    </g>
    <g id="Group_374" data-name="Group 374" transform="translate(67.633 48.912)">
      <path id="Path_334" data-name="Path 334" class="cls-3" d="M-.51-.017A.221.221,0,0,0-.665-.08a.221.221,0,0,0-.154.063L-2.347,1.512a.215.215,0,0,0-.065.156.217.217,0,0,0,.065.152L-.818,3.349a.221.221,0,0,0,.154.068A.213.213,0,0,0-.51,3.349L1.02,1.82a.216.216,0,0,0,.065-.152.219.219,0,0,0-.065-.156Z" transform="translate(2.412 0.08)"/>
    </g>
    <g id="Group_375" data-name="Group 375" transform="translate(65.08 51.46)">
      <path id="Path_335" data-name="Path 335" class="cls-3" d="M-.51-.017A.218.218,0,0,0-.664-.081.235.235,0,0,0-.82-.017L-2.347,1.514a.2.2,0,0,0-.067.153.23.23,0,0,0,.065.157L-.819,3.351a.225.225,0,0,0,.155.066A.215.215,0,0,0-.51,3.351L1.02,1.823a.248.248,0,0,0,.062-.152.213.213,0,0,0-.062-.158Z" transform="translate(2.414 0.081)"/>
    </g>
    <g id="Group_376" data-name="Group 376" transform="translate(57.828 48.912)">
      <path id="Path_336" data-name="Path 336" class="cls-3" d="M-.815-.51A.222.222,0,0,0-.752-.662.225.225,0,0,0-.815-.818L-2.346-2.347A.209.209,0,0,0-2.5-2.41a.221.221,0,0,0-.154.063l-1.2,1.2A10.2,10.2,0,0,0-2.475,1.083a.218.218,0,0,0,.131-.065Z" transform="translate(3.853 2.41)"/>
    </g>
    <g id="Group_377" data-name="Group 377" transform="translate(59.984 51.46)">
      <path id="Path_337" data-name="Path 337" class="cls-3" d="M-.937-.47A.22.22,0,0,0-1-.627L-2.533-2.155a.218.218,0,0,0-.152-.067.221.221,0,0,0-.158.067L-4.371-.627a.194.194,0,0,0-.062.152.316.316,0,0,0,.006.039A10.1,10.1,0,0,0-2.406,1.084L-1-.318A.228.228,0,0,0-.937-.47" transform="translate(4.433 2.222)"/>
    </g>
    <g id="Group_378" data-name="Group 378" transform="translate(72.732 48.912)">
      <path id="Path_338" data-name="Path 338" class="cls-3" d="M-.51-.017A.223.223,0,0,0-.663-.08a.209.209,0,0,0-.155.063L-2.347,1.512a.215.215,0,0,0-.065.156.217.217,0,0,0,.065.152L-.818,3.349a.2.2,0,0,0,.147.064A10.041,10.041,0,0,0,.7,1.194Z" transform="translate(2.412 0.08)"/>
    </g>
    <g id="Group_379" data-name="Group 379" transform="translate(70.183 46.363)">
      <path id="Path_339" data-name="Path 339" class="cls-3" d="M-.937-.468A.216.216,0,0,0-1-.62L-2.531-2.15a.213.213,0,0,0-.155-.063.21.21,0,0,0-.155.063L-4.371-.62a.207.207,0,0,0-.062.152.217.217,0,0,0,.062.155l1.53,1.532a.225.225,0,0,0,.155.061.231.231,0,0,0,.155-.061L-1-.313A.215.215,0,0,0-.937-.468" transform="translate(4.433 2.213)"/>
    </g>
    <g id="Group_380" data-name="Group 380" transform="translate(65.081 41.261)">
      <path id="Path_340" data-name="Path 340" class="cls-3" d="M-.428-.921a.224.224,0,0,0,.152.064A.224.224,0,0,0-.119-.921L1.411-2.452a.222.222,0,0,0,.062-.154.233.233,0,0,0-.062-.155L-.119-4.292a.225.225,0,0,0-.156-.062.225.225,0,0,0-.154.065L-1.956-2.761a.216.216,0,0,0-.067.155.211.211,0,0,0,.067.154Z" transform="translate(2.023 4.354)"/>
    </g>
    <g id="Group_381" data-name="Group 381" transform="translate(65.081 46.363)">
      <path id="Path_341" data-name="Path 341" class="cls-3" d="M-.469,0A.2.2,0,0,0-.621.063L-2.15,1.593a.208.208,0,0,0-.066.152A.208.208,0,0,0-2.15,1.9L-.621,3.433a.224.224,0,0,0,.154.061.22.22,0,0,0,.153-.061L1.217,1.9a.221.221,0,0,0,.062-.155.206.206,0,0,0-.062-.152L-.313.063A.206.206,0,0,0-.469,0" transform="translate(2.216)"/>
    </g>
    <g id="Group_382" data-name="Group 382" transform="translate(62.533 43.81)">
      <path id="Path_342" data-name="Path 342" class="cls-3" d="M-.427-.92a.221.221,0,0,0,.156.064A.206.206,0,0,0-.119-.92L1.412-2.449A.236.236,0,0,0,1.476-2.6a.228.228,0,0,0-.064-.155L-.119-4.286a.216.216,0,0,0-.152-.067.22.22,0,0,0-.156.067L-1.955-2.76a.228.228,0,0,0-.064.155.223.223,0,0,0,.064.156Z" transform="translate(2.019 4.353)"/>
    </g>
    <g id="Group_383" data-name="Group 383" transform="translate(62.534 48.912)">
      <path id="Path_343" data-name="Path 343" class="cls-3" d="M-.937-.469A.225.225,0,0,0-1-.624l-1.53-1.53a.228.228,0,0,0-.153-.063.22.22,0,0,0-.154.063L-4.369-.624a.216.216,0,0,0-.062.155.214.214,0,0,0,.063.152l1.531,1.528a.217.217,0,0,0,.154.068.211.211,0,0,0,.153-.068L-1-.317A.222.222,0,0,0-.937-.469" transform="translate(4.431 2.217)"/>
    </g>
    <g id="Group_384" data-name="Group 384" transform="translate(62.961 54.011)">
      <path id="Path_344" data-name="Path 344" class="cls-3" d="M-.822-.469A.208.208,0,0,0-.886-.621l-1.53-1.532a.206.206,0,0,0-.153-.065.212.212,0,0,0-.156.065L-3.889-.987A9.856,9.856,0,0,0-.971-.231l.085-.087A.21.21,0,0,0-.822-.469" transform="translate(3.889 2.218)"/>
    </g>
    <g id="Group_385" data-name="Group 385" transform="translate(59.983 46.363)">
      <path id="Path_345" data-name="Path 345" class="cls-3" d="M-.938-.468A.208.208,0,0,0-1-.62L-2.533-2.15a.209.209,0,0,0-.152-.063.216.216,0,0,0-.158.063L-4.371-.62a.208.208,0,0,0-.064.152.219.219,0,0,0,.064.155l1.53,1.532a.219.219,0,0,0,.156.061.227.227,0,0,0,.152-.061L-1-.313A.213.213,0,0,0-.938-.468" transform="translate(4.435 2.213)"/>
    </g>
    <g id="Group_386" data-name="Group 386" transform="translate(67.632 43.811)">
      <path id="Path_346" data-name="Path 346" class="cls-3" d="M0-.469a.215.215,0,0,0,.065.152L1.594,1.216a.219.219,0,0,0,.154.064A.212.212,0,0,0,1.9,1.216L3.43-.313A.213.213,0,0,0,3.5-.469.225.225,0,0,0,3.43-.624L1.9-2.15a.221.221,0,0,0-.156-.067.212.212,0,0,0-.154.067L.065-.624A.228.228,0,0,0,0-.469" transform="translate(0 2.217)"/>
    </g>
    <g id="Group_387" data-name="Group 387" transform="translate(67.633 54.012)">
      <path id="Path_347" data-name="Path 347" class="cls-3" d="M-.469,0A.212.212,0,0,0-.624.065L-2.151,1.6a.205.205,0,0,0-.065.149.218.218,0,0,0,.065.155l.086.087a9.926,9.926,0,0,0,2.924-.75L-.314.065A.207.207,0,0,0-.469,0" transform="translate(2.216)"/>
    </g>
    <g id="Group_388" data-name="Group 388" transform="translate(70.183 51.461)">
      <path id="Path_348" data-name="Path 348" class="cls-3" d="M-.92-.427-2.448-1.958A.228.228,0,0,0-2.6-2.022a.225.225,0,0,0-.155.064L-4.288-.427a.2.2,0,0,0-.062.152.22.22,0,0,0,.06.153L-2.877,1.29A9.967,9.967,0,0,0-.868-.217.191.191,0,0,0-.854-.271.222.222,0,0,0-.92-.427" transform="translate(4.35 2.022)"/>
    </g>
  </g>
</svg>
