<svg xmlns="http://www.w3.org/2000/svg" width="15" height="11.25" viewBox="0 0 15 11.25">
  <path id="Trazado_2" data-name="Trazado 2" d="M1135.716,234.1a.176.176,0,0,1,.284.138v5.991a1.407,1.407,0,0,1-1.406,1.406h-12.188A1.407,1.407,0,0,1,1121,240.23v-5.988a.175.175,0,0,1,.284-.138c.656.51,1.527,1.157,4.515,3.328.618.451,1.661,1.4,2.7,1.395s2.109-.961,2.7-1.395C1134.192,235.261,1135.06,234.611,1135.716,234.1Zm-7.216,3.785c.68.012,1.658-.855,2.15-1.213,3.888-2.821,4.184-3.067,5.08-3.77a.7.7,0,0,0,.27-.554v-.557a1.407,1.407,0,0,0-1.406-1.406h-12.188a1.407,1.407,0,0,0-1.406,1.406v.557a.706.706,0,0,0,.27.554c.9.7,1.192.949,5.08,3.77.492.358,1.47,1.225,2.15,1.213Z" transform="translate(-1121 -230.386)" fill="#fff"/>
</svg>
