<svg xmlns="http://www.w3.org/2000/svg" viewBox="16507.328 513.491 93.893 104.748">
  <defs>
    <style>
      .cls-1 {
        opacity: 0.25;
      }

      .cls-2 {
        fill: none;
        stroke: #000;
      }
    </style>
  </defs>
  <g id="noun_827541_cc" class="cls-1" transform="translate(16507.828 514)">
    <g id="Group_4943" data-name="Group 4943" transform="translate(0 0)">
      <path id="Path_3865" data-name="Path 3865" class="cls-2" d="M104.867,78.268l-.2-.613-.257-.829-.218-.479-.465-.638-2.835-2.216.148-.185L100.654,73l-.1-.076-.313-.25-.752.068-.285-2.962.366-.047-.047-.4-.356.017L98.9,66.413l.367-.026,0-.023-.04-.409-.363.019-.324-3.563.335-.033v0l-.04-.386-.328.028-.321-3.261.339-.039-.061-.865h0l-.011-.162-.706.058-.555-1.937.918-.487-.38-.75.118-.053.364.744.26-.135-.433-.84.131-.053.415.845.09-.036.532.954.061.028.087-.034.078-.068.006-.059-.951-1.777-.045-.117-.151-.131-.176-.062-.173,0-.064-.044-.148-.143-.019-.154,1.3-.324,2.726-.68-.006-.646-1.855.128-.07-.73,1.889-.129-.089-1.074-1.584.168h0l-.851.09-.076-.09h0l-.453-.532,2.665-.3V49.06l-1.024-.708-3,.279-.831-.579v-.082l2.561-.26v-.236l-1.288-.857-3.051.241-.818-.6,0-.084,2.578-.285-.017-.236-2.261-1.5-3.071.213-.786-.585-.04-.073,2.569-.254-.022-.279L91.594,42.3l-.194-1.03-.213-.151-4.174.37-.031.221-.156.109-.205.353,4.073,2.807-.311.436-.946.084-2.684-1.87-.885-.627-.067-.132-.352.176h0l.352-.176-.314-.619-.4-.854-.095-.031-.14-.072-.039-.059,0-.093-.026-.072-.507-.842-.129-.166-.277-.142-.064-.011-.07.017-.064.056-.16.23-.974,1.195-.068-.056-.012-.047.072-.095.747-.991.058-.048.037,0,.068-.034.084-.065.026-.056.019-.272.062-.129.051-.166.075-.173.019-.159-.022-.132-.064-.12-.156-.1-.4-.123-.289-.319-.42-.126-.26-.078-.285-.044-.277.034-.275.09-.193.081-.205.059-.165-.039-.076-.093-.059-.081.132-.081.031.05.148-.1-.031-.048,1.576-.991.006.014.095-.061-.011-.019L83,36.628l.02.028.07-.044-.059-.092-.07.044.016.028-.386.247-.039.02-.011-.019-.09.062.009.019-1.568.99-.034-.048-.168.115.048.037-.129.084-.036-.048-.118-.235-.2-.156-.19-.121-.232-.218-.45-.51,0-.182L79,36.107l-.359-.316-.565-.355-.417-.429.047-.064-.084-.159.352-.359-.019-.016L78,34.324l0-.1-.059-.076-.089-.045-.1.006-.072.061-.026-.019-.356.356-.048.011-.058.054-.462-.392-.378-.283-.761-.475-.529-.268-.588-.213-.9-.286-1.722-.507.028-.093-.255-.076-.026.09-.3-.089-.475-.177.019-.053-.04-.016-.022.051-.49-.2-.031,0-.173-.087-.2-.109,0-.061s-.761-.545-1.263-.839a.99.99,0,0,0-.52-.143.987.987,0,0,1,.52.143c.5.294,1.263.839,1.263.839l.5-1.179.023-.073-.045-.019-.03,0-.031.017-.03.044-.042,0-.28-.082-.425-.028-.327-.126-.208.016-.151-.086-.212.061-.213-.241-.254-.4-.322-.24.006-.148.039,0v-.062l-.034,0,.042-.448-.065-.462-.114-.335-.2-.347-.278-.3-.333-.249-.532-.342-.51-.224.036-.428-.168-.5-.335-.31-.429-.254-.433-.171-.355.036-.322.143-.216.009-.3-.2-.065.316-.184-.022-.012-.674-.171-.342-.194-.339-.019-.033-.565-.583-.272-.193-.319-.093-.669-.176-.359-.048-.375.156-.35.191-.18.261-.081.2L59.42,23l-.062-.022-.193-.266L59,22.385l.289-.257-.11-.151-.453.355.09.727-.633.51-.5.8-.814-.4-.179-.166-.389-.773.963-.949,1.238-.1.241-.224-.073-.457-.193-.588-.159-.51L58,19.706l-.117-.012-.086.093.022.241-.962,1.662-.28.039-.2.023-.118-.279.07-.188h0l-.034-.2-.154-.218-.025-.229.333-.408.171.014.238-.154.229-.031.1-.353-.008-.871-.86-1.3-.744-.691-.417-.126-.434.051-.3.2-.266.3,0,.279-.264.322-.331.51-.194.372-.026.565-.137.2-.748.641-1.206,1.165-.118.048-.716.179L50,21.864l-.937.476-.579.266-1.526.669-.193.095-.5.246-.667.375-.988.616-.59.355-.829.445-.722.387-1.242.641-.647.3L38.44,27.848,38.006,28l-.324.191-.422.412-1.025.674-.873.408-.655.347-.227.44-.221.487-.2.517-.087.579L33.6,33.425l-.615,1.108L32.5,35.69l-.433,1.223-.616,1.624-.643,1.641-.212.437-.176.352-.068.16-.142.33-.275.75-.221.585-.342.873-.526,1.344-.307.839-.233.767-.468,1.134-.156.375-.286.765-.266.711-.207.515-.2.54-.2.482-.221.554-.479,1.386-.523,1.27-.383,1.03-.28.747-.247.6-.333.968L24,57.863l-.222.411-.184.529-.238.551-.093.3-.442,1.137-.138.342-.6,1.543L21.1,65.285l-.118.316-.442,1.055-.38,1.111-.18.467,0,.4.078.877.044.66.073,2.082.1,1.831.04.962h0l.068,1.671.09,1.624-.213.742h0l-.045.157.263.85.053.221.009.235.11,1.133.026.893.042.73.053,1.047.073,1.711.109,2.068.072,1.459.04.615.076.246.04.095.1.238.359.423.563.464.425.375.193.18L24,93.309l1.111,1.018.6.562,1.075,1,2.063,1.883,1.869,1.722,1.092,1.008,1.819,1.643.126.129.185.184h0l.325.325,1.007.969.177.163,1.3,1.195,2.13,1.9.618.35.605.577.417.636.316.753.411.8.247.173,1.354.359.218.151h0l.429.3,1.021.958,1.025.971.977.91.621.574.535.485.666.608,1.36,1.248.776.7.868.776.66.683.268.554.42.316.535.386.448-.577,1.257-1.659,2.237-3.132.938-1.4.143-.213,1.887-2.727,1.414-2.065h0l1.038-1.515.447-.492.274-.21.163-.313.05-.266.436-.63.8-1.131.577-.885.044-.065.433-.611.478-.694.2-.322.829-1.176.569-.9.45-.677.342-.468.433-.635.314-.461.408-.535.594-.644.454-.391.238-.19h0l.121-.1.674-.454.411-.224,1.8-.686.433-.191.4-.117.411-.163.247-.073L76,93.2l.433-.02.565.084.4.14.322.168.3.143.314.184.573.123.254.036.2-.009.2-.036.47-.123.3-.09.3-.042.415-.014.246.028.188.053.387.2.229.176h0l.07.054.212.18.168.082.213.006.131-.086.065-.149.028-.19-.028-.2-.062-.372-.026-.241.059-.171.131-.1.11-.034.163-.006.218.051.2.1.249.126.2.185.148.168.03.106-.014.1-.079.182-.16.121-.541.257-.1.095-.054.159,0,.166.033.12.065.131.152.1.184.048.246-.006.509-.012.551.176.846.039.526-.2.433-.5.249-.156.233-.086.208-.025.342-.082.176-.061.1-.059.246-.255.218-.316.412-.515.333-.3.324-.12.288-.065.28-.028.913.008.751-.034.179-.026.271-.042,1.007-.263.849.081.255-.014.154-.039.129-.058.6-.681.378-.434.585-.387L97,90.334l.081-.131.033-.168.017-.425.025-.412.123-.25.185-.177.532-.333,1.593-1,.18-.072.218-.045.313-.026.2-.059.134-.065.109-.081.8-.856.28-.283.249-.205.317-.184.45-.216.177-.106.117-.112L103.16,85l-.014-.266-.4-1.154-.1-.3-.072-.341-.016-.335.016-.191.062-.16.168-.218.884-.971.686-.4.694-.845.615-.814-.692-.38Z" transform="translate(-19.984 -16.722)"/>
      <path id="Path_3866" data-name="Path 3866" d="M85.246,60.331l-.709-.787-.061-.1-.783-.193-.7-.669-.33-.208-.587-.014-.246.179-.366-.417.232-.224.317-.044.319.134.549.014.551.016.7.045.257-.282-.11-.344-.159-.266-.05-.594-.134-.3-.244-.431-.733-.1-.135.075-.551-.09-.965.193L81,56.345l-.062.591.123.394.16.341L81.174,58,81.1,58.2l-.168-.174.086-.151-.025-.3-.205-.194-.246-.022-.215.124-.089.154-.012.179.089.2.177.124.166.014.14-.051.142.174-.244.115-.336.086-.3-.235-.006-.123-.082-.157-.07-.106-.017-.3-.12-.193-.11-.193-.082-.254,0-.347.173-.257.212-.115.394.324.37-.126.009-.033.022-.087.07-.264-.333-.114-.415.028-.246.132-.314-.076-.439.009-.442.429-.423.022-.653-.236v-.09h0v-.19l.653-.408.546-.686.831.107,1.165.149,1.024-.321.254-.023.2.05.338-.07.212-.215.176-.213.061-.375-.131-1.041-.353-1.652-.246-.311-.04-.128-1.26-1.154-.166-.081-.7-.515-.177-1.094-.089-.193-.226-1.276-.075-.054-.106-.236-.336-.171-.087-.257-.3-.151-.194-.235-.37-.3-.194-.344-.389-.215-.759-.837-.053-.257-.493-.428-.408-.2-.266-.226-.333-.166-.1.019L74.9,42.3l-.7-.12-.751.367-1.581.79.072.263-1.442.089.072.857.355-.04.311,3.292-.366.03.037.378.352-.031.335,3.568-.347.045.033.408.342-.016.283,2.939-.342.034v0l.048.408.341-.03.278,2.894.322.24.1.072h0l.4.3.168-.212.887.678,1.626,1.242-.025.051.4.314.034-.028.686.778.467.058.559,1.526.285.193.588.238L80,63.318l-.759-.163-.451-1.561.831-.683.747.772.391-.358.831.745.685-.328-1.309-1.277-.072-.179,1.014-.059.879.892.417.238.061.342.611-.075.574-.208.845-.787Z" transform="translate(8.097 -2.568)"/>
    </g>
  </g>
</svg>
