<svg xmlns="http://www.w3.org/2000/svg" viewBox="16950.008 514 97.23 104.907">
  <defs>
    <style>
      .cls-1 {
        opacity: 0.25;
      }
    </style>
  </defs>
  <g id="noun_186536_cc" class="cls-1" transform="translate(16950.008 514)">
    <path id="Path_3864" data-name="Path 3864" d="M-6841.032-865.337l10.229,9.745,8.2-11.553-2.731-2.69-6.395,7.012-6.351-5.821Zm-9.348-8.732,9.081,8.468,3.221-3.616,6.218,5.644,6.175-6.747-13.581-13.229-2.867,2.513-1.721.265-4.1,4.85Zm-11.687-10.539,11.2,10.187,2.427-1.808,4.364-4.983,1.721-.265,2.821-2.426-8.994-8.51-2.293,1.631Zm-2.25-12.965.353,11.113,1.587,1.5,11.248-6.218-3.661-3.087-.443-2.954,1.5-.177-.532-.618-1.368.089-1.807-.661Zm-.175-4.718.132,4.233,7.056-1.014,1.853.706.88-.089-6-5.159-.262-.662-.573-.177Zm-.31-7.628.264,7.188,3.134-2.2.795.265,1.938-2.161-5.293-4.9Zm30.427,30.251,12.038,11.994.925-1.146-.088-1.5,1.1-.177,8.112-10.672-4.848-4.851-1.588,1.676-3.088-3.175-4.584-.221Zm-12.259-11.73,11.862,11.421,4.365-4.365-3.266-3,2.207-3.351-3.307-3.175-.885-2.425-2.117,1.587-1.585-1.632Zm-11.025-10.186,3.836,3.263.969,1.278-1.808.221.266,1.984,3.793,3.263,2.114-1.588,1.5,1.367,2.734-1.852-5.068-5.468-1.061.089-5.292-4.763Zm4.454-.617,3.087,2.6.971-.044,5.337,5.644,4.057-2.734-9.218-8.775-1.368.485Zm4.717-3.748,10.806,10.54,1.938-1.456-2.954-8.114-2.25,1.411-4.937-4.851Zm-11.771,1.852,2.292,1.94,2.25-2.381,2.2,2.028,2.957-3,1.364-.441,2.911-2.822-3.48-4.189-8.251,6.306Zm-3.439-8.07,5.425,4.9,8.111-6.174-2.864-4.1,4.409-3.219-2.689-1.234-5.6-7.629Zm25.532,6.923,4.055,11.157,3.353,3.307-2.207,3.4,2.867,2.646,3.483-3.616,4.675.309,3.089-1.9-2.384-3.086-.659.573-3.792-3.219-1.368-3.925.971-.661-3.573-9.657Zm-8.467-4.763,5.776,5.733,4.938-2.822-4.319-6.394-3.792,1.367Zm-5.513-7.408,5.206,6.967,2.6-2.337,6.175-2.073,1.147-.794-1.368-2.249.308-.706-1.187-.132-1.854-.97-6.923-.706Zm1.323-4.806,2.646,1.146,7.1.794,2.163,1.014,1.5-4.938,1.983-2.073-.706-2.558-3.881,3.087-3.79-1.72Zm-5.776-8.025,5.468,7.452,6.879-5.2-9.746-9.04Zm13.316,2.381,3.132,1.411,3.793-2.822-1.632-2.337Zm-10.23-9.437,9.788,9.04,9.613-7.056-1.984-3.483-.482-.353-.882.441-2.957-2.822-.529-1.94-3.748,2.337-.7-.53Zm12.919-6.394.532,1.808,2.643,2.6.839-.486.617.4,2.6-2.072-.131-.97-3.044-3.792Zm-13.182,5.865,8.245-4.586.795.529,7.935-4.85.045-1.1,2.912-1.9-3.572-5.733-11.775,6.13Zm14.328,24.077,4.189,6.174,5.381-2.955-1.323-3.528,1.854-1.72-4.454-1.676-4.013,3.087Zm1.018-5.335h.881l.22.706-.483.22,1.364,2.2,2.6-2.117,4.716,1.764,1.105-3.616-1.5-.839-2.689.221-.574-3.881-2.205-1.632-1.939,1.94Zm.792-12.788,1.854,2.69.748,2.514L-6832.7-925l2.733-2.823-.175-3.836-.97-1.984-2.426-1.323Zm16.492,44.1,2.426,2.47,1.588-1.587,5.2,5.2,1.941-1.5,4.452-.22,2.691.97,2.247-.618.395.97.884.221-1.675-7.849-5.2,1.014-.483-4.013,1.361-2.1-10.227,1.661.574,1.808-.178.617-1.543.265Zm-5.026-11.6,1.189,3.351,3.044,2.646.839-.661,2.777,3.792,1.413-.793,1.364-.176-.749-2.425,4.674-.838-1.717-7.364-11.952,1.94Zm-4.321-14.6,5.068,13.405,12-1.9-1.72-8.025-.265-4.85-.926-1.059-2.689,1.808-4.234.706-4.806-.309-.795-1.278Zm2.114-2.161.839,1.367,4.278.22,3.793-.661,3.042-1.985,2.25-2.646,2.072-.485-1.5-.485-8.292-6.7-.97,4.806-4.454,2.911Zm-3.97-8.379.487,3.528,2.469-.264,1.765,1.058,4.321-2.866,1.146-5.468-5.907-2.911-1.457.088.179,3.748Zm1.766-9.437,1.015,1.984,1.454-.133,6.174,3,2.163-2.381-1.9-1.852,1.366-2.072-5.38-3.572-2.249,1.632Zm-4.94-5.028,1.985,3.352,2.426,1.323,2.6-3.352,2.733-2.117,1.765,1.235,4.146-3.4-.177-2.116,4.322-4.013-3.528-2.646-1.058-.22-3.483-2.558-2.2,3.572v1.72l-7.366,4.718.62.838.131,1.323Zm-1.232-16.845,3.837,6.35-3.354,2.16,2.514,3.132,7.057-4.366.045-1.5,2.337-3.66-2.692-.97-4.627-3.748Zm23.637,51.153,2.162,10.1,5.862-.882-1.1-10.363Zm-2.865-12.215,1.149,1.279.306,5.115,1.277,5.247,7.056-1.235v-3.572l-.66-1.544-.133-2.249,1.146-5.733-6.129-.176-1.938.573Zm-7.629-21.344,4.057,2.778-1.412,2.117,1.9,1.852-2.47,2.69-.044.75,8.248,6.746,2.6.971,3.306.132.354-1.544,4.454-7.056,1.939-.132.927.617,1.675-2.954-3.086-2.734,1.5-2.469-3-3.66-1.189-1.985-3.175-2.558-1.808-.882-1.676-.043-4.277-2.646-4.63,4.366.177,2.117Zm23.192,48.33,1.675,8.158,2.253.661,2.246-1.058,1.764-2.029,5.382-.044,2.205-2.117.13-1.279,1.059-.661-1.676-13.406-1.9.22-3.438,2.91-3.881,1.147.176,3.219-.926,1.764Zm-5.6-2.69.353,3.175,4.85-.97,4.941-2.425.837-1.5-.4-7.453-9.525,1.544.573,5.027Zm.53-13.229.485,4.983,9.525-1.543-.176-4.542h-4.9Zm-.928-8.025.091,2.249.749,1.544v3.572l5.027-1.1h4.9l-.486-10.76-2.379.132-3.621-1.323h-3.17Zm-.264-6.35,4.63.044,3.748,1.367,4.851-.265-.4-4.5,3.7-4.674-9.791-6.879-.571.926,3.088,2.734-2.161,3.837-1.147-.662-1.5.044-4.1,6.482Zm11.642,13.229.4,8.952,3.616-1.058,3.173-2.646-.705-2.557v-3.44Zm7.014-.926v3.483l.615,2.337,2.379-.221.178,1.323,1.235-.97-.4-.97,2.2-.221-1.016-.838-.529-4.5-3.128.352-.264-.705-.971.132Zm-7.056.264,6.569-.794.4-.838,1.806-.264.178.661,2.778-.353-.573-4.145-11.378.75Zm-.531-10.76.264,5.027,11.336-.794-.223-4.718Zm2.426-5.071.4,4.321,8.509-.4-1.587-3.4,1.278-1.9,2.2-.22-.086-1.808-5.293-3.307Zm10.231,21.7-1.764,1.323,1.542,12.039,2.734-1.1,1.588-1.543-.31-1.411-1.853-1.235.441-.794,2.295-.132.219-.97,1.367-.705.4-1.367-1.013-2.6-2.56-2.425-.706.573-.88-.617-1.854.176Zm1.364-17.638-2.116.485.267,4.983,1.191,9.7,1.676,1.456,1.19-1.147,2.559-2.028Zm-2.819-4.939-.973,1.367,1.544,3.351.486-.132-.928-2.161,1.368-.661.09-.926Zm6.526,3.439-2.648,1.279-.438.088.134.309.438-.088,2.515-1.235,2.027.089.616,1.9,1.588,1.852.355,1.852h.309l-.441-2.028-1.5-1.808-.795-2.073Zm4.673,7.276-2.071,3.925-.18,2.028-1.057,1.059.176.353,1.233-1.147.18-2.2,2.115-4.013Zm3.088,7.1-1.015.22-1.148,2.69-.705-.089-.573-2.249-2.911.265-2.513,1.984,3.572,3.352,1.191,1.764.969-.265-1.233-1.544,1.19-1.455.837-.045,1.235,1.323.311-.4-1.1-1.058.22-.4,1.279-.133.838,1.015.529.794,1.586-.882-2.6-2.072.177-.75.528.485.972-.617Zm-59.753-53.887-.089.705-1.146.882,4.364,3.616,2.868,1.014,3.7,2.735,1.237.308,3.481,2.557.576-.529,4.5,2.866,1.85.132,1.986.97,3.13,2.6,1.766,2.734,2.646,3.13-.617,1.015,9.834,6.791,1.808-2.161,6.041,3.793.132,1.984,2.559-.176.043-.662-1.894.176-.045-1.058h2.073l-.089-1.014-2.382.044-.925-.75,2.469-.4-.44-.75-3.483.309-.707-.97,2.2-.221-.528-1.147-3.261.4-.972-.97,2.249-.221-1.719-1.543-3.44.088-.75-.926,2.206-.529-.97-1.058-3.4.264-.4.661,2.909,1.852v.838h-1.322l-3.528-2.645-1.189.088-2.163-1.72-.262-1.058.573-.4a1.031,1.031,0,0,0-.927-1.632l-1.367.529-3.044-4.321-.176-.882-.7.089-7.541-3.175.266-.441-.222-.661h-1.235l-.882-.75-.573-2.91-4.365-1.808-.089-.882h-.706v.882l-1.984-1.367c-.352-.4-1.5-.705-1.72-.264l-.748.882-1.457-1.587-.045-.486-.526.045-1.235.661-.529-.618.66-.4-.22-2.381-.839-.044-.264.529-.353-.75-.574.044Zm8.511,3.042-.353.309.441.044.616.706.662.088.177-.4-1.232-.441Z" transform="translate(6864.801 960.499)"/>
  </g>
</svg>
