<?xml version="1.0" encoding="utf-8"?>
<!-- Generator: Adobe Illustrator 20.0.0, SVG Export Plug-In . SVG Version: 6.00 Build 0)  -->
<svg version="1.1" id="Capa_1" xmlns="http://www.w3.org/2000/svg" xmlns:xlink="http://www.w3.org/1999/xlink" x="0px" y="0px"
	 viewBox="0 0 205.6 205.6" style="enable-background:new 0 0 205.6 205.6;" xml:space="preserve">
<style type="text/css">
	.st0{fill:#888888;}
</style>
<g>
	<path class="st0" d="M157.6,40.9c-11.1,0-21,5.2-27.4,13.3c-5-6.4-12.2-10.9-20.4-12.6C106.5,18.1,86.3,0,61.9,0h0
		c-4.1,0-7.5,3.4-7.5,7.5c0,4.1,3.4,7.5,7.5,7.5c16.2,0,29.7,11.6,32.7,26.8c-7.7,1.9-14.5,6.3-19.3,12.4C69,46.1,59.1,40.9,48,40.9
		c-19.2,0-34.9,15.7-34.9,34.9c0,17.5,13,32.1,29.8,34.5c-1.6,4-2.4,8.3-2.4,12.8c0,17.5,12.9,32,29.7,34.5c-1.6,4-2.6,8.5-2.6,13.1
		c0,19.3,15.7,34.9,34.9,34.9c19.3,0,34.9-15.7,34.9-34.9c0-4.6-0.9-9-2.5-13c17-2.3,30.2-16.9,30.2-34.6c0-4.5-0.9-8.8-2.4-12.8
		c16.9-2.5,29.8-17,29.8-34.5C192.6,56.5,176.9,40.9,157.6,40.9z M102.8,55.9c11,0,19.9,8.9,19.9,19.9c0,6.7-3.3,12.6-8.4,16.2
		c-1.1,0.6-2.1,1.2-3.1,1.8c-2.6,1.2-5.4,1.9-8.4,1.9c-3,0-5.8-0.7-8.4-1.9c-1-0.7-2-1.3-3.1-1.8c-5.1-3.6-8.4-9.5-8.4-16.2
		C82.9,64.8,91.8,55.9,102.8,55.9z M28.1,75.8c0-11,8.9-19.9,19.9-19.9c11,0,19.9,8.9,19.9,19.9c0,6.7-3.3,12.6-8.4,16.2
		c-1.1,0.6-2.1,1.2-3.1,1.8C53.8,95,51,95.7,48,95.7C37,95.7,28.1,86.8,28.1,75.8z M55.5,123.1c0-6.7,3.3-12.6,8.4-16.2
		c1.1-0.6,2.1-1.2,3.1-1.8c2.6-1.2,5.4-1.9,8.4-1.9s5.8,0.7,8.4,1.9c1,0.7,2,1.3,3.1,1.8c5.1,3.6,8.4,9.5,8.4,16.2
		c0,11-8.9,19.9-19.9,19.9C64.4,143,55.5,134.1,55.5,123.1z M102.5,190.6c-11,0-19.9-8.9-19.9-19.9s8.9-19.9,19.9-19.9
		c11,0,19.9,8.9,19.9,19.9C122.4,181.7,113.5,190.6,102.5,190.6z M130.2,143c-11,0-19.9-8.9-19.9-19.9c0-6.7,3.3-12.6,8.4-16.2
		c1.1-0.6,2.1-1.2,3.1-1.8c2.6-1.2,5.4-1.9,8.4-1.9c3,0,5.8,0.7,8.4,1.9c1,0.7,2,1.3,3.1,1.8c5.1,3.6,8.4,9.5,8.4,16.2
		C150.1,134.1,141.2,143,130.2,143z M157.6,95.7c-3,0-5.8-0.7-8.4-1.9c-1-0.7-2-1.3-3.1-1.8c-5.1-3.6-8.4-9.5-8.4-16.2
		c0-11,8.9-19.9,19.9-19.9c11,0,19.9,8.9,19.9,19.9C177.6,86.8,168.6,95.7,157.6,95.7z"/>
</g>
</svg>
