<svg xmlns="http://www.w3.org/2000/svg" viewBox="0 0 54 19.76"><defs><style>.a,.d{fill:#fff;}.a{opacity:0.85;}.b{fill:#000f9f;}.c{fill:#00adee;}</style></defs><rect class="a" width="54" height="19.76" rx="2.98"/><path class="b" d="M21.09,9.41c0-2.91-3.62-5.28-8.08-5.28S4.92,6.5,4.92,9.41v.31c0,3.09,3.17,5.6,8.09,5.6s8.08-2.51,8.08-5.6Z"/><path class="c" d="M20.78,9.41c0,2.75-3.48,5-7.77,5s-7.77-2.22-7.77-5,3.48-5,7.77-5S20.78,6.66,20.78,9.41Z"/><path class="d" d="M10.43,7.84s-.08.09,0,.15a1,1,0,0,0,.88.17,2.94,2.94,0,0,0,.81-.51A3.13,3.13,0,0,1,13,7.06a1.09,1.09,0,0,1,.67,0,2.25,2.25,0,0,1,.61.36c.53.4,2.67,2.27,3,2.59a19.2,19.2,0,0,1,3.42-1.1,4.23,4.23,0,0,0-1.62-2.55,5.05,5.05,0,0,1-4.21.07A4.09,4.09,0,0,0,13.32,6a2.86,2.86,0,0,0-2.21,1.07Z"/><path class="d" d="M17.24,10.19S14.72,8,14.16,7.57a1.31,1.31,0,0,0-.7-.33.73.73,0,0,0-.33,0,2.86,2.86,0,0,0-.91.54,2.69,2.69,0,0,1-.89.55,1.39,1.39,0,0,1-1-.15A.34.34,0,0,1,10.19,8a.29.29,0,0,1,.08-.32L11,7l.24-.24a4.13,4.13,0,0,0-.63.14A2.77,2.77,0,0,1,9.84,7a6.33,6.33,0,0,1-.74-.12,11.18,11.18,0,0,1-2-.72A4.39,4.39,0,0,0,5.3,8.81l.46.13a7.43,7.43,0,0,1,3,1.1.75.75,0,0,1,.55-.25.76.76,0,0,1,.6.32.82.82,0,0,1,.52-.19.91.91,0,0,1,.32.06.73.73,0,0,1,.45.4.66.66,0,0,1,.3-.07,1,1,0,0,1,.37.08.78.78,0,0,1,.43.88h.09a.87.87,0,0,1,.77,1.29,1.41,1.41,0,0,0,.76.2.51.51,0,0,0,.36-.15s0-.07,0-.1l-.62-.69s-.1-.1-.07-.14.1,0,.14.06c.32.26.71.66.71.66s0,.06.18.08a.62.62,0,0,0,.49-.11l.11-.11h0a.33.33,0,0,0,0-.41L14.5,11s-.1-.1-.06-.14.09,0,.14.06c.23.19.56.52.87.82a.58.58,0,0,0,.7,0,.49.49,0,0,0,.25-.46.47.47,0,0,0-.15-.3l-1-1s-.11-.09-.07-.14.1,0,.14.06c.32.26,1.18,1.05,1.18,1.05a.58.58,0,0,0,.67,0,.43.43,0,0,0,.22-.35A.51.51,0,0,0,17.24,10.19Z"/><path class="d" d="M12.41,11.46a1.88,1.88,0,0,0-.34.08s0-.07,0-.11.22-.65-.28-.86a.57.57,0,0,0-.69.11s0,0,0,0a.56.56,0,0,0-.38-.51.76.76,0,0,0-.85.3A.53.53,0,0,0,9.33,10a.54.54,0,1,0,.37.93s0,0,0,0a.7.7,0,0,0,.44.82.52.52,0,0,0,.52-.08c.05,0,.05,0,.05,0s0,.39.38.55a.5.5,0,0,0,.57-.11s.06,0,.06,0a.68.68,0,1,0,.68-.71Z"/><path class="b" d="M17.33,9.93c-.76-.67-2.54-2.21-3-2.57A2.24,2.24,0,0,0,13.69,7a.87.87,0,0,0-.31,0A1.15,1.15,0,0,0,13,7a3,3,0,0,0-.92.58h0a2.6,2.6,0,0,1-.79.5,1.36,1.36,0,0,1-.29,0A.71.71,0,0,1,10.44,8s0,0,0-.08h0l.67-.72a2.83,2.83,0,0,1,2.18-1.06h.06a4,4,0,0,1,1.51.36,4.61,4.61,0,0,0,2.05.49A5.37,5.37,0,0,0,19.2,6.4l-.27-.21a5,5,0,0,1-2,.45A4.35,4.35,0,0,1,15,6.17a4.39,4.39,0,0,0-1.64-.39h-.07a2.83,2.83,0,0,0-1.87.66,3.67,3.67,0,0,0-.94.17,2.4,2.4,0,0,1-.66.13H9.59a13.23,13.23,0,0,1-2.37-.66l-.28.21A11.9,11.9,0,0,0,9.51,7l.33,0a3.3,3.3,0,0,0,.75-.14c.14,0,.3-.09.46-.12a1.59,1.59,0,0,1-.13.13l-.68.74a.34.34,0,0,0-.1.38.43.43,0,0,0,.18.2,1.46,1.46,0,0,0,.73.19,1.36,1.36,0,0,0,.29,0,2.77,2.77,0,0,0,.91-.56,2.84,2.84,0,0,1,.89-.53.73.73,0,0,1,.25,0h.06a1.41,1.41,0,0,1,.68.33c.56.42,3,2.6,3.08,2.62a.47.47,0,0,1,.14.37.37.37,0,0,1-.19.31.62.62,0,0,1-.33.11.57.57,0,0,1-.29-.09s-.86-.79-1.18-1c0,0-.09-.08-.14-.08a.09.09,0,0,0-.07,0c-.05.06,0,.15.07.2l1,1a.54.54,0,0,1,.14.27.47.47,0,0,1-.24.42.71.71,0,0,1-.35.11.63.63,0,0,1-.29-.08l-.14-.14c-.26-.26-.53-.53-.73-.69a.28.28,0,0,0-.15-.08l-.06,0s0,.07,0,.14l.05.06.73.82a.27.27,0,0,1,0,.34l0,0-.07.06a.6.6,0,0,1-.36.11h-.1a.38.38,0,0,1-.14-.06h0a9.09,9.09,0,0,0-.71-.67.23.23,0,0,0-.14-.08.07.07,0,0,0-.06,0c-.06.07,0,.17.06.2l.62.69a.06.06,0,0,1,0,0s-.1.1-.32.13h-.08a1.52,1.52,0,0,1-.61-.18.92.92,0,0,0-.84-1.32h0a.82.82,0,0,0-.47-.87.92.92,0,0,0-.39-.09.67.67,0,0,0-.28.06.76.76,0,0,0-.45-.39,1.06,1.06,0,0,0-.34-.06.87.87,0,0,0-.51.17.77.77,0,0,0-.61-.3.79.79,0,0,0-.55.23,8.64,8.64,0,0,0-3-1.1,4.32,4.32,0,0,1-.47-.13c0,.12,0,.23,0,.34l.45.11a7.56,7.56,0,0,1,2.9,1,.77.77,0,0,0-.06.3.79.79,0,0,0,.79.78h.14a1,1,0,0,0,.59.69,1,1,0,0,0,.28,0l.18,0a.81.81,0,0,0,.49.45.87.87,0,0,0,.31.07.69.69,0,0,0,.24,0,.92.92,0,0,0,.85.58.91.91,0,0,0,.66-.28,1.81,1.81,0,0,0,.79.23H14a.72.72,0,0,0,.53-.26l0-.05a1,1,0,0,0,.25,0,.88.88,0,0,0,.51-.18.73.73,0,0,0,.3-.44h.17a1,1,0,0,0,.52-.16.76.76,0,0,0,.37-.67l.17,0a.91.91,0,0,0,.49-.15.72.72,0,0,0,.34-.55.79.79,0,0,0-.11-.45,20.49,20.49,0,0,1,3.23-1c0-.11,0-.22-.05-.33A19.17,19.17,0,0,0,17.33,9.93Zm-4.92,2.85a.63.63,0,0,1-.63-.61s0-.1-.07-.1a.1.1,0,0,0-.08,0,.43.43,0,0,1-.31.14.53.53,0,0,1-.2-.05c-.36-.14-.37-.39-.35-.49a.11.11,0,0,0,0-.08l0,0h0a.09.09,0,0,0-.06,0,.58.58,0,0,1-.31.11.35.35,0,0,1-.17,0A.64.64,0,0,1,9.76,11a.09.09,0,0,0,0-.07l0,0,0,0a.48.48,0,0,1-.34.14.48.48,0,0,1-.49-.49A.49.49,0,0,1,9.33,10a.5.5,0,0,1,.49.43v.13l.08-.11a.67.67,0,0,1,.57-.32.52.52,0,0,1,.21,0,.47.47,0,0,1,.35.46c0,.07.05.07.06.07a.09.09,0,0,0,.06,0,.51.51,0,0,1,.36-.15.74.74,0,0,1,.28.06c.46.2.25.79.25.79s-.05.14,0,.17h0l.09,0a.92.92,0,0,1,.25-.05h0a.64.64,0,1,1,0,1.27Z"/><path class="b" d="M48.64,6A1.91,1.91,0,0,0,46,6a2,2,0,0,0-.44,1.3A2,2,0,0,0,46,8.64a1.91,1.91,0,0,0,2.66,0,2,2,0,0,0,.44-1.3A2,2,0,0,0,48.64,6Zm-.72,2.1a.73.73,0,0,1-.61.28.7.7,0,0,1-.61-.28,1.25,1.25,0,0,1-.22-.8,1.25,1.25,0,0,1,.22-.8.7.7,0,0,1,.61-.28.73.73,0,0,1,.61.28,1.31,1.31,0,0,1,.21.8A1.31,1.31,0,0,1,47.92,8.14Z"/><path class="b" d="M41.18,5.74a2.18,2.18,0,0,0-1-.23A1.5,1.5,0,0,0,38.93,6a1.3,1.3,0,0,0-.26.75h.87a.86.86,0,0,1,.13-.32.61.61,0,0,1,.46-.16,1,1,0,0,1,.45.08.32.32,0,0,1,.15.3.29.29,0,0,1-.2.26,1.5,1.5,0,0,1-.36.07l-.31,0a2.13,2.13,0,0,0-.8.23,1,1,0,0,0-.5.92.94.94,0,0,0,.31.76,1.17,1.17,0,0,0,.78.27c2,.09,2-1,2-1.28V6.59A.86.86,0,0,0,41.18,5.74Zm-.46,2a.69.69,0,0,1-.26.62.92.92,0,0,1-.55.17.46.46,0,0,1-.31-.1.4.4,0,0,1-.13-.34.41.41,0,0,1,.21-.38,1.19,1.19,0,0,1,.42-.12l.2,0,.25-.06.17-.09Z"/><path class="b" d="M36.67,6.29a.6.6,0,0,1,.5.21.83.83,0,0,1,.14.35h1a1.29,1.29,0,0,0-.52-1,1.92,1.92,0,0,0-1.12-.3,1.62,1.62,0,0,0-1.26.5,1.93,1.93,0,0,0-.46,1.38,2,2,0,0,0,.41,1.29,1.6,1.6,0,0,0,1.3.49A1.59,1.59,0,0,0,38,8.59a1.53,1.53,0,0,0,.31-.78h-1a.83.83,0,0,1-.17.44.57.57,0,0,1-.48.17A.63.63,0,0,1,36,8a1.65,1.65,0,0,1-.1-.61,1.87,1.87,0,0,1,.1-.64A.66.66,0,0,1,36.67,6.29Z"/><path class="b" d="M34.66,5.52A1.69,1.69,0,0,0,32.77,7.3V9.1h.91V7.41a1.37,1.37,0,0,1,.1-.61.76.76,0,0,1,.74-.36h.1l.16,0V5.53h-.12Z"/><path class="b" d="M31.31,8.16a.87.87,0,0,1-.12.14.75.75,0,0,1-.51.14.85.85,0,0,1-.49-.12.81.81,0,0,1-.36-.72h2.51a3.38,3.38,0,0,0,0-.69A1.65,1.65,0,0,0,32,6.2a1.33,1.33,0,0,0-.6-.51,1.92,1.92,0,0,0-.81-.17A1.67,1.67,0,0,0,29.39,6a1.91,1.91,0,0,0-.47,1.38,1.7,1.7,0,0,0,.52,1.39,1.92,1.92,0,0,0,1.22.42,1.69,1.69,0,0,0,1.3-.5,1.32,1.32,0,0,0,.32-.53ZM30.09,6.47a.73.73,0,0,1,.54-.2.79.79,0,0,1,.54.19.76.76,0,0,1,.24.54H29.85A.9.9,0,0,1,30.09,6.47Z"/><path class="b" d="M28.55,9.1h-.83V7a.59.59,0,0,0-.61-.65.61.61,0,0,0-.63.65V9.1h-.83V7A.59.59,0,0,0,25,6.36a.61.61,0,0,0-.63.65V9.1h-.83V7A1.43,1.43,0,0,1,25,5.51a1.29,1.29,0,0,1,1,.48,1.37,1.37,0,0,1,1-.48A1.39,1.39,0,0,1,28.55,7Z"/><path class="b" d="M45.27,4.43s-.91-.1-.91.64V6A1.09,1.09,0,0,0,44,5.66a1.13,1.13,0,0,0-.56-.14A1.33,1.33,0,0,0,42.31,6a2.26,2.26,0,0,0-.41,1.42,1.88,1.88,0,0,0,.42,1.26,1.75,1.75,0,0,0,1.29.47,1.47,1.47,0,0,0,1.66-1.44ZM44.18,8.15a.67.67,0,0,1-.58.29A.66.66,0,0,1,43,8.15a1.52,1.52,0,0,1-.18-.79A1.44,1.44,0,0,1,43,6.61a.63.63,0,0,1,.58-.3.69.69,0,0,1,.46.17,1.2,1.2,0,0,1,.32.93A1.29,1.29,0,0,1,44.18,8.15Z"/><path class="c" d="M30.22,14.88a.44.44,0,0,1-.45.45h-.46V12.17a1.45,1.45,0,0,1,.55-1.26,1.79,1.79,0,0,1,1.19-.34,1.56,1.56,0,0,1,1.19.49,1.91,1.91,0,0,1,.43,1.32,2.1,2.1,0,0,1-.4,1.34,1.26,1.26,0,0,1-1,.51,1.38,1.38,0,0,1-.59-.12,1.06,1.06,0,0,1-.43-.41Zm1.53-2.46a1.33,1.33,0,0,0-.2-.79.67.67,0,0,0-.58-.28.65.65,0,0,0-.56.28,1.35,1.35,0,0,0-.19.79,1.22,1.22,0,0,0,.2.75.67.67,0,0,0,.58.28.64.64,0,0,0,.55-.28,1.26,1.26,0,0,0,.2-.75"/><path class="c" d="M38.7,13.93v-.22a1,1,0,0,1-.63.46,1.37,1.37,0,0,1-.8-.06,1.52,1.52,0,0,1-.68-.59,2,2,0,0,1-.28-1.13,2.15,2.15,0,0,1,.38-1.32,1.4,1.4,0,0,1,1.2-.51,1.67,1.67,0,0,1,1.17.34,1.47,1.47,0,0,1,.54,1.27V14a1.55,1.55,0,0,1-1.71,1.59,1.48,1.48,0,0,1-1.5-1.13h1a.68.68,0,0,0,.32.28.66.66,0,0,0,.43.06.77.77,0,0,0,.4-.26,1.08,1.08,0,0,0,.2-.64m-1.5-1.51c0,.6.18.94.53,1a.73.73,0,0,0,.78-.25,1.14,1.14,0,0,0,.17-.45,2.08,2.08,0,0,0,0-.61,1.26,1.26,0,0,0-.21-.55.6.6,0,0,0-.5-.23.62.62,0,0,0-.61.33,1.8,1.8,0,0,0-.16.75"/><path class="c" d="M35.53,10.81a2.18,2.18,0,0,0-1-.23,1.5,1.5,0,0,0-1.24.46,1.38,1.38,0,0,0-.26.75h.88a.62.62,0,0,1,.13-.32.59.59,0,0,1,.46-.16,1,1,0,0,1,.44.08.32.32,0,0,1,.15.3.29.29,0,0,1-.2.26,1.5,1.5,0,0,1-.36.07l-.31,0a2.19,2.19,0,0,0-.8.23,1,1,0,0,0-.5.92.94.94,0,0,0,.31.76,1.19,1.19,0,0,0,.78.27c2,.09,2-1,2-1.28v-1.3a.86.86,0,0,0-.45-.85m-.46,2a.69.69,0,0,1-.26.62.89.89,0,0,1-.54.17.47.47,0,0,1-.32-.1.4.4,0,0,1-.13-.34.41.41,0,0,1,.21-.38,1.26,1.26,0,0,1,.42-.12l.2,0,.25-.06.17-.09Z"/><path class="c" d="M43,11.1a1.88,1.88,0,0,0-2.66,0,2.13,2.13,0,0,0,0,2.59,1.91,1.91,0,0,0,2.66,0,2.13,2.13,0,0,0,0-2.59m-.72,2.09a.73.73,0,0,1-.61.28.7.7,0,0,1-.61-.28,1.23,1.23,0,0,1-.22-.8,1.27,1.27,0,0,1,.22-.8.73.73,0,0,1,.61-.28.76.76,0,0,1,.61.28,1.33,1.33,0,0,1,.21.8,1.29,1.29,0,0,1-.21.8"/></svg>