<svg xmlns="http://www.w3.org/2000/svg" xmlns:xlink="http://www.w3.org/1999/xlink" viewBox="0 0 85.24 67.05"><defs><style>.a{fill:url(#a);}.b{fill:url(#c);}.c{fill:url(#d);}.d{fill:url(#e);}.e{mask:url(#g);}.f{fill:url(#i);}.g{isolation:isolate;}.h{opacity:0.15;}.h,.n,.p,.v,.z{mix-blend-mode:multiply;}.i{fill:url(#j);}.j{fill:url(#k);}.k{fill:#6139c8;}.l{fill:url(#m);}.m{fill:url(#n);}.n{opacity:0.25;}.o{fill:url(#o);}.p{opacity:0.2;}.q{mask:url(#q);}.ae,.r{mix-blend-mode:overlay;}.s{opacity:0.26;mix-blend-mode:color-burn;fill:url(#r);}.t{mask:url(#u);}.u{fill:url(#v);}.aa,.v{fill:#c6c6c5;}.ae,.w{fill:#fff;}.x{mask:url(#w);}.y{fill:url(#x);}.ab{fill:url(#y);}.ac{fill:url(#z);}.ad{fill:url(#aa);}.ae{opacity:0.37;}.af{filter:url(#h);}</style><linearGradient id="a" x1="-403.81" y1="-73.16" x2="-337.85" y2="-73.16" gradientTransform="translate(250.27 111.57) scale(0.6 1)" gradientUnits="userSpaceOnUse"><stop offset="0" stop-color="#fff"/><stop offset="0.64"/></linearGradient><linearGradient id="c" x1="-118.52" y1="-118.47" x2="-41.66" y2="-118.47" gradientTransform="translate(109.28 175.71) scale(0.85 1.16)" gradientUnits="userSpaceOnUse"><stop offset="0"/><stop offset="1" stop-color="#fff"/></linearGradient><linearGradient id="d" x1="14.65" y1="107.46" x2="57.07" y2="107.46" gradientTransform="translate(-2.8 -67.5) rotate(3.02)" gradientUnits="userSpaceOnUse"><stop offset="0"/><stop offset="0.57" stop-color="#fff"/></linearGradient><linearGradient id="e" x1="-100.87" y1="-94.12" x2="-24.01" y2="-94.12" gradientTransform="translate(92.12 127.81) scale(0.85 1)" xlink:href="#c"/><filter id="h" filterUnits="userSpaceOnUse" color-interpolation-filters="sRGB"><feColorMatrix values="-1 0 0 0 1 0 -1 0 0 1 0 0 -1 0 1 0 0 0 1 0"/></filter><mask id="g" x="-0.24" y="-5.71" width="78.3" height="78.79" maskUnits="userSpaceOnUse"><g class="af"><rect class="d" x="6.16" y="0.61" width="65.5" height="66.15" transform="translate(-6.38 9.25) rotate(-12.54)"/></g></mask><radialGradient id="i" cx="37.51" cy="106.07" r="20.28" gradientTransform="translate(-2.8 -67.5) rotate(3.02)" gradientUnits="userSpaceOnUse"><stop offset="0" stop-color="#fff"/><stop offset="1"/></radialGradient><linearGradient id="j" x1="47.68" y1="131.38" x2="47.68" y2="65.61" gradientTransform="translate(-2.8 -67.5) rotate(3.02)" xlink:href="#c"/><linearGradient id="k" x1="11.24" y1="99.24" x2="92.54" y2="99.24" gradientTransform="translate(-2.8 -67.5) rotate(3.02)" gradientUnits="userSpaceOnUse"><stop offset="0" stop-color="#8134fb"/><stop offset="0.12" stop-color="#783dfb"/><stop offset="0.31" stop-color="#5e54fb"/><stop offset="0.55" stop-color="#357afb"/><stop offset="0.57" stop-color="#327dfb"/><stop offset="0.99" stop-color="#2bd1f5"/></linearGradient><linearGradient id="m" x1="12.82" y1="122.74" x2="48.37" y2="106.16" gradientTransform="translate(-2.8 -67.5) rotate(3.02)" gradientUnits="userSpaceOnUse"><stop offset="0" stop-color="#4d43b5"/><stop offset="1" stop-color="#297ab6"/></linearGradient><linearGradient id="n" x1="7.92" y1="96" x2="88.05" y2="96" gradientTransform="translate(-2.8 -67.5) rotate(3.02)" gradientUnits="userSpaceOnUse"><stop offset="0.01" stop-color="#2bd1f5"/><stop offset="0.43" stop-color="#327dfb"/><stop offset="0.45" stop-color="#357afb"/><stop offset="0.69" stop-color="#5e54fb"/><stop offset="0.88" stop-color="#783dfb"/><stop offset="1" stop-color="#8134fb"/></linearGradient><linearGradient id="o" x1="47.99" y1="128.89" x2="47.99" y2="63.11" gradientTransform="translate(-2.8 -67.5) rotate(3.02)" xlink:href="#c"/><mask id="q" x="0.76" y="3.06" width="56.52" height="70.7" maskUnits="userSpaceOnUse"><rect class="a" x="6.9" y="6.47" width="39.75" height="63.89" transform="translate(-7.32 6.32) rotate(-11.86)"/></mask><linearGradient id="r" x1="11.24" y1="101.02" x2="66.64" y2="101.02" gradientTransform="translate(-2.8 -67.5) rotate(3.02)" gradientUnits="userSpaceOnUse"><stop offset="0.01" stop-color="#2bd1f5"/><stop offset="0.61" stop-color="#327dfb"/><stop offset="0.62" stop-color="#357afb"/><stop offset="0.79" stop-color="#5e54fb"/><stop offset="0.92" stop-color="#783dfb"/><stop offset="1" stop-color="#8134fb"/></linearGradient><mask id="u" x="-4.13" y="-9.54" width="90.31" height="96.16" maskUnits="userSpaceOnUse"><g class="af"><rect class="b" x="8.27" y="0.24" width="65.5" height="76.6" transform="translate(-11.83 19.19) rotate(-23.11)"/><circle class="c" cx="27.35" cy="41.7" r="21.21"/></g></mask><linearGradient id="v" x1="9.86" y1="101.61" x2="70.53" y2="101.61" xlink:href="#r"/><mask id="w" x="-0.24" y="-5.71" width="78.3" height="78.79" maskUnits="userSpaceOnUse"><g class="af"><rect class="d" x="6.16" y="0.61" width="65.5" height="66.15" transform="translate(-6.38 9.25) rotate(-12.54)"/><circle class="f" cx="29.07" cy="40.4" r="20.28"/></g></mask><linearGradient id="x" x1="10.19" y1="101.59" x2="70.47" y2="101.59" xlink:href="#r"/><linearGradient id="y" x1="11.39" y1="89.01" x2="38.99" y2="89.01" xlink:href="#r"/><linearGradient id="z" x1="16.81" y1="94.18" x2="47.24" y2="94.18" xlink:href="#r"/><linearGradient id="aa" x1="21.68" y1="98.12" x2="51.3" y2="98.12" xlink:href="#r"/></defs><g class="g"><g class="h"><path class="i" d="M2.26,21.2,77.52,2.57a3,3,0,0,1,3.46,4L56.58,65.22A3,3,0,0,1,52,66.42l-50.86-40A3,3,0,0,1,2.26,21.2Z"/></g><path class="j" d="M84.86,19.27a1.7,1.7,0,0,0-1.74-.59l-4,1a1.7,1.7,0,0,0-1.13.94L76.93,23l-.69-1.24a1.7,1.7,0,0,0-1.91-.83h0A1.74,1.74,0,0,0,74,19.73l-1.74-2.19a5.92,5.92,0,0,0,1.43-1.95A6,6,0,0,0,74,11.64a5.6,5.6,0,0,0-.78-1.82,4.79,4.79,0,0,0-1.51-1.46,5.79,5.79,0,0,0-2.61-.77H69a10.28,10.28,0,0,0-3,.35L61.42,9a1.7,1.7,0,0,0-.85.52,1.71,1.71,0,0,0-1-.06l-9.64,2.37a1.7,1.7,0,0,0-1.29,1.62l0,1.13a4.34,4.34,0,0,0-1.2-.83,5.49,5.49,0,0,0-2-.45h-.17a9.85,9.85,0,0,0-2.58.33l-5,1.23a2.09,2.09,0,0,0-.35.13,1.47,1.47,0,0,0-.36,0l-4,1a1.73,1.73,0,0,0-1.14.94l-1.09,2.34-.68-1.25a1.69,1.69,0,0,0-1.9-.84l-3.6.88a1.72,1.72,0,0,0-1.17,1,1.89,1.89,0,0,0-.09.34l-.18-.08a7.27,7.27,0,0,0-4.28-.11A9.36,9.36,0,0,0,15.23,21a9.56,9.56,0,0,0-2,2.1,6.58,6.58,0,0,1,.89,0,6.23,6.23,0,0,1,1.65,12.14l.63.23-3.31.84a1.67,1.67,0,0,0-1.1.87l-1.58,3.07L9.27,38.43a1.72,1.72,0,0,0-1.84-.73l-3.37.85a1.7,1.7,0,0,0-1.28,1.62L2.57,53a1.69,1.69,0,0,0,.65,1.36,1.64,1.64,0,0,0,1,.37,1.77,1.77,0,0,0,.51,0L8,53.84a1.7,1.7,0,0,0,1.29-1.62l0-2.06a1.69,1.69,0,0,0,1.74.58l.07,0a1.67,1.67,0,0,0,.9-.58v.49a1.7,1.7,0,0,0,2.11,1.67l3.35-.84a1.72,1.72,0,0,0,1.29-1.62l0-2.6a6.77,6.77,0,0,0,1.84,1.53,7.45,7.45,0,0,0,2.72.89,4.91,4.91,0,0,0,.55,0,8.17,8.17,0,0,0,2.52-.26L27,49.3a6.8,6.8,0,0,0-1.58,1.86,6.44,6.44,0,0,0-.78,2.32,6.23,6.23,0,0,0,0,1.83l-1.52.39a1.7,1.7,0,0,0-1.29,1.63l0,2.28A1.71,1.71,0,0,0,22.39,61a1.74,1.74,0,0,0,1,.37,1.67,1.67,0,0,0,.5-.05L26,60.74a1.72,1.72,0,0,0,1.28-1.51,5.22,5.22,0,0,0,1.85.54h.24a6.3,6.3,0,0,0,1.86-.19,5.8,5.8,0,0,0,2.49-1.25,6.7,6.7,0,0,0,1-1.16,5.4,5.4,0,0,0,1.93.62l.39,0a6,6,0,0,0,1.81-.19,6.42,6.42,0,0,0,2.39-1.16l.35-.3a1.75,1.75,0,0,0,.9.32,2.18,2.18,0,0,0,.5,0l2.11-.54a1.69,1.69,0,0,0,1.29-1.62V54a1.84,1.84,0,0,0,.66,0,1.72,1.72,0,0,0,.52.68,1.69,1.69,0,0,0,1.47.31l2.14-.54a1.35,1.35,0,0,0,.41-.16,1.73,1.73,0,0,0,.45,0l2.17-.55.08,0,.09,0L56.77,53A1.69,1.69,0,0,0,58,51.93l.27-.75.65-.17a1.71,1.71,0,0,0,2,1l2.24-.57.1,0h.07l2.14-.54a1.68,1.68,0,0,0,1.14-1,1.7,1.7,0,0,0,1.46.31l2.35-.6a1.67,1.67,0,0,0,1.2-1.1,1.7,1.7,0,0,0-.28-1.61l-.79-1a4.12,4.12,0,0,0,.66-1,4.42,4.42,0,0,0,.22-2.92,4.26,4.26,0,0,0-.59-1.36,3.55,3.55,0,0,0-1.17-1.11,4.16,4.16,0,0,0-1.94-.57h-.06a7.38,7.38,0,0,0-2.14.25l-2.14.54a1.68,1.68,0,0,0,.37-.6l.6-1.65,2.31-.58.28.69a1.69,1.69,0,0,0,2,1l3.5-.88a1.66,1.66,0,0,0,1.11-.89,1.72,1.72,0,0,0,.05-1.42l.11-.21a1.71,1.71,0,0,0,.64,1.36,1.78,1.78,0,0,0,1.47.32L79.11,36a1.7,1.7,0,0,0,1.29-1.62l.06-4.18,4.59-9.06A1.69,1.69,0,0,0,84.86,19.27Z"/><path class="j" d="M84.86,19.27a1.7,1.7,0,0,0-1.74-.59l-4,1a1.7,1.7,0,0,0-1.13.94L76.93,23l-.69-1.24a1.7,1.7,0,0,0-1.91-.83h0A1.74,1.74,0,0,0,74,19.73l-1.74-2.19a5.92,5.92,0,0,0,1.43-1.95A6,6,0,0,0,74,11.64a5.6,5.6,0,0,0-.78-1.82,4.79,4.79,0,0,0-1.51-1.46,5.79,5.79,0,0,0-2.61-.77H69a10.28,10.28,0,0,0-3,.35L61.42,9a1.7,1.7,0,0,0-.85.52,1.71,1.71,0,0,0-1-.06l-9.64,2.37a1.7,1.7,0,0,0-1.29,1.62l0,1.13a4.34,4.34,0,0,0-1.2-.83,5.49,5.49,0,0,0-2-.45h-.17a9.85,9.85,0,0,0-2.58.33l-5,1.23a2.09,2.09,0,0,0-.35.13,1.47,1.47,0,0,0-.36,0l-4,1a1.73,1.73,0,0,0-1.14.94l-1.09,2.34-.68-1.25a1.69,1.69,0,0,0-1.9-.84l-3.6.88a1.72,1.72,0,0,0-1.17,1,1.89,1.89,0,0,0-.09.34l-.18-.08a7.27,7.27,0,0,0-4.28-.11A9.36,9.36,0,0,0,15.23,21a9.56,9.56,0,0,0-2,2.1,6.58,6.58,0,0,1,.89,0,6.23,6.23,0,0,1,1.65,12.14l.63.23-3.31.84a1.67,1.67,0,0,0-1.1.87l-1.58,3.07L9.27,38.43a1.72,1.72,0,0,0-1.84-.73l-3.37.85a1.7,1.7,0,0,0-1.28,1.62L2.57,53a1.69,1.69,0,0,0,.65,1.36,1.64,1.64,0,0,0,1,.37,1.77,1.77,0,0,0,.51,0L8,53.84a1.7,1.7,0,0,0,1.29-1.62l0-2.06a1.69,1.69,0,0,0,1.74.58l.07,0a1.67,1.67,0,0,0,.9-.58v.49a1.7,1.7,0,0,0,2.11,1.67l3.35-.84a1.72,1.72,0,0,0,1.29-1.62l0-2.6a6.77,6.77,0,0,0,1.84,1.53,7.45,7.45,0,0,0,2.72.89,4.91,4.91,0,0,0,.55,0,8.17,8.17,0,0,0,2.52-.26L27,49.3a6.8,6.8,0,0,0-1.58,1.86,6.44,6.44,0,0,0-.78,2.32,6.23,6.23,0,0,0,0,1.83l-1.52.39a1.7,1.7,0,0,0-1.29,1.63l0,2.28A1.71,1.71,0,0,0,22.39,61a1.74,1.74,0,0,0,1,.37,1.67,1.67,0,0,0,.5-.05L26,60.74a1.72,1.72,0,0,0,1.28-1.51,5.22,5.22,0,0,0,1.85.54h.24a6.3,6.3,0,0,0,1.86-.19,5.8,5.8,0,0,0,2.49-1.25,6.7,6.7,0,0,0,1-1.16,5.4,5.4,0,0,0,1.93.62l.39,0a6,6,0,0,0,1.81-.19,6.42,6.42,0,0,0,2.39-1.16l.35-.3a1.75,1.75,0,0,0,.9.32,2.18,2.18,0,0,0,.5,0l2.11-.54a1.69,1.69,0,0,0,1.29-1.62V54a1.84,1.84,0,0,0,.66,0,1.72,1.72,0,0,0,.52.68,1.69,1.69,0,0,0,1.47.31l2.14-.54a1.35,1.35,0,0,0,.41-.16,1.73,1.73,0,0,0,.45,0l2.17-.55.08,0,.09,0L56.77,53A1.69,1.69,0,0,0,58,51.93l.27-.75.65-.17a1.71,1.71,0,0,0,2,1l2.24-.57.1,0h.07l2.14-.54a1.68,1.68,0,0,0,1.14-1,1.7,1.7,0,0,0,1.46.31l2.35-.6a1.67,1.67,0,0,0,1.2-1.1,1.7,1.7,0,0,0-.28-1.61l-.79-1a4.12,4.12,0,0,0,.66-1,4.42,4.42,0,0,0,.22-2.92,4.26,4.26,0,0,0-.59-1.36,3.55,3.55,0,0,0-1.17-1.11,4.16,4.16,0,0,0-1.94-.57h-.06a7.38,7.38,0,0,0-2.14.25l-2.14.54a1.68,1.68,0,0,0,.37-.6l.6-1.65,2.31-.58.28.69a1.69,1.69,0,0,0,2,1l3.5-.88a1.66,1.66,0,0,0,1.11-.89,1.72,1.72,0,0,0,.05-1.42l.11-.21a1.71,1.71,0,0,0,.64,1.36,1.78,1.78,0,0,0,1.47.32L79.11,36a1.7,1.7,0,0,0,1.29-1.62l.06-4.18,4.59-9.06A1.69,1.69,0,0,0,84.86,19.27Z"/><path class="k" d="M70.49,45.89a4.12,4.12,0,0,0,.66-1,4.42,4.42,0,0,0,.22-2.92,4.26,4.26,0,0,0-.59-1.36,3.55,3.55,0,0,0-1.17-1.11,4.16,4.16,0,0,0-1.94-.57h-.06a7.38,7.38,0,0,0-2.14.25l-2,.5a25,25,0,0,0-1.59,4.8,33.3,33.3,0,0,1-2.12,7.47,1.75,1.75,0,0,0,1.09.09l2.24-.57.1,0h.07l2.14-.54a1.68,1.68,0,0,0,1.14-1,1.7,1.7,0,0,0,1.46.31l2.35-.6a1.67,1.67,0,0,0,1.2-1.1,1.7,1.7,0,0,0-.28-1.61Z"/><path class="k" d="M84.86,19.27a1.7,1.7,0,0,0-1.74-.59l-4,1a1.7,1.7,0,0,0-1.13.94L76.93,23l-.69-1.24a1.7,1.7,0,0,0-1.91-.83h0A1.74,1.74,0,0,0,74,19.73l-.46-.57c-.38.27-.77.53-1.18.78L71,20.72l-.35.21c-.17.15-.37.36-.49.48a1,1,0,0,0-.11.17c0,.07-.09.14-.13.22l-.12.35c-.4,1.34-.64,2.73-1,4.08a60.09,60.09,0,0,1-3.74,9.88l-.57,1.24,2.09-.52.28.69a1.69,1.69,0,0,0,2,1l3.5-.88a1.66,1.66,0,0,0,1.11-.89,1.72,1.72,0,0,0,.05-1.42l.11-.21a1.71,1.71,0,0,0,.64,1.36,1.78,1.78,0,0,0,1.47.32L79.11,36a1.7,1.7,0,0,0,1.29-1.62l.06-4.18,4.59-9.06A1.69,1.69,0,0,0,84.86,19.27Z"/><path class="l" d="M42.42,53.38C40,51.5,37,50.49,34.69,48.51a23.88,23.88,0,0,1-4.43-5.18h0a9,9,0,0,0-.68-.85c-.34-.36-.69-.71-1.06-1l-.71-.59-.92-.68c-.62-.44-1.25-.88-1.89-1.28s-1.26-.78-1.91-1.13c-.27-.15-.54-.3-.82-.44a25,25,0,0,0-4.62-1.17c-.66-.14-1.33-.3-2-.49l-2.53.64a1.67,1.67,0,0,0-1.1.87l-1.58,3.07L9.27,38.43a1.72,1.72,0,0,0-1.84-.73l-3.37.85a1.7,1.7,0,0,0-1.28,1.62L2.57,53a1.69,1.69,0,0,0,.65,1.36,1.64,1.64,0,0,0,1,.37,1.77,1.77,0,0,0,.51,0L8,53.84a1.7,1.7,0,0,0,1.29-1.62l0-2.06a1.69,1.69,0,0,0,1.74.58l.07,0a1.67,1.67,0,0,0,.9-.58v.49a1.7,1.7,0,0,0,2.11,1.67l3.35-.84a1.72,1.72,0,0,0,1.29-1.62l0-2.6a6.77,6.77,0,0,0,1.84,1.53,7.45,7.45,0,0,0,2.72.89,4.91,4.91,0,0,0,.55,0,8.17,8.17,0,0,0,2.52-.26L27,49.3a6.8,6.8,0,0,0-1.58,1.86,6.44,6.44,0,0,0-.78,2.32,6.23,6.23,0,0,0,0,1.83l-1.52.39a1.7,1.7,0,0,0-1.29,1.63l0,2.28A1.71,1.71,0,0,0,22.39,61a1.74,1.74,0,0,0,1,.37,1.67,1.67,0,0,0,.5-.05L26,60.74a1.72,1.72,0,0,0,1.28-1.51,5.22,5.22,0,0,0,1.85.54h.24a6.3,6.3,0,0,0,1.86-.19,5.8,5.8,0,0,0,2.49-1.25,6.7,6.7,0,0,0,1-1.16,5.4,5.4,0,0,0,1.93.62l.39,0a6,6,0,0,0,1.81-.19,6.42,6.42,0,0,0,2.39-1.16l.35-.3a1.75,1.75,0,0,0,.9.32,2.18,2.18,0,0,0,.5,0l2.11-.54a1.52,1.52,0,0,0,.61-.3A25.16,25.16,0,0,1,42.42,53.38Z"/><path class="m" d="M2.69,18.72,78,.09a3,3,0,0,1,3.45,4L57,62.74a3,3,0,0,1-4.58,1.2l-50.86-40A3,3,0,0,1,2.69,18.72Z"/><g class="n"><path class="o" d="M2.69,18.72,78,.09a3,3,0,0,1,3.45,4L57,62.74a3,3,0,0,1-4.58,1.2l-50.86-40A3,3,0,0,1,2.69,18.72Z"/></g><g class="p"><path class="o" d="M2.69,18.72,78,.09a3,3,0,0,1,3.45,4L57,62.74a3,3,0,0,1-4.58,1.2l-50.86-40A3,3,0,0,1,2.69,18.72Z"/></g><g class="q"><g class="r"><path class="s" d="M53.1,62A3.62,3.62,0,0,1,51,61.2l-19.77-16-26.52-21a2.7,2.7,0,0,1,.92-4.69l0,0,34.83-8.88.67,2.63L33.05,15.3A13.59,13.59,0,0,0,28,39.11l5,4,19.78,16A.86.86,0,0,0,54,58.83l.86-1.56,2.38,1.31-.81,1.48a3.71,3.71,0,0,1-2,1.74A3.59,3.59,0,0,1,53.1,62Z"/></g></g><g class="q"><g class="r"><path class="s" d="M53.1,62A3.62,3.62,0,0,1,51,61.2l-19.77-16-26.52-21a2.7,2.7,0,0,1,.92-4.69l0,0,34.83-8.88.67,2.63L33.05,15.3A13.59,13.59,0,0,0,28,39.11l5,4,19.78,16A.86.86,0,0,0,54,58.83l.86-1.56,2.38,1.31-.81,1.48a3.71,3.71,0,0,1-2,1.74A3.59,3.59,0,0,1,53.1,62Z"/></g></g><g class="t"><path class="u" d="M53.46,63.19c-.75,0-2-1.41-2.59-1.89L31.2,45.21l-26.51-21c-.79-.63-2.63-1.76-2.27-3,.44-1.48,2.22-1.44,3.19-1.72h0l34.83-8.89,1.11,4.28L20.91,19.44c-6.45,1.7-6.51,9.48-6,9.91l18,13.73,19.79,16a.83.83,0,0,0,.7.18.81.81,0,0,0,.58-.43l.82-1.48,4.47-11.44,2.54,1L57.26,58.5s-1.78,4.3-2.43,4.5A4.09,4.09,0,0,1,53.46,63.19Z"/></g><path class="v" d="M78.31,5.37A2.92,2.92,0,1,1,75,3.06a2.85,2.85,0,0,1,3.34,2.31m-5,.87a2.2,2.2,0,1,0,4.33-.73,2.2,2.2,0,1,0-4.33.73m2,1.16-.65.11-.49-2.8a7.34,7.34,0,0,1,1.06-.28,1.56,1.56,0,0,1,1,.06.71.71,0,0,1,.39.55.73.73,0,0,1-.46.77v0c.29,0,.47.24.62.6a2.79,2.79,0,0,0,.32.65l-.68.12A2,2,0,0,1,76,6.56c-.1-.28-.3-.39-.66-.33l-.31.06ZM75,5.82l.31-.05c.36-.06.63-.23.58-.52s-.26-.4-.67-.33a1.52,1.52,0,0,0-.36.1Z"/><path class="w" d="M78.62,4.78a2.92,2.92,0,1,1-3.34-2.31,2.86,2.86,0,0,1,3.34,2.31m-5,.87a2.21,2.21,0,0,0,2.57,1.86,2.18,2.18,0,0,0,1.76-2.59,2.2,2.2,0,1,0-4.33.73m2,1.15-.65.11-.48-2.8a7.55,7.55,0,0,1,1.06-.27,1.49,1.49,0,0,1,1,.06.69.69,0,0,1,.39.54.74.74,0,0,1-.46.77v0c.29,0,.47.23.62.59a2.38,2.38,0,0,0,.32.65l-.68.12A2,2,0,0,1,76.33,6c-.11-.28-.3-.38-.66-.32l-.31.05ZM75.3,5.23l.31-.06c.36-.06.63-.23.58-.52s-.27-.39-.68-.32a1.68,1.68,0,0,0-.35.09Z"/><g class="x"><path class="y" d="M53.47,63.19c-.74,0-2-1.46-2.65-1.94L31.14,45.16l-26.52-21c-.79-.63-2.09-1.76-1.88-2.93s1-1.44,2.8-1.76h0l34.83-8.89v1.78L6.48,21a.55.55,0,0,0-.21,1L32.84,43,52.62,59a.84.84,0,0,0,.71.17.86.86,0,0,0,.58-.42l.81-1.49L59.2,45.87l2.53,1-4.54,11.6-.62,1.62c-.44.8-.87,2.62-1.73,2.92A3.58,3.58,0,0,1,53.47,63.19Z"/></g><g class="z"><path class="aa" d="M21.36,33.77A7,7,0,0,1,19,34a5.37,5.37,0,0,1-2.06-.61A4.93,4.93,0,0,1,15.34,32a5.65,5.65,0,0,1-1-2.07,7.14,7.14,0,0,1-.12-2.77,7.37,7.37,0,0,1,.92-2.68,7.66,7.66,0,0,1,4.92-3.65,5.73,5.73,0,0,1,3.3.06,4.78,4.78,0,0,1,2.33,1.78l-2.5,2.26A3,3,0,0,0,22,24a2.55,2.55,0,0,0-1.58,0,3.28,3.28,0,0,0-1.33.67,3.81,3.81,0,0,0-.91,1.16,4.4,4.4,0,0,0-.46,1.45,4.18,4.18,0,0,0,.09,1.57,2.35,2.35,0,0,0,3,1.88A3,3,0,0,0,22.14,30a5.36,5.36,0,0,0,1-1.19l2.74,1.44a7.41,7.41,0,0,1-1.7,2.14A6.7,6.7,0,0,1,21.36,33.77Z"/><path class="aa" d="M30.07,26.43l-4.24-6.77,3.59-.89L31.71,23l2.52-5.39,4-1L33.4,26l-.09,4.58L30,31.39Z"/><path class="aa" d="M38.92,16.43l5-1.23a8.14,8.14,0,0,1,2.13-.27,3.88,3.88,0,0,1,1.5.3,2.48,2.48,0,0,1,1,.75A3.08,3.08,0,0,1,49,17a2.93,2.93,0,0,1-.23,2.13A3.83,3.83,0,0,1,47,20.76a3.14,3.14,0,0,1,1.53.56,2.29,2.29,0,0,1,.88,1.4,3.19,3.19,0,0,1-.69,2.93,5.62,5.62,0,0,1-1.52,1.19,9.39,9.39,0,0,1-2.35.88l-6.24,1.53Zm5.41,3.76a2.53,2.53,0,0,0,1.28-.66,1.07,1.07,0,0,0,.24-1,.78.78,0,0,0-.49-.57,2.05,2.05,0,0,0-1.17,0l-2.08.51,0,2.23ZM44.48,25a2.31,2.31,0,0,0,1.28-.69,1.1,1.1,0,0,0,.27-1q-.24-.93-1.71-.57l-2.3.56L42,25.58Z"/><path class="aa" d="M51.19,13.42,60.83,11l-.08,3-6.32,1.55,0,2,5.74-1.41L60.06,19l-5.74,1.41,0,2,6.42-1.58-.06,3-9.72,2.4Z"/><path class="aa" d="M62.67,10.59l4.54-1.12a8.85,8.85,0,0,1,2.6-.29,4,4,0,0,1,1.84.53,3,3,0,0,1,1,.93A4.53,4.53,0,0,1,73,14.79a5.06,5.06,0,0,1-2.33,2.29l2.85,3.6-3.67.91-2.5-3.25-1.47.36-.09,3.89-3.35.82Zm5.13,4.86a3.31,3.31,0,0,0,1.69-.89,1.47,1.47,0,0,0,.37-1.39,1.23,1.23,0,0,0-.51-.74,2.1,2.1,0,0,0-1.58,0L66,12.82l-.07,3.1Z"/></g><g class="z"><path class="aa" d="M23.16,58.07l2.18-.55-.05,2.3-2.16.54Z"/><path class="aa" d="M30.53,58.66a4.29,4.29,0,0,1-1.53.13,3.42,3.42,0,0,1-1.32-.38,3,3,0,0,1-1-.87A3.63,3.63,0,0,1,26,56.21,4.76,4.76,0,0,1,26,54.44a5.05,5.05,0,0,1,.58-1.73,4.94,4.94,0,0,1,3.15-2.35,3.58,3.58,0,0,1,2.11,0,3.07,3.07,0,0,1,1.5,1.13L31.69,53a1.83,1.83,0,0,0-.79-.58,1.64,1.64,0,0,0-1,0,2.08,2.08,0,0,0-.85.43,2.52,2.52,0,0,0-.58.75,2.81,2.81,0,0,0-.29.93,2.88,2.88,0,0,0,.06,1,1.62,1.62,0,0,0,.73,1,1.53,1.53,0,0,0,1.21.14,1.85,1.85,0,0,0,.84-.42,3.79,3.79,0,0,0,.62-.77l1.76.91a4.79,4.79,0,0,1-1.08,1.38A4.18,4.18,0,0,1,30.53,58.66Z"/><path class="aa" d="M38.18,56.72a4.26,4.26,0,0,1-1.57.12,3.53,3.53,0,0,1-1.34-.44,3.13,3.13,0,0,1-1-.9,3.46,3.46,0,0,1-.61-1.3,4.5,4.5,0,0,1-.09-1.79,4.8,4.8,0,0,1,.59-1.69,4.86,4.86,0,0,1,1.2-1.37,4.62,4.62,0,0,1,1.74-.84,4.06,4.06,0,0,1,1.57-.11,3.47,3.47,0,0,1,1.34.43,3.32,3.32,0,0,1,1,.91,3.71,3.71,0,0,1,.61,1.3,4.64,4.64,0,0,1,.08,1.78,4.71,4.71,0,0,1-.58,1.69,5,5,0,0,1-1.2,1.37A4.39,4.39,0,0,1,38.18,56.72Zm-.29-2a1.84,1.84,0,0,0,.85-.45,2.15,2.15,0,0,0,.55-.75,3.09,3.09,0,0,0,.25-.9,2.74,2.74,0,0,0-.06-.91,2.18,2.18,0,0,0-.28-.64,1.59,1.59,0,0,0-.46-.47,1.44,1.44,0,0,0-.62-.22,1.91,1.91,0,0,0-.74,0,2,2,0,0,0-.86.45,2.25,2.25,0,0,0-.54.75,2.63,2.63,0,0,0-.25.91,2.46,2.46,0,0,0,.05.9,2.55,2.55,0,0,0,.28.65,1.68,1.68,0,0,0,.46.46,1.59,1.59,0,0,0,.62.23A2,2,0,0,0,37.89,54.76Z"/><path class="aa" d="M42.45,47.31l2.16-.54,1.77,2.72,1.87-3.64,2.4-.6-.13,8.22L48.37,54l.07-4.72-2,3.71h0L44.5,50.3,44.43,55l-2.11.53Z"/><path class="aa" d="M51.41,51l2.17-.55,0,2.3-2.16.54Z"/><path class="aa" d="M57.12,43.56,59.21,43l3.15,7.46-2.24.56-.53-1.33-3,.75L56,52.08l-2.32.58ZM59,48.11,58.16,46l-.88,2.57Z"/><path class="aa" d="M62.66,42.22l2.91-.73a5.24,5.24,0,0,1,1.67-.19,2.64,2.64,0,0,1,1.18.33,1.87,1.87,0,0,1,.62.6,2.33,2.33,0,0,1,.36.82,2.72,2.72,0,0,1-.13,1.83,3.24,3.24,0,0,1-1.48,1.48l1.84,2.3-2.36.59-1.61-2.07-.94.23,0,2.49-2.15.54Zm3.3,3.1a2.06,2.06,0,0,0,1.09-.58,1,1,0,0,0,.23-.89.79.79,0,0,0-.33-.47,1.39,1.39,0,0,0-1,0l-1.16.29,0,2Z"/></g><g class="z"><path class="aa" d="M4.15,41.17l3.36-.84,2.76,4.24,2.92-5.67L16.93,38l-.21,12.82-3.34.84.1-7.36L10.35,50l-.07,0L7.34,45.84l-.11,7.32L3.94,54Z"/><path class="aa" d="M25.69,48.76a6.49,6.49,0,0,1-2.45.18,5.54,5.54,0,0,1-2.09-.68,5,5,0,0,1-1.6-1.41,5.66,5.66,0,0,1-.95-2A7.09,7.09,0,0,1,18.47,42a7.35,7.35,0,0,1,.91-2.63,7.9,7.9,0,0,1,1.87-2.14A7.22,7.22,0,0,1,24,36a6.47,6.47,0,0,1,2.45-.18,5.54,5.54,0,0,1,2.09.68,5.12,5.12,0,0,1,1.6,1.41,5.8,5.8,0,0,1,.95,2,7,7,0,0,1,.13,2.78,7.37,7.37,0,0,1-.92,2.63,7.58,7.58,0,0,1-1.87,2.14A7.1,7.1,0,0,1,25.69,48.76Zm-.46-3.06a3,3,0,0,0,1.34-.7,3.55,3.55,0,0,0,.86-1.17,4.61,4.61,0,0,0,.38-1.41A4.13,4.13,0,0,0,27.72,41a3.29,3.29,0,0,0-.44-1,2.47,2.47,0,0,0-.72-.72,2.23,2.23,0,0,0-1-.36,3,3,0,0,0-1.16.09,2.89,2.89,0,0,0-1.33.7,3.55,3.55,0,0,0-.86,1.17,4.36,4.36,0,0,0-.39,1.41A4.13,4.13,0,0,0,22,43.7a3.29,3.29,0,0,0,.44,1,2.29,2.29,0,0,0,1.67,1.08A3,3,0,0,0,25.23,45.7Z"/><path class="aa" d="M33,33.93l3.1-.78L40.85,39,41,31.91l3.31-.83L44.07,43.9l-2.91.74-5-6.1-.12,7.38-3.31.83Z"/><path class="aa" d="M46.36,30.56l3.88-1a8.25,8.25,0,0,1,3-.3,5.41,5.41,0,0,1,2.1.66,4.91,4.91,0,0,1,2.19,3.19,6.76,6.76,0,0,1-.79,5.23,7.31,7.31,0,0,1-2.23,2.31A11.12,11.12,0,0,1,51,42.17l-4.84,1.21Zm4.28,8.55a6.17,6.17,0,0,0,1.87-.79A4,4,0,0,0,53.77,37a3.53,3.53,0,0,0,.47-1.32,3.69,3.69,0,0,0-.07-1.44,2.63,2.63,0,0,0-.39-.91,2,2,0,0,0-.62-.59,2.54,2.54,0,0,0-1-.31,4.69,4.69,0,0,0-1.49.17l-1,.24-.11,6.52Z"/><path class="aa" d="M63.47,26.17l3.26-.82L71.64,37l-3.5.88-.83-2.08L62.67,37l-.9,2.51-3.62.91Zm2.91,7.09-1.3-3.34-1.38,4Z"/><path class="aa" d="M75.1,31.16l-4.27-6.75,3.59-.9,2.31,4.2,2.49-5.41,4-1-4.77,9.41-.07,4.58L75,36.13Z"/></g><path class="w" d="M23.56,56.88l2.17-.54,0,2.29-2.17.54Z"/><path class="w" d="M30.92,57.47a4.47,4.47,0,0,1-1.52.14,3.51,3.51,0,0,1-1.32-.39,3,3,0,0,1-1-.87A3.48,3.48,0,0,1,26.44,55a4.38,4.38,0,0,1-.09-1.77,4.8,4.8,0,0,1,.58-1.72,5,5,0,0,1,1.25-1.45,4.87,4.87,0,0,1,1.9-.91,3.58,3.58,0,0,1,2.11,0,3.17,3.17,0,0,1,1.5,1.13l-1.6,1.46a1.89,1.89,0,0,0-.79-.58,1.64,1.64,0,0,0-1,0,2,2,0,0,0-.85.44,2.33,2.33,0,0,0-.58.74,2.73,2.73,0,0,0-.29.93,2.87,2.87,0,0,0,.06,1,1.59,1.59,0,0,0,.73,1,1.57,1.57,0,0,0,1.21.15,2,2,0,0,0,.84-.43,3.24,3.24,0,0,0,.61-.77l1.76.91A4.47,4.47,0,0,1,32.7,56.6,4.07,4.07,0,0,1,30.92,57.47Z"/><path class="w" d="M38.58,55.54a4.48,4.48,0,0,1-1.57.11,3.64,3.64,0,0,1-1.34-.43,3.32,3.32,0,0,1-1-.91A3.8,3.8,0,0,1,34,53,4.68,4.68,0,0,1,34,51.22a4.73,4.73,0,0,1,.58-1.68,5,5,0,0,1,1.2-1.37,4.54,4.54,0,0,1,1.75-.85,4.25,4.25,0,0,1,1.57-.11,3.7,3.7,0,0,1,1.34.43,3.28,3.28,0,0,1,1,.91,3.46,3.46,0,0,1,.61,1.3,4.49,4.49,0,0,1,.09,1.79,4.75,4.75,0,0,1-1.79,3A4.5,4.5,0,0,1,38.58,55.54Zm-.3-2a2,2,0,0,0,.86-.45,2.28,2.28,0,0,0,.55-.76,2.72,2.72,0,0,0,.24-.9,2.44,2.44,0,0,0,0-.9,2.41,2.41,0,0,0-.28-.65,1.72,1.72,0,0,0-.46-.47,1.58,1.58,0,0,0-.62-.22,2.17,2.17,0,0,0-.75.05,2,2,0,0,0-.85.45,2.5,2.5,0,0,0-.55.75,3.15,3.15,0,0,0-.25.91,2.68,2.68,0,0,0,.06.9,2.24,2.24,0,0,0,.28.65,1.55,1.55,0,0,0,.46.46,1.45,1.45,0,0,0,.62.23A2.13,2.13,0,0,0,38.28,53.58Z"/><path class="w" d="M42.85,46.12,45,45.58l1.77,2.72,1.87-3.64,2.39-.6-.13,8.22-2.14.54.06-4.72-2,3.71h0L44.9,49.11l-.07,4.7-2.11.53Z"/><path class="w" d="M51.8,49.77,54,49.23l0,2.29-2.17.54Z"/><path class="w" d="M57.52,42.37l2.09-.52,3.15,7.45-2.25.56L60,48.54l-3,.74-.58,1.61-2.32.58Zm1.87,4.55-.83-2.14-.89,2.57Z"/><path class="w" d="M63.06,41l2.9-.73a5.31,5.31,0,0,1,1.67-.2,2.6,2.6,0,0,1,1.18.33,1.91,1.91,0,0,1,.63.6,2.71,2.71,0,0,1,.36.83,2.76,2.76,0,0,1-.13,1.82,3.22,3.22,0,0,1-1.49,1.48L70,47.47l-2.35.59L66.06,46l-1,.24,0,2.49-2.14.54Zm3.3,3.1a2.22,2.22,0,0,0,1.08-.58.92.92,0,0,0,.23-.9.79.79,0,0,0-.33-.47,1.35,1.35,0,0,0-1,0l-1.15.29,0,2Z"/><path class="w" d="M4.54,40l3.37-.84,2.76,4.25,2.92-5.68,3.74-.94-.21,12.82-3.35.84.11-7.36-3.13,5.79h-.07L7.74,44.65,7.63,52l-3.29.82Z"/><path class="w" d="M26.08,47.58a6.62,6.62,0,0,1-2.44.17,5.64,5.64,0,0,1-2.1-.68A5.09,5.09,0,0,1,20,45.66a5.66,5.66,0,0,1-.95-2,7.09,7.09,0,0,1-.14-2.79,7.44,7.44,0,0,1,.92-2.63,7.74,7.74,0,0,1,1.87-2.14,7.22,7.22,0,0,1,2.73-1.31,6.63,6.63,0,0,1,2.44-.18,5.83,5.83,0,0,1,2.1.68,5.25,5.25,0,0,1,1.59,1.42,5.51,5.51,0,0,1,.95,2,7,7,0,0,1,.14,2.78,7.37,7.37,0,0,1-.92,2.63,7.6,7.6,0,0,1-1.87,2.14A7.23,7.23,0,0,1,26.08,47.58Zm-.45-3.06A3.15,3.15,0,0,0,27,43.81a3.52,3.52,0,0,0,.85-1.17,4.46,4.46,0,0,0,.38-1.41,4.13,4.13,0,0,0-.09-1.41,3.38,3.38,0,0,0-.43-1,2.47,2.47,0,0,0-.72-.72,2.22,2.22,0,0,0-1-.35,3.24,3.24,0,0,0-2.5.78,3.52,3.52,0,0,0-.85,1.17,4.36,4.36,0,0,0-.39,1.41,4.1,4.1,0,0,0,.09,1.41,3.18,3.18,0,0,0,.43,1,2.64,2.64,0,0,0,.72.73,2.35,2.35,0,0,0,1,.35A3.17,3.17,0,0,0,25.63,44.52Z"/><path class="w" d="M33.35,32.74,36.46,32l4.78,5.89.13-7.12,3.31-.83-.21,12.82-2.92.73-5-6.1-.11,7.38-3.31.83Z"/><path class="w" d="M46.76,29.37l3.87-1a8.51,8.51,0,0,1,3-.3,5.3,5.3,0,0,1,2.1.66A4.88,4.88,0,0,1,57.91,32a6.7,6.7,0,0,1-.78,5.23,7.31,7.31,0,0,1-2.23,2.31A11.09,11.09,0,0,1,51.39,41l-4.84,1.21ZM51,37.93a6,6,0,0,0,1.86-.8,3.88,3.88,0,0,0,1.27-1.28,3.7,3.7,0,0,0,.4-2.77,2.94,2.94,0,0,0-.4-.91,1.91,1.91,0,0,0-.62-.58,2.32,2.32,0,0,0-1-.31,4.38,4.38,0,0,0-1.49.16l-1,.24-.11,6.52Z"/><path class="w" d="M63.86,25l3.26-.82L72,35.79l-3.5.88L67.7,34.6l-4.63,1.16-.9,2.51-3.62.91Zm2.92,7.1-1.3-3.35-1.38,4Z"/><path class="w" d="M75.5,30l-4.27-6.76,3.58-.9,2.32,4.2,2.49-5.41,4-1-4.77,9.41-.07,4.58-3.35.84Z"/><path class="ab" d="M23.75,18.91,3.8,23.49l3.57,2.8,12-3a5,5,0,0,1,3.07-1.84A6.38,6.38,0,0,1,23.75,18.91Z"/><path class="ac" d="M17.72,27.24a6.16,6.16,0,0,1,.37-1.75L9,27.55,12.12,30l5.7-1.35A5.65,5.65,0,0,1,17.72,27.24Z"/><path class="ad" d="M18.4,30.36l-4.71,1,2.48,1.94,4-.78A6.5,6.5,0,0,1,18.4,30.36Z"/><path class="w" d="M21.76,32.58a7.07,7.07,0,0,1-2.39.19,5.33,5.33,0,0,1-2.05-.61,5,5,0,0,1-1.59-1.37,5.48,5.48,0,0,1-1-2.07A7.29,7.29,0,0,1,14.65,26a7.56,7.56,0,0,1,.93-2.69,7.66,7.66,0,0,1,4.92-3.65,5.64,5.64,0,0,1,3.3.07,4.81,4.81,0,0,1,2.33,1.77l-2.51,2.26a3,3,0,0,0-1.22-.91,2.63,2.63,0,0,0-1.58,0,3.16,3.16,0,0,0-1.33.67,3.84,3.84,0,0,0-.92,1.16,4.38,4.38,0,0,0-.45,1.45,4.17,4.17,0,0,0,.09,1.57,2.46,2.46,0,0,0,1.12,1.65,2.41,2.41,0,0,0,1.89.23,3,3,0,0,0,1.31-.66,5.17,5.17,0,0,0,1-1.19l2.74,1.44a7.28,7.28,0,0,1-1.7,2.14A6.52,6.52,0,0,1,21.76,32.58Z"/><path class="w" d="M30.46,25.24l-4.23-6.77,3.59-.88,2.29,4.2,2.52-5.39,4-1L33.8,24.8l-.1,4.58-3.34.83Z"/><path class="w" d="M39.32,15.25l5-1.23a7.7,7.7,0,0,1,2.13-.28,4,4,0,0,1,1.49.3,2.41,2.41,0,0,1,1,.75,3.2,3.2,0,0,1,.49,1A3,3,0,0,1,49.14,18a3.84,3.84,0,0,1-1.7,1.6,3.18,3.18,0,0,1,1.53.56,2.37,2.37,0,0,1,.88,1.4,3.55,3.55,0,0,1,0,1.52,3.27,3.27,0,0,1-.72,1.41,5.59,5.59,0,0,1-1.52,1.19,9.55,9.55,0,0,1-2.35.88l-6.24,1.54ZM44.73,19A2.45,2.45,0,0,0,46,18.34a1,1,0,0,0,.25-1,.77.77,0,0,0-.5-.56,1.92,1.92,0,0,0-1.16,0l-2.08.51,0,2.23Zm.15,4.77a2.4,2.4,0,0,0,1.28-.68,1.1,1.1,0,0,0,.26-1c-.15-.62-.72-.81-1.7-.57l-2.31.57-.06,2.34Z"/><path class="w" d="M51.58,12.23l9.64-2.37-.07,3-6.32,1.56,0,1.94L60.51,15l0,2.8-5.74,1.41,0,2,6.43-1.59-.06,3-9.73,2.39Z"/><path class="w" d="M63.07,9.4l4.54-1.11a8.54,8.54,0,0,1,2.6-.3,4.06,4.06,0,0,1,1.84.53,3,3,0,0,1,1,.94,4.17,4.17,0,0,1,.56,1.29,4.27,4.27,0,0,1-.23,2.85A5,5,0,0,1,71,15.9l2.85,3.6-3.68.9-2.49-3.25-1.48.36-.08,3.89-3.35.82Zm5.12,4.86a3.28,3.28,0,0,0,1.7-.89A1.44,1.44,0,0,0,70.25,12a1.17,1.17,0,0,0-.51-.74,2.14,2.14,0,0,0-1.58-.05l-1.8.44-.07,3.1Z"/><path class="ae" d="M43.51,9.59,23.88,15.16,4.24,20.71H4.18a1.79,1.79,0,0,0-.84.41.55.55,0,0,0-.14.24.36.36,0,0,0,0,.23,1,1,0,0,0,.13.3,2.48,2.48,0,0,0,.32.35l1.1.93L9.24,27c.76.63,1.5,1.26,2.25,1.9l2.24,1.9L16,32.65l2.22,1.92a.24.24,0,0,1,0,.35.24.24,0,0,1-.33,0c-.8-.56-1.6-1.13-2.39-1.71s-1.6-1.14-2.39-1.72l-2.38-1.72L8.36,28.08,3.62,24.6,3,24.16,2.74,24l-.15-.11-.08-.06-.09-.07A3.61,3.61,0,0,1,1.74,23a2.64,2.64,0,0,1-.44-1,2.31,2.31,0,0,1,.09-1.22,2.61,2.61,0,0,1,.66-1,3.52,3.52,0,0,1,.88-.56,4,4,0,0,1,.91-.26l-.06,0,19.83-4.84L43.44,9.3a.15.15,0,1,1,.07.29Z"/><path class="ae" d="M44.78,56l1.13.77,1.11.77c.38.26.75.52,1.11.79l1.11.79,1.1.81c.36.27.73.53,1.09.81l1.09.81,1.08.82,0,0,.07,0,.06,0,.07,0h.29l.07,0,.07,0,.07,0,.06,0,.06,0,.06-.05,0,0,0-.06,0-.06,0,0,.46-.95c.15-.32.31-.64.47-1s.31-.63.48-.94.33-.63.49-.94.34-.62.52-.93l.52-.92c.18-.3.37-.6.55-.91s.38-.6.58-.89h0s0,0,0,0c-.1.34-.22.67-.34,1s-.24.67-.37,1-.25.66-.39,1-.27.65-.41,1l-.42,1c-.14.32-.29.64-.44,1s-.3.64-.45,1l-.46.95v0l-.09.13a.69.69,0,0,1-.11.13.57.57,0,0,1-.11.11l-.13.11-.14.08-.14.08-.16.06-.15,0-.16,0h-.33l-.16,0-.16,0-.15,0-.15-.07-.14-.08h0L52,62.23l-1.06-.85-1.06-.85-1-.86-1-.88-1-.88c-.35-.29-.69-.59-1-.89s-.69-.6-1-.9a.07.07,0,0,1,0-.1A.08.08,0,0,1,44.78,56Z"/></g></svg>