<svg xmlns="http://www.w3.org/2000/svg" viewBox="0 0 325.59 108.92"><defs><style>.a{opacity:0.75;}.b{fill:#914efc;}.c{fill:#fff;}</style></defs><g class="a"><path class="b" d="M1.94,94.23C3,95.65,4.73,95.76,6.39,96A5,5,0,0,0,1.94,94.23Z" transform="translate(0 -3.79)"/><path class="b" d="M6.43,96a0,0,0,0,1,0,0H6.39S6.42,96,6.43,96Z" transform="translate(0 -3.79)"/><path class="b" d="M324.27,20.07l-1.35.15A3.41,3.41,0,0,0,324.27,20.07Z" transform="translate(0 -3.79)"/><path class="b" d="M86.72,98.54l.18-2.4c3.93-.12,1.22,2.72,4.84,2,1.32-3.42,6,.23,7.25-1.59,0,.27,1.76.33,1.68,1.4.49-1.86,1.81-.47,2.92-1,.39-.52-.31-.55-.63-1.1l2.55-.7c1,.57,1.3,1.65.21,1.88,6.73.52,39,1.63,46.23.57-1-1.37-3.17-.39-4.09-2.56,1.87-1.26,2.82.37,3.62-.93.85,3.24,4.23.69,5.79,4l.49-1.86,1,1.11c8.33-2.26,1.88-1,9.35-.92,4.3-.49,6.26-3.15,8.69-2.32-.36,0-1.35-1.09-.25-1.61.25,1.61,2.93-1.3,3.53.3,1.09-.25,4.64-.22,3.36-2.37.64,1.07,3.82,1.37,2,2.42,1.07,0,2.11.29,2.86-.23l-1.39-.55c3.59-.5,5.62,1.12,7.89-1l-1.37-.81c2.15-.24,3.94-.5,4.87,1.65l-2.18.78c3.56-.23,5.71-.48,8.64-1.79h-1.06c3.71-2.36,23.46-5.13,26.84-8l-1.67-1.62,2.94-1.58c-.36,0-1.23,5.59-1.55,5,6.43-.47,39.84-3.41,45.83-2.55,2.44.82.55,2.67.53,2.94,2.89-.78,1.18-1.86,3.67-1.84.69.28-.08,1.34-.45,1.6,1.08-.25,2.11.29,2.16-.51-1.39-.55-.9-2.68-1.54-4l3.2,0-.08,1.33c.71,0,1.64-3.72,4.8-3.16,5.32.32,11-.42,16.37-.37,0,.8-1.14,1.33-2.24,1.85.71,0,1.79-.25,2.47.29-1.35-1.35,2.19-1,1.16-1.59,3.74-3.44,8.92-.72,12.25-3.09.17-2.94,4.95-50.55,4.77-54a5.81,5.81,0,0,1,2.47.29c-.32-.8-2.42-1.09-3.51-.57l-.1,1.87c-2.53.78-.66-1.08-3.14-.83-.21-1.52,2.07-2,4.08-2.2-1.82-.09-3.69-1.11-4.35.59-1.74-.55.1-1.87-2-2.42-1.44.52-3.3,2.1-5,1.29v-.27c-4.16-1.38-6.15,2.61-10,1.23l.37-.52c-1.36-.82-3.91.49-6.33-.34.69.28,1.33,1.35-.09,1.6-2.79-.82-4.62.23-6.68-.86L287,22.1c-9.56.17-47.19,4.12-56.78,4.83l.36-.26C216,28.12,186,29.46,171,32.25c-2.39-1.36-5.6-.85-8.06-1.15,1.38.55,1,1.61-.11,1.61-3.72.09-3.83.35-4,.71s-.25.86-4,1.24c-8.61,1.54-41.81.65-49.53-.45-4.07,2.25-9.27.71-13.28,2.17l.4-.52c-4.33.9-29-.61-34,.26l.68.3c-4.37,1.43-3.83-1-7.31-1.62.51,2.42-3.23,3.88-4.66,4.09l0-.53c-2.16.45-7,2.66-10.6,3.06l.1-1.33c-2.95,1.49-8.59,1-10.73,1.19C21,40.83,13.4,38.66,6.87,40.55l-4.32-3.7-.62.39S-4,83.16,4.91,92.73L4.8,94.06l1.72-.2c2.09.61,3-1,2.9.38l-2.84-.11c2.09.35.65,1.08-.13,1.85a6.7,6.7,0,0,1,2.42.64c.4-.52-.32-.54-.64-.82,1.1-.49,2.63-1.77,4-1.19,2.13.08.18,2.15,2.67,2.24C28,97.62,40.76,98.9,54,98.33c.32.55,0,.53-.42.79,4-.65,7.53-.52,11.15-1.19a4.1,4.1,0,0,1,1.63,1.94C65.72,98.78,86.38,98.26,86.72,98.54Z" transform="translate(0 -3.79)"/></g><path class="c" d="M81.1,56.36a6,6,0,0,1-1.34-.92A28.36,28.36,0,0,1,76.4,51.6a10,10,0,0,1-1.89-5.36l-.18-2.57a1,1,0,0,1,.06-.42c.12-1.22.24-2.5.42-3.72a28.27,28.27,0,0,1,.74-3.24,12.46,12.46,0,0,1,1.34-3.84,2.66,2.66,0,0,0,.18-.43c.49-1.7,1.53-3.23,2.2-4.94a5.79,5.79,0,0,1,.49-.91c1-1.52,1.82-3.05,2.68-4.57a8.39,8.39,0,0,1,1.34-1.9c1.28-1.46,2.44-3,3.72-4.45.06-.12.12-.3.24-.36,1.47-1.16,2.44-2.75,3.85-3.91.06,0,.12-.06.18-.12C93.05,10,94.27,9,95.61,8.12a10.55,10.55,0,0,1,4-1.41,3.93,3.93,0,0,1,2.86.61,7.77,7.77,0,0,1,2.63,2.44,18.28,18.28,0,0,1,2,3.91,8.83,8.83,0,0,1,.43,5.3,7.28,7.28,0,0,1-1.22,3,5.34,5.34,0,0,0-.8,1.53c-.18.3-.3.61-.48,1,0-.06,0-.06-.07-.12h-.06a.26.26,0,0,1,.13.06,1.48,1.48,0,0,1-.86.61,1.56,1.56,0,0,0-.73.79c-.12.06-.18.19-.24.25a5.32,5.32,0,0,0-1.35.67,2.93,2.93,0,0,0-.42.18.47.47,0,0,1-.31-.06.2.2,0,0,1,0-.3c.12-.19.31-.31.37-.43s-.06-.18-.06-.18a1.55,1.55,0,0,0-.92.24c-.49.12-.85-.06-.91-.55a4.35,4.35,0,0,0-.43-1.77,1,1,0,0,1,0-.91,8.12,8.12,0,0,1,.49-1c.55-1,1.16-2.07,1.77-3.11s.73-2.07,1.16-3.11a12.72,12.72,0,0,0,.48-1.34c.19-.61-.06-.86-.61-.73l-1.58.36c.24-.12.49-.3.79-.43.06-.06.18-.18.06-.3s-.12-.06-.18,0a7.37,7.37,0,0,0-4.15,2.87v-.06a2.52,2.52,0,0,0-1.1.85c-.61.67-1.22,1.34-1.89,2A12.84,12.84,0,0,0,92.81,21c-.43.61-.92,1.22-1.34,1.83a5.59,5.59,0,0,0-1.23,2.07c-.06.06-.18.12-.24.24l-.06.06c.06.06.12.06.12,0a1.31,1.31,0,0,1,.18-.3c.25-.18.49-.31.62-.43a12.66,12.66,0,0,1-1.77,3V27a1.5,1.5,0,0,1,.24-.42c-.06.12-.18.3-.24.42a2.76,2.76,0,0,0-1,1.1c-.06.12-.06.31.06.24.43-.12.55,0,.37.37a5,5,0,0,1-.86,1.1h-.24a1.62,1.62,0,0,0-.43.91,2.89,2.89,0,0,0,.43-.91h.24a7.89,7.89,0,0,1-1.4,3,2.86,2.86,0,0,0,.06-.31c0-.06,0-.18-.06-.18s-.18,0-.18,0a.54.54,0,0,0-.25.49c0,.18.13.18.25.12s.12-.06.18-.12a1.76,1.76,0,0,1-.67,1.16h-.24c-.19.54-.43,1.09-.61,1.64-.13.25-.31.49.12.61a.11.11,0,0,1,.06.18c0,.19-.06.31-.06.49,0,.73-1,1-.79,1.77a5.61,5.61,0,0,1-.37,2c-.12.67-.31,1.34-.43,2a30.39,30.39,0,0,0-.61,4.69,26.86,26.86,0,0,0,.12,3.11c0,.12.07.25.07.37.24.79.54,1,1.4.85a12.84,12.84,0,0,0,3.17-1.34,28.68,28.68,0,0,0,4-3.11,63.61,63.61,0,0,0,4.69-4.33,27.68,27.68,0,0,0,2.07-2.44,1.46,1.46,0,0,1,1.35-.55.25.25,0,0,1,.24.31c-.12.48-.18,1-.3,1.46a6.2,6.2,0,0,1,.79-.61.75.75,0,0,1,1.22.61,3.25,3.25,0,0,1-.06.79,1.52,1.52,0,0,1-.13.55,4.37,4.37,0,0,1-.18.49,6.86,6.86,0,0,0-1.58,1.71c-.61.67-1.16,1.34-1.77,2a52.94,52.94,0,0,1-6.65,6.22l-.73.73v.19a.36.36,0,0,0,.24.06,4.16,4.16,0,0,0,1.22-.8,39.62,39.62,0,0,0,6.53-6.28,20.13,20.13,0,0,0,2.74-3.84,4.37,4.37,0,0,0,.18-.49.46.46,0,0,0,.31-.12c.3-.06.49.06.37.24a5.47,5.47,0,0,1-.43,1c-.61.85-1.22,1.65-1.83,2.5a42.94,42.94,0,0,1-4.45,4.88c-.25.3-.49.61-.73.91-.13.13-.07.25.06.37a4.65,4.65,0,0,0-.67.49c-.31-.06-.55-.06-.74.18s-.48.55-.73.85-.43.55-.67.8h.06a6.94,6.94,0,0,1-1.77,1.16,11,11,0,0,1-3,1.22,8.72,8.72,0,0,1-2.5.06A12,12,0,0,1,81.1,56.36Zm4.51-22.44a.12.12,0,0,1-.24,0Zm2.87,18a9.94,9.94,0,0,0,1.09-.61c.61-.37,1.22-.79,1.83-1.22-.3.43-.61.79-.91,1.22a1.08,1.08,0,0,0-.25.18,2.21,2.21,0,0,1-.48.25,2.21,2.21,0,0,0,.48-.25l.25-.24a3.92,3.92,0,0,0,1.28-.73,47.62,47.62,0,0,0,4.76-4.46,3.06,3.06,0,0,0,.67-1c.06-.06.12-.19.24-.25a.83.83,0,0,1,.25-.24l-.25.24-.24.25a2.43,2.43,0,0,0-.86.73c-.73.67-1.4,1.34-2.07,2a4.36,4.36,0,0,1-1,.73c1.1-1.16,2.26-2.31,3.36-3.47a3.43,3.43,0,0,0,.85-1.16A5.71,5.71,0,0,0,96.1,45,58.19,58.19,0,0,1,89,51.24c-.18.18-.42.36-.61.55V52S88.48,52,88.48,52Zm.79-34.22c.06-.18.18-.36.24-.55a2.33,2.33,0,0,1-.36.43v.12Zm2,5.92c.12-.18.37-.31.37-.18a.46.46,0,0,1-.12.3,5.69,5.69,0,0,1-.55.61C91,24.22,91.1,23.91,91.22,23.67ZM92.81,49A5.44,5.44,0,0,1,91.4,50.2,4.48,4.48,0,0,1,92.81,49Zm.24-.18a.47.47,0,0,0-.24.24A.47.47,0,0,1,93.05,48.8Zm0,5.3c-.12.06-.18.19-.24.25S92.93,54.16,93.05,54.1Zm.18-5.55L93,48.8Zm0,5.31a.83.83,0,0,1-.18.24C93.11,54,93.17,53.92,93.23,53.86Zm.25-.25v.07a.77.77,0,0,1-.25.18A.44.44,0,0,0,93.48,53.61Zm.24-.18a.83.83,0,0,1-.24.18C93.54,53.55,93.66,53.49,93.72,53.43ZM94,12.81a2.09,2.09,0,0,0,1.15-.91c.07,0,.13-.06.19-.06s.12-.12,0-.12a.06.06,0,0,0-.06.06.14.14,0,0,0-.13.12,2.19,2.19,0,0,0-1.15.91,1,1,0,0,1-.25.25C93.78,13,93.84,12.87,94,12.81Zm0,40.38a.8.8,0,0,0-.25.24A.45.45,0,0,1,94,53.19Zm.42-33.42c-.06.06-.06.12-.12.18a.19.19,0,0,1-.06.12C94.27,20,94.33,19.89,94.39,19.77Zm.25-.19a1.15,1.15,0,0,1-.25.19C94.45,19.7,94.58,19.64,94.64,19.58Zm.24-.24c-.06.06-.18.12-.24.24C94.7,19.46,94.82,19.4,94.88,19.34Zm0,33.18c-.06.06-.18.12-.24.18S94.82,52.58,94.88,52.52Zm.24-33.43-.24.25A.53.53,0,0,1,95.12,19.09Zm0,33.18c-.06.06-.18.13-.24.19A.83.83,0,0,1,95.12,52.27Zm.19-33.42h.06l-.25.24C95.19,19,95.25,18.91,95.31,18.85ZM95.37,52a.53.53,0,0,0-.25.24A.53.53,0,0,1,95.37,52Zm.18-33.42a.83.83,0,0,1-.18.24h-.06A.47.47,0,0,0,95.55,18.61Zm0,33.18c-.06.06-.12.18-.18.24h-.06C95.43,52,95.49,51.85,95.55,51.79Zm.18-33.43v.12c-.06.07-.12.07-.18.13A.9.9,0,0,0,95.73,18.36Zm.07,33.18a.6.6,0,0,1-.25.25C95.67,51.72,95.73,51.6,95.8,51.54Zm1.64-35.49v.06a3.57,3.57,0,0,0,1-.61,5.87,5.87,0,0,1,1.34-.8,19.89,19.89,0,0,1-2.44,2.14,4.37,4.37,0,0,1-.85.61C96.65,16.9,97.2,16.59,97.44,16.05ZM97,50.38a.49.49,0,0,1-.24.25C96.83,50.57,96.89,50.44,97,50.38Zm0-40.31a28.14,28.14,0,0,0,3.18-1c.12,0,.18-.18.18-.24s-.12-.19-.25-.12A5,5,0,0,0,97,10.07h0Zm.25,40.07a.45.45,0,0,1-.25.24C97,50.32,97.14,50.26,97.2,50.14Zm.24-.18c-.06.06-.18.12-.24.18A.83.83,0,0,1,97.44,50Zm.25-.25a.44.44,0,0,0-.25.25A.44.44,0,0,1,97.69,49.71Zm.18-.24h.06c-.12.06-.18.18-.24.24A.83.83,0,0,1,97.87,49.47Zm.24-.25a.45.45,0,0,1-.24.25C98,49.41,98.05,49.28,98.11,49.22Zm.25-39a4.73,4.73,0,0,0,.91-.12c.79-.18,1.34-.55,1-.61a1.62,1.62,0,0,0-1.16.3,3.64,3.64,0,0,0-.79.49H98.3ZM99,13.3c.79-.24,1.52-.55,2.25-.85a.34.34,0,0,0,.31-.19c.06,0,.06-.12.06-.18s-.18-.18-.37-.18A5.26,5.26,0,0,0,98.78,13c-.12.12-.24.18-.12.3A.29.29,0,0,0,99,13.3Zm1,1.16a.47.47,0,0,0-.24.24A.47.47,0,0,1,100,14.46Zm.43-.24c-.12.06-.3.18-.43.24h-.06A4.24,4.24,0,0,1,100.43,14.22Zm.49-.25a2.27,2.27,0,0,1-.49.25C100.61,14.15,100.74,14,100.92,14Zm-.25,32.27-.24.24C100.49,46.36,100.61,46.3,100.67,46.24Zm2.81-20.44h.43c-.19.19-.37.49-.67.25C103.3,26,103.36,25.86,103.48,25.8Zm.67-.24a.47.47,0,0,1-.24.24C104,25.74,104.09,25.68,104.15,25.56Zm2-4.51a.71.71,0,0,0,.06-.31L106,21c-.12.18-.12.36,0,.3S106.1,21.11,106.16,21.05Z" transform="translate(0 -3.79)"/><path class="c" d="M113.55,57.27a3.3,3.3,0,0,1,.42-.54c1.59-2,3.24-3.85,4.82-5.8a7.56,7.56,0,0,0,.67-.91c.12-.13.19-.31,0-.43s-.3,0-.42.12a8.94,8.94,0,0,0-.68.73c-1.09,1.35-2.19,2.63-3.29,4a19.69,19.69,0,0,1-2.56,2.32.8.8,0,0,1-1.28-.07,1.93,1.93,0,0,1-.55-.73,1.24,1.24,0,0,1,.06-1,4.73,4.73,0,0,0,.67-1.35c-.18.13-.36.19-.55.31s-.36.55-.79.49c-.06-.43.3-.61.43-.92a3.73,3.73,0,0,1,.18-.43v-.12a.6.6,0,0,1-.18-.06c-.31.18-.55.43-.86.61-.48.37-.91.18-1.09-.36a2.78,2.78,0,0,1,.24-2.32A9.52,9.52,0,0,1,110.07,49a7.05,7.05,0,0,1,.67-.67,8.64,8.64,0,0,0,1.83-2.81A8,8,0,0,1,114,43.31a3.37,3.37,0,0,0,.74-2.81c0-.12-.07-.24-.07-.36a46.27,46.27,0,0,1-.48-6.47c-.06-2.62-.19-5.24-.25-7.87a44.88,44.88,0,0,1,.61-8c.12-.67.19-1.4.37-2.13A26.06,26.06,0,0,1,116.78,10a8.55,8.55,0,0,1,2.38-3,2.39,2.39,0,0,1,2.74-.19c.18.07.37.19.37.37-.06.49.24.61.55.73l.55.37a2.16,2.16,0,0,1,1.15,2.26c-.06.42-.18.85-.24,1.22-.06.18-.12.3.06.42a.22.22,0,0,0,.18-.06c.13-.18.25-.43.55-.3s.19.3.19.48v.25a14.9,14.9,0,0,0-.37,2.38,33.84,33.84,0,0,0-.3,3.47,7.79,7.79,0,0,1-.61,2.56,1.13,1.13,0,0,0,0,1.1,1.49,1.49,0,0,1-.07,1.16,2,2,0,0,0-.12,1.77,1.6,1.6,0,0,1-.18,1.16,3.29,3.29,0,0,0-.18,1.71,14.77,14.77,0,0,1,.18,1.7.38.38,0,0,0,.24.37c.13.12.31,0,.37-.12.73-1,1.71-1.83,2.38-2.87a36.49,36.49,0,0,1,2.74-3.41,4.2,4.2,0,0,0,1.89-2.44,16.88,16.88,0,0,1,2.26-3.6,19.88,19.88,0,0,0,1.16-1.89A7.27,7.27,0,0,1,135.87,14a6.78,6.78,0,0,0,.67-1,21.45,21.45,0,0,1,2-2.81c1.1-1.22,1.28-1.22,2.62-.3.55.36,1,.67,1,1.4a1.33,1.33,0,0,0,.73,1c1.47.91,1.59,2.25,1.22,3.72-.06.36-.18.67-.24,1s-.31.67,0,.8.42-.31.61-.49a.26.26,0,0,1,.3-.06c0,.06.06.12.06.24a7.84,7.84,0,0,0-.3,1.71,1,1,0,0,1-.31.55,1.9,1.9,0,0,0-.61,1.46c.07.37-.18.67-.3,1-.37.67-.73,1.28-1.1,1.89a66.59,66.59,0,0,1-4,5.85c-1,1.47-1.95,3-3.05,4.39-2.08,2.63-4.15,5.31-6.22,8-.61.8-1.41,1.53-2,2.38-1.52,2.14-3.41,4-4.94,6.1a36.2,36.2,0,0,1-2.62,2.81c-.73.85-1.46,1.64-2.26,2.5a4.54,4.54,0,0,1-.79.79.86.86,0,0,1-.18.12.2.2,0,0,1,0-.3c.91-1.1,1.83-2.2,2.8-3.24.8-.91,1.59-1.82,2.38-2.68a4.45,4.45,0,0,0,1.16-2,2.55,2.55,0,0,0-1,.85c-1.83,2.08-3.6,4.15-5.43,6.28l-1.41,1.41a1.05,1.05,0,0,1-.85.3A.34.34,0,0,1,113.55,57.27Zm2-10.91c.06,0,.12-.06.18-.12v-.07c0-.12-.06-.06-.12,0a.23.23,0,0,1-.06.19.45.45,0,0,1-.25.24A.45.45,0,0,0,115.56,46.36ZM122.27,26l-.06.06.06.06Zm1.34,18.84c.3-.12.49-.42.73-.73.37-.49.67-1,1.1-1.46a37.24,37.24,0,0,0,3.23-4.21,10.76,10.76,0,0,0,.79-1.1,4.56,4.56,0,0,0-1.52,1.28,19.56,19.56,0,0,1-1.34,1.77,46.91,46.91,0,0,0-3,3.84,1.25,1.25,0,0,0-.24.49.19.19,0,0,0,.06.12C123.49,44.83,123.55,44.89,123.61,44.83Zm.61,2.56c.55-.61,1-1.15,1.52-1.76.92-1.16,1.83-2.32,2.75-3.42,1.83-2.2,3.41-4.51,5.18-6.71a22.28,22.28,0,0,0,1.53-2c1.16-1.71,2.5-3.23,3.6-5a37.13,37.13,0,0,1,2.31-3.17c.06-.13.13-.31.19-.43s-.06-.06-.13-.12c-.36.42-.79.85-1.15,1.28a2.66,2.66,0,0,0-.43.55c-1.22,1.4-2.2,3-3.29,4.45-2.44,3.29-4.94,6.52-7.45,9.76-1.7,2.07-3.35,4.14-5.06,6.22a1.27,1.27,0,0,0-.3.49c-.06.06,0,.12,0,.18a.21.21,0,0,0,.3.06A2,2,0,0,0,124.22,47.39Zm6.65-12.13c-.06.06-.19.12-.25.24A.83.83,0,0,0,130.87,35.26Zm.67-8.36a3.2,3.2,0,0,0,.24-.49,2.6,2.6,0,0,0,.73-.91,2.54,2.54,0,0,0-.73,1l-.36.37V27C131.48,27,131.54,27,131.54,26.9Z" transform="translate(0 -3.79)"/><path class="c" d="M145.57,57.7a6.83,6.83,0,0,1-2.44-3.41c-.24-.86-.43-1.71-.67-2.63a1.26,1.26,0,0,1,0-.67c0-.61.36-.79.91-.55a.31.31,0,0,1,.19.13,6,6,0,0,0,3.66.79,12.68,12.68,0,0,1,2.13-.12,5.75,5.75,0,0,0,1.65-.49c.55-.18,1.16-.43,1.77-.61a23.65,23.65,0,0,0,4.87-2.32c.49-.3.92-.55,1.41-.79a5.71,5.71,0,0,0,1.64-1,1.6,1.6,0,0,1,.49-.36,13.46,13.46,0,0,0,3.42-2.38c1-.92,2-1.83,2.86-2.87,1.22-1.46.68-1.65-.67-2A19,19,0,0,0,163,38a27.74,27.74,0,0,0-3.11.37c-.67.12-1.28.24-2,.3a11,11,0,0,1-2.5.12c-1.83,0-1.89-.12-2.5,1.71l-1.1,3.42c.06.85-1.28,1-.91,1.95.24.79-.19,1.52-.31,2.26a2.7,2.7,0,0,1-.12.67,1,1,0,0,1-.31.61,5.29,5.29,0,0,1-1.76,1.09c-.19.13-.37,0-.37-.24-.06-.06,0-.18,0-.24a.32.32,0,0,0-.37-.37,2.11,2.11,0,0,0-.85.12c-.55.25-.79.19-1.1-.3a12.65,12.65,0,0,1-.55-1.28,1.86,1.86,0,0,0-.91-1.22,2.61,2.61,0,0,1-1.34-2.2,5.73,5.73,0,0,1,.24-3.23,7.83,7.83,0,0,0,.61-2.07,9.62,9.62,0,0,1,.67-2.14c.61-1.71,1.28-3.35,1.89-5.06.18-.55.31-1,.49-1.59.12-.24.18-.55.31-.85,1-2.32,2-4.64,3-6.89.25-.55.49-1,.8-1.59.67-1.4,1.34-2.74,2.13-4.08.43-.61.92-1.22,1.4-1.83a2,2,0,0,0,.49-1.29c0-.18-.12-.3-.3-.24a5.2,5.2,0,0,0-.92.24c-.24.07-.49.07-.79.13a.38.38,0,0,1-.49-.13c-.06-.24.12-.36.31-.42l.54-.19A44.56,44.56,0,0,1,163.74,11c1-.12,2-.18,2.93-.3l.12-.12c0-.06-.06-.19-.12-.19a6,6,0,0,0-1.46-.12,29.76,29.76,0,0,0-7.69,1.16,37.51,37.51,0,0,0-4.94,1.71,3.46,3.46,0,0,1-.73.24c-.85.12-1.4-.49-1.16-1.22a.86.86,0,0,0-.12-.85,1.78,1.78,0,0,1,.18-2.56,5.2,5.2,0,0,1,1.41-1A49.19,49.19,0,0,1,158,5.31c1-.36,2.13-.73,3.17-1A9.9,9.9,0,0,1,162.4,4,43.41,43.41,0,0,1,168,3.79a10.49,10.49,0,0,1,3.11.48,8.78,8.78,0,0,1,5.19,4.58,28.83,28.83,0,0,1,2.19,6.34c.25.92.13,1.83.37,2.75.37,1.34-.18,2.5-.43,3.72a1.61,1.61,0,0,1-.55.73,6.05,6.05,0,0,1-.67.67c-.06.12-.12.24.06.3a1,1,0,0,0,.31-.12,3.49,3.49,0,0,1-.92,1.41c-.06-.43-.18-.55-.42-.31a2.72,2.72,0,0,0-.61.61c-.13.12-.13.3,0,.37s.18,0,.3,0a8.45,8.45,0,0,1-3,3.23.43.43,0,0,0-.67-.12,2.06,2.06,0,0,0-.55.42,5.6,5.6,0,0,1-1.4,1.34l-.49.49v.19c.06.06.19.12.25.06a3.94,3.94,0,0,0,1.22-1,3.66,3.66,0,0,1,1.4-1.16,6.54,6.54,0,0,1-1.28,1.65,12,12,0,0,1-.86.91.67.67,0,0,0,0,.67,8.52,8.52,0,0,0,.61.68A7.22,7.22,0,0,1,172.71,35a27.84,27.84,0,0,1,1.83,5,7,7,0,0,1,.18,3.72.76.76,0,0,0,.25.86,1,1,0,0,1,.12,1.1,9,9,0,0,1-.92,1.7,2,2,0,0,0-.48.92,2,2,0,0,1-1.22,1.58c0-.42-.13-.54-.37-.36-.85.49-1.71,1-2.56,1.58a48.73,48.73,0,0,1-9.64,5.25,27.14,27.14,0,0,1-3.72,1.52,4.53,4.53,0,0,0-1.16.68,2.06,2.06,0,0,1-1,.3,10.26,10.26,0,0,0-2.44.31,1.74,1.74,0,0,1-.8.18A8.84,8.84,0,0,1,145.57,57.7Zm8.11-4.57A38.2,38.2,0,0,0,160,50.08c.31-.19.55-.43.86-.61.06-.06,0-.12,0-.19s-.12-.06-.19,0h-.12a42.61,42.61,0,0,1-9.39,3.91c-.49.12-1,.36-1.52.55l-.07.06c.07.06.13.12.19.12a.45.45,0,0,0,.3.06A18.48,18.48,0,0,0,153.68,53.13Zm-2-9.94a.2.2,0,0,0-.12-.07h-.06a.56.56,0,0,0-.25.49c0,.12.06.19.12.12A.62.62,0,0,0,151.67,43.19Zm.3,14.57a19.1,19.1,0,0,0,5-1.16,43.79,43.79,0,0,0,6.47-3.05,4.37,4.37,0,0,1,.91-.48A26.56,26.56,0,0,0,167,51.24a.13.13,0,0,0,.12-.13.36.36,0,0,0,.06-.24.3.3,0,0,0-.18-.06,16.85,16.85,0,0,0-1.89,1,63.68,63.68,0,0,1-8.66,4,18.46,18.46,0,0,1-3.66,1.1,7.44,7.44,0,0,0-1.1.36c-.06.07-.18.19-.12.31a1.31,1.31,0,0,0,.3.18Zm1-3.47a27.81,27.81,0,0,0,6.22-2.63,2.22,2.22,0,0,0,.73-.61,3.57,3.57,0,0,0,.49-.24,1.71,1.71,0,0,1-.49.24,4.63,4.63,0,0,0-1.52.55c-.67.31-1.41.61-2.14.92-1.16.42-2.38.85-3.53,1.28l-1,.36a.34.34,0,0,0-.12.19c.06.06.12.12.18.12ZM152.89,10a37.3,37.3,0,0,1,6.22-2.26,43.68,43.68,0,0,1,6.22-1.16,4.73,4.73,0,0,0,.91-.12c.07,0,.13-.12.13-.18s-.06-.12-.13-.12c-.3-.07-.61-.07-1-.13-.86.13-1.83.19-2.75.31a34,34,0,0,0-9.15,2.93c-.36.18-.79.48-1.15.67a.7.7,0,0,0-.19.12c-.06.06-.06.18-.12.24s.12.06.18.06C152.34,10.25,152.64,10.13,152.89,10Zm-.25.91a.88.88,0,0,0,.43-.12,40.42,40.42,0,0,1,10.31-3.11,12,12,0,0,0,1.34-.31.8.8,0,0,0-.61-.12,10.31,10.31,0,0,0-2.44.25,36.87,36.87,0,0,0-8.42,2.74l-.73.37c-.06.06-.18.18-.06.3S152.58,11,152.64,10.92Zm5.07,46.9c.54-.18,1-.3,1.58-.48a5.91,5.91,0,0,1-3,1.09A4.41,4.41,0,0,1,157.71,57.82Zm.18-26.47a1,1,0,0,0-.73.25c-.06,0-.06.12-.06.18s.12.06.18.06A1,1,0,0,0,157.89,31.35Zm.67-5.3v0Zm.49,4.82c0-.07.06-.13.06-.19s-.18-.06-.31,0-.12.12-.06.19S158.93,30.93,159.05,30.87Zm.49-4.09c.18-.18.36-.31.54-.49a17.89,17.89,0,0,1,1.59-1.52,37,37,0,0,0,4-3.54,5.27,5.27,0,0,1,.55-.43,10.56,10.56,0,0,0,2.69-3c.61-.85,1.16-1.83,1.83-2.68a6.8,6.8,0,0,0,.61-1.1.45.45,0,0,0-.19-.67,2,2,0,0,0-.55-.24,11.59,11.59,0,0,0-4.08-.61,7.49,7.49,0,0,1-1.16,0c-.18,0-.37,0-.43-.06a.94.94,0,0,0-1.28-.12,1,1,0,0,1-.42.06.64.64,0,0,0-.86.12,3.83,3.83,0,0,1-1.1.36,6.17,6.17,0,0,0-.91.25c-.61.24-.73.55-.18,1a2.51,2.51,0,0,1,.91,2.57,11.57,11.57,0,0,1-.37,1.46v.49a.06.06,0,0,0,.07.06h.06a4.48,4.48,0,0,0,.36-.73,4.85,4.85,0,0,0,.25-.43l.12-.06c0,.06.12.12.06.18-.37,1.28-.73,2.56-1.1,3.9a5,5,0,0,0-.36,1.35,8.22,8.22,0,0,1-.86,2.92,2.36,2.36,0,0,0-.24.55c-.06.19-.06.31.06.43A.37.37,0,0,0,159.54,26.78Zm1.58,29.88V56.6a3.5,3.5,0,0,1-1.89.74A4.5,4.5,0,0,1,161.12,56.66Zm-.91-36.89a.2.2,0,0,1,.18-.07c.06-.06.12-.12.06-.12s-.06,0-.12.06-.06.06-.12.13L160,20V20C160.08,20,160.15,19.83,160.21,19.77Zm2.07,36.41a1.73,1.73,0,0,1-1.16.42v.06A2.81,2.81,0,0,1,162.28,56.18Zm.49-.25c-.18.06-.31.19-.49.25A3.68,3.68,0,0,1,162.77,55.93Zm.43-.24h.06a2.36,2.36,0,0,1-.55.24A1.32,1.32,0,0,0,163.2,55.69Zm1.15-.67a1.88,1.88,0,0,1-1.09.67A3.17,3.17,0,0,1,164.35,55Zm0-27.63a1.11,1.11,0,0,0,.8-.49v-.06a.19.19,0,0,0-.12-.06,1.67,1.67,0,0,0-.68.61.83.83,0,0,1-.18.24A.83.83,0,0,0,164.35,27.39Zm.49,27.38a3.15,3.15,0,0,1-.49.25C164.54,55,164.66,54.83,164.84,54.77Zm1.4-.67a2.29,2.29,0,0,1-1.4.67A6.67,6.67,0,0,1,166.24,54.1Zm0-28.3c.07-.06.13-.18.25-.24s.12-.18.24-.24a1.46,1.46,0,0,0,.19-.25.6.6,0,0,1-.25.25c-.06.06-.12.18-.18.24a.53.53,0,0,0-.25.24.49.49,0,0,0-.24.25A1,1,0,0,1,166.24,25.8Zm.43,28.06h.06a2.36,2.36,0,0,0-.55.24A4.24,4.24,0,0,1,166.67,53.86Zm.25-7.87c.06-.12.18-.18.24-.24l-.24.24c-.19.06-.49.06-.49.37C166.67,46.36,166.79,46.11,166.92,46Zm-.19,7.87a5.73,5.73,0,0,1,1.83-1.16c-.36.79-1.1,1-1.89,1.16Zm5.55-3.72a8.63,8.63,0,0,1-3.72,2.56A22.13,22.13,0,0,1,172.28,50.14Zm.25-.25-.25.25A1,1,0,0,1,172.53,49.89ZM173,28.55a.47.47,0,0,1-.24.24C172.77,28.73,172.89,28.67,173,28.55Zm1.65-2.32a.83.83,0,0,0,.18-.24l.06.06a.47.47,0,0,0-.24.24l-.43.18v.13c.06.06.12.12.19.06A3.44,3.44,0,0,1,174.6,26.23Zm.12,18.85V45l-.06.06Zm1.47-20a1.46,1.46,0,0,1-.19.25h-.06A.6.6,0,0,0,176.19,25.07Zm.48-.42c-.18.12-.3.3-.48.42C176.37,25,176.49,24.77,176.67,24.65Z" transform="translate(0 -3.79)"/><path class="c" d="M183.81,55.69a4.59,4.59,0,0,1-2.13-1.83,7.93,7.93,0,0,0-1.47-2,5,5,0,0,1-1.09-2,3.31,3.31,0,0,1-.06-1.4A17.33,17.33,0,0,1,180.15,45c.43-.91.8-1.83,1.16-2.74A49.77,49.77,0,0,1,183.69,37c1-2.14,1.95-4.27,2.75-6.47a7.55,7.55,0,0,1,.61-1.28,20,20,0,0,0,1-2A19,19,0,0,1,190,23.91a12.84,12.84,0,0,0,1.1-2.07c.55-1,1-2.14,1.71-3.17a4,4,0,0,0,.49-1.16,1.87,1.87,0,0,1,.55-1.1c.24-.24.12-.49-.19-.55s-.3-.06-.49-.12a1,1,0,0,1-.79-1,1.1,1.1,0,0,1,.67-1.15,2,2,0,0,1,.67-.13l1.59-.18a1.28,1.28,0,0,0,.79-.18c.06,0,.12-.12.12-.18s-.12-.13-.18-.13a2.27,2.27,0,0,0-1.1,0,17.56,17.56,0,0,1-1.77.13c-.06,0-.18-.07-.18-.13a.19.19,0,0,1,.18-.18,1.4,1.4,0,0,1,.49-.06l2.08-.18c.24,0,.55-.06.79-.06a.53.53,0,0,0,.37-.31c.06-.12-.07-.24-.43-.24-.67,0-1.34.06-2.07.06-.37,0-.74.06-1.16.06a.57.57,0,0,1-.61-.73A1.88,1.88,0,0,1,194,9.64a5.66,5.66,0,0,1,1-.06c.79-.06,1.58-.06,2.44-.18.18,0,.36-.06.54-.06q3.12.09,6.22,0a17.42,17.42,0,0,0,1.77,0,22.57,22.57,0,0,1,5.37.67,3,3,0,0,1,2.07,1.89c.13.24-.12.49-.36.49a6.68,6.68,0,0,1-1.16-.19,20.2,20.2,0,0,0-6-.67h-4.76c-.61.06-1,.19-.85.37.18.36.55.24.79.24h7c1.28.06,2.56.19,3.84.37a9.38,9.38,0,0,1,1.22.36c.12.07.24.13.12.25s-.18.36.06.49a1.71,1.71,0,0,1,.79,1.34c.06.67-.12.91-.73.85a16.88,16.88,0,0,1-1.83-.24,29.73,29.73,0,0,0-6.58-.43c-.86,0-1.71.06-2.57.12a2.28,2.28,0,0,0-.67.12c-.12.07-.24.13-.24.25s.18.24.3.24h1.16c1.65,0,3.3,0,5,.06a30.15,30.15,0,0,1,3.42.19,8.45,8.45,0,0,1,2.13.48c.13.07.25.13.25.25s-.06.18-.12.24a2.94,2.94,0,0,1-2,.49c-2.07-.24-4.14-.24-6.22-.3.06-.25.31-.19.43-.19a15.17,15.17,0,0,1,1.65.06,7.43,7.43,0,0,0,1.7,0c.07-.06.13-.12.13-.18a.13.13,0,0,0-.13-.12.22.22,0,0,0-.18-.06,35.6,35.6,0,0,0-6.28,0,3.51,3.51,0,0,0-.79.12c-.06,0-.06.12-.13.18s.13.12.19.12h.91a4.08,4.08,0,0,1,.92.07,2.85,2.85,0,0,1-1.41.3,1.74,1.74,0,0,0-1.83,1.34c-.54,1.77-1.15,3.6-1.64,5.43,0,.12-.06.24-.06.37a.57.57,0,0,0,.61.67,25.59,25.59,0,0,1,3,.18,14.54,14.54,0,0,1,1.59.24,4.14,4.14,0,0,1,2,1.1,1.61,1.61,0,0,1,.55.73,4.61,4.61,0,0,0,1.22,1.83c.12.12.19.25.31.37a1.47,1.47,0,0,1,.3,1.4c-.06.18-.06.37-.12.55a.56.56,0,0,0,.18.61c.19.12.37.24.31.49s-.25.3-.37.43a1.48,1.48,0,0,1-1.1.24l-.91-.18a7.92,7.92,0,0,0-3-.06,10.79,10.79,0,0,1-2.44.3,10.26,10.26,0,0,0-1.34.18,9.83,9.83,0,0,1-3,.31,1.6,1.6,0,0,0-1.89,1,1.26,1.26,0,0,1-.24.36c-.06,0-.06-.24-.19-.06.07,0,.13.06.19.06a1.65,1.65,0,0,1-.49,1.16.49.49,0,0,0-.06-.31c-.06-.12-.25-.06-.31.07a8.1,8.1,0,0,0-.42.79c-.43,1.16-.8,2.32-1.22,3.48-.31.73-.67,1.52-1,2.25a12.42,12.42,0,0,0-.73,2.62c-.06.19.12.25.3.19a.28.28,0,0,1,.31,0c.24.49.61.42,1,.3.86-.18,1.65-.3,2.51-.55a12.94,12.94,0,0,1,3.41-.48,6,6,0,0,1,2.07.36,2.13,2.13,0,0,1,1.41,1.1,2,2,0,0,0,1,.79,3,3,0,0,1,2,2.14,5.16,5.16,0,0,0,.61,1.22.6.6,0,0,1-.18,1,1.73,1.73,0,0,1-1.1.31,13.36,13.36,0,0,0-4.08.79c-.49.18-1,.3-1.47.43-.24.12-.55.18-.85.3a3.4,3.4,0,0,1-1.1.37,1.24,1.24,0,0,0-.67.18,6.43,6.43,0,0,1-2.07.92c-.49.18-1,.36-1.41.54a13.08,13.08,0,0,1-1.58.49,6.3,6.3,0,0,0-1.34.37,4.43,4.43,0,0,1-2.5.18A13.29,13.29,0,0,1,183.81,55.69ZM193.08,39a2.46,2.46,0,0,1-.24,1.1,3.49,3.49,0,0,0-.31.36A3,3,0,0,1,193.08,39Zm1-2.32H194a5.74,5.74,0,0,1-.92,2.32A4.67,4.67,0,0,1,194.06,36.66Zm5.55-17.26.06-.06-.12.06Zm.43-.85M210,13a.13.13,0,0,0,.12-.13c0-.06-.06-.18-.12-.18a7,7,0,0,0-1.1-.18c-2.5-.12-4.94-.06-7.38,0a.82.82,0,0,0-.37.06.13.13,0,0,0-.12.12c-.06.12.06.25.19.25a4.61,4.61,0,0,0,.91,0c1.22,0,2.38-.07,3.6-.13l2.62.19Zm.79,4.08V17l-.06.06Z" transform="translate(0 -3.79)"/><path class="c" d="M244.32,55.69a13,13,0,0,1-2.56-1.53.38.38,0,0,0-.43,0,1,1,0,0,1-.61-.3,2.92,2.92,0,0,0-1.89-1,20.72,20.72,0,0,1-5.37-2,.22.22,0,0,0,.18-.06c.06-.06.06-.18,0-.18s-.12-.13-.18-.06a.21.21,0,0,0-.06.12.36.36,0,0,0,.06.24c-.36-.12-.73-.18-1.1-.3-.12-.06-.3-.13-.3-.19.06-.73-.61-.73-1-.85-.73-.31-1.46-.49-2.19-.73-.43-.12-.92-.37-1.34-.06a.59.59,0,0,1-.55,0,9,9,0,0,1-2.14-1.16,1.22,1.22,0,0,0-.79.67,7.08,7.08,0,0,0-.67,1.58,14.35,14.35,0,0,1-1.53,4.21c-.06.06,0,.12,0,.19a.2.2,0,0,0,.25,0c.12-.13.3-.25.42-.37a2.79,2.79,0,0,1-.73,1.22.64.64,0,0,1-.85.3c-.31-.12-.55.19-.86.25-.48.12-.91.18-1.22-.31a.69.69,0,0,0-.79-.3,1,1,0,0,1-1-.49,2.55,2.55,0,0,1-.74-1.65c-.06-.36-.12-.61-.48-.73a2.32,2.32,0,0,1-1.16-1.89,4.66,4.66,0,0,1,.06-1.58,24.68,24.68,0,0,1,2.07-6c.55-1.16,1-2.38,1.65-3.54a1.11,1.11,0,0,0,.12-.43,26.82,26.82,0,0,1,2-5.3c.49-1.28.92-2.63,1.47-3.91.49-1,1-2,1.46-3.05,1-2.43,2.44-4.63,3.66-6.95a16.77,16.77,0,0,1,.92-1.46,3.46,3.46,0,0,0,.36-.49c.18-.3.06-.55-.3-.73-.13-.06-.25-.06-.43-.12a2.76,2.76,0,0,1,.61-.19c.06-.06.12-.12.12-.18a.13.13,0,0,0-.12-.12.78.78,0,0,0-.37-.06c-2.19.12-4.39.42-6.52.73l-1.53.18h-.55c-.12-.06-.24-.12-.24-.24s.06-.18.12-.18a1.57,1.57,0,0,1,.55-.13c1.59-.12,3.11-.42,4.64-.61s3-.36,4.45-.42a2.39,2.39,0,0,0,1.16-.19.22.22,0,0,0,.12-.3c0-.06-.12-.12-.18-.12a1.09,1.09,0,0,0-.43-.06A45.79,45.79,0,0,0,220.53,16a3.82,3.82,0,0,1-1.46.13c-.67-.06-1.1-.55-.67-1.22.06-.06.06-.13.12-.19s.18-.36,0-.61a1.06,1.06,0,0,1,.24-1.46,2.36,2.36,0,0,1,.92-.55A22.08,22.08,0,0,1,225,10.5c.13,0,.31-.07.43-.07a9,9,0,0,0,2.87-.42,8.31,8.31,0,0,1,2.5-.37c1.58-.06,3.17-.18,4.75-.24a13.56,13.56,0,0,1,1.59.06,38.32,38.32,0,0,1,4.7.73,11.74,11.74,0,0,1,7,4.15,10,10,0,0,1,2.07,4,32,32,0,0,1,.8,4.88,17.21,17.21,0,0,1-.13,3.6,2.62,2.62,0,0,1-.24.92,15.65,15.65,0,0,1-2.19,3.53,8.27,8.27,0,0,0-1.71,2.14c-.19.42-.67.61-1.1.85a.55.55,0,0,0-.37.61,17.56,17.56,0,0,1-1.7,1.4,11.13,11.13,0,0,0-2.2,2,4.4,4.4,0,0,1-1.4,1c-.25,0-.31.06-.25.25a10.58,10.58,0,0,1-.91.67v.06H239V40.2c-.24.12-.55.18-.79.3s-.18.25.12.43h-.06a2.35,2.35,0,0,1-1.83.73c-.37-.06-.49.06-.55.55,0,.3-.37.55-.18.91s.55.37.85.55A49.44,49.44,0,0,0,241.82,46a3.56,3.56,0,0,1,1.4.79,4,4,0,0,0,1.34.92,10.18,10.18,0,0,1,1.95,1.22,2.78,2.78,0,0,1,1.1,1.95c.06.24-.06.43-.37.49s-.42.24-.42.55a5.15,5.15,0,0,0,.36.85,2.51,2.51,0,0,1,.31,1.22c0,.49-.31.79-.79.67a4.93,4.93,0,0,1-.8-.18c-.18-.06-.42-.31-.55-.06s.25.36.37.55.18.12.31.18.67.3.6.61-.54.24-.85.3A2,2,0,0,1,244.32,55.69ZM222.48,13c1.1-.19,2.14-.37,3.24-.49a55.52,55.52,0,0,1,9.57-.49,21.09,21.09,0,0,1,2.75.12c.67.12,1.28.12,2,.19-.12-.37-.43-.31-.61-.37a26.88,26.88,0,0,0-4.94-.55,57.25,57.25,0,0,0-10.13.85c-.79.13-1.52.31-2.31.49a1.61,1.61,0,0,1-.13.19c.06,0,.13.06.19.06S222.36,13,222.48,13Zm.31,40.43v.06c-.06.12-.18.31-.25.43C222.61,53.8,222.67,53.61,222.79,53.43Zm0,0v0Zm6.77-40.56c2.19-.18,4.45-.12,6.71-.42-.19,0-.31-.06-.49-.06a45.89,45.89,0,0,0-6,0,46.75,46.75,0,0,0-5.85.73l-.86.18c-.06.06-.12.06-.12.12a.19.19,0,0,0,.06.12C225.17,13.3,227.36,13.06,229.56,12.87Zm13.66,40.32c0-.06-.06-.12-.06-.19a4.69,4.69,0,0,1-.61-.36c-2.62-1.28-5.31-2.5-8.05-3.54-1.1-.36-2.2-.85-3.23-1.22-1.65-.61-3.3-1.22-4.94-1.77a.59.59,0,0,0-.55,0c-.06,0-.06.13-.06.19.12.24.42.3.61.42A40.85,40.85,0,0,0,231,48.55c3.11,1.1,6.16,2.26,9.21,3.54.67.31,1.34.67,2,.91a3.25,3.25,0,0,0,.86.31C243.1,53.31,243.16,53.25,243.22,53.19Zm-16-9.7-.06.06.06.06Zm1.28,5.73.06.06Zm.12.06h0Zm1.22.43a.06.06,0,0,1,.06.06A.06.06,0,0,0,229.86,49.71Zm.13.06h0Zm1.4-14.45a15.57,15.57,0,0,0,3.53-2L236.57,32c1.16-.85,2.38-1.7,3.48-2.68a30.4,30.4,0,0,0,4-3.9c.67-.86,1.4-1.65,2.08-2.5a3.83,3.83,0,0,0,.42-.55c.37-.67.37-.92-.24-1.53a10.94,10.94,0,0,0-3.05-2.07c-.79-.31-1.59-.55-2.38-.85a7.34,7.34,0,0,0-3.05-.67c-.18,0-.49,0-.49-.13-.18-.3-.42-.3-.73-.24-1.22.18-1.34.3-1,1.58a2.37,2.37,0,0,1-.06,1.35,23.08,23.08,0,0,1-.73,2.31c-.06.13-.06.31,0,.31s.18,0,.25-.12.3-.55.48-.8a.42.42,0,0,1,.37-.24.36.36,0,0,1,.18.49,4.11,4.11,0,0,1-.36,1.22,2.05,2.05,0,0,0-.37,1c-.06.55-.49.92-.49,1.35,0,.67-.48,1-.67,1.46a1.58,1.58,0,0,1-.12,1,14.1,14.1,0,0,0-.61,1.46c-.3.61-.49,1.34-1.28,1.59l-.06.06c-.06.12-.18.3,0,.42s.24.43.12.67c-.37.74-.73,1.41-1.1,2.08a4.8,4.8,0,0,0-.3.85.36.36,0,0,0,.42.43C231.27,35.38,231.33,35.32,231.39,35.32Zm.06-2.81a.87.87,0,0,0,.12-.42c-.06.12-.18.24-.24.36a.08.08,0,0,0,0,.12C231.39,32.63,231.45,32.63,231.45,32.51ZM236,47H236a1.93,1.93,0,0,0-1.16-.49,1.58,1.58,0,0,0-1.16-.43,3.62,3.62,0,0,0-1.58-.85c-.06,0-.12.06-.18.06s0,.18.06.18a4.3,4.3,0,0,0,1.7.61,2.07,2.07,0,0,0,1.16.43A2.21,2.21,0,0,0,236,47Zm6.71,2a3.38,3.38,0,0,0-1-.61c-1.53-.73-3.12-1.4-4.64-2.07-1.28-.55-2.56-1.1-3.84-1.59a1.88,1.88,0,0,0-.55-.12c-.06,0-.18.06-.18.12s0,.18.06.18a6.31,6.31,0,0,0,1,.49c2.44,1,4.88,2.07,7.26,3a12,12,0,0,0,1.52.61A.31.31,0,0,0,242.73,48.92ZM234,24.34l-.06-.06a.13.13,0,0,0-.12.12l.06.06C234,24.4,234,24.34,234,24.34Zm4.76-8.48.06-.06c0-.06,0-.18-.06-.18a1.37,1.37,0,0,0-.61-.25c-1-.18-2-.3-2.93-.48-.31.06-.49.06-.73.12-.06,0-.12.12-.12.18a.22.22,0,0,0,.06.18c.12.07.24.07.3.13l3.66.36ZM236,51.6c-.24-.06-.49-.18-.73-.24h0a3.46,3.46,0,0,1,.73.24,3.62,3.62,0,0,0,1.47.55A2.31,2.31,0,0,0,236,51.6Zm1.16-4.21h-.06l.06.07.43.18A1.37,1.37,0,0,1,237.18,47.39Zm1.34-6.7a.83.83,0,0,1-.18.24h-.06C238.4,40.87,238.46,40.75,238.52,40.69Zm.49-.19-.49.19Zm0-.24h.49a4.37,4.37,0,0,0-.49.18Zm.31,8.11h0Zm1.34-9.09-.25.25Zm3.54,10.49-.07-.06-.48-.18a3.54,3.54,0,0,1,.48.24Z" transform="translate(0 -3.79)"/><path class="c" d="M63,108.74l.18-.55c.06-.18.06-.37-.12-.43s-.36,0-.49.19a2.71,2.71,0,0,1-.42.67.79.79,0,0,1-1.41.06,1.1,1.1,0,0,1-.36-.8c-.06-.3-.12-.61-.19-.91s-.18-.24-.36-.12c-.73.49-1,.42-1.53-.25a2.74,2.74,0,0,1-.48-1.83c.18-1.76,0-3.53.3-5.3.18-1,.24-2.08.49-3.11a1.75,1.75,0,0,0,.06-.55c.12-2.38.55-4.76.79-7.14.06-.36.12-.67.19-1a3.56,3.56,0,0,0,0-1.59,1.5,1.5,0,0,0-1,1,5.57,5.57,0,0,1-.79,1.58,7.61,7.61,0,0,1,.85-2.25,16.21,16.21,0,0,0,1.22-3.3v0A3.43,3.43,0,0,0,59,84.22c-.36.79-.73,1.53-1,2.32-1.71,4-3.36,8-4.94,12-.92,2.2-1.71,4.39-2.5,6.59-.37.92-.61,1.77-.92,2.68a1.69,1.69,0,0,1-.79,1h-.31c-.06-.06-.12-.24-.06-.31,0-.3.13-.54.13-.79,0-.06-.07-.18-.13-.18s-.18,0-.18.06a7,7,0,0,0-.61.79c-.3.49-.67.49-1.1.12a1.52,1.52,0,0,1-.49-1c-.06-.18-.06-.43-.12-.61s-.12-.18-.24-.06-.18.36-.43.3-.79-.18-1-.61a2.88,2.88,0,0,1-.43-2.25c.24-1.22.43-2.5.73-3.72.43-1.53.91-3,1.46-4.52.61-1.89,1.28-3.72,1.77-5.61.25-.85.61-1.71.92-2.5.55-1.46,1.09-2.93,1.7-4.33A40.89,40.89,0,0,0,52,78.91c.12-.3.31-.61.43-1a21.67,21.67,0,0,0,.85-2.14A32,32,0,0,1,55,71.9c.73-1.46,1.4-2.93,2.07-4.39a13.27,13.27,0,0,1,1.65-2.81,23.7,23.7,0,0,0,1.4-2.13A2.68,2.68,0,0,1,60.6,62a13.13,13.13,0,0,0,2.14-2.32,3.17,3.17,0,0,1,1.22-1,2,2,0,0,1,1.89.06c.3.18.55.3.67.67a1.22,1.22,0,0,0,.85.79,2.54,2.54,0,0,1,1.46,1.28c.07.06.13.12.13.18a4.53,4.53,0,0,1,1.52,3.12,4.66,4.66,0,0,0,.31.91,2,2,0,0,1,.42,1.4c.06,1.65,0,3.3-.06,4.94-.06.19-.06.37-.12.49A2,2,0,0,0,71,74a1.58,1.58,0,0,1,.06.92c-.49,2.07-.49,4.27-1,6.4a.06.06,0,0,0-.06.06c-.06.61,0,1,.19,1,.36,0,.55-.31.73-.55a15,15,0,0,0,2.19-3c.61-1,1.35-1.89,2-2.8l.73-.92a67.76,67.76,0,0,1,5.61-7.5l.55-.73a6.44,6.44,0,0,1,1.65-1.77,3.56,3.56,0,0,1,2-.79A3.34,3.34,0,0,0,88.05,63c.12-.19.24-.31.36-.49a1.67,1.67,0,0,1,2.5.3,1,1,0,0,1,.12.61,2.36,2.36,0,0,0-.06.67c-.06.43.06.55.49.49a1.38,1.38,0,0,0,.49-.06,1.27,1.27,0,0,1,1,.55,3.5,3.5,0,0,1,.42,1.34c0,.37.06.67.06,1s.37.55.8.55v-.06a3.14,3.14,0,0,1-.13,1.7,6.19,6.19,0,0,0-.48,2.08,2.07,2.07,0,0,1-.31.85A7.31,7.31,0,0,0,92.8,74l-.06.07L92.8,74a.38.38,0,0,1,.31.49,5.74,5.74,0,0,1-.55,1.41c-.43-.13-.49-.13-.67.3-.06.06-.06.24.06.24s.3-.18.43-.3.12-.18.18-.31a15.84,15.84,0,0,1-1.22,3.79c-.12.42-.37.79-.49,1.28C90,83.25,89,85.62,88.11,88c-.43,1.22-.73,2.5-1.1,3.72-.49,1.59-.92,3.11-1.4,4.7a2.58,2.58,0,0,0-.19.43H85.3l-.06-.07a1.71,1.71,0,0,1,.12-.79c.25-1,.55-2,.86-3,.73-2.19,1.4-4.39,2.13-6.58,1-2.69,1.89-5.37,3.05-8,.06-.13.18-.37,0-.43s-.24.12-.3.24c-.37.92-.74,1.77-1.1,2.69-.79,1.95-1.59,4-2.38,5.91a7.4,7.4,0,0,0-.31,1c-.73,2.56-1.52,5.12-2.19,7.68-.37,1.16-.61,2.38-.92,3.6a2.22,2.22,0,0,0-.12.67.06.06,0,0,0,.06.06c.06.06.12.06.19-.06a4.24,4.24,0,0,1,.61-1.46c.18.06.12.24.06.36a58.91,58.91,0,0,0-1.16,5.8,3.23,3.23,0,0,1-1.16,2c-.31.25-.55.31-.85.12a.85.85,0,0,0-1-.12,1,1,0,0,1-1-.24,4.72,4.72,0,0,1-.67-.86,2.15,2.15,0,0,0-1.16-1,1.81,1.81,0,0,1-.85-.92,4.39,4.39,0,0,1-.49-2.32,49.1,49.1,0,0,1,.49-5.18v-.24c.79-2.75,1.1-5.62,1.71-8.42a13.75,13.75,0,0,1,.79-2.62,5.2,5.2,0,0,0,.24-.92c.06-.3-.24-.55-.61-.42-.12.06-.24.18-.36.24.24-.43.42-.92.67-1.34a1.41,1.41,0,0,0,.18-.31c.06-.18.25-.36,0-.49s-.36.19-.43.31c-.42.61-.79,1.22-1.21,1.89C75.48,87.7,72.86,92,70.42,96.3c-1.28,2.38-2.5,4.75-3.78,7.19-.18.37-.37.74-.55,1.16,0,.12-.12.31,0,.43s.37-.18.49-.25c-.55,1.1-1.1,2.14-1.65,3.24.06,0,.06-.06.06-.12s0-.43-.18-.49-.31.12-.43.3a5.13,5.13,0,0,1-.42.8,4.06,4.06,0,0,1-.43.54.37.37,0,0,1-.49.07A.39.39,0,0,1,63,108.74ZM51.76,98.61c0-.12.06-.24-.12-.24s-.13.06-.13.18c-.36.92-.73,1.83-1.09,2.75a.72.72,0,0,0,0,.73A26.86,26.86,0,0,0,51.76,98.61ZM50.84,106h-.06a2.36,2.36,0,0,1-.43,1.41A3.18,3.18,0,0,1,50.84,106Zm-.49,1.41v0Zm.49-1.41a12.38,12.38,0,0,1,1-3.29c1-2.56,1.95-5.06,3-7.56a5.38,5.38,0,0,1,.85-1.65c-.06.18-.12.43-.18.67-.67,1.71-1.34,3.36-2,5.06-.61,1.53-1.22,3.11-1.77,4.64a9.75,9.75,0,0,1-1,2.13Zm1.77-9.63c.73-1.77,1.47-3.54,2.2-5.37A5.45,5.45,0,0,0,55,90l.06-.06L55,90a44.31,44.31,0,0,0-2.13,4.82c-.19.49-.31,1-.49,1.41,0,.06.06.18.06.24S52.61,96.42,52.61,96.36Zm1.83-14.15a.69.69,0,0,0,.06-.31l.06-.06v.06c-.06.06-.18.12-.18.25a.22.22,0,0,0-.06.18C54.38,82.27,54.44,82.27,54.44,82.21ZM55.91,93c-.07.19-.13.31-.19.49h-.06A2.06,2.06,0,0,0,55.91,93Zm-.07-4.88c.07-.06,0-.12.07-.18a.13.13,0,0,0-.13.12.59.59,0,0,0-.06.31C55.72,88.31,55.84,88.19,55.84,88.12Zm.31,4.4a1.21,1.21,0,0,1-.24.48A3.56,3.56,0,0,0,56.15,92.52Zm1.65-3.91a13.93,13.93,0,0,1-1.65,3.91A21.43,21.43,0,0,1,57.8,88.61Zm.67-6.4a1.78,1.78,0,0,0-.8.85,8.3,8.3,0,0,0-.91,3.11A32.84,32.84,0,0,0,58.47,82.21ZM58,73.3c.43-.48.55-.79.36-.73s-.24.49-.36.73v0ZM59.14,71a4.14,4.14,0,0,0,1.1-2.08,3.69,3.69,0,0,0-1,2.08l-.06.06Zm.24,8.78c.37-.31.55-.55.37-.49s-.25.31-.37.49l-.18.73Zm1.59-12a4,4,0,0,1,.3-.73c-.18.18-.43.37-.49.61,0,.06.06.06.06.12Zm4,40.32H65l-.06.06Zm1.89-3.72v.06a1.5,1.5,0,0,1-.24.42C66.64,104.65,66.76,104.53,66.82,104.35Zm.25-.25v.06c-.06.07-.19.13-.25.19Zm.36-1c1.53-2.93,3-5.92,4.64-8.79.3-.42.61-.91,1-1.4a5.38,5.38,0,0,1-.42,1c-1,1.89-2.08,3.72-3,5.61a44.23,44.23,0,0,1-2.56,4.57A3.52,3.52,0,0,1,67.43,103.07Zm-.12-3.36c.06-.12.12-.3.18-.42a1.75,1.75,0,0,0,.25-.49.89.89,0,0,1-.25.42,1.18,1.18,0,0,1-.24.49v.06Zm1.77-16a4.13,4.13,0,0,1,.18-.48.7.7,0,0,0-.12-.19.11.11,0,0,0-.18.06c-.06.19-.06.37-.13.55l.07.06Zm.06,6v0Zm1-10.86c0-.06,0-.18-.06-.18s-.19,0-.19.06A1.68,1.68,0,0,0,69.69,80,2,2,0,0,0,70.18,78.91Zm.12,9a1.87,1.87,0,0,0,.49-.67,1.19,1.19,0,0,0-.49.73,1.34,1.34,0,0,0-.49.67A1.2,1.2,0,0,0,70.3,87.88Zm.18-12c.06-.13.06-.19.12-.31s-.06-.12-.12-.18-.12.06-.12.12a.45.45,0,0,0-.06.3l.12.13Zm2.81,16.65h.06a1.08,1.08,0,0,1-.31.24A.49.49,0,0,0,73.29,92.52Zm.24-.43c-.06.12-.12.3-.18.43h-.06A1.7,1.7,0,0,0,73.53,92.09Zm1.16-1.83a5.15,5.15,0,0,1-1.16,1.83A5.62,5.62,0,0,1,74.69,90.26Zm0-.06c.18-.19.3-.43.49-.67-.19.24-.31.48-.49.73ZM75.42,89a3.09,3.09,0,0,0-.24.49A1.71,1.71,0,0,1,75.42,89Zm.43-.67a6.51,6.51,0,0,1-.43.67C75.54,88.79,75.73,88.61,75.85,88.37Zm.24-.49a1.25,1.25,0,0,1-.24.49C75.91,88.19,76,88.06,76.09,87.88Zm.19-.24v.12c-.07.06-.13.06-.19.12A1,1,0,0,0,76.28,87.64Zm.48-9.46a.13.13,0,0,1-.12.12v.13C76.7,78.37,76.7,78.24,76.76,78.18Zm.06,8.54.49-.91c.12-.13.19-.31.31-.43.18.24-.12.3-.19.49l-.18.18C77.25,86,77.31,85.93,77.31,85.81Zm.86-9.7.18-.18V75.8c-.06.13-.12.19-.18.31s-.06.06-.13.12,0,.06-.06.12A.83.83,0,0,1,78.17,76.11Zm.24,8v0Zm.49-.67c-.18.24-.31.43-.43.61A1.29,1.29,0,0,1,78.9,83.49ZM83.78,102a.63.63,0,0,0,.24-.85.06.06,0,0,0-.06-.07c-.24.19-.43.74-.24.92Zm2.31-36.59a.94.94,0,0,1,.19-.25l-.25.25Zm7.45,3.35-.07-.06c-.06,0-.06,0-.12.06a1,1,0,0,0-.36.67.06.06,0,0,1,.06.06c0,.06.06.06.12.06A1.35,1.35,0,0,0,93.54,68.79Zm.67-.85v0Z" transform="translate(0 -3.79)"/><path class="c" d="M105.92,108a11.5,11.5,0,0,1-4.69-3A46.34,46.34,0,0,1,97.81,100a12.3,12.3,0,0,1-1.46-8.54c.18-1,.3-2.14.48-3.17.07-.31.13-.61.19-.92a25.54,25.54,0,0,1,2-4.57,8.17,8.17,0,0,0,.61-1.22,12.71,12.71,0,0,1,2-3.54c.12-.18.24-.43.37-.61A24,24,0,0,1,103.85,74c.3-.48.73-1,1.1-1.46.54-.61,1-1.28,1.46-2a15,15,0,0,1,1-1.1,7.07,7.07,0,0,0,1.16-1.16,18.79,18.79,0,0,1,4.51-4,5.79,5.79,0,0,0,.91-.8,13.65,13.65,0,0,1,4-2.31,4.6,4.6,0,0,1,1-.19,1.2,1.2,0,0,1,.8.13c.18.12.49.24.55.54s-.31.43-.55.49a3.43,3.43,0,0,0-1.89,1.28l-.06-.06a19.62,19.62,0,0,0,2.13-.67c-.06.12-.18.18-.3.31s-.07.18,0,.18.18,0,.24-.06.06-.31.06-.43c.24-.24.49-.43.79-.18.13.06.31.18.43.24.43.19.91.43,1.34-.06a.85.85,0,0,1,.92-.06,3.73,3.73,0,0,1,1.52,1,8.41,8.41,0,0,1,.79.79,1.19,1.19,0,0,0,.8.43,1.59,1.59,0,0,1,1.34.55A11.61,11.61,0,0,1,131,70a4.68,4.68,0,0,1,.3,1.59,11.19,11.19,0,0,1-.18,2.44,4.77,4.77,0,0,1-1.1,2.62c-.18.18-.06.36.25.3a.13.13,0,0,1,.12.12c-.06.25-.12.55-.18.8a14.85,14.85,0,0,1-1.16,3.6,3.81,3.81,0,0,0-.74,2,.46.46,0,0,1-.12.3,5.61,5.61,0,0,0-1,2.14,1.29,1.29,0,0,1-.43.79c-.37.37-.67.61-.49,1.16a.67.67,0,0,1-.18.43,3.06,3.06,0,0,0-.79,1.77h-.19c-.36.24-.36.3-.06.42a12.93,12.93,0,0,1-1.52,2.87,1.39,1.39,0,0,0-.25.61,21.42,21.42,0,0,1-2,3.66,3.83,3.83,0,0,1-.42.55c-.19-.12-.37-.19-.49,0-.31.3-.61.67-.92,1a75.27,75.27,0,0,1-4.88,6c-.06.12-.24.25-.06.49.18-.18.43-.31.61-.49a16.67,16.67,0,0,0,2.32-2.44c.73-1,1.4-2,2.13-3,.43-.61.86-1.15,1.29-1.7a9.62,9.62,0,0,1-1.47,2.5,31.57,31.57,0,0,1-3.47,4.45,9.69,9.69,0,0,1-7.51,3.29A12.11,12.11,0,0,1,105.92,108Zm4.51-10.31a12.5,12.5,0,0,0,2.44-3,4.72,4.72,0,0,1,.31-.49,18,18,0,0,0,2.5-3.9,1.41,1.41,0,0,1,.18-.31A9,9,0,0,0,117,87.7c.43-1,.92-2.08,1.46-3.11a6.29,6.29,0,0,0,.86-2,25.07,25.07,0,0,1,1.28-3.84c.12-.3.24-.55.37-.85.54-1.95,1.15-3.84,1.64-5.8a37.83,37.83,0,0,0,.73-3.9,7.91,7.91,0,0,0,.06-1.22,1.64,1.64,0,0,0-1.09-1.58.37.37,0,0,0-.55.12,4.65,4.65,0,0,0-1.28,1.64v-.06c-.37.43-.8.73-1.16,1.16a1.42,1.42,0,0,0-.49,1.1c.06.3-.18.49-.49.61a2.76,2.76,0,0,0-1.28,1.1c-.49.61-.91,1.22-1.4,1.83a6.5,6.5,0,0,0-.73,1.16c.48-.37.91-.74,1.4-1.1a36.59,36.59,0,0,1-2.56,3.66v-.43l-.55.37c0,.06-.06.12,0,.18s.12.06.18.06l.37-.18a8,8,0,0,1-.49,1c-1,1.89-2.13,3.72-3,5.68a2.35,2.35,0,0,1-1,1.28c-.37.18-.74.48-.19,1,.13.12.06.31-.06.43s-.3.43-.42.67a.58.58,0,0,0-.19.61c-.18.73-.36,1.52-.61,2.26s-.42,1.4-.67,2.07a30.76,30.76,0,0,1-1.28,4.09,6.63,6.63,0,0,0-.43,3.29c.19,1.34.61,1.65,1.77,1A13.84,13.84,0,0,0,110.43,97.64Zm-.67,4.39a10.78,10.78,0,0,0,3.18-2.81A.36.36,0,0,0,113,99c0-.06-.13-.12-.19-.12a1,1,0,0,0-.3.12,29.25,29.25,0,0,1-3,2.56c-.12.12-.18.25-.3.37a.3.3,0,0,0,.06.18.21.21,0,0,0,.12.06A.85.85,0,0,0,109.76,102Zm1,.49a9.78,9.78,0,0,0,2.62-2.38.18.18,0,0,0,0-.24c-.06-.07-.18-.07-.3.06-.8.73-1.65,1.46-2.5,2.19a1.19,1.19,0,0,0-.19.31l.06.06c0,.06.07.06.07.06S110.68,102.58,110.74,102.52Zm1.16-23.36c-.37.3-.61.61-.43.61C111.84,79.71,111.84,79.4,111.9,79.16Zm.18-9.94-.18.18v.06A.83.83,0,0,1,112.08,69.22Zm1.53,35.55a22,22,0,0,0,3.23-3.9c.06-.06.06-.12.06-.24a.06.06,0,0,0-.06-.06h-.12a1.44,1.44,0,0,0-.37.3,32.68,32.68,0,0,1-3.84,3.78,2.46,2.46,0,0,0-.55.61.28.28,0,0,0,0,.31.45.45,0,0,0,.3.06A6.42,6.42,0,0,0,113.61,104.77ZM113.24,68a.83.83,0,0,1-.18.24A.83.83,0,0,0,113.24,68Zm.43,38.42a.21.21,0,0,0-.12-.06.67.67,0,0,0-.43.31c0,.06,0,.18.06.18S113.67,106.67,113.67,106.42Zm.55-31.23,2.31-2.74a3.2,3.2,0,0,0-.24.49A1.18,1.18,0,0,1,116.53,72.45Zm1.16-1.59a.21.21,0,0,1,.12-.06v.13h-.12Zm3.24-4c-.13.18-.19.43-.49.18v.06A1.71,1.71,0,0,1,120.93,66.9Zm.24-.24c-.06.06-.18.12-.24.24A.47.47,0,0,1,121.17,66.66Zm.61-2.08a.06.06,0,0,0,.06-.06c-.06-.12-.12-.12-.31-.06s-.24.12-.42.18-.18.19-.06.25.12.06.18.06A.58.58,0,0,0,121.78,64.58Zm-.43,1.83h.06a.8.8,0,0,0-.24.25A.77.77,0,0,1,121.35,66.41Zm.25-.24a1,1,0,0,1-.19.24h-.06C121.47,66.35,121.53,66.23,121.6,66.17Zm.24-.25a.45.45,0,0,1-.24.25A.45.45,0,0,0,121.84,65.92Zm3.29,24.16h.19a1.55,1.55,0,0,1-.25.42l.06.06Z" transform="translate(0 -3.79)"/><path class="c" d="M158.07,112.28a2.31,2.31,0,0,0-.37-.55.72.72,0,0,0-1-.06c-.31.24-.55.42-.92.3a1.3,1.3,0,0,1-.85-.73,5.53,5.53,0,0,1-.49-1,1.61,1.61,0,0,0-1.1-1.22,1.65,1.65,0,0,1-1.09-1.1,24,24,0,0,0-1.77-4,8.1,8.1,0,0,1-.73-2.38c-.49-2.44-.86-4.88-1.16-7.32-.19-1.89-.19-3.78-.43-5.67a6,6,0,0,0-.18-1.1c-.12-.24-.49-.3-.61-.06a4.29,4.29,0,0,0-.37.79,3.71,3.71,0,0,1-1,1.53,18.58,18.58,0,0,1,.91-2.44c.24-.61.43-1.22.67-1.89,0-.06,0-.25-.18-.25a.2.2,0,0,0-.18.07,6.81,6.81,0,0,0-.55,1c-.25.67-.55,1.28-.86,2-.91,2.38-1.89,4.82-3.05,7.14-.67,1.4-1.28,2.87-1.95,4.33-1,2.07-1.71,4.27-2.86,6.28a.89.89,0,0,0-.13.79c0,.07,0,.07.06.07s.07.06.13.06.18-.25.24-.37q.91-1.74,1.65-3.48c.79-1.64,1.52-3.35,2.25-5.06s1.53-3.17,2.14-4.88a11.1,11.1,0,0,1,1.71-3.29,5.39,5.39,0,0,1-.43,1.34c-.43,1.1-.85,2.13-1.28,3.23-1.22,2.69-2.44,5.43-3.6,8.18-.73,1.58-1.46,3.11-2.2,4.69a12.52,12.52,0,0,0-.54,1.28,1.79,1.79,0,0,1-.49.92.49.49,0,0,1-.31.12c-.12-.06-.12-.18-.06-.31s.12-.36.12-.54,0-.19-.06-.19a.36.36,0,0,0-.24.06c-.25.25-.49.55-.79.8a1.51,1.51,0,0,1-1,.55c-.31,0-.55-.19-.49-.49a1.8,1.8,0,0,1,.25-.55c.06-.25.12-.49-.13-.67s-.42-.06-.67.24a3.35,3.35,0,0,0-.42.55c-.37.43-.74.49-1.1.12a2.58,2.58,0,0,1-1.1-1.58c-.06-.37-.12-.61-.49-.73a.5.5,0,0,1-.18-.43.65.65,0,0,0-.55-.49c-.85-.12-1-.79-1.28-1.34a1.66,1.66,0,0,1,0-1.59,24.06,24.06,0,0,0,1.28-3.53,20.31,20.31,0,0,1,.73-2.08c1-2.32,2-4.51,2.93-6.83s2-4.27,2.74-6.53c.37-1,.74-2.13,1.16-3.17.49-1.28,1.16-2.5,1.77-3.72a28.09,28.09,0,0,0,1.22-3.29c.43-1,.79-2.07,1.16-3.11a1.53,1.53,0,0,1,.24-.55,34.18,34.18,0,0,0,2-4.33c.06-.12.06-.37.18-.49a19.19,19.19,0,0,0,1.77-3.54,4.55,4.55,0,0,0,.55-1.52c.18-.67.73-.91,1.46-.61a1.29,1.29,0,0,1,.37.24A11.9,11.9,0,0,1,152,63.55,9.35,9.35,0,0,1,153.44,68a6.49,6.49,0,0,0,.3,1.83,53.38,53.38,0,0,1,1,8.17c.12,2,.12,3.9.24,5.92a28.44,28.44,0,0,1,.12,3.23c0,.18.06.36.06.55.13.49.31.73.49.67.37-.06.31-.37.43-.61A15.54,15.54,0,0,0,157,85a15.4,15.4,0,0,1,.55-1.7,11.08,11.08,0,0,0,.61-2.08,11.67,11.67,0,0,1,.73-2,10.61,10.61,0,0,0,1.1-3,27.21,27.21,0,0,1,1.77-4.63c.25-.55.49-1.16.73-1.71a38.49,38.49,0,0,1,3.66-6.28l.37-.74a11.9,11.9,0,0,1,1.65-2.5,11.44,11.44,0,0,1,1.09-1.22c1.16-1,2.26-.91,3.05.43A9.78,9.78,0,0,0,173.62,61a2.27,2.27,0,0,1,.67,2.2c-.06.24-.06.55-.12.79a5.73,5.73,0,0,1-.55,2.26,4.88,4.88,0,0,0-.18.91h-.06l.91-.73c.13-.12.25-.24.43-.12a.32.32,0,0,1,0,.49c-.3.55-.43,1.16-.73,1.71a10.8,10.8,0,0,1-1,2.38c-.06,1.09-.91,1.89-1,2.92A.25.25,0,0,0,172,74c.06,0,.12-.07.18-.07s.18-.18.24-.12a.39.39,0,0,1,.06.25c-.24.48-.48,1-.67,1.46-.06-.18-.06-.43-.36-.37,0,.07-.06.07-.06.13,0,.3.24.18.42.18A12.13,12.13,0,0,1,170.7,79c-.67,1.83-1.47,3.66-2.2,5.49a2.1,2.1,0,0,1-.3.48h-.13L168,85a1.17,1.17,0,0,1,.19-.67,8.53,8.53,0,0,0,1-2.32,4.15,4.15,0,0,1,.37-1,11.63,11.63,0,0,0,.73-1.83,14.47,14.47,0,0,1,.67-1.71.22.22,0,0,0-.12-.3c-.06,0-.12.06-.19.12s-.06.06-.06.12c-.48,1.46-1.46,2.81-1.76,4.33a3.89,3.89,0,0,1-.49,1.1,7.66,7.66,0,0,0-1.16,2.62,4.18,4.18,0,0,1-.37.73,5.48,5.48,0,0,0-.42,1.41,7.51,7.51,0,0,1-.92,3A4,4,0,0,0,165,92a25.44,25.44,0,0,1-1.16,3.72c-.12.42-.24.85-.36,1.22a13.61,13.61,0,0,1-.73,2.68,3.94,3.94,0,0,0-.43,1.22c-.06.3-.31.61.06.91.31-.18.24-.48.37-.79a5.41,5.41,0,0,0,.48-1,10.22,10.22,0,0,1-.91,3.23c-.06-.12-.12-.31-.31-.31a.42.42,0,0,0-.24.43c0,.18.12.24.24.12s.19-.18.31-.24a2,2,0,0,1-.55,1.34c-.3.43-.49.85-.06,1.34.12.25,0,.43-.24.61a1.42,1.42,0,0,0-.74.92c-.06.12,0,.24,0,.3a.21.21,0,0,0,.31,0,1.59,1.59,0,0,1,.36-.3c-.06.18-.06.42-.12.67a.77.77,0,0,1-.36.67.89.89,0,0,0-.61,1.1c.18,1.28-.61,2-1.41,2.74C158.5,112.82,158.25,112.76,158.07,112.28Zm-26.22-7.08a.36.36,0,0,1,.06-.24l-.19.18s-.06.06,0,.06S131.78,105.26,131.85,105.2Zm2.92-6.65c0-.06-.06-.06-.06-.12l-.06.06v.12A.19.19,0,0,1,134.77,98.55ZM137,93.19m.43-1.16c.06,0,0-.06,0-.12s-.13,0-.06.12Zm22.07,18.6h-.12l.06.06Zm1.83-3.36v0Zm2.08-7.62-.25.25A1,1,0,0,1,163.44,99.65Zm.24-1.16a8.25,8.25,0,0,0-.24,1.16A2.71,2.71,0,0,1,163.68,98.49Zm.19-1,.06.06a4.41,4.41,0,0,0-.25.91Zm.54-1.71a2.54,2.54,0,0,1-.54,1.71l.06.06A2.58,2.58,0,0,1,164.41,95.81Zm.37-1.22.55-2.44a3.83,3.83,0,0,1,.67-1.46c.06,0,.12-.07.18-.07a.25.25,0,0,1,.06.19c.06.06,0,.06,0,.12-.42,1.22-.85,2.44-1.28,3.66a.21.21,0,0,1-.12.06A.06.06,0,0,1,164.78,94.59Zm1.83-5.19c0-.06.06-.06.06,0v.07h-.06Zm.37-1.52.18-.55c.06-.12.18-.3.24-.43a5.63,5.63,0,0,1-.36,1.35C166.79,88.12,167,88,167,87.88Zm.48-1.16c0-.12.06-.12.13-.06a.2.2,0,0,0-.07.12c-.06,0-.12.06-.18.12S167.4,86.78,167.46,86.72Zm4.39-25.49h-.06l.06.12Zm.37,8.84c-.18.12-.18.37-.18.61C172.28,70.19,172.34,70,172.22,70.07Zm2.56-4.88.06.06-.06.06Z" transform="translate(0 -3.79)"/><path class="c" d="M175.76,111c-.36-.19-.73-.37-1.1-.55a4.14,4.14,0,0,1-2.74-2.93,2.7,2.7,0,0,0-.73-1.28,1.61,1.61,0,0,1-.55-.73,1.08,1.08,0,0,1,.79-1.53,10.89,10.89,0,0,1,1.22-.24c.31-.12.61-.19.92-.31a.5.5,0,0,0,.18-.85,3.77,3.77,0,0,0-.49-.49c-.43-.55-.43-.85,0-1.46.25-.37.55-.67.79-1a.16.16,0,0,0,0-.24c-.06-.12-.18-.06-.3,0l-1,.79c-.06,0-.18.06-.18,0s-.06-.18,0-.3a9.14,9.14,0,0,1,.67-1c.06-.06.06-.18,0-.18s-.12-.07-.18-.07c-.31.25-.61.55-.92.8s-.67.18-.79-.37a2.28,2.28,0,0,1,.18-1.65c.49-.85.92-1.7,1.41-2.56.67-1.28,1.34-2.56,1.95-3.9s1.52-2.74,2.19-4.09c1.16-2.38,2.38-4.69,3.3-7.13a52.39,52.39,0,0,1,3.17-6.83,6.06,6.06,0,0,1,.91-1.47,5.93,5.93,0,0,0,1.22-2.07c.31-.67,0-1.1-.67-1.16h-.79c-.18-.06-.43-.06-.43-.18-.18-.49-.73-.55-1.1-.8a.75.75,0,0,1-.24-.85,1.88,1.88,0,0,0,0-1.28,1.37,1.37,0,0,1,.24-1.34,3.15,3.15,0,0,1,.92-.86,17.57,17.57,0,0,1,4.94-1.95,4.69,4.69,0,0,0,1-.24,8.86,8.86,0,0,1,3.72-.79,3,3,0,0,0,.73-.06,15,15,0,0,1,4.08.3,10.35,10.35,0,0,1,5.37,2.81,12.21,12.21,0,0,1,2.93,3.9,39,39,0,0,1,3.48,10.24,13.68,13.68,0,0,1,.3,2.69,2.7,2.7,0,0,0,.12,1,20.73,20.73,0,0,1-.12,3.36,2.19,2.19,0,0,1-.18.67,2.56,2.56,0,0,0-.37,1.34,3.5,3.5,0,0,1-.55,1.53c-.12.18-.36.48-.36.67.12.73-.31,1.09-.8,1.52a3.27,3.27,0,0,0-.67,1,6.6,6.6,0,0,1-.91,1.34,61.58,61.58,0,0,1-8.42,8.05c-1.77,1.46-3.6,2.81-5.49,4.15a2.31,2.31,0,0,0-.85.85,6,6,0,0,0-3.3,2.08,2.13,2.13,0,0,0-1,.36,30.6,30.6,0,0,0-4.52,2.62,1.72,1.72,0,0,1-.73.31,9.75,9.75,0,0,0-2.92.61,4.88,4.88,0,0,1-1.59.24A3.5,3.5,0,0,1,175.76,111ZM178,100.44c0-.06-.06-.12-.06-.18s-.06-.06-.12-.06-.19.06-.31.12l-1.89,1.53c-.12.12-.24.3-.37.42a.2.2,0,0,0,0,.25.25.25,0,0,0,.25.12A5.47,5.47,0,0,0,178,100.44Zm-1.1-5.73c0-.06,0-.06-.06-.12h-.06a3.8,3.8,0,0,0-.31.73A1.29,1.29,0,0,0,176.92,94.71Zm1.71,10.49a29.8,29.8,0,0,0,3.11-1.52,62.27,62.27,0,0,0,13-9.58,7.28,7.28,0,0,0,1-1.1,3.3,3.3,0,0,0-1,.61c-.55.49-1.16,1-1.77,1.47-2.13,1.77-4.33,3.41-6.65,5a84.52,84.52,0,0,1-7.5,4.39c-.3.18-.61.36-1,.61v.18c0,.06.06.06.12.06S178.38,105.26,178.63,105.2Zm3.54-.61a57,57,0,0,0,10.61-7.2,2.39,2.39,0,0,0,.85-.91,1.8,1.8,0,0,0,.92-.73l.24-.25a.83.83,0,0,1,.24-.18.83.83,0,0,0-.24.18.83.83,0,0,1-.24.25,2.08,2.08,0,0,0-1,.67,5.45,5.45,0,0,0-1.4.91,88.67,88.67,0,0,1-11.29,7.44,2.58,2.58,0,0,0-.42.25.22.22,0,0,0-.06.18c.06.06.12.12.18.06A6.34,6.34,0,0,0,182.17,104.59ZM181,99.41A23.65,23.65,0,0,0,183,96.48a3.57,3.57,0,0,0,.24-.49.46.46,0,0,1-.06-.18c-.06,0-.18,0-.18.06a1.36,1.36,0,0,0-.43.43c-.49.67-1,1.4-1.46,2.13a5.13,5.13,0,0,0-.43.73.29.29,0,0,0,0,.31C180.76,99.59,180.88,99.47,181,99.41Zm1,9.45a20.4,20.4,0,0,0,3.3-1.46c2-1.1,3.9-2.32,5.85-3.6.61-.43,1.28-.86,1.89-1.28a85.14,85.14,0,0,0,6.83-5.61c.61-.61,1.22-1.22,1.83-1.89.12-.06.12-.19.18-.25a.21.21,0,0,0-.06-.12h-.12a1.62,1.62,0,0,0-.85.55c-1,.79-2,1.65-2.93,2.44a108.56,108.56,0,0,1-9.76,7.07,46.22,46.22,0,0,1-6.77,3.6,1.12,1.12,0,0,0-.36.25c-.07.06-.19.18-.13.3s.19.18.31.18Zm.92-10.06c1.16-.8,2.31-1.47,3.47-2.32s2.56-2.07,3.85-3.11c.3-.25.67-.49.91-.73a10,10,0,0,1,2.26-2c1.4-1,2.37-2.5,3.72-3.59a2.55,2.55,0,0,0,.55-.74c.42-.61.91-1.22,1.4-1.83a4.13,4.13,0,0,0,1-1.28,39.73,39.73,0,0,0,2.62-5.36,29.16,29.16,0,0,0,.85-3.85,2.54,2.54,0,0,0-.3-1.64A6.28,6.28,0,0,0,201,70a11.86,11.86,0,0,0-4-1.65l-3.24-.55a2.54,2.54,0,0,0-1.34,0,6,6,0,0,1-1.83.19,7.12,7.12,0,0,0-2.56.36c-.43.12-.49.49-.18.73a2.12,2.12,0,0,1,.85,1.16,1.6,1.6,0,0,0,1,1.1,2.35,2.35,0,0,1,1,1.22,3.6,3.6,0,0,1,.37,1.34,11.18,11.18,0,0,1,.12,1.41c0,.24.06.48.37.54a.58.58,0,0,1,.42.74,9.91,9.91,0,0,1-.67,3,2.25,2.25,0,0,0-.36,1.22,1.14,1.14,0,0,1-.31.86,2.9,2.9,0,0,0-.79,1.4c-.06.31.12.31.37.25-.19.48-.37,1-.61,1.52a8.15,8.15,0,0,1-1.29,2.2c-.12-.13-.24-.19-.36-.13a1.42,1.42,0,0,0-.61.74,14.3,14.3,0,0,0-1.1,2.13,7.3,7.3,0,0,1-.85,1.52,3.24,3.24,0,0,0-.49.8.93.93,0,0,0-.24.73c.36.06.48-.31.67-.49s.18-.24.36-.24c0,.06.06.12,0,.18a12.37,12.37,0,0,1-1.28,2.14c-.06-.07-.06-.13-.12-.19s-.24-.12-.37,0-.3.25-.18.49c0,.06.12.06.18,0a2,2,0,0,0,.49-.3,8.48,8.48,0,0,1-1.22,2.74,3.58,3.58,0,0,0-.67,1.46.39.39,0,0,0,.06.25A.28.28,0,0,0,182.84,98.8Zm1.52,11.1-.06.06Zm.86-45.5a33.68,33.68,0,0,1,8.11-1.71c.24-.06.48,0,.61-.24s-.19-.25-.61-.31h-.25a1.06,1.06,0,0,0-.36.06A28.44,28.44,0,0,0,185,64a1.75,1.75,0,0,0-.49.25c-.12.06-.18.12-.12.24s.12.06.18.06C184.79,64.46,185,64.46,185.22,64.4Zm0,3.11c2.19-.43,4.39-.79,6.64-1a4.32,4.32,0,0,0,.8-.12c.06-.06.12-.06.18-.12v-.12a.06.06,0,0,0-.06-.06,1.63,1.63,0,0,0-.55-.13,43.9,43.9,0,0,0-7.32,1,1.45,1.45,0,0,0-.37.24c-.06,0-.12.13-.06.19a.13.13,0,0,0,.13.12.45.45,0,0,0,.24.06A.78.78,0,0,1,185.22,67.51Zm-.07-2.44c2-.55,4-1,6-1.4a1.77,1.77,0,0,0,.92-.31,3.09,3.09,0,0,0-1.28-.06,28.13,28.13,0,0,0-5.37,1.34,3.56,3.56,0,0,0-.73.31c-.06.06-.13.12-.06.18s.06.06.12.06S185,65.13,185.15,65.07Zm.86,44a.06.06,0,0,0-.06.06c-.06.07-.13.07-.25.13C185.82,109.17,185.89,109.1,186,109Zm-.25.19h0Zm1.59-.92a4.37,4.37,0,0,1-.49.18Zm-.43.18h0ZM187,89.4c.06-.06.13-.06.13-.12s-.07.12-.07.19-.06.06-.12,0ZM188.26,87a5,5,0,0,1-1.15,2.31A4.45,4.45,0,0,1,188.26,87Zm-.67,21.1c-.06.06-.18.12-.24.24C187.41,108.19,187.53,108.13,187.59,108.07Zm.74-.73h-.07a2.3,2.3,0,0,0,1.47-.61l1.83-1.47a2.4,2.4,0,0,0,1-.43c.43-.3,1-.6,1.47-.91.06,0,.18-.06.18,0s0,.18-.06.24a14.27,14.27,0,0,1-2.19,1.53,6.38,6.38,0,0,0-1.35.85l-1.77,1.1a2.31,2.31,0,0,1-1.28.43ZM188,67.94v-.13h-.18c-.12.07-.12.19,0,.19S188,67.94,188,67.94Zm.61,17.5c.06-.06.06-.06.06-.12s-.06,0-.12.06a.22.22,0,0,1-.06.18Zm1.77-2.68a3.09,3.09,0,0,0-.24.49A1.71,1.71,0,0,1,190.4,82.76Zm0,0h0Zm5,20.31c.06-.25.3-.37.49-.49.85-.67,1.77-1.34,2.68-2a48.33,48.33,0,0,0,4.33-3.79,27.48,27.48,0,0,0,3.6-3.9,4.8,4.8,0,0,0,.55-.61,4.59,4.59,0,0,1-1.22,2,33.19,33.19,0,0,1-2.38,2.69A39.74,39.74,0,0,1,200,99.83c-1.29,1.1-2.69,2.08-4,3.11a1.14,1.14,0,0,1-.49.25h-.06A.19.19,0,0,1,195.4,103.07Zm4.7-13.54a1.59,1.59,0,0,0,.48-.74l.25-.24a.8.8,0,0,1-.25.24,2.55,2.55,0,0,0-.67.68l.06.06C200,89.59,200,89.59,200.1,89.53Zm7.19,2.5a.47.47,0,0,1-.24.24A.47.47,0,0,0,207.29,92Zm.25-.43a1.37,1.37,0,0,1-.25.43C207.35,91.91,207.48,91.72,207.54,91.6Zm.12-.3v.12c-.06.06-.06.12-.12.18C207.6,91.48,207.66,91.42,207.66,91.3Z" transform="translate(0 -3.79)"/><path class="c" d="M232.85,108.74l.92-1.47c.12-.12.24-.3.12-.42s-.37,0-.49.12c-.37.37-.73.73-1,1.1a4.48,4.48,0,0,1-.48.49.93.93,0,0,1-1.35.06,1.3,1.3,0,0,1-.36-1.59c.06-.18.18-.43.24-.61s-.06-.12-.12-.18h-.12c-.18.18-.43.36-.79.67a10.23,10.23,0,0,1,.36-1c0-.06,0-.18-.06-.18a.22.22,0,0,0-.18-.06c-.19.12-.37.3-.55.43a.53.53,0,0,1-.79-.19,2.61,2.61,0,0,1-.25-2c.61-1.59.86-3.29,1.59-4.82a16,16,0,0,0,.79-2.93,8,8,0,0,0,.31-1.22V94.1c-.07-.24-.25-.37-.43-.3a5,5,0,0,0-.92.18l-3.84.91c-.06-.18-.18-.36-.36-.24a6.37,6.37,0,0,0-1.77,1.65,1.86,1.86,0,0,0-.31.48c-.79,1.71-1.58,3.36-2.38,5.07-.48,1-1,2.13-1.46,3.23a14,14,0,0,0-.92,2.5.58.58,0,0,1-.67.55c-.36,0-.61.3-.85.49-.43.42-.67.36-1-.19,0-.06,0-.06-.06-.12-.24-.43-.3-.43-.67-.12-.06.06-.12.18-.24.24a.45.45,0,0,1-.61.06A2.1,2.1,0,0,1,213,107c0-.24-.06-.49-.06-.67s-.18-.37-.43-.31c-1,.13-1.4-.42-1.71-1.22a4.31,4.31,0,0,1,0-2.31,12,12,0,0,1,.43-1.28,3.74,3.74,0,0,0,.18-1.65,2.14,2.14,0,0,1,.19-.85c.12-.31.06-.43-.31-.37h-.55a1,1,0,0,1-.79-.61.93.93,0,0,1,.24-1c.37-.24.8-.55,1.16-.79a3,3,0,0,0,.49-.3c.37-.31,1.1-.25,1.16-.92-.61-.12-1,.37-1.4.61a7.06,7.06,0,0,1-1.65.79,3,3,0,0,1,1.1-.91c.61-.37,1.28-.73,1.95-1.1a2.49,2.49,0,0,0,.55-.3c.06-.07.18-.25.12-.31a.16.16,0,0,0-.24-.12,9.94,9.94,0,0,0-1.28.61l-2.2,1.28a1.17,1.17,0,0,1-.37.24c-.18.06-.36,0-.36-.18a2,2,0,0,1,.73-2.07c.67-.49,1.34-1,2-1.59a8.17,8.17,0,0,1,1.22-.61c.43-.18.92-.36,1.41-.55A2.78,2.78,0,0,0,216,89a20.63,20.63,0,0,0,1.22-2.5,6.25,6.25,0,0,1,.42-.92,17.42,17.42,0,0,0,1.29-2.86,16.38,16.38,0,0,1,1.64-3.3,23.25,23.25,0,0,0,1.34-2.86,12.62,12.62,0,0,1,.61-1.22c.8-1.16,1.59-2.38,2.38-3.54a4.18,4.18,0,0,0,.37-.73,6.54,6.54,0,0,1,1.16-2c1.1-1.35,2-2.81,3.23-4.09a15.48,15.48,0,0,1,1.46-1.46c.86-.68,1.65-1.47,2.63-2.14a15.29,15.29,0,0,1,2.19-1.16,2.37,2.37,0,0,1,2.5.49.48.48,0,0,1-.18.85l-1.1.55c-.12.06-.24.19-.12.31a.45.45,0,0,0,.3.06l.55-.18c.19-.07.43-.13.61-.19s.19.12.06.19a4.63,4.63,0,0,1-.61.48c.31.25.61,0,.86-.06l.55-.18a1,1,0,0,1,1,.55.7.7,0,0,1,0,.85,2.19,2.19,0,0,0-.49,1c-.06.06-.18.12-.24.24a.83.83,0,0,1-.24.19.45.45,0,0,1-.25.24.45.45,0,0,0,.25-.24.49.49,0,0,0,.24-.25c.06-.06.18-.12.24-.18a1.69,1.69,0,0,1,.55,0c.31,0,.43.24.31.43s-.37.48-.55.73l-.67.85c-.06.06-.06.18.06.31h.3a1.75,1.75,0,0,0-.12.55,1.56,1.56,0,0,0,.86,1.52,3.88,3.88,0,0,1,1.58,1.83c.43.92.92,1.77,1.28,2.68a9.87,9.87,0,0,1,.55,3c.06,1.47.12,3,.18,4.45,0,.31-.06.61-.06.92a1.41,1.41,0,0,0-.12.49,13.58,13.58,0,0,1-.79,4.94c-.43,1.4-.85,2.74-1.28,4.08a27,27,0,0,1-1.22,3.72,3.17,3.17,0,0,0-.31.8,34,34,0,0,1-1.83,5.24A14.52,14.52,0,0,0,238,103a29.61,29.61,0,0,1-2.14,4.63,4.11,4.11,0,0,1-.85,1.1,6.88,6.88,0,0,1,.42-1c.55-1.16,1.16-2.32,1.71-3.53a6.29,6.29,0,0,0,.43-1.1,43,43,0,0,1,1.71-4.64,6.38,6.38,0,0,0,.67-2.32c-.13.07-.25.07-.25.13-.79,2.07-1.58,4.27-2.44,6.34a31.1,31.1,0,0,1-2.37,4.94c-.25.43-.55.79-.86,1.22a2.43,2.43,0,0,1-.61.49.47.47,0,0,1-.55.06C232.61,109.17,232.73,108.92,232.85,108.74ZM215,99.83a.06.06,0,0,0,.06-.06c-.06-.06-.12-.06-.12,0s0,.06,0,.13A.06.06,0,0,0,215,99.83Zm3.11,6.65c.31-.73.55-1.46.92-2.19,1-2,2-4.09,2.93-6.16.18-.37.36-.8.54-1.28.07-.07,0-.19,0-.31s-.12-.12-.18-.06a.63.63,0,0,0-.36.43c-.49,1-1,2-1.47,3-.79,1.7-1.64,3.35-2.32,5.12-.12.43-.24.85-.36,1.22,0,.12,0,.3.06.3S218.09,106.54,218.15,106.48Zm3.78-22c-.06.25-.36.37-.18.61C221.93,84.89,221.87,84.71,221.93,84.46Zm.92-1.64c.06-.12.18-.31.24-.43a.83.83,0,0,1,.19-.24V82c-.06,0-.06.06-.13.13s-.06.18-.06.3a3.57,3.57,0,0,1-.24.49c-.06.12-.12.3-.18.43C222.73,83.18,222.79,83,222.85,82.82Zm2.32-4.58.06-.06-.06.06c-.55.61-.86,1.28-.61,1.16C225,79.16,225.05,78.67,225.17,78.24Zm4,14.28a.14.14,0,0,0,.12-.13c-.06-.18-.18-.18-.3-.12-1.1.18-2.26.43-3.35.67-.19,0-.37.18-.55.25a.22.22,0,0,0-.06.18c0,.18.12.18.3.24A24.79,24.79,0,0,0,229.19,92.52Zm-3.78,2.37V95h-.06Zm.49-18h0Zm1.16-2.07v-.06a3.79,3.79,0,0,0-.25.48C226.87,75.07,227,74.89,227.06,74.77Zm5.73,12.07a11.87,11.87,0,0,0,.43-1.4,13.63,13.63,0,0,0,1-4.09c.06-.36.19-.79.25-1.22.43-1.52.79-3,1.22-4.57a5.45,5.45,0,0,1,.12-.61v-.18a1.41,1.41,0,0,0-.18-.31c-.13-.06-.19,0-.31.12s-.18.55-.55.49a1,1,0,0,0-1,.49,13.4,13.4,0,0,0-.8,1.16c-.73,1.28-1.46,2.62-2.31,3.84-1.35,1.89-2.2,4-3.3,5.86-.06.12-.06.3-.12.42s0,.13.06.13.12.06.19.06a.86.86,0,0,0,.42-.37c.31-.55.61-1.1.86-1.65a13.61,13.61,0,0,1,1.58-2.8,8.45,8.45,0,0,0,.85-1.4c.62-1.1,1.16-2.2,1.77-3.24a9.53,9.53,0,0,1,.86-1.28c.12-.12.18-.3.36-.12.06,0,0,.18-.06.31-.36.67-.79,1.4-1.22,2.07s-.91,1.52-1.34,2.32a2.44,2.44,0,0,1-.55,1,34,34,0,0,0-2.44,4.52,2.6,2.6,0,0,0-.06.3c-.06.24.06.37.25.49s.42.06.67.12a6.63,6.63,0,0,1,2.19.31C232.3,87.76,232.55,87.58,232.79,86.84Zm.06-20.25.18-.18.25-.24c.12-.06.18-.19.24-.25l.25-.24.24-.24a.83.83,0,0,1,.24-.19,1,1,0,0,1,.19-.24l.24-.24a2,2,0,0,0,.73-.49v.06a1.77,1.77,0,0,0-.73.43c-.06.06-.12.18-.18.24a.53.53,0,0,0-.25.24.83.83,0,0,0-.24.19c-.06.12-.18.18-.24.24s-.19.18-.25.24-.12.19-.24.25-.12.18-.18.24a.44.44,0,0,0-.25.25c-.06.06-.18.12-.24.18Zm2.08,42.27.42-35.25c.06-.12,0-.18-.06-.18a.21.21,0,0,0-.12.06v.18C235.23,73.67,235.29,73.61,235.35,73.61Zm4.94,21.28a7.83,7.83,0,0,0,1-2.62.13.13,0,0,0-.12-.12.34.34,0,0,0-.19.12c-.3.85-.67,1.71-1,2.5,0,.06.06.19.12.19S240.23,95,240.29,94.89Zm1.47-4.57v-.06h-.06c-.07,0-.07,0-.07.06S241.7,90.38,241.76,90.32Zm.36-1.1h-.06l.06.06Zm.61-2.13a.48.48,0,0,0,.06-.31c.31-.36.43-.73.25-.61s-.19.43-.25.61-.12.19-.18.31v.18C242.67,87.21,242.73,87.15,242.73,87.09Z" transform="translate(0 -3.79)"/><path class="c" d="M252.31,111.18a3.44,3.44,0,0,1,.43-.55c1.58-1.95,3.23-3.84,4.82-5.8a9.22,9.22,0,0,0,.67-.91c.12-.12.18-.3,0-.43s-.31,0-.43.13a6.43,6.43,0,0,0-.67.73c-1.1,1.34-2.2,2.62-3.29,4a18.44,18.44,0,0,1-2.57,2.32c-.42.43-.85.37-1.28-.06a2.1,2.1,0,0,1-.54-.73,1.19,1.19,0,0,1,.06-1,4.94,4.94,0,0,0,.67-1.34c-.19.12-.37.18-.55.3s-.37.55-.8.49c-.06-.43.31-.61.43-.91a2,2,0,0,1,.19-.43v-.12a.59.59,0,0,1-.19-.06c-.3.18-.55.42-.85.61a.65.65,0,0,1-1.1-.37,2.86,2.86,0,0,1,.24-2.32,10,10,0,0,1,1.28-1.77,8.53,8.53,0,0,1,.68-.67,8.7,8.7,0,0,0,1.83-2.8,7.47,7.47,0,0,1,1.46-2.2,3.38,3.38,0,0,0,.73-2.8c0-.13-.06-.25-.06-.37a44.66,44.66,0,0,1-.49-6.46c-.06-2.63-.18-5.25-.24-7.87a43.83,43.83,0,0,1,.61-8c.12-.67.18-1.41.36-2.14a26.6,26.6,0,0,1,1.83-5.73,8.76,8.76,0,0,1,2.38-3,2.39,2.39,0,0,1,2.75-.18c.18.06.36.18.36.36-.06.49.25.61.55.74l.55.36a2.18,2.18,0,0,1,1.16,2.26c-.06.43-.18.85-.24,1.22-.07.18-.13.3.06.43a.2.2,0,0,0,.18-.07c.12-.18.24-.42.55-.3s.18.3.18.49v.24a16.3,16.3,0,0,0-.36,2.38,31.45,31.45,0,0,0-.31,3.48,7.38,7.38,0,0,1-.61,2.56,1.19,1.19,0,0,0,0,1.1,1.52,1.52,0,0,1-.06,1.15,2,2,0,0,0-.12,1.77,1.55,1.55,0,0,1-.19,1.16,3.29,3.29,0,0,0-.18,1.71,15,15,0,0,1,.18,1.71.38.38,0,0,0,.25.36c.12.13.3,0,.36-.12.74-1,1.71-1.83,2.38-2.86a38.08,38.08,0,0,1,2.75-3.42A4.25,4.25,0,0,0,270,75a17.24,17.24,0,0,1,2.25-3.6,18,18,0,0,0,1.16-1.89,7.61,7.61,0,0,1,1.22-1.52,6.18,6.18,0,0,0,.67-1,20.52,20.52,0,0,1,2-2.8c1.09-1.22,1.28-1.22,2.62-.31.55.37,1,.67,1,1.4a1.29,1.29,0,0,0,.73,1c1.46.91,1.58,2.26,1.22,3.72-.06.37-.19.67-.25,1s-.3.67,0,.79.43-.3.61-.49a.28.28,0,0,1,.31-.06c0,.06.06.12.06.25a7.64,7.64,0,0,0-.31,1.7,1,1,0,0,1-.3.55,1.9,1.9,0,0,0-.61,1.47c.06.36-.18.67-.31,1-.36.67-.73,1.28-1.09,1.89A65.39,65.39,0,0,1,277,84c-1,1.46-1.95,3-3.05,4.39-2.07,2.62-4.14,5.3-6.22,8-.61.79-1.4,1.52-2,2.38-1.53,2.13-3.42,4-4.94,6.09a36.33,36.33,0,0,1-2.62,2.81c-.74.85-1.47,1.65-2.26,2.5a4.54,4.54,0,0,1-.79.79.68.68,0,0,1-.19.13.21.21,0,0,1,0-.31c.92-1.1,1.83-2.19,2.81-3.23.79-.92,1.58-1.83,2.38-2.69a4.35,4.35,0,0,0,1.16-2,2.68,2.68,0,0,0-1,.86c-1.83,2.07-3.6,4.14-5.43,6.28l-1.4,1.4a1.07,1.07,0,0,1-.85.31A.35.35,0,0,1,252.31,111.18Zm2-10.92a.34.34,0,0,0,.19-.12v-.06c0-.12-.06-.06-.13,0a.22.22,0,0,1-.06.18.47.47,0,0,1-.24.24A.47.47,0,0,0,254.32,100.26ZM261,79.89,261,80,261,80Zm1.34,18.85c.31-.13.49-.43.74-.74.36-.48.67-1,1.09-1.46a36.44,36.44,0,0,0,3.24-4.21,11.21,11.21,0,0,0,.79-1.1,4.62,4.62,0,0,0-1.53,1.29,19,19,0,0,1-1.34,1.76c-1.09,1.16-2,2.57-3,3.85a1.21,1.21,0,0,0-.24.48.2.2,0,0,0,.06.13C262.25,98.74,262.31,98.8,262.37,98.74Zm.61,2.56c.55-.61,1-1.16,1.53-1.77.91-1.16,1.83-2.32,2.74-3.42,1.83-2.19,3.42-4.51,5.19-6.71a20.42,20.42,0,0,0,1.52-2c1.16-1.71,2.5-3.23,3.6-5a38.91,38.91,0,0,1,2.32-3.17c.06-.12.12-.31.18-.43s-.06-.06-.12-.12c-.37.43-.79.85-1.16,1.28a4.13,4.13,0,0,0-.43.55c-1.22,1.4-2.19,3-3.29,4.45-2.44,3.3-4.94,6.53-7.44,9.76-1.71,2.07-3.35,4.15-5.06,6.22a1.37,1.37,0,0,0-.31.49c-.06.06,0,.12,0,.18a.22.22,0,0,0,.31.06A2.61,2.61,0,0,0,263,101.3Zm6.65-12.14c-.06.06-.18.12-.24.24C269.51,89.34,269.57,89.22,269.63,89.16Zm.67-8.35a4.43,4.43,0,0,0,.25-.49,2.76,2.76,0,0,0,.73-.92,2.39,2.39,0,0,0-.73,1l-.37.36v.13C270.24,80.87,270.3,80.87,270.3,80.81Z" transform="translate(0 -3.79)"/></svg>