<svg xmlns="http://www.w3.org/2000/svg" viewBox="0 0 285.81 183.88"><defs><style>.a{fill:#fff;}.b{fill:none;stroke:#000;stroke-miterlimit:10;stroke-width:2px;}</style></defs><path class="a" d="M73.81,35.19v-32h22v83h-22v-34h-31v34h-22v-83h22v32Z"/><path class="a" d="M205.36,42.68c0,26.84-19.26,45.76-45.88,45.76s-45.87-18.92-45.86-45.76c0-25.08,22-42.68,45.87-42.68S205.36,17.6,205.36,42.68Zm-69.31.11c0,14.3,10.56,24.75,23.44,24.75s23.42-10.45,23.43-24.75c0-11.44-10.56-21.89-23.43-21.89S136.06,31.35,136.05,42.79Z"/><path class="a" d="M256.81,86.19h-22v-65h-17v-18h57v18h-18Z"/><path class="b" d="M50.58,119.08a22.68,22.68,0,0,0-14.3-5.5c-4,0-9.24,2.31-9.24,6.93,0,4.84,5.83,6.71,9.57,7.92l5.5,1.65c11.55,3.41,20.46,9.24,20.46,22.66,0,8.25-2,16.72-8.58,22.33s-15.18,7.81-23.54,7.81A51.18,51.18,0,0,1,1.3,173.42L10.54,156c5.39,4.73,11.77,8.58,19.14,8.58,5.06,0,10.45-2.53,10.45-8.36,0-6-8.47-8.14-13.09-9.46C13.51,143,4.6,139.43,4.6,123.37c0-16.83,12-27.83,28.6-27.83a56.73,56.73,0,0,1,26,6.82Z"/><path class="b" d="M102.09,166.19l-5.56,14H73.75l31.54-82h23.9l30.88,82H137.18l-5.23-14Zm15.15-43H117l-8.77,26H125.9Z"/><path class="b" d="M196.81,162.19h26v18h-47v-83h21Z"/><path class="b" d="M258.81,116.19v14h25v18h-25v14h26v19h-47v-83h47v18Z"/></svg>