<?xml version="1.0" encoding="utf-8"?>
<!-- Generator: Adobe Illustrator 16.0.3, SVG Export Plug-In . SVG Version: 6.00 Build 0)  -->
<!DOCTYPE svg PUBLIC "-//W3C//DTD SVG 1.1//EN" "http://www.w3.org/Graphics/SVG/1.1/DTD/svg11.dtd">
<svg version="1.1" id="Capa_1" xmlns="http://www.w3.org/2000/svg" xmlns:xlink="http://www.w3.org/1999/xlink" x="0px" y="0px"
	 width="1267.5px" height="176px" viewBox="0 30.493 1267.5 176" enable-background="new 0 30.493 1267.5 176" xml:space="preserve"
	>
<g>
	<path fill="#FFFFFF" d="M69.764,108.465v-0.903c0-2.888-0.82-5.17-2.463-6.849s-3.937-2.552-6.879-2.619H48.513v50.258
		c0.068,1.479,0.65,2.721,1.746,3.727c1.093,1.008,2.396,1.511,3.9,1.511h1.13v1.009H26.954v-1.009h1.027
		c1.571,0,2.906-0.503,4.003-1.511c1.093-1.006,1.643-2.279,1.643-3.826V98.096H21.821c-3.014,0.066-5.339,0.939-6.982,2.618
		c-1.642,1.679-2.463,3.961-2.463,6.849v0.903h-1.026v-15.91c0.958,0.336,2.55,0.67,4.773,1.007
		c2.223,0.337,4.226,0.502,6.006,0.502H60.01c3.013,0,5.494-0.216,7.445-0.653c1.949-0.438,3.061-0.721,3.335-0.854v15.91
		L69.764,108.465L69.764,108.465z"/>
	<path fill="#FFFFFF" d="M147.276,153.587h1.13v1.009h-28.232v-1.009h1.025c1.574,0,2.91-0.503,4.005-1.511s1.643-2.281,1.643-3.826
		v-21.756h-27v21.756c0.067,1.545,0.648,2.818,1.744,3.826c1.095,1.008,2.396,1.511,3.902,1.511h1.128v1.009H78.285v-1.009h1.129
		c1.573,0,2.908-0.521,4.004-1.562c1.093-1.04,1.642-2.3,1.642-3.775v-47.738c0-1.478-0.549-2.735-1.642-3.777
		c-1.096-1.041-2.431-1.563-4.004-1.563h-1.129v-1.007h28.335v1.007h-1.128c-1.506,0-2.81,0.504-3.902,1.513
		c-1.095,1.006-1.677,2.25-1.744,3.727v22.057h27v-21.955c0-2.08-0.924-3.627-2.771-4.634c-0.893-0.47-1.851-0.706-2.876-0.706
		h-1.025v-1.007h28.232v1.007h-1.13c-1.506,0-2.809,0.505-3.902,1.513c-1.094,1.006-1.676,2.283-1.744,3.827v47.839
		c0.068,2.083,0.992,3.593,2.771,4.531C145.289,153.351,146.247,153.587,147.276,153.587"/>
	<path fill="#FFFFFF" d="M205.074,154.593H156.72v-1.006h1.231c1.574,0,2.892-0.503,3.954-1.511c1.06-1.006,1.625-2.248,1.691-3.727
		v-47.938c-0.066-1.478-0.633-2.722-1.691-3.728c-1.063-1.008-2.38-1.511-3.954-1.511h-1.231v-1.008h36.14
		c1.849,0,3.863-0.166,6.057-0.503c2.19-0.336,3.729-0.67,4.621-1.008v16.014h-1.027v-0.905c0-2.953-0.819-5.271-2.464-6.949
		c-1.641-1.678-3.935-2.553-6.877-2.617h-14.783v24.472h11.703c2.325-0.065,4.209-0.839,5.646-2.315
		c1.438-1.478,2.155-3.356,2.155-5.641v-0.705h1.026v21.35h-1.026v-0.703c0-3.155-1.197-5.438-3.593-6.849
		c-1.23-0.737-2.604-1.106-4.106-1.106h-11.806v23.868h12.319c4.243-0.065,7.854-1.358,10.831-3.878
		c2.976-2.52,5.147-6.061,6.519-10.625h0.925L205.074,154.593z"/>
	<path fill="#FFFFFF" d="M316.568,153.587h0.923v1.006h-32.748v-1.006h0.923c1.504,0,2.617-0.453,3.336-1.358
		c0.719-0.904,1.078-1.763,1.078-2.566c0-0.809-0.172-1.611-0.514-2.418l-5.03-12.391H260.51l-5.338,12.391
		c-0.343,0.874-0.514,1.696-0.514,2.468c0,0.772,0.376,1.611,1.13,2.519c0.752,0.906,1.881,1.358,3.387,1.358h0.822v1.007h-21.967
		v-1.007h0.921c1.577,0,3.147-0.469,4.725-1.409c1.574-0.938,2.874-2.35,3.9-4.229l23.715-52.674
		c3.217-6.647,4.928-11.044,5.133-13.194h0.925l30.49,65.667c1.027,1.949,2.326,3.409,3.902,4.383
		C313.317,153.102,314.925,153.587,316.568,153.587 M262.258,130.624h20.533l-9.959-24.775L262.258,130.624z"/>
	<path fill="#FFFFFF" d="M345.414,98.296h-3.287v49.954c0,1.609,0.566,2.904,1.695,3.877c1.13,0.976,2.414,1.46,3.849,1.46h1.129
		v1.009h-28.229v-1.009h1.229c1.505,0,2.787-0.503,3.852-1.511c1.06-1.008,1.591-2.248,1.591-3.727v-47.94
		c0-1.477-0.531-2.72-1.591-3.727c-1.063-1.008-2.313-1.513-3.746-1.513h-1.335v-1.007h31.517c6.16,0,11.327,1.177,15.502,3.524
		c4.654,2.619,6.981,6.95,6.981,12.993c0,3.895-1.197,7.4-3.592,10.523c-2.398,3.12-5.954,5.021-10.679,5.688
		c1.849,0.604,3.68,1.747,5.492,3.424c1.813,1.682,3.27,3.393,4.364,5.139c2.188,3.827,4.479,7.336,6.877,10.523
		c2.395,3.188,4.33,5.255,5.8,6.192c1.471,0.941,3.27,1.408,5.391,1.408v1.008h-8.622c-5.684,0-10.047-0.669-13.093-2.016
		c-3.045-1.341-5.767-3.894-8.16-7.651c-3.695-5.775-5.989-10.341-6.88-13.697c-0.818-2.015-1.795-3.525-2.925-4.532
		s-2.208-1.576-3.232-1.712v-0.807h2.564c5.816-0.064,9.377-3.425,10.677-10.07c0.272-1.008,0.411-1.879,0.411-2.619
		c0-0.737-0.037-1.763-0.104-3.072c-0.068-1.309-0.497-2.786-1.284-4.431c-0.786-1.645-1.795-2.836-3.027-3.575
		c-2.123-1.273-4.313-1.946-6.57-2.016C347.226,98.33,346.371,98.296,345.414,98.296"/>
	<path fill="#FFFFFF" d="M396.797,147.392c-6.126-5.604-9.188-13.31-9.188-23.112s3.062-17.49,9.188-23.064
		c6.125-5.571,14.563-8.358,25.308-8.358c4.791,0,9.514,0.419,14.169,1.26c4.651,0.84,8.417,1.964,11.292,3.375v16.011h-0.821
		c-3.012-11.078-10.198-16.618-21.561-16.618c-7.118,0-12.542,2.437-16.271,7.304c-3.732,4.868-5.595,11.648-5.595,20.346
		c0,8.694,1.693,15.424,5.082,20.191c3.387,4.768,8.192,7.149,14.423,7.149c3.423,0,6.501-0.788,9.238-2.367
		c2.737-1.575,4.553-3.843,5.441-6.798l0.104-12.086c0-1.274-0.396-2.267-1.184-2.973c-0.786-0.705-1.896-1.06-3.336-1.06h-1.437
		v-0.805h26.385v0.805h-1.231c-3.013,0-4.519,1.349-4.519,4.03v13.496c-2.396,3.021-6.436,5.739-12.115,8.157
		s-11.908,3.626-18.684,3.626C411.154,155.836,402.921,153,396.797,147.392"/>
	<path fill="#FFFFFF" d="M511.115,154.593H462.76v-1.006h1.231c1.573,0,2.89-0.503,3.952-1.511c1.06-1.006,1.625-2.248,1.689-3.727
		v-47.938c-0.065-1.478-0.633-2.722-1.689-3.728c-1.063-1.008-2.379-1.511-3.952-1.511h-1.231v-1.008h36.136
		c1.851,0,3.865-0.166,6.059-0.503c2.188-0.336,3.729-0.67,4.62-1.008v16.014h-1.028v-0.905c0-2.953-0.816-5.271-2.463-6.949
		c-1.643-1.678-3.936-2.553-6.878-2.617h-14.783v24.472h11.703c2.327-0.065,4.21-0.839,5.646-2.315
		c1.438-1.478,2.155-3.356,2.155-5.641v-0.705h1.027v21.35h-1.027v-0.703c0-3.155-1.198-5.438-3.592-6.849
		c-1.234-0.737-2.603-1.106-4.106-1.106H484.42v23.868h12.322c4.242-0.065,7.853-1.358,10.83-3.878
		c2.977-2.52,5.147-6.061,6.517-10.625h0.926L511.115,154.593z"/>
	<path fill="#FFFFFF" d="M568.195,94.165h28.849v1.007h-1.744c-1.577,0-2.892,0.471-3.954,1.41
		c-1.062,0.941-1.626,2.149-1.689,3.625v44.014c0,4.164,0.271,7.588,0.819,10.271l0.205,1.409h-0.926l-47.124-40.789v33.337
		c0.069,1.478,0.635,2.703,1.695,3.677c1.06,0.977,2.377,1.46,3.952,1.46h1.745v1.009h-28.744v-1.009h1.639
		c1.577,0,2.91-0.483,4.006-1.46c1.095-0.974,1.641-2.199,1.641-3.677v-44.314c0-4.027-0.271-7.352-0.819-9.97l-0.203-1.41
		l0.923,0.102l47.021,40.587v-33.134c0-1.478-0.531-2.704-1.594-3.678c-1.063-0.972-2.378-1.46-3.951-1.46h-1.744L568.195,94.165
		L568.195,94.165z"/>
	<path fill="#FFFFFF" d="M660.592,108.465v-0.903c0-2.888-0.819-5.17-2.464-6.849c-1.643-1.679-3.938-2.552-6.879-2.619H639.34
		v50.258c0.068,1.479,0.65,2.721,1.746,3.727c1.092,1.008,2.396,1.511,3.901,1.511h1.128v1.009h-28.335v-1.009h1.025
		c1.574,0,2.908-0.503,4.006-1.511c1.093-1.006,1.641-2.279,1.641-3.826V98.096h-11.805c-3.015,0.066-5.342,0.939-6.981,2.618
		c-1.643,1.679-2.463,3.961-2.463,6.849v0.903h-1.027v-15.91c0.959,0.336,2.547,0.67,4.772,1.007
		c2.225,0.337,4.229,0.502,6.007,0.502h37.882c3.011,0,5.494-0.216,7.445-0.653c1.948-0.438,3.062-0.721,3.335-0.854v15.91
		L660.592,108.465L660.592,108.465z"/>
	<path fill="#FFFFFF" d="M669.112,153.587h1.229c1.645,0,3.045-0.521,4.21-1.562c1.163-1.04,1.745-2.3,1.745-3.775v-47.738
		c0-1.478-0.583-2.735-1.745-3.777c-1.165-1.041-2.564-1.563-4.21-1.563h-1.229v-1.007h29.154v1.007h-1.229
		c-1.576,0-2.942,0.504-4.105,1.513c-1.166,1.006-1.779,2.25-1.849,3.727v47.84c0.068,1.545,0.684,2.818,1.849,3.826
		c1.163,1.008,2.529,1.511,4.105,1.511h1.229v1.009h-29.154V153.587L669.112,153.587z"/>
	<path fill="#FFFFFF" d="M752.883,94.165h28.852v1.007h-1.743c-1.577,0-2.896,0.471-3.954,1.41
		c-1.063,0.941-1.628,2.149-1.693,3.625v44.014c0,4.164,0.272,7.588,0.82,10.271l0.206,1.409h-0.925l-47.122-40.789v33.337
		c0.064,1.478,0.632,2.703,1.69,3.677c1.063,0.977,2.378,1.46,3.955,1.46h1.744v1.009h-28.747v-1.009h1.644
		c1.573,0,2.906-0.483,4.004-1.46c1.096-0.974,1.643-2.199,1.643-3.677v-44.314c0-4.027-0.272-7.352-0.819-9.97l-0.205-1.41
		l0.925,0.102l47.021,40.587v-33.134c0-1.478-0.53-2.704-1.592-3.678c-1.063-0.972-2.379-1.46-3.952-1.46h-1.746v-1.007H752.883z"/>
	<path fill="#FFFFFF" d="M837.682,154.593h-48.354v-1.006h1.23c1.574,0,2.892-0.503,3.952-1.511
		c1.063-1.006,1.625-2.248,1.694-3.727v-47.938c-0.07-1.478-0.635-2.722-1.694-3.728c-1.063-1.008-2.378-1.511-3.952-1.511h-1.23
		v-1.008h36.137c1.849,0,3.866-0.166,6.058-0.503c2.189-0.336,3.729-0.67,4.619-1.008v16.014h-1.024v-0.905
		c0-2.953-0.82-5.271-2.465-6.949c-1.644-1.678-3.937-2.553-6.88-2.617h-14.78v24.472h11.703c2.323-0.065,4.209-0.839,5.646-2.315
		c1.438-1.478,2.157-3.356,2.157-5.641v-0.705h1.022v21.35h-1.022v-0.703c0-3.155-1.199-5.438-3.595-6.849
		c-1.23-0.737-2.604-1.106-4.107-1.106h-11.805v23.868h12.318c4.243-0.065,7.854-1.358,10.83-3.878
		c2.979-2.52,5.148-6.061,6.521-10.625h0.922L837.682,154.593z"/>
	<path fill="#FFFFFF" d="M886.754,147.495c-6.569-5.54-9.854-13.247-9.854-23.117c0-9.869,3.268-17.589,9.806-23.164
		c6.535-5.573,15.589-8.358,27.156-8.358c9.034,0,16.73,1.544,23.099,4.634v16.013h-0.719c-1.712-5.977-4.349-10.236-7.906-12.79
		c-3.559-2.551-8.042-3.828-13.449-3.828c-7.256,0-12.799,2.436-16.631,7.302c-3.834,4.87-5.749,11.518-5.749,19.942
		s1.882,15.124,5.646,20.091c3.9,5.105,9.204,7.655,15.913,7.655c4.855,0,8.86-0.736,12.01-2.214
		c3.146-1.479,5.646-3.844,7.497-7.103c1.846-3.253,3.218-7.668,4.104-13.244h0.718l1.23,15.207c-2.121,3.428-5.355,6.182-9.7,8.261
		c-4.347,2.081-9.703,3.122-16.063,3.122C902.361,155.836,893.327,153.034,886.754,147.495"/>
	<path fill="#FFFFFF" d="M997.323,154.593h-48.354v-1.006h1.232c1.574,0,2.889-0.503,3.952-1.511
		c1.06-1.006,1.626-2.248,1.691-3.727v-47.938c-0.067-1.478-0.635-2.722-1.691-3.728c-1.063-1.008-2.378-1.511-3.952-1.511h-1.232
		v-1.008h36.138c1.849,0,3.864-0.166,6.059-0.503c2.188-0.336,3.729-0.67,4.619-1.008v16.014h-1.025v-0.905
		c0-2.953-0.821-5.271-2.464-6.949s-3.937-2.553-6.877-2.617h-14.783v24.472h11.702c2.326-0.065,4.21-0.839,5.646-2.315
		c1.438-1.478,2.154-3.356,2.154-5.641v-0.705h1.026v21.35h-1.026v-0.703c0-3.155-1.197-5.438-3.593-6.849
		c-1.23-0.737-2.603-1.106-4.105-1.106h-11.808v23.868h12.321c4.242-0.065,7.853-1.358,10.829-3.878
		c2.978-2.52,5.148-6.061,6.52-10.625h0.924L997.323,154.593z"/>
	<path fill="#FFFFFF" d="M1008.41,154.593v-1.006h1.229c1.574,0,2.894-0.503,3.954-1.511c1.063-1.006,1.591-2.248,1.591-3.727
		v-47.84c0-1.476-0.549-2.734-1.642-3.776c-1.097-1.041-2.396-1.562-3.903-1.562h-1.229v-1.008h28.54v1.008h-1.231
		c-1.573,0-2.909,0.503-4.004,1.511c-1.097,1.006-1.642,2.282-1.642,3.826v50.056h12.318c4.242-0.065,7.837-1.358,10.777-3.879
		c2.942-2.519,5.102-6.06,6.47-10.624h1.13l-4.007,18.53L1008.41,154.593L1008.41,154.593L1008.41,154.593z"/>
	<path fill="#FFFFFF" d="M1065.8,154.593v-1.006h1.231c1.573,0,2.89-0.503,3.953-1.511c1.062-1.006,1.592-2.248,1.592-3.727v-47.84
		c0-1.476-0.55-2.734-1.646-3.776c-1.096-1.041-2.396-1.562-3.899-1.562h-1.231v-1.008h28.542v1.008h-1.23
		c-1.576,0-2.91,0.503-4.006,1.511c-1.098,1.006-1.642,2.282-1.642,3.826v50.056h12.318c4.243-0.065,7.838-1.358,10.779-3.879
		c2.94-2.519,5.099-6.06,6.469-10.624h1.128l-4.005,18.53L1065.8,154.593L1065.8,154.593L1065.8,154.593z"/>
	<path fill="#FFFFFF" d="M1190.843,153.587h0.819v1.006h-30.183v-1.006h0.819c1.369,0,2.361-0.4,2.979-1.207
		c0.615-0.807,0.923-1.547,0.923-2.216c0-0.671-0.138-1.376-0.411-2.113l-4.002-9.266h-21.766l-4.106,9.363
		c-0.272,0.674-0.41,1.357-0.41,2.063c0,0.704,0.324,1.445,0.976,2.217c0.646,0.772,1.657,1.156,3.028,1.156h0.821v1.006h-20.533
		v-1.006h0.82c1.438,0,2.875-0.438,4.313-1.309c1.438-0.872,2.603-2.183,3.49-3.929l21.251-44.718
		c3.011-6.647,4.586-10.741,4.724-12.289h0.924l27.516,56.604c0.89,1.947,2.068,3.373,3.542,4.278
		C1187.846,153.134,1189.337,153.587,1190.843,153.587 M1141.771,134.853h18.271l-9.035-21.048L1141.771,134.853z"/>
	<path fill="#FFFFFF" d="M1219.691,98.296h-3.284v49.954c0,1.609,0.563,2.904,1.689,3.877c1.131,0.976,2.414,1.46,3.854,1.46h1.126
		v1.009h-28.231v-1.009h1.231c1.505,0,2.79-0.503,3.85-1.511c1.063-1.008,1.593-2.248,1.593-3.727v-47.94
		c0-1.477-0.53-2.72-1.593-3.727c-1.06-1.008-2.308-1.513-3.745-1.513h-1.336v-1.007h31.52c6.158,0,11.326,1.177,15.504,3.524
		c4.648,2.619,6.978,6.95,6.978,12.993c0,3.895-1.196,7.4-3.591,10.523c-2.398,3.12-5.956,5.021-10.678,5.688
		c1.848,0.604,3.678,1.747,5.492,3.424c1.813,1.682,3.268,3.393,4.361,5.139c2.189,3.827,4.48,7.336,6.877,10.523
		s4.329,5.255,5.803,6.192c1.473,0.941,3.267,1.408,5.39,1.408v1.008h-8.623c-5.681,0-10.046-0.669-13.09-2.016
		c-3.046-1.341-5.771-3.894-8.164-7.651c-3.695-5.775-5.989-10.341-6.877-13.697c-0.82-2.015-1.798-3.525-2.928-4.532
		c-1.127-1.007-2.206-1.576-3.233-1.712v-0.807h2.566c5.816-0.064,9.377-3.425,10.678-10.07c0.274-1.008,0.41-1.879,0.41-2.619
		c0-0.737-0.033-1.763-0.104-3.072c-0.065-1.309-0.493-2.786-1.28-4.431s-1.795-2.836-3.028-3.575
		c-2.123-1.273-4.313-1.946-6.57-2.016C1221.503,98.33,1220.648,98.296,1219.691,98.296"/>
</g>
</svg>
