<?xml version="1.0" encoding="utf-8"?>
<!-- Generator: Adobe Illustrator 20.0.0, SVG Export Plug-In . SVG Version: 6.00 Build 0)  -->
<svg version="1.1" id="Capa_1" xmlns="http://www.w3.org/2000/svg" xmlns:xlink="http://www.w3.org/1999/xlink" x="0px" y="0px"
	 viewBox="0 0 144 100" style="enable-background:new 0 0 144 100;" xml:space="preserve">
<style type="text/css">
	.st0{fill:#B06231;}
</style>
<g>
	<path class="st0" d="M90.5,20.9l0.2-0.6l0-0.2c-0.1,0-0.1-0.1-0.1-0.1l-0.1-0.1l-0.1-0.1l-0.2-0.5c0,0-0.1-0.1-0.3-0.3
		c-0.1-0.1-0.3-0.1-0.5-0.1c-0.2,0-0.4,0.1-0.4,0.2c-0.2,0.2-0.2,0.3-0.2,0.5c0.1,0.2,0.1,0.3,0.1,0.3c-0.2,0-0.3,0-0.4-0.1
		c-0.1-0.1-0.2-0.2-0.2-0.3c-0.1-0.1-0.2-0.3-0.2-0.7c-0.1-0.1-0.2-0.1-0.3-0.2c-0.1,0-0.2,0-0.2-0.1c0,0-0.1-0.1-0.1-0.1l-0.1-0.2
		c-0.1-0.1-0.1-0.1-0.1-0.2L87.3,18c-0.1-0.2-0.1-0.4,0-0.7c0-0.1,0-0.2,0-0.2l0.1-0.2c0.1,0,0.1,0.1,0.2,0.1l0.1,0.3
		c0,0.1,0.1,0.3,0.3,0.4c0.2,0.2,0.4,0.3,0.5,0.3c0.1,0.1,0.3,0.1,0.5,0.1c0.1,0,0.1,0.1,0.2,0.1c0.1,0.1,0.2,0.1,0.3,0
		c-0.1,0.1,0.1,0.2,0.3,0.2c0.3,0,0.4,0.1,0.3,0.2l0.1-0.1c0.2,0.1,0.2,0.1,0.2,0.2l0.1,0.5c0.2,0.3,0.2,0.6,0.1,0.8
		c0,0.1,0,0.2,0,0.2l-0.1,0.2c0,0,0,0.1-0.1,0.2C90.6,20.8,90.5,20.9,90.5,20.9z M77.8,11.4h0.4l0.5,0.1h0.3c0,0,0.2,0,0.3,0.1
		c0,0.2-0.2,0.2-0.3,0.2C78.8,12,78.7,12,78.5,12L77.9,12c-0.2-0.1-0.3-0.2-0.2-0.4L77.8,11.4z M64.9,16.4l0.3,0.9
		c-0.1-0.1-0.4-0.2-0.4-0.2c0,0-0.9-2.9-1.5-4.8c-0.3-0.9-0.5-1.5-0.5-1.6c-0.1-0.3-0.3-0.4-0.4-0.6c-0.4-0.8-0.1-1.4-0.5-2.1
		c-0.4-0.8-1.2-1.9-1.7-2.6c-0.1-0.1-0.1-0.1-0.1-0.2c-0.1-0.1-0.1-0.1-0.2-0.1L59.9,5c-0.1-0.1-0.2-0.1-0.2-0.1h-0.1
		c-0.1,0-0.2-0.1-0.3-0.2c-0.2-0.1-0.4-0.2-0.5-0.5c-0.1-0.3-0.2-0.5-0.2-0.6c0-0.2,0.2-0.5,0.5-0.7l0.3-0.2
		c0.1-0.1,0.3-0.2,0.4-0.2c0.1,0,0.2,0,0.3-0.1c0.1-0.1,0.3-0.1,0.5-0.1c0.3,0.1,0.4,0.1,0.4,0.2h0.5l0.3,0.2c0-0.1,0.1-0.1,0.2-0.3
		L62,2.1C62,2,62.1,2,62.3,1.9c0.1-0.1,0.2-0.2,0.2-0.4c0.1-0.2,0.2-0.3,0.3-0.5c0.1-0.2,0.2-0.3,0.3-0.4l0.6-0.2l0.2,0.1l0.2,0.1
		c0.1,0.1,0.1,0.2,0.1,0.4l0.3,0.2L65,1.5c0,0.1,0,0.2,0.1,0.4c0,0,0,0.1,0,0.1l0.1,0.1c0,0,0.1,0.1,0.2,0.3
		c0.1,0.2,0.2,0.2,0.3,0.2c0,0,0.2,0,0.3-0.1c0.2-0.1,0.3-0.2,0.3-0.2c0.1,0,0.2,0,0.4,0.1l0.1,0.1c0,0,0.1,0,0.2,0
		c0.4,0,0.6,0.1,0.7,0.2c0.2,0.1,0.4,0.2,0.7,0.4c0,0.2,0,0.3,0.1,0.3c0,0,0.1,0.1,0.1,0.2v0.1c0,0.1-0.1,0.2-0.3,0.4
		c-0.1,0.1-0.2,0.2-0.3,0.2c-0.2,0.1-0.3,0.2-0.4,0.4c0,0.1-0.1,0.2-0.2,0.3c-0.2,0.1-0.3,0.2-0.3,0.3v0.2L67,6.2
		c0,0.2,0,0.3,0.1,0.4L67,6.7l-0.1,0.2c0.2,0.3,0.3,0.6,0.3,0.9v0.3c0,0.1,0,0.2,0.1,0.2c0.1,0.1,0.1,0.2,0.1,0.2c0,0,0,0.1,0.1,0.2
		V9c0,0,0.1,0.1,0.1,0.2v0.2c0,0.1,0,0.1,0.1,0.2c0,0.1,0.1,0.2,0.1,0.3c0,0.1,0,0.2,0.1,0.2c0,0,0,0.1,0.1,0.2
		c0.1,0.1,0.1,0.2,0.1,0.2c0.1,0.3,0.1,0.6,0.2,1c0.1,0.4,0.2,0.7,0.3,0.8l0.3,1.7c0.1,0.1,0.1,0.2,0.1,0.4c0,0.1,0.1,0.2,0.1,0.3
		c0,0.1,0.1,0.3,0.1,0.4c0,0.1,0,0.2,0.1,0.2c0,0,0.1,0.1,0.1,0.2c0,0.1,0.1,0.2,0.1,0.2c0,0,0.1,0.1,0.1,0.1v0.2
		c0,0.2,0.1,0.4,0.1,0.5c0,0,0.1,0.2,0.1,0.4c0,0.1,0,0.2,0.1,0.3c0,0,0.1,0.1,0.1,0.2c0,0.1,0.1,0.2,0.1,0.3c0,0.1,0.1,0.2,0.1,0.4
		s0.1,0.3,0.1,0.4c0,0.2,0,0.3,0.1,0.4l0.1,0.4v0.2c0,0.1,0.1,0.1,0.1,0.2c0,0.1,0,0.2,0.1,0.2c0.1,0.1,0.1,0.2,0.1,0.2l-0.1,0.2
		l0.3,0.5v0.4c0,0.2,0.5,1.7,0.4,1.8c0,0,0,0.1,0,0.2c0,0,0.1,0.1,0.1,0.2c0,0.1,0,0.2,0.1,0.2c0,0.2,0.1,0.3,0.1,0.4
		c0,0,0.1,0.1,0.1,0.3c0,0.1,0,0.3,0.1,0.4c0,0.2,0.1,0.3,0.1,0.4c0,0.2,0.1,0.3,0.1,0.4c0,0.1,0.1,0.2,0.1,0.3v0.3
		c0,0.1,0.1,0.3,0.1,0.5c0,0.1,0,0.2,0.1,0.4c0.1,0.2,0.1,0.3,0.1,0.3c0,0.2,0,0.4,0.1,0.6l0.1,0.1v0.1c0,0.2,0,0.3,0.1,0.3
		c0.1,0,0.2,0,0.2-0.1c0.1-0.2,0.1-0.3,0.1-0.4v-0.2l0.1-0.3v-0.1v-0.2l0.1-0.5c0-0.1,0.1-0.2,0.1-0.3l0.1-0.4c0-0.1,0-0.2,0.1-0.3
		c0-0.1,0.1-0.3,0.1-0.5l0.2-1.5c0.1-0.1,0.1-0.2,0.1-0.4v-0.4c0-0.1,0-0.1,0.1-0.1c0,0,0.1-0.1,0.1-0.2c0-0.1,0-0.1,0.1-0.2
		c0-0.1,0-0.2,0-0.2l0.1-0.7l0.2-1.1l0.2-0.1l0.1-0.2l-0.1-0.2l0.1-0.3c0-0.1,0.1-0.2,0.1-0.4c0-0.1,0-0.2,0.1-0.3
		c0-0.1,0.1-0.2,0.1-0.3v-0.5v-0.1c0,0,0.1,0,0.1-0.1V18c0-0.2,0.1-0.3,0.1-0.4c0-0.1,0-0.2,0.1-0.2l0.1-0.5
		c0.1-0.2,0.1-0.4,0.2-0.5V16v-0.4c0.1-0.1,0.1-0.2,0.1-0.2c0,0,0.1-0.1,0.1-0.2V15c0,0,0.1-0.1,0.1-0.2c0-0.1,0.1-0.2,0.2-0.3
		l0.2-0.2c0.1-0.1,0.1-0.1,0.1-0.1c0,0,0-0.1,0-0.2c-0.3,0-0.4-0.8-0.2-0.9c0.1,0,0.2-0.1,0.2-0.2c0-0.1,0.1-0.2,0.3-0.4
		c0-0.3,0-0.6,0.1-0.7c0-0.2,0.1-0.3,0.1-0.4c0.1-0.2,0.1-0.5,0.1-0.7c0-0.2,0-0.4,0.1-0.5c0-0.1,0-0.3,0-0.5
		c0.1-0.3,0.1-0.5,0.1-0.5c0.1-0.3,0.1-0.5,0.1-0.6c0-0.1,0.1-0.2,0.3-0.4l-0.1-0.2V7.7V7.4V7.3l-0.1-1.1c0-0.3-0.1-0.6-0.2-0.8
		c-0.1-0.2-0.2-0.3-0.2-0.3c0,0-0.1-0.1-0.3-0.2c0,0-0.3-0.2-0.7-0.4C75,4.3,74.8,4.1,74.7,4c-0.1-0.2-0.2-0.5-0.1-0.7
		c0.1-0.2,0.3-0.4,0.5-0.6c0.2-0.2,0.5-0.3,0.7-0.4c0.3-0.1,0.6-0.2,0.9-0.2h0.3h0.4c0.1,0,0.2,0.1,0.2,0.2c0.1,0,0.2,0.1,0.2,0.1
		c0.1,0,0.2-0.2,0.3-0.5c0.1-0.4,0.2-0.6,0.3-0.7c0-0.2,0.1-0.4,0.3-0.6L79,0.2l0.3-0.2L80,0.2l0.3,0.4L80.7,1L81,1.3v0.1
		c0,0,0.1,0.1,0.2,0.3c0.1,0.2,0.2,0.3,0.3,0.4C81.6,2,82,1.9,82.4,1.9h0.3c0.4,0,0.6,0.1,0.8,0.2c0.2,0.1,0.3,0.1,0.5,0.2
		c1.4,0.7,0,1.4,0,1.4l-0.4,0.1l-0.4,0L82.1,8l-0.7,2.6l-0.1,0.5l-1.1,3.2L80,15.4c-0.1,0.1-0.1,0.2-0.2,0.3c0,0.2-0.1,0.3-0.1,0.4
		c0,0.1,0,0.2-0.1,0.4c0,0.1-0.1,0.3-0.1,0.4l-0.1,0.1l0.1,0.1l-0.1,0.4c0,0.1-0.1,0.2-0.1,0.2v0.1c0,0.1,0,0.2-0.1,0.3
		c0,0.1-0.1,0.2-0.1,0.2c0,0.2,0,0.4-0.1,0.7c-0.1,0.2-0.1,0.3-0.1,0.4c0,0.1,0,0.2,0,0.2c0,0.1-0.1,0.2-0.1,0.2
		c0,0.1-0.1,0.2-0.1,0.3c0,0-0.1,0.1-0.1,0.1v0.1l0,0.4c0,0.1-0.1,0.2-0.2,0.2c0,0-0.1,0.1-0.1,0.2c0,0.2,0,0.3-0.1,0.4
		c0,0,0,0.1-0.1,0.3c0,0.1,0,0.2-0.1,0.2c0,0.1,0,0.2-0.1,0.4c-0.1,0.1-0.1,0.2-0.1,0.3v0.3v0.2c0,0.1,0,0.2-0.1,0.4
		c0,0.2-0.1,0.3-0.1,0.4c0,0.1-0.1,0.2-0.2,0.4c0,0.2-0.1,0.3-0.1,0.4c0,0,0,0.1-0.1,0.1v0.1c0,0.1-0.1,0.2-0.1,0.3
		c0,0,0.1,0.1,0.1,0.2c-0.1,0-0.1,0-0.1,0.1v0.1c-0.1,0.3-0.2,0.6-0.2,0.9L76.9,27v0.1c0,0.2,0,0.3,0,0.4c0,0-0.1,0.2-0.1,0.4
		c0,0.2,0,0.3-0.1,0.3v0.1c0,0.1,0,0.2-0.1,0.3v0.2c0,0-0.1,0.1-0.1,0.3c0,0.2-0.1,0.3-0.1,0.3c0,0.1,0,0.4-0.1,0.7
		c0,0.3-0.1,0.5-0.1,0.6c0,0.1-0.1,0.2-0.1,0.3c0,0.1,0,0.2-0.1,0.2c0,0.2-0.1,0.3-0.1,0.4c0,0,0,0.2,0,0.4l-0.1,0.2
		c0,0.1,0,0.2-0.1,0.4c0,0.1-0.1,0.2-0.1,0.2v0.3c0,0.2,0.1,0.3,0.1,0.3v0.1c0,0.1,0,0.1-0.1,0.2V34v0.3c0,0.2,0,0.3-0.1,0.4
		l0.3,0.3c0,0.1,0.1,0.2,0.3,0.4c0.1,0.2,0.2,0.3,0.2,0.4c0.1,0,0.2,0,0.2,0c0,0,0.1,0.1,0.1,0.1h0.3c0.2-0.2,0.4-0.3,0.5-0.3
		c0.2,0,0.3-0.1,0.3-0.2h0.1h0.2c0.3,0,0.4,0.1,0.4,0.3c0,0.2,0.1,0.4,0.1,0.6c0,0.1,0,0.3-0.1,0.5c0,0.2-0.1,0.3-0.1,0.4
		c0,0.1-0.1,0.1-0.1,0.2c0,0,0,0.1-0.1,0.2c-0.1,0.3-0.2,0.4-0.2,0.4c-0.1,0-0.3,0.1-0.5,0.3c-0.2,0.1-0.3,0.2-0.4,0.3
		c-0.1,0.1-0.2,0.1-0.3,0.2c-0.1,0-0.3,0.1-0.4,0.2l-0.5,0.1c-0.1,0-0.2,0-0.3,0.1c-0.1,0-0.2,0-0.3-0.1c-0.1-0.1-0.2-0.1-0.4-0.1
		c0.1,0.4,0,0.6-0.4,0.6c-0.4,0-0.6,0.1-0.6,0.2c-0.1,0-0.2,0.2-0.2,0.4c0,0.2,0,0.5-0.1,0.7c0,0,0,0.1-0.1,0.1
		c0,0.1-0.1,0.1-0.1,0.2l-0.1,0.2c0,0,0,0.1,0,0.2l-0.1,0.4L73.2,42c0,0.1,0,0.2-0.1,0.3c0,0.1-0.1,0.2-0.1,0.3c0,0.1,0,0.2-0.1,0.3
		c0,0.1-0.1,0.2-0.3,0.3L72.1,43c-0.1,0-0.2-0.1-0.1-0.2c0-0.1-0.1-0.2-0.2-0.2c-0.1-0.1-0.2-0.2-0.2-0.2c0-0.1-0.1-0.2-0.3-0.5
		l-0.1-0.2c0,0,0-0.2-0.1-0.4c0-0.1-0.1-0.3-0.3-0.5c-0.1-0.3-0.1-0.5-0.1-0.5v-0.1c0,0,0.1-0.1,0.1-0.1c0-0.1-0.1-0.2-0.2-0.2
		c-0.1-0.1-0.2-0.2-0.3-0.2l-0.5-0.1l-0.4-0.7c-0.1,0-0.3,0-0.7,0.1c-0.4,0-0.6,0-0.9-0.1c-0.2,0-0.4,0-0.6-0.1
		c-0.1,0-0.2-0.1-0.3-0.1c-0.1-0.1-0.2-0.1-0.3-0.1c0-0.1-0.1-0.2-0.2-0.2c-0.1-0.1-0.2-0.2-0.2-0.2L66,37.6c0,0,0,0,0-0.1
		c-0.1-0.1-0.2-0.2-0.3-0.4c0,0-0.1-0.2-0.3-0.4c-0.1-0.3-0.2-0.5-0.2-0.5c0,0,0-0.1,0.1-0.2c0.2,0.1,0.4,0.1,0.5,0.1
		c0.1,0,0.3,0,0.5,0.1l0.6,0.2c0.1,0,0.3,0,0.5-0.1c0.2-0.1,0.4-0.2,0.6-0.3c0-0.1,0.1-0.2,0.3-0.4c0.1-0.2,0.2-0.4,0.2-0.5
		c0-0.2,0-0.3,0.1-0.5c0.1-0.3,0.1-0.5,0.1-0.6c0,0-0.1-0.1-0.1-0.2v-0.4l-0.1-0.7v-0.2c0-0.2,0-0.2-0.1-0.2v-0.2
		c0-0.1,0-0.2-0.1-0.4c0-0.2-0.1-0.3-0.1-0.4l0.1-0.4c-0.1-0.1-0.1-0.2-0.1-0.5c0-0.1-0.1-0.3-0.1-0.4c0-0.1,0-0.1-0.1-0.2
		c0,0,0-0.1,0.1-0.2c0-0.1,0-0.2,0.1-0.2c0-0.1,0.1-0.1,0.2,0c0,0.1,0.1,0.3,0.2,0.6c0.1,0.3,0.1,0.4,0.1,0.5c0,0.1,0.1,0.2,0.1,0.4
		c0,0.2,0.1,0.3,0.2,0.4c-0.1,0.1-0.1,0.2-0.1,0.3c0,0.1,0.1,0.2,0.1,0.2c0,0.1,0.1,0.1,0.1,0.2c0,0,0,0.1,0.1,0.2l-0.1,0.2l0.3,1.9
		c0,0,0,0.1-0.1,0.2v0.2l0.1,0.3c-0.1,0.2-0.1,0.3-0.1,0.4c0,0.1,0,0.1-0.1,0.2l-0.1,0.1c-0.1,0.1-0.2,0.2-0.3,0.3
		c-0.1,0.1-0.2,0.2-0.2,0.4l-0.5,0.4c-0.1,0-0.2,0-0.3,0.1c-0.1,0-0.2,0.1-0.3,0.1H67h-0.3c-0.1,0-0.1,0-0.2,0
		c-0.1,0-0.1,0.1-0.1,0.2c0.1,0,0.2,0.1,0.2,0.1c0,0,0.1,0,0.2,0.1c0.1,0.1,0.2,0.1,0.3,0.2c0,0,0.2,0,0.4,0.1
		c0.4,0.1,0.6,0.1,0.7,0.1c0.1-0.1,0.4-0.1,0.9-0.1l0.5-0.2c0.2-0.1,0.3-0.1,0.4-0.1c0.2,0,0.3,0.2,0.2,0.4c0,0.2-0.1,0.3-0.2,0.4
		v0.2l-0.1,0.2v0.3l0.3,0.1l0.5,0.1c0.1,0.1,0.2,0.2,0.2,0.2c0,0,0,0,0,0.2v0.2c0,0,0.1,0.1,0.1,0.2s0,0.2-0.1,0.2v0.1
		c0,0.1,0,0.1,0.1,0.2c0,0,0.1,0,0.1,0.1h0.2c0,0,0,0.1,0,0.2c0,0.1,0.1,0.2,0.2,0.3c0.1,0.1,0.2,0.2,0.2,0.4c0,0.1,0.1,0.2,0.2,0.3
		H72l0.2-0.4c0.1,0,0.1-0.1,0.1-0.2c0-0.1,0-0.2,0.1-0.2l0.1-0.2c0,0-0.1-0.1-0.3-0.1c-0.2,0-0.3,0-0.3-0.1l0.1-0.2l0.5,0.1
		c0.1-0.2,0.1-0.3,0.1-0.4c0-0.1,0.1-0.3,0.2-0.6c0-0.1,0.2-0.2,0.3-0.3c0.2-0.1,0.3-0.1,0.5-0.1l0.1-0.2l0.1-0.4c0,0,0-0.2-0.1-0.4
		c0-0.2,0.1-0.4,0.3-0.4c0.4,0,0.5,0.1,0.5,0.2c0,0.1,0.2,0.1,0.4,0.1c0.1,0.1,0.3,0.1,0.7,0.1c0.4,0,0.6-0.1,0.7-0.3l-1.2,0.1h-0.1
		L75,37.5l-0.2-0.1v-0.3c0.1,0,0.3,0,0.5-0.1c0.3,0,0.4,0,0.5,0.1c0.1,0,0.2,0,0.3,0h0.3c0.2,0,0.3,0,0.3,0.1c0,0,0.1-0.1,0.3-0.1
		c0.2,0,0.3-0.1,0.3-0.2c0-0.1,0-0.1-0.1-0.2c0,0-0.1-0.1-0.1-0.2c0,0-0.1-0.1-0.3-0.3c-0.1,0.1-0.3,0.1-0.5,0.1h-0.1h-0.1L76,36.2
		c-0.1,0-0.2,0.1-0.3,0.2c0,0-0.1,0.1-0.2,0.1h-0.3c-0.1,0-0.2,0-0.1-0.1c0-0.1,0.1-0.1,0.1-0.2c0.1,0,0.2,0,0.2-0.1
		c0-0.1-0.1-0.2-0.2-0.2c-0.1-0.1-0.2-0.2-0.2-0.3c0-0.1-0.1-0.1-0.1-0.1c0,0,0-0.1-0.1-0.2c0-0.1-0.1-0.2-0.1-0.3
		c-0.1-0.2-0.2-0.4-0.2-0.5c-0.1-0.4-0.1-0.6-0.1-0.7v-0.2v-0.1v-0.2l0.1-0.1c0,0-0.1-0.1-0.1-0.2v-0.1l0.2-1c0-0.1,0.1-0.3,0.1-0.5
		c0-0.2,0-0.4,0.1-0.5v-0.2c0-0.1,0.1-0.1,0.1-0.2c0.1-0.2,0.1-0.3,0.1-0.2V30v-0.2c0-0.1,0-0.3,0.1-0.4c0.1-0.2,0.1-0.3,0.1-0.4
		c0-0.2,0-0.3,0.1-0.3v-0.1c0-0.1,0-0.2,0.1-0.4V28c0.1-0.2,0.1-0.3,0.1-0.3c0-0.1,0.1-0.2,0.1-0.3c0,0,0-0.1,0.1-0.3
		c0.1-0.2,0.1-0.3,0.1-0.3c0,0,0-0.2,0.1-0.4c0-0.2,0-0.3,0-0.3c0.1-0.1,0.2-0.2,0.2-0.3c0-0.2,0.1-0.3,0.1-0.6l0.1-0.4
		c0-0.1,0.1-0.3,0.1-0.5c0-0.1,0-0.1-0.1-0.1c0,0,0-0.1,0.1-0.2c0.1-0.1,0.1-0.2,0.1-0.2v-0.4l0.1-0.2c0,0,0-0.3,0.1-0.7
		c0.1-0.4,0.2-0.6,0.2-0.7v-0.2c0,0,0.1-0.2,0.2-0.4c0-0.1,0.1-0.2,0.1-0.2v-0.5L77,20.5l-0.7,0.1c-0.1,0-0.2,0-0.3-0.1
		c-0.1,0-0.2-0.1-0.3-0.1l-0.1-0.2l0.3-0.2c0,0,0.2-0.1,0.4-0.1h0.3h0.3l0.2,0.1v0.1l0.3-0.3v-0.2l0.1-0.2l-0.1-0.1
		c-0.2,0.1-0.4,0.1-0.6,0.1h-0.5H76c0,0,0-0.1-0.1-0.1c0,0-0.1-0.1-0.1-0.2c0-0.2,0.2-0.3,0.5-0.2c0.4,0,0.7,0.1,1,0.1l0.2,0.1
		l0.2-0.4l-0.1-0.2l-1.1,0.1h-0.1c-0.2,0-0.4,0-0.4-0.1c0-0.1,0.1-0.2,0.2-0.3c0.1-0.1,0.2-0.1,0.3-0.1H77h0.2h0.2h0.2
		c0.2,0.1,0.3,0.1,0.3-0.1c0-0.2,0-0.3,0.1-0.4c-0.1-0.3,0-0.5,0.1-0.5c0.1-0.1,0.1-0.3,0.1-0.7l-0.3,0.2h-1.3l-0.1-0.2
		c0.1-0.1,0.1-0.2,0.1-0.2c0-0.1,0.1-0.1,0.3,0c0.1-0.1,0.2-0.1,0.3-0.1c0.1,0,0.2,0.1,0.3,0.1c0.2,0,0.4,0,0.5,0.1
		c0.1,0,0.2,0.1,0.5,0.2c0-0.1,0-0.2,0.1-0.4c0-0.2,0.1-0.3,0.1-0.5c0.1-0.1,0.1-0.2,0.1-0.2c0-0.1,0-0.2,0-0.3
		c0.1-0.1,0.1-0.3,0.1-0.5c0-0.3,0.1-0.5,0.1-0.7l-0.2,0.1l-1,0.1c0,0-0.1,0-0.2-0.1c-0.1,0-0.1-0.1-0.1-0.1c0-0.2,0.1-0.4,0.2-0.4
		h0.3c0.2,0,0.3,0,0.4,0.1l0.1-0.1c0.2,0,0.2,0,0.3,0c0.1,0,0.2,0.1,0.3,0.2c0-0.1,0.1-0.2,0.1-0.4c0-0.2,0-0.2-0.1-0.2h-0.3
		c-0.1,0-0.2,0-0.3,0.1h-0.4c-0.1,0-0.2,0-0.3-0.1c-0.1-0.2,0-0.2,0-0.2l0.3-0.1h0.6h0.3h0.1h0.3l0.4,0l0.3-1.1l0.1-0.4l-0.4-0.1
		L79.3,11l-0.7,0.1L78.1,11c-0.2-0.1-0.3-0.1-0.3-0.2c0-0.2,0.1-0.2,0.3-0.2h0.3h0.3h1h0.1l-0.1-0.1l0.2-0.1l0.1-0.3L80,10l-1.8,0.1
		L78.1,10c-0.1-0.2,0-0.3,0.1-0.4c0.1,0,0.2-0.1,0.3-0.1c0.1,0,0.1,0,0.1-0.1h0.2l0.1,0.1l0.2-0.1h0.2h0.1h0.2l0.6,0.1
		c0.1-0.1,0.2-0.1,0.2-0.2l0.1-0.3l0-0.1l-0.8,0.1c-0.1,0-0.3,0-0.6,0.1c-0.1,0-0.1,0-0.1,0.1h-0.1l-0.1-0.1c0,0,0,0-0.1-0.1v0.1
		l-0.4-0.1l-0.1-0.3c0.2-0.2,0.3-0.2,0.5-0.2h0.3l0.3,0.1h0.2l0.1-0.1l0.4,0.1l0.2-0.1l0.4,0.1c0-0.1,0.1-0.1,0.1-0.1
		c0.1-0.2,0.2-0.3,0.1-0.5L80.9,8l-0.1-0.3l0.2,0l0.2-0.6l-0.3,0c-0.1,0-0.1,0.2-0.1,0.5c0,0.2,0,0.3-0.1,0.3c0,0-0.1,0-0.1,0.1
		h-0.1c0,0-0.1,0-0.1,0.1h-0.1h-0.5c-0.2,0-0.4-0.1-0.5-0.2l-0.5,0.2c-0.3,0.1-0.4,0-0.4-0.3V7.8c0,0,0.1,0,0.1-0.1h0.3L79,7.7V7.3
		c0-0.1-0.1-0.1-0.2,0h-0.3c0-0.1,0-0.1-0.1-0.1V7c0,0,0-0.1,0.1-0.1c0,0,0.1,0,0.1-0.1c0.4,0,0.7,0,0.7-0.1l0.5,0.1
		c0.2,0,0.3,0,0.3-0.1c0.1,0,0.1,0,0.1,0.1h0.2c0.1,0,0.2,0.1,0.2,0.1c0,0,0.1-0.1,0.2-0.1c0.1,0,0.1,0,0.1-0.1c0,0,0.1-0.1,0.1-0.1
		c0.1,0,0.1,0,0.1,0.1l0.3-0.5h-0.1v0.1H81l-1.3,0.2h-0.7c-0.2,0-0.3-0.1-0.5-0.2c-0.1-0.1,0-0.3,0.2-0.4c0.2,0,0.4,0,0.7-0.1
		c0.2,0,0.4,0,0.5,0h0.8c0.2,0,0.4,0,0.7,0.1l0.2,0l0.3-0.7l-0.2,0.1h-0.6l-0.3,0.1l-0.4-0.1l-0.3,0.1h-0.2c-0.1,0-0.2,0-0.4,0.1
		c-0.1,0-0.2,0.1-0.3,0.1c-0.2,0-0.3,0-0.3-0.1c0,0-0.2-0.1-0.3-0.1c0,0-0.1-0.1-0.1-0.1c0-0.2,0-0.2,0.1-0.2c0.1,0,0.2,0,0.2-0.1
		L79.1,5h0.6l0.6-0.1L80.7,5h0.1H81l0.4-0.1L81.9,5l0.1-0.5l-0.8-0.1c-0.2,0-0.3,0.1-0.3,0.1c-0.1,0-0.2,0-0.3-0.1
		c-0.1,0-0.2,0-0.3,0.1c-0.2,0-0.4,0.1-0.5,0.1h-0.3c-0.1,0-0.2,0-0.3,0.1c0,0-0.2,0-0.3-0.1c-0.1,0-0.3,0-0.5,0h-0.5l-0.3-0.1
		c0-0.1,0-0.1,0-0.1V4.1l0.3,0.1l1-0.1h0.1h0.1L79.3,4h0.3H80l0.3-0.1l0.3,0.1L80.8,4c0.3,0,0.4,0,0.5-0.1c0,0,0.2,0,0.5,0.1
		l0.4,0.1l0.1-0.2c0,0,0.1-0.1,0.1-0.2c0-0.1,0-0.1-0.1-0.1c0,0-0.1-0.1-0.2-0.2c0.1,0,0.2-0.1,0.1-0.1c0-0.1,0.2-0.1,0.5-0.1
		c0,0,0.1,0,0.3,0.1c0.2,0,0.3,0,0.3-0.2c0-0.1-0.1-0.2-0.2-0.2c-0.1,0-0.3-0.1-0.4-0.1c-0.1,0-0.2-0.1-0.3-0.1
		c-0.2,0-0.2,0-0.3,0.1c0,0-0.2,0.1-0.3,0.1l-0.2,0.1l-0.4,0.4l-0.6,0.2c-0.1,0.2-0.3,0.2-0.7,0.2c-0.4,0-0.5-0.1-0.5-0.2
		c0-0.1,0-0.2,0.1-0.3l0.4-0.1H80h0.2l0.1,0.1c0-0.1,0-0.2-0.1-0.5c0-0.3,0-0.5-0.1-0.5l-0.4-0.4c-0.1-0.1-0.2-0.2-0.3-0.3
		c0-0.1-0.1-0.2-0.1-0.2c-0.1,0.1-0.1,0.2-0.1,0.2c0,0.1-0.1,0.1-0.2,0.2l-0.2,0.2c0,0.3,0,0.6-0.1,0.7c0,0.1-0.1,0.2-0.1,0.4V3v0.2
		c0,0,0.1,0,0.1,0.1v0.1c0,0.2-0.1,0.3-0.2,0.3h-0.2c0,0,0-0.1-0.1-0.1l-0.2-0.4c0,0.1-0.1,0.2-0.1,0.2l-0.1,0.1h-0.3h-0.2
		c0,0-0.1-0.1-0.2-0.1c-0.1,0-0.2,0.1-0.5,0.1l-0.1-0.1c0.1-0.2,0.2-0.3,0.3-0.2c0.1,0,0.2,0,0.3-0.1h0.7c-0.2-0.3-0.5-0.4-0.8-0.4
		c-0.1,0-0.2,0-0.2,0c-0.1,0-0.2,0-0.3,0.1c-0.1,0-0.1,0.1-0.1,0.2c-0.2,0-0.4,0.1-0.4,0.2c0,0.1,0,0.2,0.1,0.4
		c0.2,0,0.4,0.1,0.5,0.2c0.3,0,0.5,0.1,0.5,0.4c0.1,0.2,0.2,0.4,0.3,0.6c0,0.1,0,0.2,0.1,0.3c0.1,0.1,0.1,0.2,0.1,0.2
		c0,0.1,0,0.2,0,0.2c0.1,0,0.1,0.1,0.1,0.2v0.2c0,0.1,0.1,0.1,0.1,0.2c0,0.1,0,0.2-0.1,0.3c0,0.1,0,0.2,0,0.2l-0.1,0.3l0.1,0.1
		c-0.1,0.1-0.1,0.1-0.1,0.2v0.2c0,0.1-0.1,0.3-0.3,0.7c0.1,0.1,0.1,0.1,0.1,0.2c0,0.3,0,0.4-0.1,0.4c0,0-0.1,0.1-0.1,0.3
		c0,0.2,0,0.4,0,0.5c0,0.1-0.1,0.2-0.1,0.2c0,0.1-0.1,0.2-0.1,0.3c0,0.1,0,0.2,0,0.4c0,0.1,0,0.2-0.1,0.4v0.3c0,0.1,0,0.2-0.1,0.2
		c0,0-0.1,0.1-0.1,0.2c0,0.1-0.1,0.2-0.1,0.3c0,0.1,0,0.2,0,0.2c-0.1,0.1-0.2,0.3-0.3,0.6c-0.1,0.2-0.1,0.4-0.1,0.5v0.2
		c0,0.1-0.1,0.2-0.1,0.2c0,0,0,0.1-0.1,0.2C76,14.1,76,14.3,76,14.4v0.1v0.2v0.1c0,0.2-0.1,0.3-0.2,0.4c0.1,0.3,0,0.6-0.1,0.8
		c-0.1,0.2-0.1,0.4,0.1,0.5c0,0.2-0.1,0.3-0.1,0.2c0-0.1-0.1,0-0.1,0.1v0.4c0,0.2-0.1,0.3-0.2,0.5c0,0.2,0,0.3,0,0.4l-0.1,0.2
		l-0.1,0.4c0,0,0,0.1-0.1,0.2v0.3L75,19.4c0,0.1,0,0.3-0.1,0.5c-0.1,0.2-0.2,0.4-0.2,0.6v0.2c0,0,0,0.1-0.1,0.3c0,0.1,0,0.2-0.1,0.2
		v0.4c-0.1,0.1-0.1,0.1-0.1,0.2v0.3c0,0.1,0,0.2-0.1,0.3c0,0-0.1,0.1-0.1,0.2c0,0.1-0.1,0.2-0.1,0.4c0,0.1,0,0.2-0.1,0.4
		C74,23.7,74,23.8,74,23.9c0,0.1,0,0.2-0.1,0.3c0,0,0,0.1,0,0.2v0.1c0,0.1-0.1,0.1-0.1,0.2V25c-0.1,0.2-0.2,0.4-0.2,0.6V26
		c0,0.1,0,0.1-0.1,0.2l-0.1,0.2c0,0.1,0,0.2-0.1,0.2v0.2c0,0,0,0.2-0.1,0.5c0,0.3-0.1,0.5-0.1,0.5c0,0.3,0,0.4-0.1,0.5
		c0,0.1-0.1,0.3-0.1,0.5c0,0.1-0.1,0.2-0.1,0.4c0,0.2,0,0.3-0.1,0.4L72.2,32L72,32.6v0.2l-0.1,0.1c-0.1-0.2-0.2-0.4-0.3-0.5
		c0-0.1,0-0.2-0.1-0.4c-0.1,0.1-0.3,0.1-0.6,0.1h-0.6l-0.3,0.1c0-0.1-0.1-0.1-0.2-0.1c0,0-0.1-0.1-0.1-0.2c0.2-0.1,0.4-0.2,0.7-0.1
		c0.3,0,0.5,0,0.7-0.1l0.3,0.1c0-0.2,0-0.3-0.1-0.4c0-0.1-0.1-0.2-0.1-0.2c0-0.1-0.1-0.2-0.1-0.4c0-0.2,0-0.3-0.1-0.4
		c0-0.2-0.1-0.3-0.1-0.5c0-0.2-0.1-0.5-0.2-0.7c0-0.2,0-0.4-0.1-0.5c0-0.1,0-0.2-0.1-0.4c-0.1-0.2-0.1-0.3-0.1-0.5
		c-0.1-0.2-0.2-0.2-0.2-0.2v-0.2c0-0.2,0-0.4-0.1-0.6l-0.1-0.3c0-0.1,0-0.1,0-0.2c0,0,0-0.1-0.1-0.2c0-0.2-0.1-0.3-0.2-0.4
		c0-0.1,0-0.1,0-0.2v-0.2v-0.3c0,0,0-0.1-0.1-0.2c0-0.1-0.1-0.2-0.1-0.2c-0.1-0.3-0.1-0.7-0.2-0.9c0-0.1,0.1-0.1,0-0.2
		c0-0.1-0.1-0.2-0.1-0.3l-0.1-0.2c0-0.1-0.1-0.2-0.1-0.3c0-0.1-0.1-0.2-0.1-0.4c0-0.2-0.1-0.3-0.1-0.3c-0.1,0.2-0.2,0.2-0.3,0.2
		c0,0-0.2,0-0.5,0.1c-0.2,0-0.4,0-0.7-0.1c0-0.2,0-0.3,0.1-0.2c0,0,0.1,0,0.3-0.1h0.2h0.1h0.1h0.2c0.3,0,0.4,0.1,0.5,0.2
		c0-0.1,0-0.2-0.1-0.4c-0.1-0.2-0.1-0.4-0.1-0.5c0,0,0-0.1-0.1-0.2c-0.1-0.2-0.1-0.3-0.1-0.4l-0.1-0.5c0-0.1,0-0.3-0.1-0.6
		c-0.1-0.3-0.1-0.5-0.1-0.5c0-0.1-0.1-0.3-0.1-0.5c0-0.3,0-0.5-0.1-0.5v-0.2c-0.2,0-0.3,0.1-0.4,0.1h-0.3c-0.1,0-0.2,0-0.3,0.1h-0.2
		c-0.2,0-0.4,0-0.4-0.1c0-0.1-0.1-0.1-0.2-0.2c0-0.2,0.1-0.2,0.3-0.2h0.5c0.2,0,0.3,0,0.3-0.1c0,0,0.1,0,0.3,0l0.3,0.1v-0.2
		l-0.3-1.5c-0.2,0.1-0.4,0.2-0.4,0.2c0,0-0.2,0-0.4,0.1l-0.1-0.1c-0.1,0.1-0.2,0.1-0.4,0.1c-0.1,0-0.2-0.1-0.2-0.2
		c0.1-0.1,0.1-0.2,0.1-0.2h0.3c0,0,0.1-0.1,0.2-0.1c0.1,0,0.2,0,0.2,0.1H67l0.3,0.1V15v-0.1c0-0.2-0.1-0.5-0.3-1
		c-0.2-0.5-0.2-0.9-0.1-1c-0.1,0-0.1-0.2-0.1-0.4c0-0.1-0.1-0.2-0.1-0.3c0-0.1,0-0.2-0.1-0.3l-0.1-0.2v-0.2c0-0.2,0-0.4-0.1-0.5
		c0-0.1,0-0.3-0.1-0.5c-0.1-0.3-0.2-0.5-0.2-0.6C66,9.7,66,9.6,66,9.5c0-0.1,0-0.2,0-0.2c-0.1-0.2-0.1-0.4-0.1-0.6l-0.1-0.4V8
		l0.1-0.2l-0.1-0.1l-0.1-0.8V6.1V5.8V5.4V5.3h0.1c0-0.1,0-0.2,0.1-0.5C66,4.5,66,4.4,66.1,4.3c0.1,0,0.2-0.1,0.2-0.1
		c0,0,0.1-0.1,0.2-0.1c0.1-0.1,0.2-0.1,0.3-0.2L67,3.7l-0.1-0.1c0,0-0.1,0.1-0.2,0.1h-0.4l-0.1-0.1c0,0,0.1,0,0.1-0.1
		c0-0.1,0-0.1-0.1-0.1l0.1-0.1C66,3,65.9,3,65.7,3.1l-0.4,0.2c-0.2,0.1-0.3,0.1-0.5,0.1h-0.2c0,0,0-0.1-0.1-0.1
		c0,0.2-0.2,0.3-0.3,0.3h-0.3h-0.3h-0.3c-0.1,0-0.2-0.1-0.3-0.1c0,0-0.1-0.1-0.1-0.2l0.3-0.2l0.1-0.1c0.1,0.1,0.2,0.1,0.3,0.2
		c0.1,0,0.2-0.1,0.3-0.2c0.1,0.1,0.3,0.1,0.5,0.1l0.3,0.1c0-0.2,0-0.2-0.1-0.2c0,0-0.1-0.1-0.3-0.3l-0.2,0.1c-0.4,0-0.5-0.1-0.5-0.3
		c0-0.2,0-0.2,0.1-0.2c0.1,0,0.2,0,0.3-0.1l-0.5-0.4c-0.3,0.1-0.4,0.1-0.3,0.2c0,0,0,0.1-0.2,0.2l-0.1,0.1l0.1,0.2h-0.2l0.1,0.2
		h-0.1c0,0.1,0,0.2-0.1,0.2C62.4,2.9,62.4,3,62.3,3c0,0.1-0.1,0.2-0.1,0.2v0.4l-0.7,0.1l-0.1-0.1l-0.1,0.1c-0.2,0-0.4,0-0.5-0.1
		c0-0.1-0.1-0.1-0.1-0.2c0,0,0-0.1-0.1-0.2c-0.2,0-0.4,0-0.5,0.1c0,0.1-0.2,0.1-0.4,0.1l-0.2,0.1l0.1,0.2c0.1,0.1,0.2,0.2,0.4,0.2
		c0.2,0,0.3,0.1,0.3,0.2c0.1,0,0.2,0.1,0.2,0.2c0.1,0.1,0.2,0.2,0.3,0.3c0.1,0.1,0.1,0.2,0.1,0.3c0.6,0.2,1,0.6,1.2,1.2
		c0.1-0.1,0.1-0.1,0.1-0.1L62.3,6h0.4h0.1H63h0.4L64,5.9L64.4,6c0.1-0.1,0.2-0.1,0.3-0.1C64.8,6,64.9,6,65.1,6c0.2,0,0.4,0,0.4,0.1
		c0,0,0,0.1-0.2,0.3l-1,0.1h-0.5l-0.1,0.1c-0.4,0-0.7,0-0.9,0c-0.1,0-0.3,0-0.4-0.1c0.1,0.1,0.1,0.2,0.1,0.3c0,0.2,0,0.3,0.1,0.3
		l0.2,0H63h0.2h0.4v0.1L63,7.4l-0.5,0.1c0.1,0.1,0.1,0.1,0,0.2l0.1,0.2l0.1,0.1L63,8l0.3-0.3l0.3-0.2c0.1,0,0.3,0,0.5,0.1
		c0.3,0,0.4,0.1,0.3,0.2l0.3,0.4l-0.1,0.4c0.1,0.1,0.1,0.3,0,0.4c-0.1,0.2-0.1,0.3-0.1,0.4l-0.2,0.2l0.5,0.1
		c0.1-0.1,0.2-0.1,0.3-0.1c0.1,0,0.3,0.1,0.4,0.1c0.3,0,0.3,0.1,0.1,0.2c-0.2,0.1-0.3,0.1-0.3,0.2c-0.1,0-0.2-0.1-0.4-0.1
		c-0.1,0-0.2,0-0.2,0.1h-0.1c-0.1,0-0.2-0.1-0.3-0.1l-1.3,0.1c0,0.1,0.1,0.1,0.1,0.2c0,0.1,0,0.1,0.1,0.2l0,0.1h0.4h0.1h0.3h0.1h1.1
		c0.2,0,0.4,0,0.5,0.1c0.2,0,0.3,0.1,0.4,0.2c0,0-0.1,0-0.1,0.1C66.1,11,66,11,66,11l-2.3,0.1c0,0-0.1,0-0.2,0l0.2,0.5h0.2h0.5h0.3
		h0.2h0.1h0.5h0.1c0.1,0,0.2,0,0.3,0.1c0.1,0,0.2,0,0.1,0.1c-0.1,0.1-0.2,0.2-0.4,0.2h-0.3L64.8,12h-0.5l-0.6,0c0,0.1,0,0.1,0.1,0.2
		c0.1,0.1,0.1,0.3,0.1,0.4c0.1,0,0.1,0.1,0.2,0.2l0.1-0.1c0.1,0,0.1,0,0.1,0.1c0,0,0,0.1,0.1,0.1l0.1,0.2v0.1l0.1,0.1l-0.1,0.2
		l0.1,0.3L64.6,14l0.3,0.3c-0.1,0.1-0.1,0.2-0.1,0.3c0,0.1,0.1,0.2,0.1,0.3l0.1,0.2v0.2c0,0.2,0,0.3,0.1,0.4v0.1v0.5L64.9,16.4z
		 M67.4,25l0.1,0.2l0.7,3.3c-0.1-0.1-0.2-0.1-0.2-0.1c0,0-0.2-0.1-0.3-0.2c-0.1,0-0.2-0.1-0.3-0.1c-0.1,0-0.4-2-0.4-2.1l0.1-0.2
		c0-0.1-0.1-0.2-0.1-0.2c0-0.1,0-0.2,0-0.2c0-0.1,0-0.2-0.1-0.2c0-0.1-0.1-0.2-0.1-0.3l-0.3-1.1c0-0.1-0.1-0.2-0.1-0.5
		c0-0.3,0-0.5-0.1-0.7c0-0.1-0.1-0.2-0.1-0.5c0-0.3,0-0.5-0.1-0.6c0-0.1,0-0.3-0.1-0.4c0-0.2-0.1-0.3-0.1-0.4c0-0.1-0.1-0.2-0.1-0.4
		c0-0.2,0-0.3-0.1-0.4c0.1-0.2,0-0.3-0.1-0.4c0-0.1-0.1-0.2-0.1-0.3c0-0.1,0-0.2,0-0.3c-0.1-0.1-0.2-0.2-0.2-0.5v-0.1l-0.1-0.1
		C65.1,18,65.1,18,65.1,18l0.1-0.4c0.1,0,0.2,0.1,0.3,0.2c0,0.1,0.1,0.2,0.1,0.2c0,0.2,0,0.3,0.1,0.3c0,0,0.1,0.1,0.1,0.3
		c0,0.1,0,0.1,0.1,0.2c0,0,0,0,0,0.1l0.1,0.2l0.1,0.1l0.1,0.1L66,19.4c0,0,0.1,0.1,0.1,0.2c0,0.1,0,0.2,0.1,0.4c0,0.1,0,0.2,0.1,0.2
		c0,0.1,0.1,0.2,0.1,0.4c0,0.2,0.1,0.4,0.1,0.5v0.2c0,0,0.1,0.1,0.1,0.2c0,0.1,0,0.1,0.1,0.2l0.1,0.6L67,23c-0.1,0.1-0.1,0.3,0,0.5
		c0.1,0.2,0.1,0.3,0.1,0.5v0.1c0,0,0.1,0,0.1,0.1v0.2c0,0.2,0.1,0.3,0.1,0.4C67.4,24.9,67.4,25,67.4,25z M68.7,23.8l-0.3,0.2
		c-0.3,0-0.4-0.1-0.4-0.3c0.1-0.1,0.2-0.1,0.2-0.1c0.1,0,0.2,0,0.2,0c0,0,0.1,0,0.1-0.1C68.7,23.5,68.7,23.6,68.7,23.8z M71.1,35.4
		c0-0.2,0-0.7,0.1-1.3c0.1-0.6,0.3-1,0.5-1.2c0,0.2,0.1,0.4,0.3,0.7c0.2,0.3,0.2,0.5,0.2,0.7l0.1,0.9c0.1,0,0.1,0.2,0.1,0.4
		c0,0.2,0.1,0.3,0.1,0.4c0,0.1,0,0.2-0.1,0.2c0,0-0.1,0.1-0.3,0.2c0,0-0.2,0-0.3,0.1h-0.3l-0.3-0.1l-0.9,0.2h-0.1
		c-0.1,0-0.3-0.1-0.4-0.1c-0.1,0-0.1,0-0.1-0.1c0.1,0,0.2-0.1,0.2-0.1c0-0.1,0.2-0.1,0.4-0.1c0.2,0,0.3,0.1,0.4,0.1
		c0.1,0,0.3,0,0.4,0.1v-0.5c0,0-0.1-0.1-0.1-0.1L71.1,35.4L71.1,35.4z M61.9,5.3C62,5.1,62.1,5,62.2,5c0.2,0,0.3,0,0.3,0h0.3h1h0.9
		L64.9,5c0.3,0,0.4,0.1,0.5,0.3l-0.3,0.1c-0.1,0-0.3,0.1-0.5,0.1c-0.1,0-0.3,0.1-0.4,0.1h-0.3h-0.5c-0.1,0-0.2,0-0.3,0.1h-0.2
		l-0.9-0.1L61.9,5.3z M63.4,4.1c0.1,0.1,0.3,0.1,0.5,0.1c0.1-0.1,0.2-0.1,0.3-0.1h0.1h0.2l0.1,0.2l-0.6,0.1l-0.1-0.1
		c-0.2,0.1-0.5,0.2-1,0.2h-1l-0.1,0.1l-0.3-0.1l-0.1-0.3l0.3-0.1l0.4,0.1l0.2-0.1H63L63.4,4.1z M73.6,36.6c-0.1,0-0.2,0-0.2-0.1
		c0,0,0,0-0.1,0c-0.2,0.1-0.3,0.1-0.4-0.1c-0.1,0-0.1-0.1-0.1-0.1c0-0.1,0.1-0.1,0.2-0.2c0.1-0.1,0.2-0.1,0.2-0.1h0.2h1
		c0.5,0,0.7,0,0.7,0.2L73.6,36.6z M71.4,37.1h0.3c0,0,0.1-0.1,0.2-0.1H72c0.2,0,0.5,0.1,0.9,0.1c0.4,0,0.7,0,0.7,0.2
		c-0.2,0-0.4,0.1-0.5,0.1c-0.1,0-0.3,0-0.5,0.1h-0.3c-0.2,0.1-0.4,0.1-0.6,0c-0.1,0-0.2,0-0.2,0c0,0-0.1-0.1-0.2-0.2L71.4,37.1z
		 M72.5,34.7c0.1-0.1,0.1-0.2,0.1-0.2c0-0.1,0.2-0.1,0.3-0.1h0.6h0.2H74c0.1,0,0.2,0.1,0.2,0.2h0.1v0.1l-0.1,0.1
		c-0.1,0-0.2,0.1-0.4,0.1h-0.4H73h-0.3C72.7,34.8,72.6,34.7,72.5,34.7z M72.3,33.7c0-0.1,0.1-0.2,0.4-0.2c0.3,0,0.4-0.1,0.5-0.1
		c0.1,0,0.2,0,0.4,0.1c0.2,0,0.4,0,0.6,0.1v0.2l-1.4,0.1c-0.1,0-0.2-0.1-0.3-0.1C72.3,33.8,72.3,33.7,72.3,33.7z M76.9,15.1h0.4
		l0.5,0.1h0.3c0,0,0.2,0,0.3,0.1c0,0.2-0.2,0.2-0.3,0.2c-0.2,0.1-0.3,0.2-0.4,0.2L77,15.7c-0.2-0.1-0.3-0.2-0.2-0.4L76.9,15.1z
		 M76.3,17.3c0.1,0,0.1-0.1,0.1-0.1c0.1,0,0.1-0.1,0.1-0.1h0.7l0.2,0.1h0.1c0.1,0.1,0.1,0.2,0.1,0.2l0.1,0.1l-0.5,0.1h-0.1l-0.7,0.2
		L76.3,17.3z M75.6,23.1h0.1c0,0,0.1-0.1,0.1-0.1l0.5,0.1c0,0.1,0.1,0.1,0.1,0.1c0,0.2-0.1,0.3-0.3,0.3h-0.5c-0.1,0-0.2,0-0.2,0.1
		h-0.1c-0.1-0.1-0.2-0.2-0.3-0.3c0.1-0.2,0.2-0.3,0.3-0.2C75.3,23.1,75.4,23.1,75.6,23.1z M75.2,22.3c0-0.2,0.1-0.2,0.3-0.2h0.4h0.3
		c0,0,0.2,0,0.4,0.1l-0.1,0.2c-0.1,0-0.2,0.1-0.3,0.2c0,0-0.2,0.1-0.4,0.1c-0.1,0-0.3,0-0.5-0.1C75.3,22.5,75.2,22.4,75.2,22.3z
		 M69.8,31.2c0-0.2,0.2-0.3,0.3-0.3c0.1,0,0.2-0.1,0.3-0.1h0.3H71h0.1l0.2,0.2l-0.1,0.2c-0.4,0-0.6,0.1-0.8,0.2
		C70.2,31.4,70,31.3,69.8,31.2z M72.4,38.3c-0.2,0.2-0.4,0.2-0.7,0.2c-0.1,0-0.2,0-0.4-0.1c-0.2-0.1-0.3-0.1-0.3-0.1v-0.2h0.2
		c0.1,0,0.2-0.1,0.5-0.1h0.1h0.2c0.1,0,0.2,0,0.2,0.1h0.3l0.1-0.1h0.1C72.7,38.4,72.5,38.5,72.4,38.3z M68.9,28.3
		c0.2-0.1,0.5-0.1,0.9-0.1c0.4,0,0.6,0,0.6,0.1c0,0.1-0.1,0.2-0.1,0.2c0,0-0.2,0-0.3,0.1c-0.1,0-0.2,0.1-0.3,0.1l-0.8-0.1V28.3z
		 M66.5,14.1c0.1,0.1,0.2,0.1,0.3,0.2c0,0,0.1,0.1,0.1,0.2l-0.1,0.1l-0.4,0.1c-0.1,0-0.1,0-0.1,0H66l-0.3-0.1
		c-0.1,0-0.1-0.1-0.1-0.2c0,0,0-0.1,0.1-0.1c0.1,0,0.2-0.1,0.3-0.1h0.2h0.1L66.5,14.1z M73.7,29.1c0-0.1,0.1-0.2,0.1-0.2
		c0-0.1,0.1-0.2,0.3-0.2c0.1,0,0.2,0,0.3,0h0.5l0.2,0.1v0.1c0,0.1-0.1,0.2-0.3,0.2h-0.5H73.7z M67.7,20.7h0.3h0.1
		c0.1,0.1,0.2,0.1,0.2,0.1c0,0,0.1,0,0.1,0.2L68.3,21L68,21.1h-0.7L67.1,21c0-0.1,0-0.2,0-0.2l0.2-0.2H67.7z M74.9,25
		c0.2,0,0.2,0,0.2,0c0,0,0.1,0,0.3,0h0.2c0.1,0,0.2,0.1,0.3,0.1v0.2c-0.4,0.1-0.7,0.2-1,0.2c-0.1,0-0.2-0.1-0.4-0.2L74.9,25z
		 M72.9,32.5c0.1,0,0.2-0.1,0.1-0.1h0.1h0.7c0.2,0,0.4,0.1,0.4,0.2L74,32.8h-0.2c-0.1,0-0.2,0-0.3,0.1h-0.2h-0.2c0,0-0.1,0-0.1-0.1
		l-0.1-0.2V32.5z M74.1,29.6l0.6,0.1c0.1,0.1,0.1,0.1,0.1,0.2L74.6,30h-0.8c0,0-0.1,0-0.1,0.1c0,0-0.1,0-0.2-0.1
		c-0.1,0,0-0.1,0.1-0.3L74.1,29.6z M67.3,16.1l0.1,0.1l-0.1,0.2c-0.1,0-0.2,0-0.3,0.1h-0.3h-0.1h-0.2c0,0-0.1-0.1-0.3-0.1
		c0-0.1,0-0.2,0.1-0.3H67.3z M69.7,35.5c0.1,0,0.2,0,0.5-0.1c0.3-0.1,0.5,0,0.6,0.1l0.2-0.1l0.1,0.1c-0.2,0.1-0.4,0.1-0.5,0.2h-0.4
		h-0.5h-0.2c0,0-0.1-0.1-0.1-0.2h0.1C69.6,35.5,69.6,35.5,69.7,35.5z M74.6,30.7c0,0.1-0.2,0.2-0.5,0.2h-0.5c-0.2,0-0.3-0.1-0.3-0.2
		c0-0.1,0.2-0.2,0.5-0.2c0.2,0,0.4,0,0.5,0.1C74.6,30.6,74.6,30.7,74.6,30.7z M75,25.9l0.6,0.1l-0.1,0.3l-0.9,0.1l-0.1-0.2l0.1-0.2
		H75z M74.9,24.2c0,0,0.1-0.1,0.3-0.1c0.3-0.1,0.5-0.1,0.6,0h0.3L76,24.3c-0.1,0-0.2,0.1-0.3,0.1h-0.3h-0.3c-0.1,0-0.2,0-0.3-0.1
		V24.2z M74.6,26.8c0.1,0.1,0.2,0.1,0.2,0.1c0-0.1,0.1-0.1,0.2-0.1c0,0,0.1,0.1,0.3,0.1v0.2L75,27.2c0,0,0,0-0.3,0.1
		c-0.1,0-0.2,0.1-0.3,0.1c-0.1,0-0.2-0.1-0.3-0.2l0.1-0.2L74.6,26.8z M72.9,35.5c-0.1-0.2-0.1-0.3,0.2-0.2c0.3,0,0.5,0,0.6-0.1
		l0.1,0.1c0.1-0.1,0.2-0.1,0.3-0.1c0.1,0,0.2,0.1,0.3,0.1l-0.3,0.2l-0.5-0.1c-0.1,0-0.2,0-0.2,0.1h-0.1H73
		C73,35.6,72.9,35.6,72.9,35.5z M70,30.4c-0.4-0.2-0.4-0.4,0.1-0.4c0.1,0,0.2,0,0.4,0.1c0.2,0,0.4,0,0.5,0.1l-0.4,0.1L70,30.4z
		 M66.4,18l0.1-0.1c0,0,0.1-0.1,0.3-0.1c0.4,0,0.7,0,0.9,0.1c-0.1,0.2-0.3,0.3-0.5,0.2c-0.2-0.1-0.3-0.1-0.5,0
		c-0.1-0.1-0.2-0.1-0.3-0.1C66.5,18.3,66.5,18.2,66.4,18z M77.2,14.3c0,0.1,0.1,0.1,0.2,0.1c0.1,0,0.2,0,0.3-0.1
		c0.1,0,0.2,0.1,0.1,0.1h0.3v0.2c-0.2,0-0.3,0.1-0.3,0.2l-0.1-0.1l-0.3-0.1c-0.2,0-0.4-0.1-0.4-0.3L77.2,14.3z M70.9,32.7
		c0.1,0,0.2,0.1,0.3,0.1c0.1,0,0.2,0,0.2,0.1c0.1,0.1,0.1,0.1-0.1,0.2L71,33.1c-0.1,0-0.2-0.1-0.3-0.1h-0.1c-0.2,0-0.4,0-0.5-0.1
		c-0.1-0.1,0-0.1,0.3-0.1L70.9,32.7z M75.4,21.3c0,0,0.1,0,0.1-0.1h0.1H76h0.3c0,0,0.2,0,0.3,0.1c-0.2,0.2-0.3,0.2-0.5,0.2
		c0,0-0.1,0.1-0.1,0.1h-0.2l-0.3-0.1c0,0-0.1,0-0.1,0V21.3z M66.9,18.8l1,0.1c0.1,0.2,0,0.3-0.4,0.3c-0.4,0-0.7,0-0.9-0.1L66.9,18.8
		z M73.5,31.5c0-0.1,0.1-0.1,0.2-0.1h0.2h0.2c0.1,0,0.2,0.1,0.3,0.2L74,31.8l-0.1-0.1l-0.1,0.1h-0.1h-0.3l-0.1-0.1l0.1-0.2
		L73.5,31.5z M74,28c0.2-0.2,0.4-0.2,0.5-0.2h0.5H75V28l-0.1,0.1c0,0-0.1,0.1-0.1,0.1h-0.3c0,0-0.1,0-0.2-0.1L74,28z M65.5,12.6
		c0.1-0.1,0.2-0.1,0.2-0.1H66c0.1,0,0.2,0,0.3,0.1l-0.1,0.2C66.1,12.9,66,13,65.8,13c-0.1,0-0.1-0.1-0.2-0.1L65.5,12.6z M67.9,22.6
		c0.1,0,0.1,0,0.1,0h0.1h0.3l0.3,0.1c-0.1,0.1-0.2,0.1-0.4,0.1h-0.5l-0.2-0.1L67.9,22.6z M71,33.9c0,0.1-0.1,0.2-0.3,0.2
		c-0.2,0-0.3,0-0.4-0.1c-0.2,0-0.3-0.1-0.1-0.1c0.1-0.1,0.3-0.1,0.4-0.1c0,0,0.1,0,0.3,0.1C71,33.7,71,33.8,71,33.9z M69.9,29.1h0.3
		c0.1,0.1,0.2,0.1,0.2,0.1c0,0.1-0.1,0.1-0.3,0.2c-0.2,0-0.3,0.1-0.4,0.1h-0.1l-0.1-0.2L69.9,29.1z M72.2,39c0.1,0,0.2,0,0.2,0.1
		c0,0,0.1,0,0.2,0.1c0,0.1-0.1,0.1-0.1,0.2c0,0,0,0.1-0.1,0.1h-0.3c-0.2,0-0.4,0-0.4-0.1C71.8,39,72,39,72.2,39z M67.3,19.6l0.1,0.1
		l0.5,0.1L67.5,20h-0.5l-0.1-0.2L67.3,19.6z M65.1,8.3C65,8.2,64.9,8.1,64.9,8c0-0.1,0-0.2,0.3-0.2h0.1c0,0,0.1,0.1,0.3,0.2
		c-0.1,0.2-0.1,0.3-0.1,0.2C65.4,8.2,65.3,8.2,65.1,8.3z M68.8,27.5c0-0.1,0.1-0.2,0.3-0.2h0.4h0.3c-0.1,0.2-0.3,0.3-0.6,0.3
		C69,27.7,68.8,27.6,68.8,27.5z M79.4,2.4c0.3,0,0.4-0.1,0.3-0.1c0,0,0.1,0,0.4,0.2L80,2.7h-0.2c-0.2-0.1-0.3-0.2-0.3-0.2
		C79.5,2.5,79.4,2.4,79.4,2.4z M65.8,13.3l0.3,0.1l0.1,0.2l-0.3,0.1h-0.2l-0.1-0.2L65.8,13.3z M65.1,8.7l0.5,0.1l0.1,0.1
		C65.6,9,65.5,9.1,65.5,9c0,0,0,0-0.1,0.1l-0.3-0.2L65.1,8.7z M65.1,7h0.1h0.2c0,0,0,0,0.1,0.1c-0.1,0.1-0.2,0.2-0.3,0.2
		c0,0-0.1,0-0.2,0l-0.2-0.2L65.1,7z M65.3,4.1c0.4,0,0.5,0.1,0.3,0.2c-0.1,0.2-0.3,0.1-0.5-0.1L65.3,4.1z M70,34.9
		c0-0.1,0-0.1,0-0.2c0,0,0.1-0.1,0.2-0.1c0.1,0,0.2,0.1,0.2,0.1c0,0,0.1,0,0.1,0.1c-0.1,0.2-0.2,0.2-0.3,0.2
		C70.2,34.9,70.1,34.9,70,34.9L70,34.9z M73.7,38.3l-0.1,0.1l-0.2-0.1l0.1-0.2l0.1,0.1h0.2L73.7,38.3z M66.4,13.4l0.1,0.1l-0.1,0.1
		V13.4z M68.4,24.3h0.3h0.1c0.1,0.1,0.2,0.1,0.2,0.1c0,0,0.1,0,0.1,0.2l-0.3,0.1l-0.3,0.1h-0.7l-0.1-0.1c0-0.1,0-0.2,0-0.2l0.2-0.2
		H68.4z M68.7,25.2H69h0.1c0.1,0.1,0.2,0.1,0.2,0.1c0,0,0.1,0,0.1,0.2l-0.3,0.1L69,25.7h-0.7l-0.1-0.1c0-0.1,0-0.2,0-0.2l0.2-0.2
		H68.7z M68.3,26.5c0.2-0.1,0.5-0.1,0.9-0.1c0.4,0,0.6,0,0.6,0.1c0,0.1-0.1,0.2-0.1,0.2c0,0-0.2,0-0.3,0.1c-0.1,0-0.2,0.1-0.3,0.1
		l-0.8-0.1V26.5z M83.3,9.4l0.1-0.2l0.1,0.1c0.1,0,0.1,0,0.2,0l0.2,0.2l-0.1,0.2l-0.2-0.1L83.3,9.4z M84.1,8.5
		c0.3,0.1,0.5,0.2,0.5,0.2L84.7,9l-0.1,0.1c-0.2-0.1-0.2-0.1-0.2-0.1c-0.2-0.1-0.4-0.1-0.5-0.2c-0.2-0.1-0.3-0.1-0.3-0.2l0-0.1
		C83.7,8.4,83.9,8.4,84.1,8.5z M85.6,27.2l0.1,0l0.3-0.1l0.4-0.1l0.4-0.1c0.2,0,0.3,0,0.4,0.1c-0.2,0.2-0.5,0.3-0.8,0.4
		c-0.1,0-0.2,0.1-0.4,0.1c-0.2,0-0.3,0.1-0.3,0.1l-0.2,0l-0.4-0.1l-0.1-0.2l0-0.1L85.6,27.2z M80.7,17.4l0,0.2L80.7,17.4
		c0.1,0.1,0.1,0.2,0.2,0.3C80.9,17.6,80.8,17.5,80.7,17.4z M82.6,11.3l0.3-0.8c0,0,0.1,0,0.1,0c0-0.1,0-0.1,0.1-0.2
		c0.1,0,0.2-0.1,0.1-0.2l-0.2,0l0.1-0.3c0.1,0,0.2,0,0.2,0.1c0,0,0,0.1,0,0.2l0.1,0c0.1-0.1,0.1-0.2,0.2-0.2c0,0,0.1-0.1,0.2-0.2
		c0,0,0.1-0.1,0.2-0.1c0.1,0,0.2-0.1,0.2-0.2c0.1,0,0.1,0,0.1,0l0.2-0.1c0-0.1,0.1-0.1,0.1-0.1c0.1,0,0.1,0,0.2-0.1
		c0.1-0.1,0.4-0.2,0.7-0.3c0.1-0.1,0.1-0.1,0.1-0.1c0.1,0,0.1,0,0.2-0.1c0.1,0,0.1-0.1,0.2,0c0,0,0.1,0,0.2,0
		c0.1-0.1,0.2-0.1,0.4-0.1c0.2,0,0.3-0.1,0.3-0.1l-0.3-0.1l-0.1-0.1c-0.1,0-0.1,0-0.2,0l-0.7-0.3c-0.2-0.1-0.3-0.2-0.4-0.3l0.3,0
		l0.3,0.1l0.4,0.2l0.2,0.1c0,0,0.1,0.1,0.1,0.2l0.2,0l0.3,0.2v0.2c0.2-0.1,0.5-0.1,0.9,0l0.7,0.3c0.2,0.2,0.4,0.3,0.4,0.3
		C88.9,9,89,9.1,89.2,9.2c0.1,0.1,0.2,0.2,0.3,0.4c0.2,0.2,0.3,0.3,0.3,0.3c0,0-0.1,0.1,0,0.2c0,0.1,0,0.2,0,0.3
		c-0.1,0.2-0.1,0.2-0.2,0.2c-0.1,0.1-0.1,0.1-0.1,0.2l-0.4,0c0,0.1-0.1,0.1-0.2,0.1L88.7,11c-0.1,0.3-0.1,0.5,0,0.6
		c-0.1,0.2,0,0.4,0.1,0.4c0.2,0.1,0.3,0.2,0.4,0.2l0.3,0.1l0.3-0.2L89.6,12c-0.3-0.1-0.4-0.2-0.4-0.3c0-0.1,0.1-0.2,0.3-0.1l0.2,0.1
		l0.1,0l0.1,0.1c0.1,0,0.2,0.1,0.3,0.1l0.1-0.2l-0.1-0.1c-0.1,0-0.2-0.2-0.2-0.3l0.3,0l0.2,0c0-0.2-0.1-0.4-0.2-0.4
		c-0.1,0-0.2-0.1-0.3-0.3l0.6,0v-0.3c-0.1-0.1-0.1-0.1-0.2-0.1l-0.1-0.1l-0.5-0.3l0-0.2c0.1-0.1,0.2-0.1,0.3,0l0.2-0.1l-0.1-0.2
		l-0.1-0.2l-0.4-0.2c-0.3-0.1-0.5-0.2-0.7-0.2l-0.3-0.1c-0.1,0-0.1-0.1-0.2-0.1c0,0-0.1-0.1-0.1-0.1l0-0.1l1.1,0.3l-0.4-0.6l-0.2,0
		l-0.5-0.3l-0.7-0.2l-0.1-0.1c-0.1,0-0.2,0-0.2,0c-0.1,0-0.1,0-0.2,0c-0.1,0-0.2,0-0.3,0c-0.1,0-0.2,0-0.3,0l0.2,0.2
		c0.3,0,0.4,0.1,0.4,0.2c0,0.1,0.1,0.1,0.2,0.2c0.3,0,0.5,0.1,0.5,0.2C88,7.9,88,8,87.9,8l-0.2,0c-0.1,0-0.2-0.1-0.4-0.2
		c-0.2-0.1-0.3-0.2-0.6-0.3c-0.1,0-0.3-0.1-0.4-0.2c-0.1,0-0.2,0-0.3-0.1c0,0-0.1,0-0.3,0l-0.2,0l-0.2,0c0,0-0.1,0-0.1,0
		c0,0-0.1,0.1-0.2,0.1c-0.1,0-0.2,0.1-0.3,0.1l-0.3,0.1c-0.1,0.1-0.1,0.1-0.1,0.2l0.1,0l0.5,0.2l0.5,0.1l0.3,0.2c0,0.1,0,0.1,0,0.2
		c0,0-0.1,0-0.2,0c-0.1,0-0.1,0-0.2,0c0,0-0.1-0.1-0.3-0.2c-0.2-0.1-0.3-0.1-0.3,0c-0.1-0.1-0.1-0.1-0.1-0.1L84.1,8L84,7.9
		c-0.1,0-0.2,0-0.2,0L84,7.2l0.2-0.1C84.2,7,84.9,6.8,85,6.7c0.1,0,0.3-0.2,0.3-0.2c0.1,0,0.2,0,0.4-0.1c0.2,0,0.3-0.1,0.3-0.1
		c0.2-0.1,0.3-0.1,0.4-0.1c0.1,0,0.2,0,0.4,0c0.1-0.1,0.2-0.1,0.3-0.1c0.1,0,0.1-0.1,0.2,0c0,0,0.1,0,0.2,0c0.1,0,0.2,0,0.4,0
		c0.2,0,0.3,0.1,0.4,0l0.5,0l0.5,0.2l0.7,0.3c0.1,0,0.2,0.1,0.3,0.2c0.1,0.1,0.2,0.2,0.4,0.3l0.4,0.5c0,0.1,0,0.1,0.1,0.1l0.3,0.5
		l0.2,0.6l0.1,0.4l0.1,0.3c0.1,0.1,0.1,0.2,0.1,0.3c0,0.1,0,0.2,0.1,0.2c0,0,0,0.1,0,0.2c0,0.1,0,0.3,0,0.6l-0.2,0.5
		c0,0.1-0.1,0.2-0.1,0.3l-0.1,0.2l-0.1,0.2l-0.3,0.3l-0.2,0.1l-0.3,0.1c0,0-0.1,0.1-0.1,0.1c-0.1,0.1-0.1,0.1-0.2,0.1l-0.3,0
		c0,0,0,0.1-0.1,0.1c-0.1,0-0.1,0-0.3,0l-0.1,0.1l-0.2-0.1c0,0-0.1,0-0.2-0.1l-0.2-0.1c0,0-0.1,0-0.1-0.1c-0.2-0.1-0.4-0.3-0.5-0.4
		c-0.1-0.1-0.1-0.3-0.1-0.4c0-0.2-0.1-0.4-0.1-0.5c0-0.1,0-0.2,0.1-0.3l0.1-0.2c0.1-0.2,0.2-0.2,0.2-0.3c0.1,0,0.1-0.1,0.2-0.2
		l0.2,0c0.1,0,0.2,0,0.2-0.1l0.2-0.2c0-0.1-0.1-0.2,0-0.3c0.1-0.1,0-0.2-0.1-0.3c-0.1-0.1-0.2-0.2-0.3-0.3c-0.1-0.1-0.2-0.2-0.2-0.2
		l-0.2-0.2c0,0-0.1,0-0.3,0c-0.2,0-0.2,0-0.3,0c-0.1,0-0.1,0-0.2,0c-0.1,0-0.1,0-0.2,0c-0.2,0-0.2,0-0.3-0.1c0,0,0,0,0,0.1
		c-0.1,0-0.2,0-0.2,0l-0.4,0.1c0,0-0.7,0.1-1.1,0.4c-0.5,0.4-1,0.8-1.4,1.2c-0.4,0.2-0.4,0.7-0.6,1.1c-0.2,0.3,0,0.6-0.2,0.9
		c0,0.1,0,0.2,0.1,0.4l0.1,0.2l0.1,0.3c0.1,0.2,0.1,0.3,0.1,0.4c0.1,0.1,0.1,0.2,0.1,0.3l0,0.2c0.1,0,0.1,0.1,0.1,0.2l0,0.2
		c0,0,0.1,0.1,0.1,0.2c0,0.1,0.1,0.3,0.2,0.5c0.1,0.2,0.2,0.4,0.3,0.6c0,0.1,0,0.2,0,0.4c0,0.2,0.2,0.3,0.4,0.3c0,0.2,0,0.3,0,0.4
		c0.1,0,0.1,0.1,0.1,0.2c0,0.1,0.1,0.2,0.1,0.3c0.1,0.1,0.1,0.2,0.1,0.3l0.2,0.3l0,0.2l0,0.1c0,0.1,0.1,0.2,0.2,0.4
		c0.1,0.2,0.1,0.2,0.2,0.3l0.2,0.3c0.1,0.1,0.1,0.2,0.1,0.3c0.1,0,0.1,0.1,0.2,0.3c0.1,0.1,0.2,0.2,0.2,0.3c0,0.1,0.1,0.2,0.3,0.3
		c0.1,0.1,0.1,0.1,0.1,0.1l0.2,0.1c0,0,0.1,0,0.2,0.1c0.2,0.1,0.3,0.2,0.4,0.3c0.2,0.1,0.3,0.2,0.5,0.2l0,0.2c0.1,0,0.1,0.1,0.1,0.2
		c0,0.1,0,0.2-0.1,0.4c-0.1,0.1-0.1,0.3-0.1,0.3c-0.1,0.1-0.2,0.2-0.3,0.4c-0.1,0.1-0.1,0.2,0,0.2c0,0,0.1,0.1,0,0.2
		c-0.1,0.1-0.1,0.2-0.1,0.3c0.5,5.2,3,9.1,7.2,13.2c0.4,0.4,1.3,0.7,1.3,0.7l0.5,0.2c0,0.1,0,0.1,0.2,0c-0.1,0.1-0.1,0.1,0,0.1
		c0.1,0,0.2,0,0.3,0.1l0.1-0.1c0.1,0.1,0.1,0.1,0.2,0.1c0.1,0,0.2,0,0.3,0c0,0,0.2,0,0.4,0c0.2,0,0.3,0.1,0.4,0.1l0.2-0.2l0.1,0
		c0.1,0,0.2-0.1,0.3-0.2c0.2-0.1,0.3-0.2,0.4-0.3c0.2-0.1,0.3-0.2,0.2-0.4c0-0.1,0-0.2,0.1-0.3l-0.2-0.2c-0.1-0.1-0.2-0.1-0.3-0.1
		l-0.2-0.1c0-0.1-0.1-0.1-0.2-0.2c-0.1-0.1-0.1-0.2-0.1-0.3l-0.1-0.1l-0.1-0.2c0-0.2-0.1-0.3,0-0.4c0-0.1,0.1-0.3,0.1-0.6
		c0.1-0.2,0.1-0.3,0.2-0.5c0.2-0.2,0.4-0.3,0.7-0.5c0.1-0.1,0.1-0.1,0.2,0l0.3-0.1c0.2-0.1,0.3-0.1,0.3-0.1l0.3-0.1l0.2,0.1
		c0.2,0,0.2,0,0.2,0l0.1,0c0.1,0.1,0.2,0.1,0.2,0.2l0.3,0c0.1,0,0.2,0.1,0.2,0.1c0.1,0.1,0.1,0.1,0.2,0.2l0.3,0.2l0.2,0.1l0.4,0.4
		l0.1,0.3l0.1,0.3c0.1,0.1,0.1,0.2,0.1,0.3l0.1,0.7c-0.1,0.4-0.1,0.6-0.1,0.8c0,0.1,0,0.2-0.1,0.3c0,0-0.1,0.1-0.1,0.2
		c-0.1,0.2-0.1,0.4-0.2,0.4l-0.2,0.4l-0.2,0.5l-0.4,0.7l-0.5,0.4l0,0.1c-0.1,0-0.2,0.1-0.2,0.2l-0.6,0.5c-0.2,0-0.4,0.1-0.6,0.3
		c-0.2,0.1-0.3,0.2-0.4,0.2l-1,0.3l-0.7,0.1l-0.7,0c-0.1,0-0.3,0-0.5,0c-0.2,0-0.4,0-0.5,0c-0.1-0.1-0.2-0.1-0.2-0.1
		c0,0-0.1,0-0.2-0.1c-0.1,0-0.2,0-0.4-0.1c-0.2,0-0.4,0-0.5,0c0,0-0.2,0-0.4-0.2c0,0-0.1-0.1-0.4-0.2c-0.2-0.1-0.3-0.1-0.4-0.2
		c0,0-0.2-0.2-0.3-0.3c-0.1-0.1-0.9-0.5-0.9-0.6L92.1,39L91.9,39l-0.2-0.1l-0.6-0.1l-0.3,0.3c0,0.1-0.1,0.3-0.2,0.5
		c-0.1,0.3-0.2,0.4-0.4,0.5c0,0.1-0.1,0.2-0.4,0.4l-0.5,0.3C89.1,41,88.9,41,88.9,41c-0.1,0.1-0.2,0.1-0.3,0.1c-0.1,0-0.2,0-0.3,0.1
		l-0.1-0.1L88,41.3c-0.1,0-0.2,0-0.4,0c-0.1,0-0.3,0-0.5-0.1l-0.6-0.1C86.3,41,86.1,40.9,86,41c0.1-0.1,0.1-0.1,0-0.1
		c-0.1,0-0.1-0.1-0.1-0.2c-0.1-0.1-0.1-0.1,0-0.2c0.1-0.1,0.1-0.1,0-0.2l0.4-0.3c0.1-0.1,0.2-0.1,0.4-0.2c0.1-0.1,0.2-0.2,0.3-0.4
		c0-0.1,0-0.2,0-0.4c0-0.2,0.1-0.3,0.1-0.3l-0.1-0.1c0-0.1,0-0.2,0-0.3c0-0.1,0-0.2,0-0.3l-0.1-0.4c0-0.1,0-0.2,0-0.4
		c0.1-0.1,0.1-0.3,0-0.5c0,0,0,0-0.1-0.1l0-0.1l0-0.4l-0.1-0.5l-0.3-0.6l-0.1-0.4c0-0.1-0.1-0.4-0.2-0.8c-0.2-0.5-0.3-0.8-0.5-0.8
		l-0.1-0.4c0-0.1-0.1-0.2-0.1-0.3l-0.1-0.3c0-0.1-0.1-0.2-0.2-0.4c-0.1-0.2-0.1-0.4-0.2-0.6c-0.1-0.3-0.1-0.5-0.2-0.5l0-0.1l0-0.1
		l0-0.2l0-0.2l0-0.2c0-0.1-0.1-0.2-0.1-0.3c0-0.2-0.1-0.3-0.2-0.3c0,0-0.4-1.7-0.4-1.6l-0.2-0.4c-0.1-0.2-0.2-0.3-0.2-0.4
		c-0.1-0.1-0.1-0.3-0.1-0.3c-0.1-0.3-0.2-0.5-0.3-0.8c-0.1-0.3-0.2-0.5-0.3-0.6c-0.1,0-0.2-0.2-0.3-0.5c-0.1-0.3-0.2-0.5-0.2-0.7
		c0,0,0,0,0-0.1l-0.1-0.2l-0.1-0.1c0,0,0-0.1,0-0.1c0-0.1-0.1-0.2-0.1-0.1l-0.2-0.6l0.2,0l0-0.3c-0.3-0.2-0.5-0.5-0.5-0.9
		c-0.1-0.4-0.2-0.8-0.4-1.2l-0.1-0.2l-0.4-1.3l0-0.9l0-0.2c0.1,0.1,0.1,0.2,0.2,0.3l0,0.2l0,0.2l0.3,0.4l0,0.3
		c0.1,0.1,0.2,0.3,0.3,0.6c0.1,0.3,0.2,0.5,0.1,0.5c0,0,0.1,0.1,0.1,0.2c0.1,0.1,0.1,0.2,0.1,0.2l0.1,0.3l0.1,0.4
		c0.1,0.2,0.2,0.4,0.3,0.4c0,0.1,0,0.2,0,0.4c0,0.2,0.1,0.3,0.3,0.3l0.1,0.3l0,0.2c0,0,0,0,0.1,0.2c0.1,0.1,0.1,0.1,0,0.2
		c0,0.1,0,0.1,0,0.1c0,0.2,0.1,0.3,0.1,0.3c0.1,0,0.1,0,0,0.2c0.1,0.1,0.1,0.2,0.2,0.4c0.1,0.2,0.2,0.3,0.2,0.4l0,0.2l0,0.1l0.2,0.2
		c0.1,0.1,0.1,0.2,0.1,0.2c0.2,0.1,0.2,0.2,0.2,0.5c0.1,0.2,0.1,0.4,0.2,0.5c0.2,0.3,0.2,0.6,0.2,0.8c0,0.2,0,0.3,0.2,0.5l0.2,0.9
		l0,0.6c0.1,0.3,0.2,0.4,0.3,0.5c0,0.2,0.1,0.4,0.3,0.6c0.1,0.2,0.2,0.3,0.1,0.2l0,0.1l0.1,0.4c0,0.1,0.1,0.2,0.1,0.3
		c0.1,0.1,0.2,0.1,0.2,0.2l0.1,0.3c0,0.1,0.1,0.2,0.2,0.2l0,0.1l0.1,0.2l0.1,0.4c0.1,0.1,0.1,0.2,0.2,0.5c0.1,0.2,0.2,0.4,0.2,0.4
		c0,0.2,0.1,0.3,0,0.5c0,0.1,0.1,0.2,0.1,0.3c0.1,0.1,0.1,0.2,0.1,0.3l0.1,0.4l0,0.1c0.2,0.1,0.2,0.2,0.1,0.3l0.2,0.1
		c0,0.1,0,0.2,0,0.2c0,0,0.1,0,0.1,0.1c0,0.1,0,0.1,0,0.2c0,0.1,0,0.1,0,0.2l0.1,0.5l0.1,0.3l0,0.4l0.1,0.3c0,0.2,0,0.3,0,0.3
		c0,0,0,0.1,0,0.3c0.1,0.2,0.1,0.4,0,0.4c0,0-0.1,0.1-0.1,0.3c0,0.2-0.1,0.4-0.2,0.6c-0.1,0.1-0.1,0.3-0.2,0.5
		c0.4,0.1,0.6,0.2,0.6,0.1c0.1-0.1,0.3-0.1,0.6-0.2l0-0.2c-0.1,0-0.2,0-0.2-0.1c0-0.1,0.1-0.2,0.4-0.3l0.2,0
		c0.3-0.1,0.4-0.2,0.6-0.3c0.1-0.1,0.1-0.2,0-0.2c-0.1,0-0.1-0.1-0.2-0.2l-0.4,0.2c-0.1,0-0.2,0-0.3-0.2c0-0.2,0.1-0.3,0.2-0.4
		c0.1,0,0.3,0,0.4,0c0.2,0,0.3-0.1,0.3-0.1c0,0,0.2,0,0.5,0l0-0.1c0.1-0.1,0.1-0.2,0.1-0.3c0-0.2-0.1-0.3-0.3-0.3
		c-0.2,0-0.4,0-0.5,0.1c-0.1,0.1-0.2,0.1-0.4,0.2l-0.2-0.2l0-0.1l0.4-0.2l0.6-0.1c0.1,0,0.2,0,0.3-0.1c0.1-0.1,0.2-0.1,0.3-0.1
		c0.2,0,0.4,0,0.6,0.1c0.2,0.1,0.3,0.2,0.3,0.4h0.3l0.3,0.2l0,0.1c0.1,0.1,0.2,0.2,0.5,0.3c0,0.1,0,0.1,0.2,0.1
		c0,0.1,0.1,0.2,0.5,0.2l0.2-0.2l0.6-0.2l0.1,0c0,0,0,0,0.1-0.1c0,0.1,0.1,0.1,0.4,0.1c0.2-0.1,0.3-0.2,0.4-0.2
		c0.1,0,0.1,0.1,0.2,0.1c0.1,0,0.2,0,0.2,0c0,0,0,0.1,0,0.2l-0.4,0.2L94,38.5l-0.6,0.2l-0.2,0c-0.1,0.1-0.1,0.2,0.1,0.3l0.4,0.2
		c0.2,0.1,0.3,0.1,0.4,0.2c0.2,0.1,0.2,0.1,0.2,0.1c0,0,0.1,0,0.1,0l0.3,0.1l0.3,0.1c0.2,0,0.3,0.1,0.4,0.1c0.1,0,0.2,0,0.4,0
		c0.2-0.2,0.4-0.3,0.6-0.2c0.4-0.1,0.6-0.2,0.8-0.3c0.2-0.1,0.4-0.2,0.5-0.2l0.3,0.1c0.1,0,0.1,0.1,0,0.3c-0.1,0.1-0.3,0.1-0.7,0.2
		c-0.1,0-0.2,0.1-0.2,0.2c-0.1,0.1-0.3,0.1-0.6,0.1L96,39.9c0.2,0.1,0.3,0.1,0.4,0.1c0.1,0,0.2,0,0.4,0.1c0.1,0.1,0.2,0.1,0.3,0.1
		c0.1-0.1,0.2-0.1,0.3,0l0.1-0.1l0.9-0.1l0.7-0.3l0.3,0l0.7-0.7l-1.4,0.4l-0.1-0.1l0-0.1c0.1,0,0.2-0.1,0.2-0.1
		c0.1-0.1,0.2-0.1,0.2-0.1l0.4-0.1c0.3-0.1,0.6-0.1,0.8-0.1l0.1-0.1l0.6-0.2L101,38l0.2-0.2l-0.3-0.2c-0.2,0.1-0.3,0.1-0.4-0.1
		l0.1-0.3l0.6-0.3l0.2,0c0.1,0,0.2-0.1,0.3-0.1l0.1-0.4l-0.8,0c0.1-0.2,0.3-0.3,0.4-0.3c0.2,0,0.3-0.1,0.3-0.4l-0.2-0.2l-0.1,0.1
		l-0.4-0.1c0-0.2,0.2-0.3,0.3-0.4l0.1,0l0-0.1l-0.1-0.3c-0.1,0.1-0.3,0.1-0.4,0.1l-0.2,0l-0.2,0l-0.2,0c-0.2,0.1-0.3,0-0.3-0.2
		c0.1-0.2,0.2-0.3,0.4-0.3c0,0,0.1-0.1,0.1-0.1l0.3-0.1l0-0.1l-0.3-0.3l-0.4,0.1c-0.2,0-0.4,0.1-0.6,0.2c-0.2,0-0.2,0.2-0.2,0.5
		c-0.1,0.2-0.2,0.4-0.1,0.8l0.2,0.1c0.1,0,0.2,0.1,0.2,0.1l0.5,0.1c0,0,0,0.1,0.1,0.2c0.1,0.1,0.2,0.1,0.2,0.2l0,0.1
		c0,0.1,0,0.2-0.1,0.4c-0.1,0.1-0.1,0.2,0,0.3c-0.1,0-0.2,0.1-0.5,0.4c-0.2,0.2-0.3,0.3-0.5,0.4c-0.2,0.2-0.3,0.3-0.4,0.3
		c-0.1,0.1-0.3,0.2-0.6,0.3l-1,0.2c-0.5,0.1-0.9,0-1.1-0.1l0,0.2l-0.4,0.2l-0.2-0.1c0,0.1-0.1,0.2-0.1,0.2l-0.3,0.1l-0.5,0.2
		l-0.5,0.1l-0.3,0.1l-0.1-0.1c0.1-0.2,0.2-0.2,0.4-0.3l0.1,0l1-0.3c0.1,0.1,0.2,0.1,0.3,0.1l0.1-0.1l0.4-0.1
		c-0.1-0.1-0.2-0.1-0.4-0.2c-0.2,0-0.3-0.1-0.5-0.2c-0.1-0.1-0.2-0.1-0.2-0.1c0,0-0.1,0-0.2-0.1c-0.1-0.1-0.1-0.1-0.2-0.1
		c-0.1,0-0.1-0.1-0.2-0.2c-0.4-0.2-0.6-0.4-0.8-0.5c-0.1-0.1-0.1-0.1-0.2-0.1c-0.1,0-0.1-0.1-0.1-0.2l-0.2-0.1c0,0-0.1-0.1-0.1,0
		c0-0.1,0-0.2-0.2-0.2c-0.1-0.1-0.2-0.2-0.2-0.2c-0.1-0.1-0.1-0.2-0.2-0.2c-0.1-0.1-0.1-0.2-0.2-0.3l-0.1,0c0,0.1,0,0.2,0,0.2
		c0,0-0.1,0.1-0.3,0.1c-0.1,0-0.2,0-0.2,0L91.6,36l0.3-0.3l0.2,0.1c0.1-0.2,0.1-0.2-0.1-0.3c-0.1-0.1-0.1-0.1-0.1-0.2
		c-0.2,0-0.3,0-0.3-0.2c0-0.2,0-0.3-0.1-0.3c-0.1-0.1-0.1-0.2-0.2-0.3c-0.1-0.1-0.1-0.3-0.2-0.3c-0.1-0.1-0.2-0.2-0.3-0.3
		c-0.1-0.2-0.2-0.3-0.2-0.4c-0.1-0.1-0.2-0.2-0.3-0.3c-0.1-0.1-0.1-0.3-0.1-0.3l-0.8-1.4c0-0.1-0.1-0.3-0.2-0.4
		c-0.1-0.1-0.1-0.3-0.1-0.3l0-0.2c-0.1-0.1-0.2-0.2-0.3-0.3c-0.1-0.2-0.2-0.4-0.2-0.5c0-0.2-0.1-0.3-0.2-0.4l-0.1-0.4
		c0-0.1-0.1-0.2-0.1-0.3c-0.1-0.2-0.2-0.3-0.2-0.3c-0.1,0-0.1,0-0.1,0.1l-1.3,0.4l-0.1,0L86,28.7l-0.1,0l0.1-0.3l0.9-0.2
		C87,28,87.1,28,87.2,28l0.6-0.3l0.3-0.1l-0.2-0.2l-0.1,0l-0.4-0.9l-0.1-0.3l0-0.1c0-0.1-0.1-0.2-0.1-0.3c-0.1-0.1-0.1-0.2-0.2-0.3
		c0.1-0.1,0.1-0.2,0-0.4l-0.2-0.1c-0.2,0.2-0.5,0.3-0.9,0.2c0.1-0.2,0.1-0.3,0.3-0.4c0.1-0.1,0.3-0.1,0.5-0.1
		c-0.1-0.1-0.1-0.2-0.1-0.3c0-0.1,0-0.2-0.1-0.3c-0.1-0.1-0.2-0.2-0.1-0.3c0.1-0.1,0.1-0.2,0.1-0.3l0-0.1l-0.1-0.3c0,0,0-0.1,0-0.2
		c0-0.2,0-0.3,0-0.3c0.1-0.1,0.1-0.1,0.1-0.2l0-0.1l0-0.2c0,0,0-0.1,0-0.2c-0.1,0-0.2,0.1-0.3,0.1c0,0-0.1,0-0.2,0.1
		c-0.2,0.1-0.3,0.1-0.3,0.1c-0.1-0.1-0.1-0.1-0.2,0l0,0.2l0,0.1l0.1,0.3c0,0.1,0,0.1,0,0.1l0,0.1c-0.1,0.1-0.1,0.3-0.2,0.5
		c0,0.2,0,0.4,0.1,0.5c0-0.1,0.1-0.1,0-0.1c0,0,0-0.1,0.1-0.1l0.1,0c0.1,0,0.1,0,0.2,0.1c0.1,0.1,0.1,0.1,0.2,0.2l-0.4,0.1l-0.2-0.1
		l0.1,0.4l0,0.1l0,0.2l0,0.2l0,0.1l-0.1,0l0,0.1l-1,0.3c0,0,0-0.1-0.1-0.1c0-0.1,0-0.1,0.1-0.2c0.1-0.1,0.2-0.1,0.3-0.1l-0.2-0.7
		c-0.1-0.1-0.2-0.1-0.2-0.2l-0.1-0.2c0-0.1-0.1-0.2-0.1-0.3c-0.1-0.1-0.1-0.2-0.2-0.4c0-0.1,0.1-0.1,0-0.1l-0.1-0.2
		c-0.1,0-0.2-0.1-0.2-0.2l0-0.1l0-0.2L83.9,22c-0.2,0.1-0.2,0.2-0.2,0.2c-0.2,0-0.3,0-0.3-0.1c0-0.1,0.1-0.2,0.1-0.2l0.3,0l-0.2-0.6
		c-0.1-0.1-0.1-0.1-0.2,0c0,0-0.1,0-0.2-0.1l0-0.2l0.9-0.3l0.1,0.2l0.3,0.3l0.2,0.2l0.2,0.2c0.1,0.3,0.2,0.5,0.3,0.5
		c0.1,0,0.2,0.1,0.3,0.2l0.4-0.2l0.1-0.1l0.5,0l0-0.2l-0.2-0.2l-0.1,0l-0.9-0.8c0-0.2-0.1-0.3-0.1-0.3c-0.1,0-0.1-0.1-0.2-0.3
		c-0.1-0.1-0.2-0.2-0.2-0.2c0-0.1-0.1-0.1-0.1-0.2l0-0.1l-0.2,0.2L83,20.4c-0.3-0.1-0.3-0.3-0.1-0.6l0.6-0.2l0.2,0l0.7-0.1l0.2,0.1
		c0-0.2-0.2-0.5-0.3-0.9c-0.2-0.4-0.3-0.7-0.4-0.7l-1.3,0.4c-0.1,0.1-0.2,0-0.4-0.2l0-0.1l0.2-0.2l0.1,0l0.2,0l0.5-0.1l0.2,0
		c0.2-0.1,0.3-0.1,0.3-0.1c0,0,0.1,0,0.2,0c0-0.1,0-0.1-0.1-0.1l0-0.1l0-0.1c0-0.1-0.1-0.3-0.3-0.6c-0.1-0.3-0.2-0.5-0.2-0.6
		c0-0.1-0.1-0.2-0.1-0.2c-0.1-0.1-0.1-0.1,0-0.1c0,0,0.1-0.1,0-0.1c0,0,0-0.1-0.1-0.2c0-0.2-0.1-0.3-0.1-0.3l-0.2,0.2l-0.2,0
		c-0.1,0-0.3,0.1-0.4,0.1c-0.1,0.1-0.3,0.1-0.6,0.2c-0.1,0-0.1,0-0.2,0l0.2-0.6l0.3-0.1l0.1,0l0.3-0.1l0.3,0l0.3,0l-0.1-0.7
		l-0.1-0.3l-0.3-0.6L82,13.2l0.2-0.8l0.2-0.8L82.6,11.3z M89.4,33.8c0.1-0.2,0.2-0.3,0.3-0.3l0.3-0.1c0.1,0,0.2,0,0.2,0.1
		c0,0.1,0,0.2-0.2,0.3c-0.2,0.1-0.3,0.2-0.4,0.3l0.2,0.3l0.1,0l0.2-0.1l0.3-0.1l0.1,0l0.1,0l-0.1,0.3l-0.3,0.1l-0.2,0l-0.2-0.2
		l-0.1,0.3l-0.4,0.5L89,35.3l-0.4,0.1l0-0.1c-0.1,0-0.2,0-0.2,0c-0.1,0-0.1,0-0.1,0c-0.1,0-0.2-0.1-0.2-0.3
		c-0.1-0.1-0.1-0.2-0.2-0.3c0-0.1-0.1-0.2-0.1-0.3l0-0.2l0.1-0.1l1.3-0.3L89.4,33.8z M89.9,36.3c0.1,0,0.2-0.1,0.3-0.1
		c0.1-0.1,0.3-0.1,0.4-0.2l0.4,0l0.3-0.1l0.1,0.2c-0.1,0.1-0.2,0.1-0.2,0.2L91,36.4c-0.1,0-0.2,0.1-0.3,0.1
		c-0.1,0.1-0.2,0.1-0.3,0.1c-0.1,0-0.3,0-0.4-0.1c-0.1,0.1-0.2,0.2-0.3,0.3l-0.3,0.1l-0.2,0L88.4,37l0-0.3l0.1-0.1
		c0.2,0,0.5,0,0.8-0.2C89.7,36.3,89.9,36.2,89.9,36.3z M86.5,29.2l0.1,0l0.3-0.1l0.4-0.1l0.4-0.1c0.2,0,0.3,0,0.4,0.1
		c-0.2,0.2-0.5,0.3-0.8,0.4c-0.1,0-0.2,0.1-0.4,0.1c-0.2,0-0.3,0.1-0.3,0.1l-0.2,0l-0.4-0.1L86,29.5l0-0.1L86.5,29.2z M87.5,33.3
		l0.1-0.1c0,0,0.1-0.1,0.3-0.1l0.3-0.1c0.1-0.1,0.1-0.1,0.2-0.2l0.5,0c0,0,0.1,0,0.1-0.1c0.1,0,0.1,0,0.1,0c0.2,0,0.2,0,0.3,0l0.2,0
		l0,0.2c-0.3,0.1-0.4,0.2-0.6,0.3c-0.1,0.1-0.3,0.1-0.6,0.1l-0.1,0c-0.1,0-0.1,0.1-0.2,0.2L88,33.3l-0.2,0l-0.2,0L87.5,33.3z
		 M86.8,31.5c0-0.1,0-0.2,0.1-0.3C87,31.1,87,31,87.1,31c0.1,0,0.2,0,0.2,0.1c0,0,0.1-0.1,0.2-0.2c0.1,0.1,0.4,0.1,0.6,0
		c0.3-0.1,0.5-0.1,0.6,0.1c-0.3,0.2-0.7,0.3-1.3,0.5c-0.1,0-0.2,0.1-0.4,0.1C86.9,31.7,86.8,31.6,86.8,31.5z M93.4,37.3l0.1,0
		c0,0,0-0.1,0.1-0.1c0.1,0,0.1,0,0.1,0l0.2,0.1l-0.2,0.4c-0.1,0-0.3,0.1-0.7,0.2c-0.3,0.1-0.6,0.1-0.7,0L92.1,38
		c-0.2,0-0.2,0-0.3-0.1c0-0.1,0-0.1,0.2-0.2l0.3-0.1c0.1-0.1,0.2-0.2,0.4-0.2C93,37.4,93.2,37.4,93.4,37.3z M91.8,36.8l0.4-0.1
		l0.3-0.1l0.3-0.1l0.1,0.2L92.6,37c-0.1,0-0.1,0-0.2,0l-0.8,0.2c-0.1,0-0.2,0.1-0.3,0.1L91,37.4c-0.1,0-0.2-0.1-0.2-0.1L91,37
		L91.8,36.8z M89.2,35.6c0.1,0,0.1-0.1,0.2-0.1c0,0,0.1-0.1,0.2-0.1c0.1,0,0.1,0,0.2,0.1c0.1,0,0.1,0,0.1,0c0.1-0.1,0.1-0.1,0.2-0.1
		l0.3-0.1c0,0.1-0.1,0.1-0.3,0.2l-0.1,0c-0.1,0.1-0.2,0.3-0.5,0.4c-0.3,0.1-0.6,0.2-1,0.3c-0.1,0-0.1-0.1-0.1-0.2
		c0-0.1,0.1-0.2,0.3-0.2l0.5-0.1L89.2,35.6z M87.4,30l0.2,0c0.1-0.1,0.3,0,0.4,0c0.1,0,0.2-0.1,0.2-0.1l0.1,0.1
		c-0.1,0.1-0.2,0.2-0.5,0.3c-0.3,0.1-0.4,0.2-0.5,0.2c0,0-0.2,0.1-0.4,0.2c-0.3,0.1-0.4,0-0.4-0.2c0-0.1,0.1-0.2,0.3-0.2L87.4,30z
		 M87.3,32.2c0.1-0.1,0.2-0.1,0.3-0.2c0.1-0.1,0.2-0.1,0.3-0.1c0.1,0,0.2,0,0.2,0l0.2,0l0.2,0.1c-0.1,0.1-0.1,0.2-0.2,0.2
		c-0.1,0-0.2,0.1-0.4,0.2C87.5,32.5,87.3,32.5,87.3,32.2z M90.5,35.4c0.1-0.2,0.2-0.3,0.4-0.3c0.2-0.1,0.3,0,0.4,0.1
		c0,0.1-0.1,0.1-0.2,0.2l-0.4,0.1L90.5,35.4z M88.7,31.7c0.1,0,0.2,0,0.2,0.1l-0.2,0L88.7,31.7z M81.6,14.7l0.2-0.6
		c0.2,0,0.4,0,0.5,0.1l0,0.2c0,0-0.1,0.1-0.3,0.2c-0.1,0.1-0.1,0.1-0.2,0.1L81.6,14.7z M83.1,16.9c0.1,0,0.2,0,0.3,0.1
		c0.1,0.1,0.1,0.2-0.1,0.3c-0.1,0.1-0.2,0.1-0.3,0.1l-0.3,0.1l-0.4,0.2c-0.1,0-0.3,0-0.4-0.2c-0.1-0.1-0.1-0.1,0-0.3
		c0.1-0.1,0.2-0.2,0.4-0.2l0.3-0.1l0.2,0L83.1,16.9z M81.5,16.7c-0.1-0.3-0.1-0.4,0.2-0.5l1-0.2l0.2,0.2c0,0.2-0.2,0.4-0.5,0.4
		c-0.2,0-0.4,0-0.5,0.1L81.5,16.7z M82.4,19l0.3-0.1c0.1-0.1,0.2-0.1,0.3-0.1l0.7-0.2c0.2,0,0.3,0,0.3,0.1c0,0.1-0.1,0.2-0.4,0.3
		c-0.3,0.1-0.5,0.1-0.6,0.2l-0.4,0l-0.2-0.1L82.4,19z M85.5,26.2c0.1-0.1,0.2-0.2,0.4-0.2c0.2,0,0.4-0.1,0.6-0.1
		c0,0.3,0,0.4-0.1,0.3c-0.1,0-0.2,0-0.3,0.1c0,0.1-0.1,0.1-0.2,0.1c-0.1,0-0.2,0-0.3,0c-0.2,0-0.3,0.1-0.3,0.1l-0.2-0.3
		c0.1,0,0.1-0.1,0.2-0.1C85.3,26.2,85.3,26.1,85.5,26.2L85.5,26.2z M84.5,20.6c0.3-0.1,0.4,0,0.4,0c0,0.1,0,0.1,0,0.1
		c-0.1,0-0.1,0-0.1,0.1l-0.3,0.1c0,0-0.1,0-0.2,0l-0.1-0.2L84.5,20.6z M85.5,21.2l0,0.2L85,21.7c-0.1,0-0.1-0.1-0.1-0.1l0-0.2
		L85.5,21.2z M84,23.7l0.2,0l0.1,0l0,0.2l-0.1,0.1l-0.2,0L84,23.7z M83.7,22.9c0-0.1,0-0.2,0.2-0.2l0.2,0.2C84,23,83.9,23,83.9,23
		C83.8,23,83.7,23,83.7,22.9z M86,22.9l0.2,0.1l-0.1,0.2l-0.1,0L86,22.9z M84.5,24.5c0.2,0,0.2,0.1,0.2,0.2l-0.2,0L84.5,24.5z
		 M60.6,9.4l-0.3,0.1l-0.2,0.1L60,9.4l0.2-0.2c0,0,0.1,0,0.2,0l0.1-0.1L60.6,9.4z M59.8,8.5c0.2-0.1,0.4-0.1,0.5-0.1l0,0.1
		c0,0.1-0.2,0.2-0.3,0.2c-0.2,0.1-0.3,0.2-0.5,0.2c0,0,0,0.1-0.2,0.1L59.2,9l0.1-0.3C59.4,8.7,59.5,8.6,59.8,8.5z M62.9,11.6
		l-0.1,0.2C62.8,11.7,62.9,11.6,62.9,11.6z M58.3,27.2l0.4,0.2l0,0.1l-0.1,0.2l-0.4,0.1l-0.2,0c0-0.1-0.1-0.1-0.3-0.1
		c-0.2-0.1-0.3-0.1-0.4-0.1c-0.3-0.1-0.6-0.2-0.8-0.4c0.1-0.1,0.3-0.1,0.4-0.1l0.4,0.1l0.4,0.1l0.3,0.1L58.3,27.2z M63.2,17.4
		c-0.1,0.1-0.1,0.2-0.2,0.3C63,17.6,63.1,17.5,63.2,17.4l0,0.2L63.2,17.4z M63.2,18.5l-0.4,1.3l-0.1,0.2c-0.2,0.4-0.3,0.8-0.4,1.2
		c-0.1,0.4-0.3,0.7-0.5,0.9l0,0.3l0.2,0l-0.2,0.6c0-0.1-0.1,0-0.1,0.1c0,0.1,0,0.1,0,0.1l-0.1,0.1l-0.1,0.2c0,0.1,0,0.1,0,0.1
		c0,0.2-0.1,0.4-0.2,0.7c-0.2,0.3-0.3,0.5-0.3,0.5c-0.1,0.2-0.2,0.4-0.3,0.6c-0.2,0.3-0.2,0.5-0.3,0.8c0,0.1-0.1,0.2-0.1,0.3
		c-0.1,0.1-0.1,0.2-0.2,0.4l-0.2,0.4c0,0-0.4,1.6-0.4,1.6c-0.1,0-0.2,0.1-0.2,0.3c-0.1,0.2-0.1,0.3-0.1,0.3l0,0.2l0,0.2l0,0.2l0,0.1
		l0,0.1c-0.1,0-0.2,0.1-0.2,0.5c-0.1,0.3-0.1,0.5-0.2,0.6c-0.1,0.2-0.1,0.3-0.2,0.4l-0.1,0.3c-0.1,0.1-0.1,0.2-0.1,0.3l-0.1,0.4
		c-0.1,0.1-0.3,0.3-0.5,0.8c-0.1,0.5-0.2,0.7-0.2,0.8l-0.1,0.4L57,35.7l-0.1,0.5l0,0.4l0,0.1c-0.1,0.1-0.1,0.1-0.1,0.1
		c0,0.2,0,0.4,0,0.5c0,0.1,0,0.3,0,0.4l-0.1,0.4c0,0.1,0,0.2,0,0.3c0,0.1,0,0.2,0,0.3l-0.1,0.1c0,0,0.1,0.1,0.1,0.3
		c0,0.2,0.1,0.4,0,0.4c0.1,0.1,0.2,0.3,0.3,0.4c0.1,0.1,0.2,0.1,0.4,0.2l0.4,0.3c-0.1,0.1-0.1,0.1,0,0.2c0,0.1,0,0.1,0,0.2
		c0,0.1-0.1,0.1-0.1,0.2c0,0,0,0,0,0.1c-0.1,0-0.3,0-0.5,0.1l-0.6,0.1c-0.2,0-0.4,0.1-0.5,0.1c-0.2,0-0.3,0-0.4,0l-0.1-0.1l-0.1,0.1
		c-0.1-0.1-0.2-0.1-0.3-0.1c-0.1,0-0.2-0.1-0.3-0.1c0,0-0.2-0.1-0.4-0.2l-0.5-0.3c-0.3-0.2-0.4-0.3-0.4-0.4c-0.2,0-0.4-0.2-0.4-0.5
		c-0.1-0.3-0.2-0.4-0.2-0.5l-0.3-0.3l-0.6,0.1L52,39L51.7,39l-0.8,0.6c0.1,0.1-0.8,0.5-0.9,0.6c-0.2,0.1-0.3,0.3-0.3,0.3
		c-0.1,0-0.2,0.1-0.4,0.2c-0.2,0.1-0.4,0.1-0.4,0.2C48.6,41,48.5,41,48.5,41c-0.1,0-0.3,0-0.5,0c-0.2,0.1-0.3,0.1-0.4,0.1
		c-0.1,0.1-0.2,0.1-0.2,0.1c0,0-0.1,0-0.2,0.1c-0.1,0-0.3,0-0.5,0c-0.2,0-0.4,0-0.5,0l-0.7,0l-0.7-0.1l-1-0.3
		c-0.1,0-0.2-0.1-0.4-0.2c-0.2-0.2-0.3-0.3-0.6-0.3L42.3,40c0-0.1,0-0.1-0.2-0.2l0-0.1l-0.5-0.4l-0.4-0.7l-0.2-0.5l-0.2-0.4
		c-0.1-0.1-0.1-0.2-0.2-0.4c0-0.1-0.1-0.2-0.1-0.2c0-0.1-0.1-0.1-0.1-0.3c0-0.2,0-0.4-0.1-0.8l0.1-0.7c0-0.2,0.1-0.3,0.1-0.3
		l0.1-0.3l0.1-0.3l0.4-0.4l0.2-0.1l0.3-0.2c0.1,0,0.1-0.1,0.2-0.2c0.1-0.1,0.1-0.1,0.2-0.1l0.3,0c0,0,0-0.1,0.2-0.2l0.1,0
		c0,0,0.1-0.1,0.2,0l0.2-0.1l0.3,0.1c0,0,0.1,0,0.3,0.1l0.3,0.1c0.1,0,0.1,0,0.2,0c0.3,0.1,0.5,0.3,0.7,0.5c0.1,0.1,0.2,0.3,0.2,0.5
		c0.1,0.3,0.1,0.5,0.1,0.6c0,0.1,0,0.2,0,0.4l-0.1,0.2l-0.1,0.1c0,0.1-0.1,0.2-0.1,0.3c-0.1,0.1-0.2,0.1-0.2,0.2l-0.2,0.1
		c-0.1,0-0.2,0.1-0.3,0.1l-0.2,0.2c0.1,0.1,0.1,0.2,0.1,0.3c-0.1,0.1,0,0.2,0.2,0.4c0.1,0.1,0.3,0.2,0.4,0.3
		c0.1,0.1,0.2,0.2,0.3,0.2l0.1,0l0.2,0.2c0,0,0.2,0,0.4-0.1c0.2,0,0.3-0.1,0.4,0c0.1,0,0.2,0,0.3,0c0.1,0,0.2,0,0.2-0.1l0.1,0.1
		c0.1-0.1,0.2-0.1,0.3-0.1c0,0,0,0,0-0.1c0.2,0,0.2,0,0.2,0l0.5-0.2c0,0,0.9-0.3,1.3-0.7c4.2-4.1,6.7-8,7.2-13.2
		c0-0.1,0-0.2-0.1-0.3c0-0.1,0-0.2,0-0.2c0.1,0,0-0.1,0-0.2c-0.1-0.2-0.3-0.3-0.3-0.4c0-0.1-0.1-0.2-0.1-0.3
		c-0.1-0.2-0.1-0.3-0.1-0.4c0-0.1,0.1-0.1,0.1-0.2l0-0.2c0.2,0,0.4-0.1,0.5-0.2c0.1-0.1,0.3-0.2,0.4-0.3c0.1-0.1,0.2-0.1,0.2-0.1
		l0.2-0.1c0,0,0,0,0.1-0.1c0.2-0.1,0.3-0.2,0.3-0.3c0-0.1,0.1-0.2,0.2-0.3c0.1-0.2,0.1-0.2,0.2-0.3c-0.1-0.1,0-0.2,0.1-0.3l0.2-0.3
		c0.1,0,0.1-0.1,0.2-0.3c0.1-0.2,0.1-0.3,0.2-0.4l0-0.1l0-0.2l0.2-0.3c0-0.1,0.1-0.2,0.1-0.3c0.1-0.1,0.1-0.2,0.1-0.3
		c0-0.1,0.1-0.2,0.1-0.2c0.1,0,0.1-0.2,0-0.4c0.2,0,0.4-0.1,0.4-0.3c0-0.2,0-0.3,0-0.4c0-0.2,0.1-0.4,0.3-0.6
		c0.1-0.2,0.1-0.3,0.2-0.5c0-0.2,0.1-0.2,0.1-0.2l0-0.2c0-0.1,0.1-0.1,0.1-0.2l0-0.2c0-0.1,0.1-0.2,0.1-0.3c0-0.1,0.1-0.2,0.1-0.4
		l0.1-0.3l0.1-0.2c0.1-0.2,0.1-0.3,0.1-0.4c-0.1-0.3,0-0.6-0.2-0.9c-0.2-0.4-0.2-0.9-0.6-1.1c-0.4-0.4-0.9-0.8-1.4-1.2
		c-0.4-0.3-1.1-0.4-1.1-0.4L57,9c0,0,0,0-0.2,0c0-0.1,0.1-0.1,0-0.1c-0.1,0-0.1,0-0.3,0.1c-0.1-0.1-0.1-0.1-0.2,0
		c-0.1,0-0.1,0-0.2,0c0,0-0.1,0-0.3,0c-0.2,0-0.2,0-0.3,0l-0.2,0.2c-0.1,0-0.1,0.1-0.2,0.2c-0.1,0.1-0.2,0.2-0.3,0.3
		c-0.1,0.1-0.2,0.2-0.1,0.3c0,0.1,0,0.2,0,0.3l0.2,0.2c0.1,0.1,0.1,0.1,0.2,0.1l0.2,0c0,0.1,0.1,0.1,0.2,0.2
		c0.1,0.1,0.1,0.1,0.2,0.3l0.1,0.2c0.1,0.2,0.1,0.3,0.1,0.3c0,0.1,0,0.3-0.1,0.5c0,0.1-0.1,0.3-0.1,0.4c-0.1,0.1-0.3,0.3-0.5,0.4
		c-0.1,0.1-0.1,0.1-0.2,0.1l-0.2,0.1c-0.1,0.1-0.2,0.1-0.2,0.1l-0.2,0.1l-0.1-0.1c-0.1,0-0.2,0-0.3,0c-0.1,0-0.2-0.1-0.1-0.1l-0.3,0
		c-0.1,0-0.1,0-0.2-0.1c-0.1-0.1-0.1-0.1-0.1-0.1L53,12.5l-0.2-0.1l-0.3-0.3l-0.1-0.2l-0.1-0.2c-0.1-0.1-0.1-0.1-0.1-0.3l-0.2-0.5
		c0-0.3,0-0.5,0-0.6c0-0.1,0-0.2,0-0.2c0,0,0.1-0.1,0.1-0.2c0-0.2,0-0.3,0.1-0.3l0.1-0.3l0.1-0.4l0.2-0.6l0.3-0.5
		c0.1,0,0.1-0.1,0.1-0.1l0.4-0.5c0.2-0.1,0.3-0.2,0.4-0.3c0.1-0.1,0.2-0.2,0.3-0.2l0.7-0.3l0.5-0.2l0.5,0c0.1,0,0.2,0,0.4,0
		c0.2,0,0.3,0,0.4,0c0.1,0,0.1,0.1,0.2,0c0,0,0.1,0,0.2,0c0.1,0,0.2,0,0.3,0.1c0.2,0,0.3,0,0.4,0c0,0,0.2,0,0.4,0.1
		c0,0,0.1,0.1,0.3,0.1c0.2,0.1,0.3,0.1,0.4,0.1c0,0,0.2,0.2,0.3,0.2C59,6.8,59.7,7,59.7,7.1l0.2,0.1l0.2,0.6c-0.1,0-0.1,0-0.2,0
		L59.8,8l-0.6,0.3c-0.1,0-0.2,0-0.4,0.1c-0.2,0.1-0.2,0.2-0.3,0.2c0,0-0.1,0-0.2,0c-0.1,0-0.2,0-0.2,0c0,0,0-0.1,0-0.2l0.3-0.2
		L59,8.1l0.5-0.2l0.2,0c0.1-0.1,0-0.2-0.1-0.2l-0.3-0.1c-0.1,0-0.2-0.1-0.3-0.1c-0.1,0-0.2-0.1-0.2-0.1c0,0-0.1,0-0.1,0l-0.2,0
		l-0.2,0c-0.2,0-0.2,0-0.3,0c-0.1,0-0.2,0-0.3,0.1c-0.1,0.2-0.3,0.2-0.4,0.2c-0.3,0.1-0.5,0.2-0.6,0.3C56.4,7.9,56.3,8,56.2,8L56,8
		c-0.1,0-0.1-0.1,0-0.2c0-0.1,0.2-0.1,0.5-0.2c0.1,0,0.1-0.1,0.2-0.2c0-0.1,0.2-0.1,0.4-0.2l0.2-0.2c-0.1,0-0.2,0-0.3,0
		c-0.1,0-0.2,0-0.3,0c-0.1,0-0.2,0-0.2,0c-0.1,0.1-0.1,0.1-0.2,0l-0.1,0.1l-0.7,0.2L55,7.8l-0.2,0l-0.4,0.6l1.1-0.3l0,0.1
		c-0.1,0-0.1,0.1-0.1,0.1c-0.1,0.1-0.1,0.1-0.2,0.1l-0.3,0.1c-0.2,0.1-0.4,0.1-0.7,0.2l-0.4,0.2l-0.1,0.2l-0.1,0.2l0.2,0.1
		c0.1-0.1,0.2-0.1,0.3,0l0,0.2l-0.5,0.3L53.3,10c-0.1,0-0.1,0.1-0.2,0.1v0.3l0.6,0c-0.1,0.2-0.2,0.3-0.3,0.3c-0.1,0-0.2,0.1-0.2,0.4
		l0.2,0l0.3,0c0,0.2-0.1,0.3-0.2,0.3l-0.1,0.1l0.1,0.2c0.1-0.1,0.2-0.1,0.3-0.1l0.2-0.1l0.1,0l0.1-0.1c0.2-0.1,0.3,0,0.3,0.1
		c0,0.2-0.1,0.2-0.4,0.3l-0.2,0.2l0.3,0.2l0.3-0.1c0.1,0,0.3-0.1,0.4-0.2c0.1-0.1,0.2-0.2,0.1-0.4c0.1-0.1,0.1-0.3,0-0.6L55,11
		c-0.1,0-0.2,0-0.2-0.1l-0.4,0c0,0-0.1-0.1-0.1-0.2c-0.1,0-0.1-0.1-0.2-0.2c0-0.1,0-0.2,0-0.3c0-0.1,0-0.2,0-0.2
		c0.1,0,0.2-0.1,0.3-0.3c0.1-0.2,0.2-0.3,0.3-0.4C54.9,9.1,54.9,9,55,8.9c0.1-0.1,0.2-0.2,0.4-0.3l0.7-0.3c0.4-0.1,0.7-0.1,0.9,0
		l0-0.2l0.3-0.2l0.2,0c0-0.1,0-0.2,0.1-0.2l0.2-0.1l0.4-0.2l0.3-0.1l0.3,0c-0.1,0.1-0.2,0.2-0.4,0.3l-0.7,0.3c-0.1-0.1-0.2,0-0.2,0
		l-0.1,0.1l-0.3,0.1c0.1,0.1,0.2,0.1,0.3,0.1c0.2,0,0.3,0.1,0.4,0.1c0.1,0,0.1,0.1,0.2,0c0,0,0.1,0,0.2,0c0.1,0.1,0.1,0.1,0.2,0.1
		c0,0,0.1,0.1,0.2,0.1c0.3,0.1,0.5,0.3,0.7,0.3c0.1,0.1,0.1,0.1,0.2,0.1c0,0,0.1,0.1,0.1,0.1l0.2,0.1c0,0,0,0,0.1,0
		c0,0.1,0,0.1,0.2,0.2c0.1,0.1,0.2,0.1,0.2,0.1c0.1,0.1,0.1,0.1,0.2,0.2c0.1,0.1,0.1,0.1,0.2,0.2l0.1,0c0-0.1,0-0.1,0-0.2
		c0,0,0.1-0.1,0.2-0.1l0.1,0.3l-0.2,0c-0.1,0.1,0,0.2,0.1,0.2c0.1,0,0.1,0.1,0.1,0.2c0,0,0.1,0,0.1,0l0.3,0.8l0.1,0.3l0.2,0.8
		l0.2,0.8l-0.1,0.2l-0.3,0.6l-0.1,0.3L61.2,15l0.3,0l0.3,0l0.3,0.1l0.1,0l0.3,0.1l0.2,0.6c-0.1,0-0.1,0-0.2,0
		c-0.3-0.1-0.5-0.1-0.6-0.2c-0.1-0.1-0.3-0.1-0.4-0.1l-0.2,0l-0.2-0.2c-0.1,0.1-0.1,0.2-0.1,0.3c-0.1,0.1-0.1,0.2-0.1,0.2
		c0,0.1,0,0.1,0,0.1c0,0,0,0,0,0.1c-0.1,0-0.1,0.1-0.1,0.2c0,0.1-0.1,0.3-0.2,0.6c-0.2,0.3-0.3,0.5-0.3,0.6l0,0.1l0,0.1
		c0,0-0.1,0-0.1,0.1c0.1,0.1,0.2,0.1,0.2,0c0,0,0.1,0,0.3,0.1l0.2,0l0.5,0.1l0.2,0l0.1,0l0.2,0.2l0,0.1c-0.1,0.2-0.3,0.2-0.4,0.2
		L60,18.1c-0.1,0.1-0.2,0.3-0.4,0.7c-0.2,0.4-0.3,0.7-0.3,0.9l0.2-0.1l0.7,0.1l0.2,0l0.6,0.2c0.3,0.2,0.3,0.4-0.1,0.6l-1.5-0.4
		l-0.2-0.2l0,0.1c-0.1,0-0.1,0.1-0.1,0.2c0,0-0.1,0.1-0.2,0.2c-0.1,0.2-0.1,0.2-0.2,0.3c0,0-0.1,0.1-0.1,0.3l-0.9,0.8l-0.1,0
		l-0.2,0.2l0,0.2l0.5,0l0.1,0.1l0.4,0.2c0.1-0.1,0.2-0.2,0.3-0.2c0.1,0,0.2-0.2,0.3-0.5l0.2-0.2l0.2-0.2l0.3-0.3l0.1-0.2l0.9,0.3
		l0,0.2c-0.1,0.1-0.2,0.1-0.2,0.1c-0.1-0.1-0.1-0.1-0.2,0l-0.2,0.6l0.3,0c0,0.1,0.1,0.1,0.1,0.2c0,0.1-0.1,0.1-0.3,0.1
		c0,0,0,0-0.2-0.2l-0.2,0.5l0,0.2l0,0.1c0,0.1-0.1,0.2-0.2,0.2l-0.1,0.2c0,0,0,0.1,0,0.1c0,0.2-0.1,0.3-0.2,0.4
		c-0.1,0.1-0.1,0.2-0.1,0.3l-0.1,0.2c0,0.1-0.1,0.1-0.2,0.2l-0.2,0.7c0.1,0,0.2,0.1,0.3,0.1c0.1,0.1,0.1,0.1,0.1,0.2
		c-0.1,0-0.1,0.1-0.1,0.1l-1-0.3l0-0.1l-0.1,0l0-0.1l0-0.2l0-0.2l0-0.1l0.1-0.4l-0.2,0.1l-0.4-0.1c0.1,0,0.1-0.1,0.2-0.2
		c0-0.1,0.1-0.1,0.2-0.1l0.1,0c0.1,0,0.1,0,0.1,0.1c0,0,0,0.1,0,0.1c0.1-0.1,0.2-0.3,0.1-0.5c0-0.2-0.1-0.4-0.2-0.5l0-0.1
		c0,0-0.1-0.1,0-0.1l0.1-0.3l0-0.1l0-0.2c-0.1-0.1-0.1-0.1-0.2,0c-0.1,0.1-0.2,0-0.3-0.1c-0.1-0.1-0.1-0.1-0.2-0.1
		c0,0-0.1-0.1-0.3-0.1c0,0.1,0,0.2,0,0.2l0,0.2l0,0.1c0,0.1,0,0.1,0.1,0.2c0,0.1,0,0.2,0,0.3c0,0.1,0,0.1,0,0.2l-0.1,0.3l0,0.1
		c0,0.1,0,0.2,0.1,0.3c0,0.1,0,0.1-0.1,0.3c-0.1,0.1-0.1,0.2-0.1,0.3c0,0.1,0,0.2-0.1,0.3c0.2,0,0.4,0,0.5,0.1
		c0.1,0,0.2,0.2,0.3,0.4c-0.4,0.1-0.7,0-0.9-0.2l-0.2,0.1c-0.1,0.2,0,0.4,0,0.4c-0.1,0.1-0.1,0.2-0.2,0.3c-0.1,0.1-0.1,0.2-0.1,0.3
		l0,0.1l-0.1,0.3l-0.4,0.9l-0.1,0l-0.2,0.2l0.3,0.1l0.6,0.3c0.1,0,0.2,0.1,0.2,0.2l0.9,0.2l0.1,0.3l-0.1,0l-0.3-0.1l-0.1,0l-1.3-0.4
		c0,0,0-0.1-0.1-0.1c0,0-0.1,0.1-0.2,0.3c-0.1,0.1-0.1,0.3-0.1,0.3l-0.1,0.4c-0.1,0.1-0.1,0.2-0.2,0.4c-0.1,0.2-0.2,0.3-0.2,0.5
		c-0.1,0.2-0.2,0.3-0.3,0.3l0,0.2c0,0.1-0.1,0.2-0.1,0.3c-0.1,0.2-0.1,0.3-0.2,0.4l-0.8,1.4c0,0.1-0.1,0.2-0.1,0.3
		c-0.1,0.1-0.2,0.2-0.3,0.3c-0.1,0.1-0.1,0.2-0.2,0.4c-0.1,0.2-0.2,0.3-0.3,0.3c-0.1,0.1-0.1,0.2-0.2,0.3c-0.1,0.1-0.1,0.2-0.2,0.3
		c-0.1,0-0.1,0.1-0.1,0.3c0,0.2-0.2,0.3-0.3,0.2c0,0.1,0,0.2-0.1,0.2c-0.1,0.1-0.2,0.2-0.1,0.3l0.2-0.1l0.3,0.3l-0.2,0.2
		c0,0-0.1-0.1-0.2,0c-0.2,0-0.3,0-0.3-0.1c0,0,0-0.1,0-0.2l-0.1,0c-0.1,0.1-0.1,0.2-0.2,0.3c-0.1,0-0.1,0.1-0.2,0.2
		c-0.1,0-0.1,0.1-0.2,0.2c-0.1,0.1-0.2,0.1-0.2,0.2c-0.1,0-0.1,0-0.1,0l-0.2,0.1c0,0.1-0.1,0.1-0.1,0.2c-0.1,0-0.2,0.1-0.2,0.1
		c-0.2,0.1-0.4,0.3-0.8,0.5c-0.1,0.1-0.1,0.1-0.2,0.2c-0.1,0-0.2,0.1-0.2,0.1c-0.1,0.1-0.2,0.1-0.2,0.1c0,0-0.1,0-0.2,0.1
		c-0.1,0.1-0.3,0.2-0.5,0.2c-0.2,0-0.3,0.1-0.4,0.2l0.4,0.1l0.1,0.1c0.1,0,0.2,0,0.3-0.1l1,0.3l0.1,0c0.2,0,0.3,0.1,0.4,0.3
		l-0.1,0.1l-0.3-0.1l-0.5-0.1l-0.5-0.2l-0.3-0.1c0,0-0.1-0.1-0.1-0.2l-0.2,0.1l-0.4-0.2l0-0.2c-0.3,0.1-0.6,0.1-1.1,0.1l-1-0.2
		c-0.3-0.2-0.5-0.3-0.6-0.3c-0.1-0.1-0.2-0.2-0.4-0.3c-0.1-0.1-0.3-0.2-0.5-0.4c-0.2-0.2-0.4-0.3-0.5-0.4c0.1,0,0-0.1,0-0.3
		c-0.1-0.1-0.1-0.3-0.1-0.4l0-0.1c0-0.1,0.1-0.2,0.2-0.2c0.1-0.1,0.1-0.2,0.1-0.2l0.5-0.1c0-0.1,0.1-0.1,0.2-0.1l0.2-0.1
		c0.1-0.4,0-0.6-0.1-0.8c0.1-0.3,0-0.4-0.2-0.5c-0.2-0.1-0.4-0.1-0.6-0.2L43.3,34L43,34.3l0,0.1l0.3,0.1c0,0,0.1,0,0.1,0.1
		c0.2,0,0.4,0.1,0.4,0.3c0,0.2-0.1,0.2-0.3,0.2l-0.2,0l-0.2,0l-0.2,0c-0.1,0-0.2-0.1-0.4-0.1L42.4,35l0,0.1l0.1,0
		c0.2,0,0.3,0.2,0.3,0.4l-0.4,0.1l-0.1-0.1l-0.2,0.2c0,0.3,0.1,0.4,0.3,0.4c0.1,0,0.3,0.1,0.4,0.3l-0.8,0l0.1,0.4
		c0.1,0.1,0.2,0.1,0.3,0.1l0.2,0l0.6,0.3l0.1,0.3c-0.1,0.2-0.2,0.2-0.4,0.1l-0.3,0.2l0.2,0.2l0.2,0.2l0.6,0.2l0.1,0.1
		c0.2,0,0.5,0,0.8,0.1l0.4,0.1c0.1,0,0.2,0.1,0.3,0.1c0,0.1,0.1,0.1,0.2,0.1l0,0.1l-0.1,0.1l-1.4-0.4l0.7,0.7l0.3,0l0.7,0.3l0.9,0.1
		l0.1,0.1c0.1-0.1,0.2-0.1,0.3,0c0.1,0,0.2,0,0.3-0.1c0.1-0.1,0.2-0.1,0.4-0.1c0.1,0,0.2,0,0.4-0.1l-0.2-0.2c-0.3,0-0.5,0-0.6-0.1
		c-0.1-0.1-0.2-0.2-0.2-0.2c-0.4,0-0.7-0.1-0.7-0.2c-0.2-0.2-0.2-0.2,0-0.3l0.3-0.1c0.1,0,0.3,0.1,0.5,0.2c0.2,0.1,0.5,0.2,0.8,0.3
		c0.2,0,0.4,0.1,0.6,0.2c0.2,0,0.3,0,0.4,0c0,0,0.2,0,0.4-0.1l0.3-0.1l0.3-0.1c0.1,0,0.1,0,0.1,0c0,0,0.1-0.1,0.2-0.1
		c0.1-0.1,0.2-0.1,0.4-0.2l0.4-0.2c0.1-0.1,0.2-0.2,0.1-0.3l-0.2,0l-0.6-0.2l-0.6-0.1l-0.4-0.2c0-0.1,0-0.2,0-0.2c0,0,0.1,0,0.2,0
		c0.1,0,0.2,0,0.2-0.1c0,0.1,0.2,0.1,0.4,0.2c0.2,0,0.3,0,0.4-0.1c0.1,0.1,0.2,0.1,0.1,0.1l0.1,0l0.6,0.2l0.2,0.2
		c0.3,0,0.5-0.1,0.5-0.2c0.1,0,0.2,0,0.2-0.1c0.2,0,0.4-0.1,0.5-0.3l0-0.1l0.3-0.2h0.3c0-0.2,0.1-0.4,0.3-0.4
		c0.2-0.1,0.4-0.2,0.6-0.1c0.1,0,0.2,0.1,0.3,0.1c0.1,0.1,0.2,0.1,0.3,0.1l0.6,0.1l0.4,0.2l0,0.1L55.1,38c-0.2-0.1-0.4-0.2-0.4-0.2
		c-0.1-0.1-0.3-0.1-0.5-0.1c-0.2,0-0.3,0.1-0.3,0.3c0,0.1,0.1,0.2,0.1,0.3l0,0.1c0.3-0.1,0.4-0.1,0.5,0c0,0.1,0.1,0.1,0.3,0.1
		c0.1,0,0.3,0,0.4,0c0.1,0,0.2,0.1,0.2,0.4c-0.1,0.1-0.2,0.2-0.3,0.2l-0.4-0.2c-0.1,0.1-0.1,0.1-0.2,0.2c-0.1,0-0.1,0,0,0.2
		c0.1,0.2,0.3,0.3,0.6,0.3l0.2,0c0.3,0.1,0.4,0.2,0.4,0.3c0,0.1-0.1,0.2-0.2,0.1l0,0.2c0.3,0.1,0.5,0.1,0.6,0.2c0,0.1,0.3,0,0.6-0.1
		c-0.1-0.2-0.2-0.4-0.2-0.5c-0.1-0.2-0.2-0.4-0.2-0.6c-0.1-0.2-0.1-0.3-0.1-0.3c0,0,0-0.2,0-0.4c0-0.2,0-0.3,0-0.3c0,0,0-0.2,0-0.3
		l0.1-0.3l0-0.4l0.1-0.3l0.1-0.5c0-0.1,0-0.1,0-0.2c0-0.1,0-0.1,0-0.2c0-0.1,0.1-0.1,0.1-0.1c0,0,0-0.1,0-0.2l0.2-0.1
		c-0.1-0.1,0-0.2,0.1-0.3l0-0.1l0.1-0.4c0-0.2,0.1-0.3,0.1-0.3c0.1-0.1,0.1-0.2,0.1-0.3c0-0.2,0-0.3,0-0.5c0,0,0.1-0.2,0.2-0.4
		c0.1-0.3,0.2-0.4,0.2-0.5l0.1-0.4l0.1-0.2l0-0.1c0.1,0,0.2-0.1,0.2-0.2l0.1-0.3c0-0.1,0.1-0.2,0.2-0.2c0.1-0.1,0.1-0.2,0.1-0.3
		l0.1-0.4l0-0.1c-0.1,0,0,0,0.1-0.2c0.1-0.2,0.2-0.4,0.3-0.6c0.1-0.1,0.2-0.2,0.3-0.5l0-0.6l0.2-0.9c0.1-0.1,0.2-0.3,0.2-0.5
		c0-0.2,0.1-0.5,0.2-0.8c0.1-0.1,0.1-0.3,0.2-0.5c0-0.3,0.1-0.5,0.2-0.5c0-0.1,0-0.2,0.1-0.2l0.2-0.2l0-0.1l0-0.2
		c0-0.1,0.1-0.2,0.2-0.4c0.1-0.2,0.2-0.4,0.2-0.4c-0.1-0.1,0-0.2,0-0.2c0.1,0,0.1-0.1,0.1-0.3c0,0,0-0.1,0-0.1c0-0.1,0-0.1,0-0.2
		c0.1-0.2,0.1-0.2,0.1-0.2l0-0.2l0.1-0.3c0.1,0,0.2-0.1,0.3-0.3c0-0.2,0-0.4,0-0.4c0.1-0.1,0.2-0.2,0.3-0.4l0.1-0.4l0.1-0.3
		c0,0,0-0.1,0.1-0.2c0.1-0.1,0.1-0.2,0.1-0.2c0,0,0-0.2,0.1-0.5c0.1-0.4,0.2-0.6,0.3-0.6l0-0.3l0.3-0.4l0-0.2l0-0.2
		c0.1-0.1,0.1-0.1,0.2-0.3l0,0.2L63.2,18.5z M54.5,33.8l0.2-0.2L56,34l0.1,0.1l0,0.2c-0.1,0.1-0.1,0.2-0.1,0.3
		c-0.1,0.1-0.1,0.2-0.2,0.3c0,0.2-0.1,0.3-0.2,0.3c0,0-0.1,0-0.1,0c-0.1,0-0.1,0-0.2,0l0,0.1l-0.4-0.1l-0.5-0.1L54,34.7L54,34.4
		l-0.2,0.2l-0.2,0l-0.3-0.1l-0.1-0.3l0.1,0l0.1,0l0.3,0.1l0.2,0.1l0.1,0l0.2-0.3c-0.1-0.1-0.2-0.2-0.4-0.3c-0.2-0.1-0.2-0.2-0.2-0.3
		c0-0.1,0.1-0.1,0.2-0.1l0.3,0.1C54.3,33.6,54.4,33.7,54.5,33.8z M54,36.3c0.1-0.1,0.3-0.1,0.6,0.1c0.3,0.2,0.6,0.2,0.8,0.2l0.1,0.1
		V37l-0.8-0.2l-0.2,0l-0.3-0.1c-0.1,0-0.2-0.1-0.3-0.3c-0.2,0.1-0.3,0.1-0.4,0.1c-0.1,0-0.2-0.1-0.3-0.1c-0.1-0.1-0.2-0.1-0.3-0.1
		l-0.3-0.1c0-0.1-0.1-0.1-0.2-0.2l0.1-0.2l0.3,0.1l0.4,0c0.2,0,0.3,0.1,0.4,0.2C53.7,36.3,53.8,36.3,54,36.3z M57.4,29.2l0.4,0.2
		l0,0.1l-0.1,0.2l-0.4,0.1l-0.2,0c0-0.1-0.1-0.1-0.3-0.1c-0.2-0.1-0.3-0.1-0.4-0.1c-0.3-0.1-0.6-0.2-0.8-0.4
		c0.1-0.1,0.3-0.1,0.4-0.1l0.4,0.1l0.4,0.1l0.3,0.1L57.4,29.2z M56.4,33.3l-0.1,0.1l-0.2,0l-0.2,0l-0.2,0.1c0-0.1-0.1-0.1-0.2-0.2
		l-0.1,0c-0.3,0-0.5-0.1-0.6-0.1c-0.1-0.1-0.3-0.2-0.6-0.3l0-0.2l0.2,0c0.1,0,0.1,0,0.3,0c0.1,0,0.1,0,0.1,0c0,0.1,0.1,0.1,0.1,0.1
		l0.5,0c0,0.1,0.1,0.1,0.2,0.2L56,33c0.2,0,0.3,0.1,0.3,0.1L56.4,33.3z M57.1,31.5c0,0.2-0.1,0.2-0.3,0.1c-0.2-0.1-0.3-0.1-0.4-0.1
		c-0.5-0.1-0.9-0.3-1.3-0.5c0.1-0.2,0.3-0.2,0.6-0.1c0.3,0.1,0.5,0.1,0.6,0c0.1,0.1,0.2,0.2,0.2,0.2c0.1,0,0.1-0.1,0.2-0.1
		c0,0,0.1,0.1,0.2,0.2C57.1,31.3,57.1,31.4,57.1,31.5z M50.5,37.3c0.2,0,0.4,0.1,0.6,0.2c0.2,0,0.4,0.1,0.4,0.2l0.3,0.1
		c0.1,0,0.2,0.1,0.2,0.2c-0.1,0.1-0.1,0.1-0.3,0.1l-0.2-0.2c-0.1,0.1-0.3,0.1-0.7,0c-0.4-0.1-0.6-0.2-0.7-0.2L50,37.4l0.2-0.1
		c0,0,0.1,0.1,0.1,0c0.1,0,0.1,0.1,0.1,0.1L50.5,37.3z M52.1,36.8l0.8,0.2l0.2,0.3c-0.1,0-0.1,0-0.2,0.1l-0.3-0.1
		c-0.1-0.1-0.2-0.1-0.3-0.1L51.5,37c-0.1,0-0.2,0-0.2,0L51,36.8l0.1-0.2l0.3,0.1l0.3,0.1L52.1,36.8z M54.2,35.4
		c0-0.1,0.1-0.1,0.2-0.1c0.1,0,0.2,0.1,0.2,0.1c0,0.1,0.1,0.1,0.2,0.1l0.2,0l0.5,0.1c0.2,0,0.3,0.1,0.3,0.2c0,0.1-0.1,0.1-0.1,0.2
		c-0.3-0.1-0.7-0.2-1-0.3c-0.3-0.1-0.5-0.2-0.5-0.4l-0.1,0c-0.2,0-0.3-0.1-0.3-0.2l0.3,0.1c0.1,0,0.1,0,0.2,0.1
		C54.1,35.5,54.1,35.5,54.2,35.4z M56.5,30l0.7,0.1c0.2,0,0.3,0.1,0.3,0.2c0,0.2-0.2,0.2-0.4,0.2c-0.3-0.1-0.4-0.2-0.4-0.2
		c-0.1,0-0.3-0.1-0.5-0.2c-0.2-0.1-0.4-0.2-0.5-0.3l0.1-0.1c0,0.1,0.1,0.1,0.3,0.1c0.1,0,0.3,0,0.4,0L56.5,30z M56.6,32.2
		c-0.1,0.3-0.3,0.3-0.6,0.2c-0.2-0.1-0.3-0.2-0.4-0.2c-0.1,0-0.2-0.1-0.2-0.2l0.2-0.1l0.2,0c0.1,0,0.1,0,0.2,0
		c0.1,0,0.2,0.1,0.3,0.1C56.4,32.1,56.5,32.1,56.6,32.2z M53.4,35.4l-0.1,0l-0.4-0.1c-0.2,0-0.3-0.1-0.2-0.2c0-0.1,0.2-0.2,0.4-0.1
		C53.2,35.1,53.4,35.2,53.4,35.4z M55.1,31.7l0,0.2l-0.2,0C54.9,31.8,55,31.7,55.1,31.7z M62.3,14.7l-0.1,0c-0.1,0-0.1,0-0.2-0.1
		c-0.2-0.1-0.3-0.2-0.3-0.2l0-0.2c0.1,0,0.2,0,0.5-0.1L62.3,14.7z M60.8,16.9l0.3,0.1l0.2,0l0.3,0.1c0.1,0,0.3,0.1,0.4,0.2
		c0.1,0.1,0.1,0.2,0,0.3c-0.1,0.1-0.2,0.2-0.4,0.2l-0.4-0.2L61,17.4c-0.1,0-0.2-0.1-0.3-0.1c-0.2-0.1-0.3-0.2-0.2-0.3
		C60.6,16.9,60.7,16.8,60.8,16.9z M62.4,16.7L62,16.6c-0.1,0-0.3,0-0.5-0.1c-0.3-0.1-0.4-0.2-0.5-0.4l0.2-0.2l1,0.2
		C62.4,16.3,62.5,16.4,62.4,16.7z M61.5,19l-0.1,0.2l-0.2,0.1l-0.4,0c-0.1-0.1-0.3-0.2-0.6-0.2c-0.3-0.1-0.4-0.1-0.4-0.3
		c0-0.1,0.1-0.2,0.3-0.1l0.7,0.2c0.1,0,0.2,0.1,0.3,0.1L61.5,19z M58.4,26.2c0.2,0,0.2,0,0.3,0.1c0,0,0.1,0.1,0.2,0.1l-0.2,0.3
		c0,0-0.1-0.1-0.3-0.1c-0.1,0-0.2,0-0.3,0c-0.1,0-0.2-0.1-0.2-0.1c-0.1-0.1-0.2-0.1-0.3-0.1c-0.1,0-0.2-0.1-0.1-0.3
		c0.2,0,0.4,0,0.6,0.1C58.2,26,58.3,26.1,58.4,26.2z M59.4,20.6l0.3,0.1l-0.1,0.2c-0.1,0-0.2,0-0.2,0l-0.3-0.1c0,0,0-0.1-0.1-0.1
		c0,0-0.1,0,0-0.1C59,20.6,59.2,20.5,59.4,20.6z M58.4,21.2l0.7,0.1l0,0.2c0,0,0,0.1-0.1,0.1l-0.6-0.2L58.4,21.2z M59.9,23.7
		L59.8,24l-0.2,0l-0.1-0.1l0-0.2l0.1,0L59.9,23.7z M60.2,22.9c0,0.1-0.1,0.1-0.2,0.1c0,0-0.1-0.1-0.2-0.2l0.2-0.2
		C60.1,22.7,60.2,22.8,60.2,22.9z M57.9,22.9l0.1,0.3l-0.1,0L57.7,23L57.9,22.9z M59.4,24.5l0,0.2l-0.2,0
		C59.2,24.6,59.2,24.5,59.4,24.5z M61.6,37c-0.2,0-0.4-0.1-0.5-0.2L61,36.6c0,0-0.1-0.1-0.2-0.2c0,0-0.1-0.1-0.1-0.1
		c0,0,0-0.1-0.1-0.1c0,0,0-0.1-0.1-0.2l-0.2-0.2c0,0-0.1-0.1-0.1-0.2c0-0.1-0.1-0.2-0.1-0.2V35c0,0,0-0.1,0-0.2v-0.1v-0.2v-0.1v-0.2
		c0-0.2,0.1-0.4,0.2-0.7c0-0.1,0-0.2,0.1-0.2c0.1,0,0.1-0.1,0.1-0.1c0-0.1,0.1-0.1,0.1-0.2c0,0,0,0,0.1-0.1c0.1,0,0.1,0,0.1-0.1
		l0.9-0.9c0.2-0.1,0.3-0.2,0.5-0.3c0.1-0.1,0.2-0.2,0.4-0.2c0.1,0,0.2-0.1,0.5-0.3c0.2-0.2,0.3-0.2,0.4-0.2v-0.1
		c0,0,0.1-0.1,0.2-0.1c0.1,0,0.2-0.1,0.3-0.1c0.1-0.1,0.1-0.2,0.2-0.2c0,0,0.1-0.1,0.2-0.2c0.1,0,0.2-0.2,0.4-0.4
		c0.2-0.2,0.2-0.4,0.2-0.4c0.1-0.2,0.1-0.2,0.2-0.3c0.1-0.3,0.1-0.4,0.1-0.4c0-0.2,0.1-0.3,0.1-0.6c0-0.1,0-0.3-0.1-0.5
		c-0.1-0.2-0.2-0.3-0.2-0.4c0,0,0-0.1-0.1-0.2l-0.2-0.2c-0.1,0-0.2-0.1-0.2-0.2c-0.1-0.1-0.2-0.1-0.2-0.1c0-0.1-0.1-0.1-0.1-0.1
		c-0.1,0-0.1-0.1-0.2-0.1h-0.2c-0.1,0-0.2,0-0.2-0.1h-0.2h-0.2c-0.2,0-0.3,0-0.6,0.1c-0.3,0.1-0.4,0.2-0.6,0.2
		c-0.1,0.1-0.2,0.2-0.3,0.3c-0.1,0.2-0.2,0.3-0.2,0.5c0,0.2,0,0.3-0.1,0.3c0,0,0,0.1,0.1,0.2c0,0.2,0.1,0.3,0.2,0.3
		c0.1,0,0.2,0,0.2,0.1c0.2,0,0.3,0,0.4-0.1c0-0.1,0.1-0.1,0.2-0.1c0.1,0,0.1,0.1,0.2,0.2c0,0.2,0.1,0.3,0.1,0.3v0.3
		c0,0.1,0,0.2-0.1,0.3c-0.1,0.2-0.2,0.3-0.3,0.3c-0.2,0.1-0.2,0.1-0.3,0.1c-0.1,0-0.1,0.2-0.1,0.3v0.3c0,0.1,0,0.2-0.1,0.3
		c-0.1,0.1-0.1,0.2-0.1,0.3c-0.2,0.1-0.3,0.2-0.3,0.3c-0.2,0.2-0.3,0.3-0.5,0.3c-0.1,0-0.3,0.1-0.5,0.1c-0.2,0-0.2,0-0.3-0.1h-0.2
		c0-0.1-0.1-0.2-0.2-0.3c-0.2-0.1-0.2-0.2-0.2-0.2c0.1,0,0.2,0,0.2,0.1H60c0.1,0.1,0.1,0.1,0.2,0.1c0.1,0.1,0.1,0.1,0.2,0
		c0-0.1,0.1-0.1,0.2-0.1l0.1-0.1c0.1-0.1,0.1-0.2,0.1-0.2v-0.2c0,0,0-0.2-0.1-0.4c0-0.2-0.1-0.4-0.1-0.4c-0.1-0.1-0.1-0.3-0.1-0.4
		v-0.4c0-0.1,0.1-0.3,0.2-0.7c0.1-0.3,0.2-0.5,0.3-0.6l0.1-0.2c0.2,0,0.3-0.1,0.3-0.2c0-0.2,0-0.3,0.1-0.3c0-0.1,0.1-0.2,0.2-0.3
		c0.1-0.1,0.2-0.2,0.3-0.2c0.2-0.1,0.3-0.1,0.3-0.2c0.1,0,0.2,0,0.3-0.1c0.1,0,0.2,0,0.2-0.1c0,0,0.1-0.1,0.2-0.1
		c0.1,0,0.2,0,0.2,0.1c0,0,0.1,0,0.2-0.1L63,25.5c-0.1,0-0.1-0.1-0.1-0.3c0-0.1-0.1-0.1-0.1-0.2c-0.1,0-0.1,0-0.1-0.1
		c0-0.1-0.1-0.3-0.1-0.4c0-0.1,0.1-0.3,0.2-0.6c0.1-0.3,0.2-0.4,0.3-0.3c0-0.1,0.2-0.2,0.4-0.3c0.2-0.1,0.3-0.3,0.3-0.6v-0.1v-0.2
		c-0.1,0-0.1,0-0.1-0.1c0,0-0.1,0-0.2-0.1c-0.1-0.1-0.1-0.1-0.1-0.1c0-0.1,0.1-0.1,0.1-0.1h0.1l0.1,0.1H64c0,0.1,0.1,0.2,0.1,0.3
		c0.1,0,0.2,0.1,0.2,0.3l0.1,0.1c0,0,0,0.1,0,0.2c0.1,0.2,0.1,0.4,0,0.5v0.1c0,0-0.1,0.1-0.1,0.2l-0.1,0.1c-0.1,0-0.1,0.1-0.1,0.2
		c0,0.1,0.1,0.1,0.2,0.1s0.2,0,0.1,0.1c0.1,0,0.2,0.1,0.3,0.3c0.1,0.2,0.1,0.3,0.2,0.4c0.1,0.2,0.1,0.4-0.1,0.4
		c-0.2,0-0.3,0-0.3-0.2c-0.1-0.3-0.3-0.5-0.6-0.5c-0.1,0-0.1,0-0.2,0.1l-0.2,0.1c-0.1,0.2-0.1,0.4-0.1,0.4l0.1,0.3
		c0,0.1,0,0.1,0.1,0.2h0.1c0.1,0.1,0.1,0.1,0.2,0.1c0.2,0.1,0.4,0.2,0.6,0.3l0.1,0.1l0.1,0.2c0.2,0.1,0.2,0.1,0.3,0.2
		c0,0,0.1,0.1,0.2,0.3c0,0.2,0.1,0.2,0.2,0.2c0,0,0,0.1,0.1,0.3c0,0.2,0.1,0.3,0.1,0.4c0,0.2,0.1,0.4,0.1,0.7v0.2l0.1,0.2v0.1v0.2
		l-0.1,0.5c0,0.1,0,0.1-0.1,0.2c0,0.1-0.1,0.2-0.1,0.3v0.2c0,0.1-0.1,0.2-0.1,0.2c-0.1,0.1-0.1,0.1-0.1,0.2c0,0.1-0.1,0.2-0.2,0.2
		c0,0.1-0.1,0.1-0.1,0.2c0,0,0,0.1-0.1,0.2v0.1c0,0,0.2,0,0.3,0.1c0.2,0,0.2,0.1,0.3,0.1c0.1,0,0.2,0,0.4,0.1
		c0.2,0.1,0.2,0.2,0.2,0.3c0.1,0,0.1,0,0.1,0.1c0,0.1,0,0.1,0.1,0.2l-0.1,0.3c0,0-0.1,0.1-0.3,0.1c-0.1,0-0.1,0.1-0.1,0.1
		c0,0,0,0.1-0.1,0.1c0,0.1-0.1,0.1-0.2,0.1c-0.1,0-0.2,0.1-0.2,0.1c-0.1,0-0.2,0-0.2,0c-0.1,0-0.1,0.1-0.2,0.2v0.2l0.1,0.3V34
		c0,0.2-0.1,0.4-0.2,0.6c-0.1,0.1-0.2,0.2-0.3,0.2C64.2,34.9,64.1,35,64,35h-0.2c0,0-0.1,0-0.1,0.1h-0.2c0,0,0,0.1-0.1,0.1
		c-0.1,0,0-0.1,0.1-0.2c0.1-0.1,0.2-0.2,0.2-0.3c0-0.1,0.1-0.2,0.1-0.3c0-0.1,0.1-0.2,0.1-0.3c0-0.3-0.1-0.5-0.3-0.7
		c-0.2-0.2-0.3-0.3-0.3-0.3l0.1,0.1v-0.2C63.3,33,63.2,33,63,32.8h-0.7c-0.1,0-0.2,0-0.3,0.1C62,33,61.8,33,61.7,33
		c0,0-0.2,0.1-0.3,0.2c-0.2,0.1-0.3,0.2-0.3,0.2c-0.2,0-0.2,0.1-0.2,0.3l-0.1,0.1c0,0-0.1,0.1-0.1,0.2c0,0.1-0.1,0.1-0.1,0.2
		l-0.1,0.2v0.2v0.3c0,0.1,0,0.1,0,0.1v0.2v0.4c0,0.2,0,0.3,0.1,0.4c0.1,0.2,0.1,0.3,0.2,0.3c0.1,0.1,0.1,0.2,0.2,0.2L61.6,37z
		 M82.1,37l0.6-0.5c0-0.1,0.1-0.2,0.2-0.2c0.1,0,0.2-0.2,0.2-0.3c0-0.1,0.1-0.2,0.1-0.4v-0.4V35c0,0,0,0,0-0.1v-0.3v-0.2l-0.1-0.2
		c0,0,0-0.1-0.1-0.2c0-0.1-0.1-0.2-0.1-0.2l-0.1-0.1c0-0.2-0.1-0.3-0.2-0.3c0-0.1-0.1-0.2-0.3-0.2C82.2,33.1,82,33.1,82,33
		c-0.2,0-0.3-0.1-0.4-0.2c-0.1,0-0.2-0.1-0.3-0.1h-0.7c-0.2,0.2-0.3,0.2-0.4,0.1V33l0.1-0.1c0,0.1-0.1,0.2-0.3,0.3
		c-0.2,0.2-0.3,0.4-0.3,0.7c0,0.1,0,0.2,0.1,0.3c0,0.1,0.1,0.2,0.1,0.3c0,0.1,0.1,0.2,0.2,0.3c0.2,0.2,0.2,0.2,0.1,0.2
		c-0.1,0-0.1,0-0.1-0.1h-0.2c0,0-0.1-0.1-0.1-0.1h-0.2c-0.1,0-0.2-0.1-0.3-0.2c-0.1-0.1-0.2-0.2-0.3-0.2c-0.2-0.2-0.2-0.4-0.2-0.6
		v-0.5l0.1-0.3V33c0-0.1-0.1-0.2-0.2-0.2c0,0-0.1,0-0.2,0c0,0-0.1-0.1-0.2-0.1c-0.1,0-0.2,0-0.2-0.1c-0.1,0-0.1-0.1-0.1-0.1
		c0,0,0-0.1-0.1-0.1c-0.2,0-0.2,0-0.3-0.1L77.5,32c0.1,0,0.1-0.1,0.1-0.2c0,0,0-0.1,0.1-0.1c0-0.1,0-0.2,0.2-0.3
		c0.2-0.1,0.3-0.1,0.4-0.1c0,0,0.1-0.1,0.3-0.1c0.2,0,0.3-0.1,0.3-0.1v-0.1c0-0.1-0.1-0.1-0.1-0.2c0,0,0-0.1-0.1-0.2
		c-0.1-0.1-0.1-0.2-0.2-0.2c0,0,0-0.1-0.1-0.2c0,0,0-0.1-0.1-0.2v-0.2c0-0.1-0.1-0.2-0.1-0.3c0-0.1-0.1-0.2-0.1-0.2l-0.1-0.5v-0.2
		v-0.1l0.1-0.2v-0.2c0-0.3,0-0.5,0.1-0.7c0-0.1,0.1-0.2,0.1-0.4c0.1-0.2,0.1-0.2,0.1-0.3c0.1,0,0.2-0.1,0.2-0.2
		c0.1-0.2,0.1-0.2,0.2-0.3c0,0,0.1-0.1,0.3-0.2l0.1-0.2l0.1-0.1c0.3-0.1,0.5-0.2,0.6-0.3c0,0,0.1-0.1,0.2-0.1h0.1
		c0.1,0,0.1-0.1,0.1-0.2l0.1-0.3c0,0,0-0.2-0.1-0.4l-0.2-0.1c0,0-0.1-0.1-0.2-0.1c-0.3,0-0.5,0.2-0.6,0.5c-0.1,0.2-0.2,0.3-0.3,0.2
		c-0.1,0-0.1-0.2-0.1-0.4c0-0.1,0.1-0.2,0.2-0.4c0.1-0.2,0.2-0.3,0.3-0.3c0-0.1,0-0.1,0.1-0.1c0.1,0,0.2,0,0.2-0.1
		c0-0.1,0-0.1-0.1-0.2l-0.1-0.1c0-0.1,0-0.1-0.1-0.2v-0.1c-0.1-0.1-0.1-0.3,0-0.5c0-0.1,0-0.1,0-0.2l0.1-0.1
		c0.1-0.2,0.1-0.2,0.2-0.3c0-0.1,0-0.2,0.1-0.3h0.2l0.1-0.1h0.1c0,0,0.1,0.1,0.1,0.1c0,0,0,0-0.1,0.1c-0.1,0-0.1,0.1-0.2,0.1
		c0,0,0,0.1-0.1,0.1v0.2v0.1c0,0.3,0.1,0.5,0.3,0.6c0.2,0.1,0.4,0.2,0.4,0.3c0.1,0,0.2,0.1,0.3,0.3c0.1,0.3,0.2,0.5,0.2,0.6
		c0,0.2,0,0.3-0.1,0.4c0,0,0,0.1-0.1,0.1c0,0-0.1,0.1-0.1,0.2c0,0.2,0,0.2-0.1,0.3L80,25.9c0.1,0.1,0.1,0.1,0.2,0.1
		c0.1,0,0.2-0.1,0.2-0.1c0.1,0,0.2,0,0.2,0.1c0.1,0,0.2,0.1,0.2,0.1c0.1,0,0.2,0.1,0.3,0.1c0,0.1,0.2,0.2,0.3,0.2
		c0.1,0,0.2,0.1,0.3,0.2c0.1,0.2,0.2,0.3,0.2,0.3c0.1,0.1,0.1,0.2,0.1,0.3c0,0.2,0.2,0.2,0.3,0.2l0.1,0.2c0.1,0,0.2,0.2,0.3,0.6
		c0.2,0.3,0.2,0.5,0.2,0.7v0.4c0,0.2,0,0.3-0.1,0.4c0,0,0,0.2-0.1,0.4c0,0.2-0.1,0.4-0.1,0.4v0.2c0,0.1,0.1,0.1,0.1,0.2l0.1,0.1
		c0.1,0,0.1,0,0.2,0.1c0.1,0.1,0.1,0.1,0.2,0c0,0,0.1-0.1,0.2-0.1h0.1c0.1,0,0.1-0.1,0.2-0.1c0,0.1,0,0.2-0.2,0.2
		c-0.1,0.1-0.2,0.2-0.2,0.3h-0.2c0,0-0.1,0.1-0.3,0.1c-0.2,0-0.4,0-0.5-0.1c-0.1,0-0.3-0.2-0.5-0.3c-0.1-0.2-0.2-0.3-0.3-0.3
		c0-0.1,0-0.2-0.1-0.3c0-0.1-0.1-0.2-0.1-0.3v-0.3c0-0.2,0-0.3-0.1-0.3c0,0-0.1,0-0.3-0.1c-0.1-0.1-0.2-0.2-0.3-0.3
		c-0.1-0.1-0.1-0.2-0.1-0.3v-0.3c0-0.1,0-0.2,0.1-0.3C80.9,28,81,28,81,28c0.1,0,0.1,0,0.2,0.1c0.1,0.1,0.2,0.1,0.4,0.1
		c0.1-0.1,0.2-0.1,0.2-0.1c0.1,0,0.1-0.1,0.2-0.3c0.1-0.1,0.1-0.2,0.1-0.2c0,0-0.1-0.2-0.1-0.3c0-0.2-0.1-0.3-0.2-0.5
		c-0.1-0.2-0.2-0.3-0.3-0.3c-0.1-0.1-0.3-0.2-0.6-0.2c-0.2,0-0.4-0.1-0.6-0.1h-0.2h-0.2c-0.1,0-0.1,0.1-0.2,0.1h-0.2
		c0,0-0.1,0-0.2,0.1c0,0-0.1,0.1-0.1,0.1c-0.1,0-0.2,0-0.2,0.1c0,0.1-0.1,0.2-0.2,0.2l-0.2,0.2c0,0.1-0.1,0.2-0.1,0.2
		c-0.1,0.1-0.2,0.2-0.2,0.4c0,0.2-0.1,0.3-0.1,0.5c0,0.2,0,0.4,0.1,0.6c0,0,0,0.1,0.1,0.4c0.1,0,0.2,0.1,0.2,0.3c0,0,0,0.2,0.2,0.4
		c0.2,0.2,0.3,0.4,0.4,0.4c0.1,0.1,0.2,0.1,0.2,0.2c0,0.1,0.1,0.1,0.2,0.2c0.1,0,0.2,0.1,0.3,0.1c0.1,0,0.2,0.1,0.2,0.1v0.1
		c0.1,0,0.2,0.1,0.4,0.2c0.2,0.2,0.4,0.2,0.5,0.3c0.2,0.1,0.3,0.2,0.4,0.2c0.1,0.2,0.3,0.3,0.5,0.3l0.9,0.9c0,0.1,0,0.1,0.1,0.1
		c0.1,0.1,0.1,0.1,0.1,0.1c0,0,0,0.1,0.1,0.2c0,0,0,0.1,0.1,0.1c0.1,0.1,0.1,0.2,0.1,0.2c0.2,0.3,0.2,0.5,0.2,0.7v0.2v0.1v0.2v0.1
		c0,0.2,0,0.2,0,0.2v0.3c0,0-0.1,0.1-0.1,0.2c0,0.1,0,0.2-0.1,0.2L83.1,36c-0.1,0.1-0.1,0.2-0.1,0.2c-0.1,0-0.1,0.1-0.1,0.1
		c0,0,0,0.1-0.1,0.1c-0.1,0.1-0.1,0.2-0.2,0.2l-0.1,0.1C82.5,36.9,82.3,37,82.1,37z M53,25.1c0,0.1-0.1,0.2,0,0.3
		c0,0.1,0,0.3-0.1,0.3c0,0.1-0.1,0.2-0.2,0.2l-0.2,0.2c0,0.1-0.1,0.2-0.3,0.3c-0.1,0.1-0.3,0.1-0.3,0.1c-0.1,0-0.1-0.1,0-0.3
		c0-0.1,0-0.3,0.1-0.3c0.1-0.3,0.2-0.6,0.2-0.8c0-0.1,0-0.2-0.1-0.3c-0.1-0.1-0.1-0.2-0.1-0.4c-0.1,0-0.1-0.2-0.1-0.4
		c-0.1-0.1-0.2-0.2-0.1-0.6c0-0.3,0-0.5,0.1-0.7c0.1-0.3,0.2-0.4,0.3-0.5c0.1-0.2,0.3-0.3,0.5-0.3l-0.1,0.1l-0.2,0.4
		c0,0.1,0,0.1,0.1,0.2c0,0.1,0,0.2,0,0.3c0,0,0.1,0.2,0.3,0.4c0,0.1,0.1,0.2,0.2,0.1l0.2,0.1c0.2,0.1,0.3,0.1,0.4,0.1
		c0.1,0,0.1,0,0.2,0l0.1,0.2c-0.1,0.1-0.1,0.1-0.1,0.1c0,0,0,0.1-0.2,0.2c-0.1,0.1-0.3,0.2-0.5,0.2c0,0.1,0,0.2,0.1,0.2L53,24.7
		C53.1,24.8,53,24.9,53,25.1z M53.1,20.9c0,0-0.1-0.1-0.1-0.2c-0.1-0.1-0.2-0.2-0.1-0.2c0-0.1,0-0.2-0.1-0.2c0,0,0-0.1,0-0.2
		c-0.1-0.2-0.1-0.5,0-0.8l0.2-0.4c0.1-0.1,0.1-0.2,0.2-0.2l0.2,0c-0.1-0.1,0.1-0.2,0.3-0.2c0.2,0,0.3-0.1,0.3-0.2c0.1,0,0.2,0,0.3,0
		c0.1-0.1,0.1-0.1,0.2-0.1c0.2,0,0.3,0,0.5-0.1c0.1,0,0.3-0.2,0.5-0.3c0.2-0.1,0.3-0.2,0.3-0.4L56,17c0.1,0,0.1-0.1,0.1-0.1l0.1,0.2
		c0,0.1,0,0.1,0,0.2c0.1,0.2,0.1,0.5,0,0.7l-0.1,0.1c0,0-0.1,0.1-0.1,0.2L56,18.5c-0.1,0-0.1,0.1-0.1,0.1c0,0-0.1,0.1-0.2,0.1
		c-0.1,0-0.2,0.1-0.3,0.2c0,0.3-0.1,0.5-0.2,0.7c0,0.1-0.1,0.2-0.2,0.3c-0.1,0.1-0.2,0.1-0.3,0.1c-0.1,0-0.1-0.1,0-0.3
		c0.1-0.1,0-0.3-0.2-0.5c-0.1-0.1-0.2-0.2-0.4-0.2c-0.2,0-0.4,0-0.5,0.1c-0.2,0.1-0.2,0.2-0.3,0.3l-0.2,0.5l-0.1,0.1L53,20
		c0,0-0.1,0.1-0.1,0.1l0,0.2L53.1,20.9L53.1,20.9z M90.6,25.1c-0.1-0.2-0.1-0.3-0.1-0.3l-0.1-0.2c0,0,0.1-0.1,0.1-0.2
		c-0.2-0.1-0.3-0.2-0.5-0.2c-0.2-0.1-0.2-0.2-0.2-0.2c0,0,0-0.1-0.1-0.1l0.1-0.2c0.1,0,0.2,0,0.2,0c0.1,0,0.2,0,0.4-0.1l0.2-0.1
		c0.1,0,0.1,0,0.2-0.1c0.2-0.2,0.3-0.3,0.3-0.4c0-0.1,0-0.2,0-0.3c0.1,0,0.1-0.1,0.1-0.2l-0.2-0.4l-0.1-0.1c0.2,0,0.4,0.1,0.5,0.3
		c0.1,0.1,0.2,0.3,0.3,0.5C92,22.8,92,23,92,23.3c0,0.3,0,0.5-0.1,0.6c0,0.2-0.1,0.3-0.1,0.4c0,0.2,0,0.3-0.1,0.4
		c-0.1,0.1-0.1,0.2-0.1,0.3c0,0.2,0.1,0.5,0.2,0.8c0,0.1,0.1,0.2,0.1,0.3c0.1,0.2,0.1,0.3,0,0.3c-0.1,0-0.2,0-0.3-0.1
		c-0.1-0.1-0.2-0.2-0.3-0.3l-0.2-0.2c-0.1-0.1-0.1-0.1-0.2-0.2c0-0.1-0.1-0.2-0.1-0.3C90.7,25.2,90.7,25.2,90.6,25.1z"/>
	<path class="st0" d="M131.2,70.2h4.9l-2.3-7c-0.1-0.4-0.3-0.4-0.4,0l-2.2,6.9L131.2,70.2z M127.6,75.8l5.8-15.8
		c0.3-0.8,0.4-1,0.6-1c0.2,0,0.3,0.1,0.6,0.9c0.4,1,4.4,11.5,5.9,15.3c0.9,2.3,1.7,2.7,2.2,2.8c0.4,0.1,0.8,0.2,1,0.2
		c0.2,0,0.3,0,0.3,0.2c0,0.2-0.2,0.2-0.5,0.2c-0.4,0-2.2,0-4-0.1c-0.5,0-0.8,0-0.8-0.2c0.3-0.2,0.5-0.5,0.3-0.9l-2.4-6.3
		c-0.1-0.1-0.1-0.2-0.2-0.2h-5.5c-0.1,0-0.2,0.1-0.3,0.2l-1.5,4.5c-0.2,0.6-0.4,1.2-0.4,1.7c0,0.5,0.5,0.7,1,0.7h0.3
		c0.2,0,0.3,0.1,0.3,0.2c0,0.2-0.2,0.2-0.4,0.2c-0.6,0-1.7-0.1-2-0.1c-0.3,0-1.7,0.1-2.9,0.1c-0.3,0-0.5-0.1-0.5-0.2
		c0-0.1,0.1-0.2,0.2-0.2l0.7-0.1C126.7,78.1,127.2,77.1,127.6,75.8z M20.5,59.7l1.7,15.6c0.1,0.9,0.3,2.3,1.4,2.7
		c0.7,0.2,1.4,0.2,1.7,0.2c0.1,0,0.2,0,0.2,0.1c0,0.2-0.2,0.2-0.5,0.2c-0.6,0-3.3-0.1-4.2-0.2c-0.6-0.1-0.7-0.1-0.7-0.3
		c0.3-0.2,0.3-0.6,0.3-1.1L19,64l-6.3,13.2c-0.5,1.1-0.6,1.3-0.8,1.3c-0.2,0-0.3-0.3-0.8-1.2c-0.7-1.2-2.8-5.6-3-5.9
		C7.8,71,5,64.9,4.7,64.3L3.6,76.1c0,0.4,0,0.9,0,1.3c0,0.4,0.3,0.7,0.7,0.8c0.4,0.1,0.8,0.1,1,0.1c0.1,0,0.2,0.1,0.2,0.1
		c0,0.2-0.2,0.2-0.5,0.2c-0.9,0-2.2-0.1-2.4-0.1c-0.2,0-1.4,0.1-2.1,0.1c-0.3,0-0.4-0.1-0.4-0.2c0-0.1,0.1-0.1,0.3-0.1
		c0.2,0,0.4,0,0.8-0.1C1.9,78,1.9,77,2,76.1l1.8-16.6c0-0.3,0.1-0.5,0.3-0.5c0.2,0,0.3,0.1,0.4,0.4l7.8,16l7.5-16
		c0.1-0.2,0.2-0.4,0.4-0.4C20.3,59.1,20.4,59.3,20.5,59.7z M29.6,75.8L35.3,60c0.3-0.8,0.4-1,0.6-1c0.2,0,0.3,0.1,0.6,0.9
		c0.4,1,4.4,11.5,5.9,15.3c0.9,2.3,1.6,2.7,2.2,2.8c0.4,0.1,0.8,0.2,1,0.2c0.2,0,0.3,0,0.3,0.2c0,0.2-0.2,0.2-0.5,0.2
		c-0.4,0-2.2,0-4-0.1c-0.5,0-0.8,0-0.8-0.2c0.3-0.2,0.5-0.5,0.3-0.9l-2.4-6.3c-0.1-0.1-0.1-0.2-0.2-0.2h-5.5c-0.1,0-0.2,0.1-0.3,0.2
		l-1.5,4.5c-0.2,0.6-0.4,1.2-0.4,1.7c0,0.5,0.5,0.7,1,0.7h0.3c0.2,0,0.3,0.1,0.3,0.2c0,0.2-0.2,0.2-0.4,0.2c-0.6,0-1.7-0.1-2-0.1
		c-0.3,0-1.7,0.1-2.9,0.1c-0.3,0-0.5-0.1-0.5-0.2c0-0.1,0.1-0.2,0.2-0.2l0.7-0.1C28.6,78.1,29.1,77.1,29.6,75.8z M33.1,70.2H38
		l-2.3-7c-0.1-0.4-0.3-0.4-0.4,0L33,70L33.1,70.2z M52.4,79c-1.2,0-2.4-0.2-3.4-0.7c-0.4-0.2-0.4-0.3-0.4-1c0-1.3,0.1-2.3,0.1-2.7
		c0-0.3,0.1-0.4,0.2-0.4c0.2,0,0.2,0.1,0.2,0.3c0,0.2,0,0.6,0.1,0.9c0.4,1.9,2.1,2.6,3.8,2.6c2.4,0,3.6-1.8,3.6-3.4
		c0-1.8-0.7-2.8-2.9-4.6l-1.1-0.9c-2.7-2.2-3.3-3.8-3.3-5.5c0-2.7,2-4.6,5.3-4.6c1,0,1.7,0.1,2.4,0.3c0.5,0.1,0.7,0.1,0.9,0.1
		c0.2,0,0.3,0.1,0.3,0.2c0,0.1-0.1,1-0.1,2.7c0,0.4-0.1,0.6-0.2,0.6c-0.2,0-0.2-0.1-0.2-0.3c0-0.3-0.2-1-0.3-1.3
		C57,61,56.3,59.9,54,59.9c-1.8,0-3.1,1.1-3.1,2.9c0,1.4,0.7,2.4,3.1,4.3l0.7,0.6c3,2.4,3.7,3.9,3.7,6c0,1-0.4,3-2.2,4.2
		C55.1,78.7,53.7,79,52.4,79z M74.7,79c-3.8,0-6.4-0.9-8.4-2.7c-2.5-2.2-3.1-5.1-3.1-7.5c0-1.7,0.6-4.7,2.8-6.9
		c1.5-1.5,3.8-2.7,7.8-2.7c1,0,2.4,0.1,3.7,0.3c1,0.2,1.8,0.3,2.6,0.4c0.3,0,0.3,0.1,0.3,0.3c0,0.2-0.1,0.5-0.1,1.4
		c-0.1,0.8-0.1,2.2-0.1,2.6c0,0.4-0.1,0.5-0.2,0.5c-0.2,0-0.2-0.2-0.2-0.5c0-1-0.4-2-1.1-2.6c-0.9-0.8-2.8-1.4-5.1-1.4
		c-3.4,0-5,1-5.8,1.9c-1.9,1.8-2.3,4-2.3,6.6c0,4.9,3.7,9.3,9.2,9.3c1.9,0,3.4-0.2,4.4-1.3c0.5-0.6,0.9-1.7,0.9-2.1
		c0.1-0.3,0.1-0.4,0.3-0.4c0.1,0,0.2,0.2,0.2,0.4c0,0.2-0.3,2.4-0.6,3.3c-0.2,0.5-0.2,0.5-0.7,0.7C78.3,78.8,76.4,79,74.7,79z
		 M84.8,69c0-4.1,3-9.9,10-9.9c5.7,0,10,3.6,10,9.5c0,5.7-4,10.4-10.1,10.4C87.7,79,84.8,73.6,84.8,69z M87.3,68.3
		c0,5.9,3.6,9.7,8.1,9.7c2.3,0,7-1.3,7-8.7c0-6.1-3.7-9.4-7.7-9.4C90.4,59.9,87.3,62.7,87.3,68.3z M116.5,60.5v10.7
		c0,2.4,0,4.4,0.1,5.5c0.1,0.7,0.2,1.3,1,1.4c0.4,0.1,0.9,0.1,1.1,0.1c0.2,0,0.2,0.1,0.2,0.2c0,0.1-0.1,0.2-0.4,0.2
		c-1.4,0-3-0.1-3.1-0.1c-0.1,0-1.7,0.1-2.5,0.1c-0.3,0-0.4-0.1-0.4-0.2c0-0.1,0.1-0.2,0.2-0.2c0.2,0,0.5-0.1,0.8-0.1
		c0.5-0.1,0.6-0.7,0.7-1.4c0.1-1.1,0.1-3.1,0.1-5.5V60.5l-3.8,0.1c-1.6,0-2.2,0.2-2.6,0.8c-0.3,0.4-0.4,0.6-0.4,0.8
		c-0.1,0.2-0.2,0.3-0.3,0.3c-0.1,0-0.1-0.1-0.1-0.2c0-0.3,0.5-2.4,0.6-2.6c0.1-0.2,0.2-0.5,0.3-0.5c0.2,0,0.4,0.3,1.1,0.3
		c0.7,0.1,1.7,0.1,2,0.1h9.5c0.8,0,1.4-0.1,1.8-0.1c0.4-0.1,0.6-0.1,0.7-0.1c0.1,0,0.1,0.2,0.1,0.3c0,0.8-0.1,2.5-0.1,2.8
		c0,0.2-0.1,0.3-0.2,0.3c-0.1,0-0.2-0.1-0.2-0.4l0-0.3c-0.1-0.8-0.7-1.3-3.1-1.4L116.5,60.5z"/>
	<path class="st0" d="M116.7,92.8c0,0.8,0.5,1.3,2.4,1.7c1.9,0.4,2.9,1.1,2.9,2.5c0,1.5-1.3,2.5-3,2.5c-1.4,0-2.5-0.5-3.6-1.4
		l0.6-0.7c0.9,0.8,1.8,1.2,3,1.2c1.2,0,1.9-0.6,1.9-1.5c0-0.8-0.4-1.3-2.3-1.7c-2-0.4-2.9-1.1-2.9-2.5c0-1.4,1.2-2.4,2.9-2.4
		c1.3,0,2.2,0.4,3.1,1.1l-0.6,0.8c-0.8-0.7-1.6-0.9-2.5-0.9C117.4,91.4,116.7,92,116.7,92.8z M26.2,98.2l3.1-7.5h1.1l-3.8,8.8h-0.9
		L22,90.6h1.1L26.2,98.2z M35.6,90.6h1v8.7h-1V90.6z M49,97.6v-7h1v8.7h-0.8l-5.7-7.2v7.2h-1v-8.7h0.9L49,97.6z M62.2,90.6v0.9h-5.3
		v3h4.8v0.9h-4.8v3.1h5.4v0.9h-6.4v-8.7H62.2z M71.2,95.9v3.5h-1v-3.5l-3.6-5.3h1.2l3,4.4l3-4.4h1.1L71.2,95.9z M82.5,90.6l4,8.8
		h-1.1l-1-2.3h-4.8l-1,2.3h-1l4-8.8H82.5z M84,96.2l-2-4.5l-2,4.5H84z M98.7,99.4h-1.2L95,96h-2.5v3.4h-1v-8.7h3.8
		c1.9,0,3.2,1,3.2,2.6c0,1.5-1,2.3-2.4,2.6L98.7,99.4z M97.4,93.3c0-1.1-0.8-1.7-2.2-1.7h-2.7v3.6h2.7
		C96.5,95.1,97.4,94.4,97.4,93.3z M111.6,95c0,2.5-1.9,4.4-4.7,4.4h-3v-8.7h3C109.7,90.6,111.6,92.5,111.6,95z M110.6,95
		c0-1.9-1.4-3.5-3.6-3.5h-2.1v6.9h2.1C109.2,98.5,110.6,97,110.6,95z"/>
</g>
</svg>
