<svg xmlns="http://www.w3.org/2000/svg" viewBox="9304.839 596.063 28.51 21.915">
  <g id="credit-card2" transform="translate(9304.839 596.063)">
    <g id="Group_4479" data-name="Group 4479" transform="translate(0 0)">
      <g id="Group_4478" data-name="Group 4478" transform="translate(0 0)">
        <path id="Path_3340" data-name="Path 3340" d="M26.13,65.692h-2.9V61.6a2.383,2.383,0,0,0-2.38-2.38H2.38A2.383,2.383,0,0,0,0,61.6V72.277a2.383,2.383,0,0,0,2.38,2.38h2.9v4.1a2.383,2.383,0,0,0,2.38,2.38H26.13a2.383,2.383,0,0,0,2.38-2.38V68.072A2.383,2.383,0,0,0,26.13,65.692ZM1.36,61.6a1.021,1.021,0,0,1,1.02-1.02H20.849a1.021,1.021,0,0,1,1.02,1.02v.949H1.36Zm3.921,6.475V73.3H2.38a1.021,1.021,0,0,1-1.02-1.02v-5.22H5.51A2.365,2.365,0,0,0,5.281,68.072ZM1.36,65.7v-1.79H21.869v1.785H7.662c-.046,0-.092,0-.137,0ZM26.13,79.772H7.662a1.021,1.021,0,0,1-1.02-1.02V68.072a1.021,1.021,0,0,1,.937-1.016h14.97a.676.676,0,0,0,.074,0H26.13a1.021,1.021,0,0,1,1.02,1.02v10.68h0A1.021,1.021,0,0,1,26.13,79.772Z" transform="translate(0 -59.217)"/>
      </g>
    </g>
    <g id="Group_4481" data-name="Group 4481" transform="translate(11.569 10.917)">
      <g id="Group_4480" data-name="Group 4480" transform="translate(0 0)">
        <path id="Path_3341" data-name="Path 3341" d="M215.135,255.265a3.262,3.262,0,0,0-2.046.72,3.278,3.278,0,1,0,0,5.117,3.277,3.277,0,1,0,2.046-5.837Zm-2.91,4.785a1.918,1.918,0,1,1,0-3.013,3.267,3.267,0,0,0,0,3.013Zm2.91.411a1.918,1.918,0,1,1,1.918-1.918A1.92,1.92,0,0,1,215.135,260.462Z" transform="translate(-207.76 -255.265)"/>
      </g>
    </g>
  </g>
</svg>
