<svg xmlns="http://www.w3.org/2000/svg" viewBox="9055.794 597 23.02 23.019">
  <g id="clock2" transform="translate(9055.794 597)">
    <g id="Group_4482" data-name="Group 4482" transform="translate(0 0)">
      <path id="Path_3342" data-name="Path 3342" d="M18.11,29.519A11.509,11.509,0,1,0,6.6,18.009,11.516,11.516,0,0,0,18.11,29.519Zm0-21.409a9.9,9.9,0,1,1-9.9,9.9A9.9,9.9,0,0,1,18.11,8.11Z" transform="translate(-6.6 -6.5)"/>
      <path id="Path_3343" data-name="Path 3343" d="M58.515,42.276h3.837a.815.815,0,1,0,0-1.63H59.33V35.915a.815.815,0,0,0-1.63,0v5.546a.806.806,0,0,0,.815.815Z" transform="translate(-47.542 -29.415)"/>
    </g>
  </g>
</svg>
